<?xml version="1.0" encoding="UTF-8" standalone="no"?>
<!-- Created with Inkscape (http://www.inkscape.org/) -->

<svg
   xmlns:dc="http://purl.org/dc/elements/1.1/"
   xmlns:cc="http://creativecommons.org/ns#"
   xmlns:rdf="http://www.w3.org/1999/02/22-rdf-syntax-ns#"
   xmlns:svg="http://www.w3.org/2000/svg"
   xmlns="http://www.w3.org/2000/svg"
   xmlns:sodipodi="http://sodipodi.sourceforge.net/DTD/sodipodi-0.dtd"
   xmlns:inkscape="http://www.inkscape.org/namespaces/inkscape"
   width="199mm"
   height="170mm"
   viewBox="0 0 199 170"
   version="1.1"
   id="svg8"
   inkscape:version="0.92.4 (5da689c313, 2019-01-14)"
   sodipodi:docname="andean_condor.svg">
  <defs
     id="defs2" />
  <sodipodi:namedview
     id="base"
     pagecolor="#ffffff"
     bordercolor="#666666"
     borderopacity="1.0"
     inkscape:pageopacity="0.0"
     inkscape:pageshadow="2"
     inkscape:zoom="1.32"
     inkscape:cx="349.32197"
     inkscape:cy="336.74677"
     inkscape:document-units="mm"
     inkscape:current-layer="layer2"
     showgrid="false"
     inkscape:window-width="1920"
     inkscape:window-height="1009"
     inkscape:window-x="-8"
     inkscape:window-y="-8"
     inkscape:window-maximized="1" />
  <metadata
     id="metadata5">
    <rdf:RDF>
      <cc:Work
         rdf:about="">
        <dc:format>image/svg+xml</dc:format>
        <dc:type
           rdf:resource="http://purl.org/dc/dcmitype/StillImage" />
        <dc:title></dc:title>
      </cc:Work>
    </rdf:RDF>
  </metadata>
  <g
     inkscape:groupmode="layer"
     id="layer2"
     inkscape:label="Layer 2"
     transform="translate(0,-15)"
     style="display:inline">
    <path
       style="opacity:0.8;fill:#17b1d2;fill-opacity:1;stroke:none;stroke-width:0.15000001;stroke-linecap:butt;stroke-linejoin:miter;stroke-miterlimit:4;stroke-dasharray:none;stroke-opacity:1"
       d="m 114.17861,100.9554 c -1.57863,-0.38624 -2.93819,-0.22847 -5.70971,-0.95474 -2.77151,-0.726275 -5.30952,-1.835493 -6.63372,-2.975117 C 98.9166,94.513788 88.202202,83.336367 83.595347,77.455806 78.988492,71.575245 79.338908,70.395674 74.763114,64.666591 70.187319,58.937508 62.557541,51.580068 57.557082,45.837349 52.556622,40.094631 50.254574,36.461534 44.864463,30.161547 42.224319,27.075734 39.570098,24.80253 39.375223,24.585619 38.782492,23.925862 35.06135,20.968076 35.06135,20.968076 c 0,0 1.040892,3.549004 1.345047,4.127958 0.304155,0.578954 12.289921,15.675211 12.289921,15.675211 0,0 -0.762241,-0.382151 -3.94828,-3.111261 -3.186039,-2.72911 -10.443699,-9.20666 -12.758738,-11.10933 -3.533208,-2.903852 -2.763158,-2.309629 -4.309157,-3.418852 -1.545999,-1.109222 -5.118084,-3.416811 -5.118084,-3.416811 0,0 0.981501,2.548923 2.434816,4.893227 0.844073,1.361553 5.633657,5.633329 9.365013,9.09213 2.693244,2.496517 4.757488,4.636082 4.757488,4.636082 0,0 -4.479342,-2.565934 -6.53265,-3.411633 -1.210255,-0.49847 -3.134956,-1.212173 -4.187618,-1.504766 -1.052661,-0.292592 -1.500292,-0.255418 -1.500292,-0.255418 0,0 1.201939,1.290249 2.726959,2.573147 1.525021,1.282899 6.571823,4.91736 6.571823,4.91736 0,0 -11.823004,-6.120869 -16.156981,-7.843282 -4.333977,-1.722412 -8.12139,-2.383229 -8.12139,-2.383229 0,0 2.992938,2.449346 5.725709,4.29548 2.732771,1.846133 4.925441,2.967441 6.822616,4.095122 4.859625,2.88856 16.669466,8.74621 16.669466,8.74621 0,0 -5.561856,-2.003043 -11.387585,-4.237659 -3.65544,-1.402143 -8.403347,-3.485976 -10.631155,-4.217175 -5.778298,-1.89652 -12.2307196,-3.441226 -12.2307196,-3.441226 0,0 0.9640173,1.313941 2.8974735,3.107127 0.8431311,0.781963 2.0718871,1.112329 3.6120521,1.722435 1.991718,0.78898 4.210618,1.719843 6.905696,2.893664 4.779138,2.081516 17.518029,7.117923 17.518029,7.117923 0,0 -3.394356,-0.561454 -7.307928,-1.401966 C 27.469629,48.454949 24.112414,47.550183 21.793165,47.140157 16.4914,46.202844 6.0293319,44.875182 6.0293319,44.875182 c 0,0 2.5241776,2.351877 3.7336688,2.759885 1.2094913,0.408008 13.6214533,3.066546 17.4326263,4.208716 3.811173,1.142171 6.172581,2.144547 6.172581,2.144547 0,0 -11.740139,-1.742734 -16.358945,-2.07649 -4.618807,-0.333755 -11.5129469,-0.451425 -11.5129469,-0.451425 0,0 0.4336126,1.007229 4.2429476,2.458836 3.8093353,1.451607 19.1540273,3.941331 19.1540273,3.941331 0,0 -10.304555,0.278654 -13.79152,0.605227 -3.486965,0.326573 -3.530923,0.925596 -3.530923,0.925596 0,0 2.055802,1.244974 3.316211,1.786099 1.26041,0.541126 2.196084,0.771557 3.919065,1.144828 1.722981,0.37327 3.710593,0.755269 3.710593,0.755269 0,0 -0.313193,0.336614 0.903,1.808841 1.216194,1.472228 3.2703,0.99752 3.2703,0.99752 0,0 -0.959803,1.516027 -0.55661,2.249754 0.403192,0.733726 1.785815,0.881395 1.785815,0.881395 0,0 0.08429,2.218004 0.510131,3.200085 0.425841,0.982082 1.218364,1.05985 1.855465,2.504176 0.637101,1.444327 -0.05443,2.438387 0.208232,3.476828 0.262664,1.03844 1.123431,1.140584 1.4842,2.158359 0.360769,1.017774 0.06111,1.357424 0.534678,2.073988 0.199709,0.302181 0.834685,-0.105234 0.984852,0.299482 0.312649,0.842627 -0.08013,2.053599 0.327598,2.65227 0.407728,0.598671 0.819654,0.747743 0.819654,0.747743 0,0 0.160186,2.293592 0.881256,2.922774 0.721069,0.629181 4.01055,-0.255845 4.01055,-0.255845 0,0 -1.273707,2.31498 -0.578784,3.432051 0.694923,1.117071 1.067357,0.642183 1.412725,1.172535 0.345368,0.530352 0.122042,1.458256 0.535269,1.886975 0.413227,0.428719 1.1722,-0.420211 1.532872,0.496435 0.251951,0.640332 0.12898,1.485671 0.311721,1.735034 0.501583,0.684445 0.501981,0.270727 0.682756,0.598631 0.180775,0.327903 -0.06369,0.690254 0.208942,1.322164 0.272634,0.631914 0.844079,1.189954 1.435846,1.935294 0.266364,0.3355 0.537635,0.34104 0.69707,0.59235 0.513645,0.80963 0.528625,1.88508 1.160412,2.36561 0.631787,0.48052 1.36078,0.036 1.877351,0.53287 0.516571,0.49684 1.082212,2.78756 1.690652,3.44861 0.60844,0.66105 0.835232,0.46371 1.184648,0.81824 0.349416,0.35453 0.266314,0.59824 0.860552,1.28544 0.526972,0.60941 1.361312,1.28879 1.75947,1.68298 0.847141,0.83869 1.226022,1.88526 2.088,2.17996 0.861979,0.2947 1.447624,0.17585 2.017075,0.3471 0.569451,0.17125 0.51637,0.54666 0.968005,1.2069 0.451635,0.66024 0.842164,1.28563 1.094836,1.55256 0.64111,0.67729 0.49124,0.5819 1.762362,1.11407 1.271122,0.53216 3.495226,1.34886 4.799132,1.48349 1.303906,0.13464 0.858923,0.18375 1.972727,0.39443 1.113804,0.21068 0.696647,0.65274 1.048988,1.18767 0.315521,0.47903 0.781814,0.97047 0.713234,1.20024 -0.107026,0.35857 -7.037265,1.07167 -14.355518,1.67599 -4.284441,0.35381 -8.573334,0.32049 -11.794908,0.57535 -2.722675,0.21539 -4.497666,0.64656 -4.621214,0.94846 -0.519436,1.26928 0.963509,1.4822 1.715458,2.20271 0.75195,0.72051 0.318214,1.07046 -0.230403,1.62349 -0.548617,0.55304 -1.575826,0.88315 -1.554132,2.04081 0.02169,1.15766 1.947852,2.11018 1.947852,2.11018 0,0 -0.315823,0.96364 0,1.78553 0.315823,0.82189 1.116856,2.07446 2.342001,2.59742 1.225146,0.52297 4.198884,-0.11626 4.198884,-0.11626 0,0 -2.299728,1.04273 -2.669628,2.50445 -0.3699,1.46172 1.06974,1.90412 1.670686,2.55123 0.600947,0.64711 1.312641,1.17782 1.762221,1.69215 0.269685,0.30853 0.03399,1.36602 0.05001,2.52361 0.01069,0.77218 0.207984,1.406 0.52991,1.6966 0.804534,0.72623 1.368263,-0.28876 2.040242,0.2095 0.671979,0.49826 0.557897,2.0537 1.219578,2.41556 0.661681,0.36187 1.809512,-0.18585 1.809512,-0.18585 0,0 0.204138,0.46974 0.656253,0.73785 0.452116,0.2681 1.995611,0.20879 1.995611,0.20879 0,0 1.159126,1.81233 3.3155,2.64334 2.156374,0.83101 3.946984,-0.32689 4.523242,0.0236 0.368053,0.22385 0.384952,1.11988 0.950597,1.9581 0.319982,0.47418 1.067637,0.96136 1.530271,1.21995 0.555779,0.31066 1.640742,0.69785 2.587266,0.88497 1.476714,0.29192 2.81581,0.2962 2.81581,0.2962 0,0 0.764039,1.05966 1.345472,1.34561 0.581433,0.28596 1.356706,-0.13944 1.874078,-0.0165 0.517372,0.12295 0.662275,0.72637 1.140374,1.08252 0.478099,0.35616 1.278293,0.79812 2.062275,0.71936 0.783983,-0.0788 2.17894,-1.33165 2.45969,-1.76265 0.09466,-0.14533 0.715062,-2.65303 1.588028,-5.94417 0.543871,-2.05043 1.258452,-4.25928 1.8543,-6.51007 1.284164,-4.85087 2.354608,-9.38988 2.354608,-9.38988 0,0 0.572255,0.73412 0.836109,0.93434 0.263854,0.20021 0.421379,-0.0806 0.830901,0.0831 0.265748,0.10626 0.188804,0.67263 0.366826,1.01143 0.09631,0.18329 0.431122,0.16888 0.562328,0.27726 0.184424,0.15233 0.311505,0.39859 0.552022,0.5151 0.246876,0.11958 0.607059,0.10991 0.783002,0.30779 0.350083,0.39373 0.181182,1.12424 0.666298,1.43328 0.485117,0.30904 1.449345,-0.14964 1.980575,0.26286 0.53123,0.4125 0.172262,0.98291 0.637551,1.4181 0.465289,0.4352 1.778564,0.11256 2.231427,0.43863 0.452863,0.32607 -0.06133,0.6833 0.508123,0.96033 0.569454,0.27702 1.935924,0.23401 2.851383,0.45378 0.91546,0.21977 1.67489,0.80863 2.24744,1.2056 0.57255,0.39697 0.67487,0.6572 1.06575,0.8133 0.39087,0.1561 0.94511,-0.30682 1.51878,-0.0871 0.57367,0.21974 0.60695,0.80003 1.05859,0.96432 0.45164,0.1643 0.74304,-0.30352 1.21917,-0.10626 0.47613,0.19727 0.34515,1.02205 0.83648,1.26552 0.49134,0.24348 1.15478,-0.0699 1.82557,0.19493 0.67079,0.26481 0.91377,1.36448 1.53953,1.63063 0.62576,0.26614 1.48045,0.19893 1.48045,0.19893 0,0 0.51063,0.81789 0.98108,1.01225 0.47046,0.19436 1.11793,-0.24779 1.64421,-0.0288 0.52629,0.21905 0.39878,0.69844 0.90758,0.80931 0.50879,0.11087 0.90725,-0.65744 1.67779,0.004 0.77055,0.66144 0.11984,0.86053 0.72223,1.23435 0.60239,0.37382 1.96043,0.42248 3.0679,0.64155 1.10748,0.21908 2.51776,-0.0236 3.26958,0.51559 0.75182,0.53915 -0.33372,0.85983 1.00885,1.19832 1.34256,0.33849 4.51168,0.0911 5.74962,0.63366 1.23793,0.54256 0.59954,0.5715 1.12073,0.71949 0.52119,0.14799 1.84592,-0.0455 1.84592,-0.0455 0,0 1.30801,0.0812 1.94909,0.22337 0.64108,0.14217 1.26381,0.50675 1.87621,0.6267 0.6124,0.11995 1.19645,-0.0486 2.07795,0.26372 0.66511,0.23563 0.9772,0.8157 1.44024,0.99356 1.07673,0.4136 2.75972,1.44862 2.75972,1.44862 0,0 0.29743,4.42037 1.75827,6.98228 1.46084,2.5619 3.07282,3.0381 3.07282,3.0381 0,0 0.64844,-1.38466 1.02466,-3.07507 0.37622,-1.69041 0.82986,-7.10101 0.82986,-7.10101 0,0 0.11155,7.24742 1.16884,9.98828 1.05729,2.74086 4.39736,6.16167 4.39736,6.16167 0,0 0.81374,-2.68661 1.09111,-5.70159 0.27737,-3.01497 -0.0693,-12.36101 -0.0693,-12.36101 0,0 3.05472,12.64969 3.8253,14.23862 0.77058,1.58893 4.85448,5.14853 4.85448,5.14853 0,0 0.93141,-2.08943 0.45844,-6.52989 -0.47297,-4.44046 -4.14408,-19.23276 -4.14408,-19.23276 0,0 5.70024,15.85888 6.94151,17.6736 1.24127,1.81472 4.88525,4.35265 4.88525,4.35265 0,0 1.16526,-2.47253 0.28669,-6.61879 -0.87857,-4.14626 -6.90679,-16.15127 -6.90679,-16.15127 0,0 7.04745,12.24044 8.31287,13.52689 1.26542,1.28646 5.07568,3.69432 5.07568,3.69432 0,0 0.42321,-1.83749 -0.79325,-5.72321 -1.21647,-3.88573 -8.98252,-15.74834 -8.98252,-15.74834 0,0 6.47376,6.86365 9.457,8.9257 2.98324,2.06205 7.87179,3.83267 7.87179,3.83267 0,0 0.0549,-1.79954 -2.70116,-5.09567 -2.7561,-3.29613 -9.96093,-9.01934 -9.96093,-9.01934 l 12.15553,6.98833 c 0,0 -1.23597,-2.67148 -2.66646,-4.51361 -1.43049,-1.84212 -7.24161,-5.13117 -7.24161,-5.13117 0,0 2.87444,0.74647 6.3755,1.1762 3.50106,0.42974 7.21085,-0.50656 7.21085,-0.50656 0,0 -9.50711,-1.61018 -13.20129,-3.05072 -2.58671,-1.00868 -3.83829,-1.63861 -6.54162,-3.21059 -1.15743,-0.67304 -2.52749,-1.73271 -4.47016,-2.71762 -6.48009,-3.28531 -9.83896,-5.63207 -12.65859,-6.91774 -7.32963,-3.3421 -9.48668,-3.81738 -14.76844,-6.2674 -5.28176,-2.45002 -17.31422,-9.1327 -17.31422,-9.1327 0,0 1.80687,-0.22439 2.32164,-0.75249 0.51477,-0.5281 0.0607,-1.29382 0.56338,-1.90266 0.50265,-0.60885 1.22341,-0.65744 2.15857,-1.04719 0.93517,-0.38976 2.20548,-0.38415 2.93316,-0.84205 0.72768,-0.45791 0.94478,-0.96697 1.46693,-1.15067 0.52215,-0.1837 1.13706,-0.10152 1.39856,0.0451 0.26151,0.14661 0.5394,0.45338 0.97948,0.58906 0.44008,0.13567 1.50028,0.11999 1.50028,0.11999 l 0.1331,1.03554 c 0,0 0.91844,-0.80653 0.99561,-1.23581 0.0772,-0.42928 0.0983,-1.6005 -0.13266,-2.00412 -0.23093,-0.40362 -1.15575,-1.46208 -1.15575,-1.46208 0,0 -1.01549,-3.20411 -2.12748,-4.48586 -0.67357,-0.7764 -1.27772,-1.17904 -1.99163,-1.59858 -0.7139,-0.41954 -1.58442,-1.062413 -2.65744,-1.470193 -1.07302,-0.407787 -2.46848,-0.101086 -3.13124,0.165463 -0.32382,0.130232 -0.40215,0.8495 -0.35441,1.18784 0.0478,0.33833 0.14715,0.7292 0.14715,0.7292 0,0 -1.24459,0.30453 -2.68031,0.23312 -1.43573,-0.0714 -4.87009,-1.43745 -5.57423,-1.11138 -0.70413,0.32607 -1.42213,1.60993 -1.42213,1.60993 0,0 -1.82934,-0.77291 -3.40796,-1.15916 z"
       id="path827"
       inkscape:connector-curvature="0"
       sodipodi:nodetypes="czszzzssczczszcsscszczczczscsscssscssczzczczczczzczczczzzzsszczczzzsszzsszzzzsszzzszzzssssszzzczzczzssszzczczssssczzzzsssczssssszzzzzzzzzzzzzzczzzzzzzzzzczzssczczczczczczczczczczczczcczczcsssszczzzzzzzcczzcszzszczzczc" />
  </g>
</svg>
