<?xml version="1.0" encoding="UTF-8" standalone="no"?>
<!-- Created with Inkscape (http://www.inkscape.org/) -->

<svg
   xmlns:dc="http://purl.org/dc/elements/1.1/"
   xmlns:cc="http://creativecommons.org/ns#"
   xmlns:rdf="http://www.w3.org/1999/02/22-rdf-syntax-ns#"
   xmlns:svg="http://www.w3.org/2000/svg"
   xmlns="http://www.w3.org/2000/svg"
   xmlns:sodipodi="http://sodipodi.sourceforge.net/DTD/sodipodi-0.dtd"
   xmlns:inkscape="http://www.inkscape.org/namespaces/inkscape"
   width="190mm"
   height="125mm"
   viewBox="0 0 190 125"
   version="1.1"
   id="svg8"
   inkscape:version="0.92.4 (5da689c313, 2019-01-14)"
   sodipodi:docname="jaguar.svg">
  <defs
     id="defs2" />
  <sodipodi:namedview
     id="base"
     pagecolor="#ffffff"
     bordercolor="#666666"
     borderopacity="1.0"
     inkscape:pageopacity="0.0"
     inkscape:pageshadow="2"
     inkscape:zoom="1.0824912"
     inkscape:cx="320.92999"
     inkscape:cy="298.60888"
     inkscape:document-units="mm"
     inkscape:current-layer="layer2"
     showgrid="false"
     inkscape:window-width="1920"
     inkscape:window-height="1009"
     inkscape:window-x="-8"
     inkscape:window-y="-8"
     inkscape:window-maximized="1" />
  <metadata
     id="metadata5">
    <rdf:RDF>
      <cc:Work
         rdf:about="">
        <dc:format>image/svg+xml</dc:format>
        <dc:type
           rdf:resource="http://purl.org/dc/dcmitype/StillImage" />
        <dc:title></dc:title>
      </cc:Work>
    </rdf:RDF>
  </metadata>
  <g
     inkscape:groupmode="layer"
     id="layer2"
     inkscape:label="Layer 2"
     transform="translate(0,-172)"
     style="display:inline;opacity:1">
    <path
       style="fill:#e53e2c;fill-opacity:1;stroke:none;stroke-width:0.15000001;stroke-linecap:butt;stroke-linejoin:miter;stroke-miterlimit:4;stroke-dasharray:none;stroke-opacity:1;opacity:0.8"
       d="m 127.3259,200.34223 c -1.59052,-0.18194 -3.73321,-0.58419 -5.97199,-1.05178 -0.46591,-0.0973 -1.06416,-0.0265 -1.53428,-0.12811 -0.40864,-0.0883 -0.65493,-0.30186 -0.99941,-0.3996 -0.22954,-0.0651 -0.5502,-0.0155 -0.81758,-0.075 -0.74704,-0.16634 -1.07187,-0.42709 -1.77975,-0.59971 -0.89787,-0.21896 -1.93941,-0.21515 -2.79552,-0.38169 -0.95566,-0.18592 -1.22056,-0.44958 -1.78222,-0.55523 -0.67423,-0.12683 -1.50914,-0.0648 -2.47166,-0.15803 -1.16697,-0.11302 -2.52153,-0.27854 -4.00475,-0.35541 -3.17152,-0.16436 -6.931268,-0.17773 -10.703159,-0.19485 -3.793393,-0.0172 -8.576249,0.0637 -13.25588,0.17284 -3.944464,0.092 -7.786885,0.0413 -11.189919,0.44502 -2.310277,0.2741 -4.981428,0.90161 -7.665895,1.33744 -1.171105,0.19013 -2.784091,0.17457 -3.849362,0.29679 -0.276714,0.0317 -0.301309,0.22562 -0.536319,0.26696 -0.193901,0.0341 -0.85574,-0.0354 -1.045219,-0.007 -0.251378,0.0376 -0.199733,0.19797 -0.368125,0.24968 -0.240753,0.0739 -0.590999,-0.0356 -0.92184,0.0182 -0.103624,0.0168 -0.192499,0.16531 -0.292026,0.19181 -0.239892,0.0639 -0.509112,-5.5e-4 -0.723947,0.0631 -0.33134,0.0981 -0.534719,0.48234 -0.816045,0.58268 -0.502896,0.17936 -1.268903,0.19071 -1.677788,0.35199 -0.868321,0.34249 -1.815954,0.86243 -2.32045,1.08512 -0.504495,0.22269 -0.758079,0.0343 -0.948231,0.1082 -0.231971,0.0901 -0.04886,0.33121 -0.210958,0.45215 -0.121017,0.0903 -0.566831,0.0632 -0.806693,0.12861 -0.316953,0.0864 -0.52716,0.29124 -0.831649,0.3855 -0.45534,0.14097 -1.67013,0.22978 -2.110825,0.3779 -0.194424,0.0654 -0.254506,0.37366 -0.437869,0.44041 -0.579988,0.21114 -1.30634,0.18064 -1.8426,0.36653 -1.358736,0.47099 -2.514871,1.03906 -4.360918,1.39897 -1.961911,0.38249 -3.488864,0.94494 -5.523993,1.21903 -1.778308,0.23951 -4.058753,-0.0195 -5.878481,-0.18418 -4.731665,-0.42807 -9.317042,-1.37121 -12.746477,-4.21739 -3.429435,-2.84619 -3.834241,-3.94587 -4.3845397,-6.64006 -0.3081897,-1.50886 -0.219358,-3.81475 0.3957787,-5.66143 0.483237,-1.4507 1.264376,-2.6207 2.186897,-3.87837 0.564988,-0.77025 1.52828,-1.61181 2.467085,-2.49346 0.851037,-0.79922 1.659873,-1.64463 2.543844,-2.25358 1.759918,-1.21236 3.301893,-1.73313 3.646395,-2.24485 0.708418,-1.05227 1.004353,-2.842 0.139181,-3.7028 -0.865172,-0.8608 -1.095749,-0.85497 -2.426692,-1.16755 -1.330943,-0.31258 -2.41978,0.34349 -3.643152,1.41465 -1.223373,1.07116 -2.264419,2.25438 -3.883953,3.92657 -0.355406,0.36696 -0.830507,0.79652 -1.087417,1.06205 -0.2569097,0.26552 -0.4586967,-0.23554 -0.8031224,0.006 -0.302693,0.21228 -0.151454,1.00849 -0.8307807,1.74911 -0.6793244,0.74063 -1.6165518,2.08801 -2.3980184,3.47706 -0.1290892,0.22945 -0.1629378,-0.78212 -0.2914837,-0.56005 -0.1452616,0.25095 -0.4522118,0.87619 -0.5010246,1.30922 -0.039635,0.35162 0.100251,0.48178 -0.1158733,0.99637 -0.050047,0.11916 -0.3073661,-0.62552 -0.4022436,-0.45761 -0.1562471,0.27653 -0.075182,1.08488 -0.2137934,1.60934 -0.2974239,1.12535 -0.5889696,0.13628 -0.6950421,0.43837 -0.3319972,0.94549 -0.2953457,2.4366 -0.3666951,3.59178 -0.1872142,3.03107 0.5688387,7.59563 1.999613,10.59514 0.4117854,0.86328 0.9077364,1.60113 1.4140441,2.35452 1.2528924,1.86431 2.6961385,3.44301 4.0116812,4.47129 0.989381,0.77334 3.171275,1.82086 5.743249,2.88631 0.761219,0.31534 1.169088,0.61237 2.057704,0.92088 0.302002,0.10485 0.130793,0.48123 0.368526,0.55817 0.237734,0.077 0.480822,0.0683 0.913529,0.0618 0.378882,-0.006 0.418612,-0.0563 0.915212,0.0281 0.67823,0.11529 0.482143,0.34373 0.740036,0.41407 0.278301,0.0759 0.436074,-0.10249 0.82333,0.004 0.5873,0.16198 1.247616,0.24647 1.748274,0.32647 0.140658,0.0225 0.263345,-0.0166 0.464981,0.004 0.177522,0.0181 0.279387,0.06 0.320363,0.12251 0.07253,0.11062 -0.232622,0.49606 -0.129719,0.51107 0.235905,0.0344 0.680741,-0.44332 1.00185,-0.39375 0.440996,0.0681 -0.04906,0.42097 0.229239,0.47314 0.174593,0.0327 0.594726,-0.2481 0.872398,-0.29481 0.35992,-0.0605 0.698114,0.1163 0.9328,0.12483 0.975066,0.0354 1.958109,-0.0942 2.925368,0.1328 0.485613,0.11395 -0.200146,0.78926 5.87e-4,0.79053 0.189523,10e-4 0.984047,-0.77973 1.169473,-0.78279 0.198113,-0.003 -0.624916,0.96603 -0.432925,0.95742 0.29398,-0.0132 1.186642,-0.85633 1.873535,-1.03512 0.325634,-0.0848 -0.78258,1.17341 -0.487891,1.11469 0.255186,-0.0508 1.211926,-1.03969 1.94108,-1.35706 0.41029,-0.17858 1.046647,-0.28177 1.42137,-0.35198 0.527204,-0.0988 0.912057,0.0418 1.307761,-0.0213 0.347668,-0.0554 0.720737,-0.31914 0.972531,-0.33986 0.489403,-0.0403 0.802687,-0.009 0.959211,0.11943 0.162308,0.13281 0.147847,0.79413 0.233002,1.5837 0.08915,0.82656 0.276719,1.79486 0.398885,2.49912 0.238866,1.377 0.497606,2.55521 0.836705,4.16243 0.339099,1.60722 0.922509,5.18854 1.918892,7.58091 0.337673,0.81077 0.456732,0.9138 1.234736,1.99893 0.778004,1.08512 0.779042,0.94504 1.774778,3.10148 0.25813,0.55902 0.762923,1.48103 1.148927,2.57695 0.384497,1.09164 0.582363,2.35906 0.935196,3.51477 0.65934,2.15969 0.714404,1.51799 1.291616,4.38743 0.248289,1.2343 0.573275,3.89428 0.834799,6.41209 0.116573,1.12231 0.247298,1.86075 0.237521,2.42662 -0.01928,1.1159 -0.298684,1.48917 -0.306174,2.31074 -0.01129,1.23818 0.15055,1.63637 -0.01008,2.69151 -0.04061,0.26676 -0.518459,1.30035 -0.778095,2.57523 -0.208746,1.02501 -0.145039,2.17971 -0.597698,3.41689 -1.015673,2.77598 -2.751021,4.66927 -2.956753,5.69843 -0.205733,1.02916 0.471316,3.64199 1.26162,6.57876 0.24402,0.90678 -0.01533,1.84489 0.730821,3.8465 0.746149,2.00161 2.190728,5.4826 2.845656,6.34485 0.654928,0.86224 2.371177,2.45793 2.619783,3.16226 0.248607,0.70432 -0.113595,2.34973 0.316962,2.62233 0.449725,0.28474 12.86162,-0.0539 12.86162,-0.0539 l -3.764091,-4.59321 c 0,0 -0.686202,0.28043 -1.034885,0.18576 -0.348683,-0.0947 -0.518957,-0.28284 -0.935978,-0.3989 -0.417021,-0.11606 -1.279463,-0.0108 -1.564328,-0.22044 -0.13848,-0.10192 -0.606101,-1.66496 -1.200204,-3.14896 -0.62802,-1.56873 -0.967787,-2.64195 -1.061639,-3.11315 -0.09385,-0.4712 -0.455199,-3.49366 -0.172568,-3.5696 0.186636,-0.0501 3.070806,5.38114 3.739756,6.79523 0.66895,1.41409 0.471687,0.98625 1.472264,2.40531 1.000576,1.41906 4.771724,5.91264 4.771724,5.91264 l 13.909521,-0.15119 c 0,0 0.788095,-1.34416 0.832666,-1.7774 0.04457,-0.43324 -0.647515,-2.29154 -0.94403,-2.51937 -0.296516,-0.22783 -1.586734,-0.96121 -2.08495,-0.95955 -0.498216,0.002 -1.587325,0.0189 -2.739704,-0.03 -1.152379,-0.0489 -1.96499,-0.32904 -2.169933,-0.45892 -0.221636,-0.14045 -1.613657,-1.21388 -2.780443,-2.52664 -1.32259,-1.48805 -2.427631,-3.24202 -2.521567,-3.53425 -0.176804,-0.55005 -0.276677,-7.28193 -0.132745,-7.84053 0.03961,-0.15372 0.586274,-1.20429 1.10776,-2.89661 0.883746,-2.86793 2.084586,-6.91073 2.904337,-9.55229 0.454294,-1.46392 0.09338,-0.95155 0.705834,-3.14803 0.276651,-0.99217 1.107189,-3.03642 1.687311,-5.13995 0.308809,-1.11975 0.604768,-2.09505 0.786943,-2.9748 0.233226,-1.12628 0.108846,-0.82285 0.272947,-1.81562 0.04739,-0.28668 0.374815,-0.81345 0.374815,-0.81345 0,0 0.03813,-0.30349 0.133794,-0.403 0.09566,-0.0995 0.361921,-0.0431 0.361921,-0.0431 0,0 0.02452,-0.29423 0.222148,-0.35135 0.197623,-0.0571 0.570991,0.4505 0.570991,0.4505 0,0 -0.113671,-0.84053 0.09042,-0.862 0.10159,-0.0107 0.198472,0.31422 0.473368,0.73854 0.274896,0.42432 0.22177,0.83597 0.423049,0.81516 0.222611,-0.023 0.140157,-0.74177 0.360302,-0.79291 0.22764,-0.0529 0.73485,0.94392 0.73485,0.94392 0,0 0.164493,-0.24845 0.372932,-0.23271 0.208438,0.0157 0.618493,0.53014 0.618493,0.53014 0,0 0.09078,-0.13981 0.278148,-0.0992 0.187368,0.0406 0.614136,0.59486 0.614136,0.59486 l 0.278147,-0.25635 c 0,0 0.419208,0.31603 0.646494,0.58636 0.227287,0.27033 0.601281,1.00406 0.601281,1.00406 0,0 0.468253,-0.0367 0.704785,0.0539 0.236532,0.0907 0.644427,0.49571 0.644427,0.49571 0,0 0.157039,-0.4046 0.366504,-0.45694 0.08758,-0.0219 0.341369,0.21659 0.657266,0.41366 0.439603,0.27423 0.959081,0.53899 0.959081,0.53899 l 0.09914,-0.54528 c 0,0 1.026959,0.76396 1.543136,1.00427 0.516176,0.24032 1.480713,0.48286 1.480713,0.48286 0,0 0.392093,-0.42538 0.551711,-0.46978 0.227484,-0.0633 0.491123,0.0785 0.836285,0.22193 0.345162,0.14339 1.18971,0.694 1.18971,0.694 0,0 0.165055,-0.368 0.346998,-0.39657 0.181943,-0.0286 0.495713,0.29742 0.495713,0.29742 0,0 0.376738,-0.28991 0.594857,-0.29742 0.218119,-0.008 0.594855,0.24785 0.594855,0.24785 0,0 0.15877,-0.12541 0.398862,-0.0796 0.240091,0.0458 0.88999,0.57535 0.88999,0.57535 0,0 0.180335,-0.39143 0.39657,-0.39658 0.216235,-0.005 0.545285,0.49572 0.545285,0.49572 0,0 0.386239,-0.49917 0.635717,-0.48493 0.24947,0.0142 0.504427,0.48493 0.504427,0.48493 l 0.24786,-0.44614 0.446137,0.74357 c 0,0 0.287687,-0.0618 0.601507,-0.0927 0.313807,-0.0309 0.887744,-0.11969 1.282191,-0.056 0.39445,0.0637 0.652255,0.26989 1.008635,0.4505 0.35638,0.18061 0.91938,0.55241 1.25235,0.694 0.33297,0.14159 0.47135,0.14687 0.84271,0.24786 0.37137,0.10099 0.80322,0.2644 1.25857,0.29306 0.45535,0.0287 0.95131,-0.18128 1.43757,-0.14871 0.48626,0.0326 1.07221,0.28433 1.38364,0.26071 0.31143,-0.0236 0.58017,-0.1085 0.84707,-0.21114 0.2669,-0.10264 0.77707,-0.29736 1.17501,-0.39657 0.39795,-0.0992 0.95472,-0.0824 1.49564,-0.0688 0.54091,0.0136 1.23567,0.22218 1.74119,0.168 0.50552,-0.0542 1.09285,-0.34502 1.63837,-0.49366 0.54551,-0.14863 1.41554,-0.50938 1.5794,-0.3447 0.0961,0.0965 0.0309,0.88434 -0.004,1.68338 -0.0244,0.56402 -0.0172,1.15521 -0.0719,1.49126 -0.1322,0.81209 -0.31994,0.91605 -0.38556,1.48484 -0.0656,0.56879 0.0868,1.3481 0.0193,1.87957 -0.0675,0.53147 -0.32453,0.78738 -0.347,1.28886 -0.0225,0.50148 -0.0477,4.65153 -0.0991,6.14683 -0.0514,1.4953 -0.19038,1.95681 -0.12714,2.77164 0.0632,0.81483 0.33315,1.51545 0.33828,2.09714 0.005,0.58169 -0.22433,0.95013 -0.2155,1.28449 0.009,0.33435 0.0559,0.59049 0.0559,0.59049 0,0 -0.2552,0.16133 -0.31028,0.40736 -0.0551,0.24603 0.20908,0.97857 0.20908,0.97857 0,0 -0.2152,0.14657 -0.25222,0.38372 -0.037,0.23715 0.25779,0.65953 0.12485,0.91157 -0.13294,0.25203 -0.36834,0.24142 -0.36834,0.24142 l 0.34699,0.44614 c 0,0 -0.37808,0.20591 -0.375,0.38786 0.003,0.18195 0.27586,0.45486 0.27586,0.45486 0,0 -0.38996,0.28916 -0.39657,0.49571 -0.007,0.20655 0.347,0.49571 0.347,0.49571 0,0 -0.96886,1.15026 -1.04329,1.72443 -0.0744,0.57418 0.34929,1.39856 0.34929,1.39856 0,0 -0.26683,0.11868 -0.28665,0.50651 -0.0198,0.38783 0.65423,1.0207 0.65728,1.52156 0.003,0.50085 -0.37038,0.78969 -0.40069,1.15735 -0.0303,0.36766 0.0426,0.6271 0.004,0.929 -0.0385,0.3019 -0.3076,0.51965 -0.23271,0.73485 0.0749,0.2152 0.26406,0.28529 0.34264,0.5563 0.0786,0.271 -0.18158,0.43919 -0.24786,0.99349 -0.0663,0.5543 -0.1418,1.6989 -0.0388,2.19606 0.10299,0.49716 0.22978,0.32445 0.35136,0.77385 0.054,0.19966 -0.0495,0.50192 -0.004,0.82779 0.0573,0.4076 0.26914,0.83387 0.40696,0.93292 0.24799,0.17824 0.62316,-0.0319 1.30126,0.009 0.22832,0.0137 0.72332,0.17222 1.13644,0.21914 0.81378,0.0924 1.22108,0.11979 1.80385,-0.004 0.58277,-0.12342 1.11566,-0.55569 1.63793,-0.62262 0.52226,-0.0669 1.19641,0.0666 1.76114,0.14641 0.56474,0.0798 1.12965,0.24573 1.77357,0.30386 0.64391,0.0581 1.34098,-0.0376 1.9934,-0.0755 0.65243,-0.0379 1.42561,-0.23686 1.92043,-0.15077 0.49482,0.0861 0.72264,0.4536 0.99143,0.44614 0.26879,-0.007 0.67059,-0.23772 0.89434,-0.49571 0.22376,-0.25799 0.28867,-0.69779 0.26508,-0.97858 -0.0236,-0.28079 -0.55538,-0.81619 -0.66371,-1.10342 -0.0602,-0.33 -0.12999,-0.62765 -0.24782,-0.94185 0,0 -0.3457,-0.79132 -0.59485,-1.14014 -0.18254,-0.25557 -0.30023,-0.4366 -0.64879,-0.68321 -0.34856,-0.24661 -0.89771,-0.11374 -1.48278,-0.60564 -0.58507,-0.4919 -1.3936,-2.03444 -1.4892,-2.51735 -0.0956,-0.48292 0.24696,-1.60678 0.27356,-2.43978 0.0266,-0.833 -0.0883,-1.87451 0.039,-2.51735 0.12735,-0.64285 0.16156,-0.19156 0.49342,-1.29964 0.14089,-0.47044 0.34937,-1.59084 0.59231,-2.63763 0.32929,-1.41884 0.57553,-1.94273 0.68576,-2.76564 0.11023,-0.82291 -0.0277,-1.53653 0.13589,-2.23943 0.16354,-0.7029 0.53075,-1.13424 0.80599,-1.92456 0.27524,-0.79032 0.52018,-1.92202 0.70685,-2.82556 0.18667,-0.90354 0.3788,-1.79279 0.48722,-2.51299 0.10842,-0.72021 0.10229,-1.13173 0.29101,-1.8105 0.0727,-0.26155 0.31328,-0.60919 0.47547,-0.97752 0.2587,-0.58752 0.27737,-0.60112 0.45123,-1.17768 0.17386,-0.57656 0.40244,-2.00989 0.59922,-2.29543 0.19678,-0.28554 2.77422,-2.47513 3.17753,-2.6199 0.15687,-0.0563 0.83787,0.13916 1.61154,0.2077 1.21539,0.10766 1.69829,0.18501 2.65947,0.13192 0.96118,-0.0531 3.07342,-0.49571 3.07342,-0.49571 0,0 -0.29009,1.20117 -0.38937,1.80632 -0.0993,0.60516 -0.20782,0.8086 -0.21972,1.82662 -0.006,0.54169 0.018,1.38215 0.065,2.11062 0.0413,0.64056 0.16009,1.03279 0.18925,1.46914 0.0623,0.9326 0.0638,1.4808 0.0638,1.4808 0,0 0.17486,0.60314 0.18631,0.95233 0.0115,0.3492 -0.10089,0.71508 -0.10089,0.71508 0,0 0.23706,0.10269 0.25366,0.448 0.0166,0.34531 -0.1185,0.75127 -0.1185,0.75127 l 0.55878,3.09487 c 0,0 0.10659,1.51831 0.29321,2.6159 0.18662,1.0976 0.62538,2.86539 0.75286,4.06642 0.12748,1.20104 0.0623,2.52905 0.0612,2.94012 -10e-4,0.41107 0.0749,0.39886 0.0689,0.61736 -0.004,0.15024 -0.14579,0.18651 -0.1588,0.39499 -0.013,0.20848 0.17297,0.43211 0.19829,0.79788 0.0253,0.36577 0.002,0.94874 -0.0395,1.4824 -0.0418,0.53366 -0.0119,0.98797 -0.12932,1.50808 -0.11742,0.5201 -0.5437,1.65599 -0.5437,1.65599 0,0 -0.41264,1.39691 -0.39657,2.18114 0.0161,0.78423 0.54528,2.42899 0.54528,2.42899 0,0 0.0642,1.19073 0.39657,1.58628 0.33234,0.39555 1.12038,0.35498 1.33843,0.59486 0.21805,0.23988 0.10244,0.68198 0.53915,1.01078 0.4367,0.32881 1.44938,0.20396 2.1997,0.18821 0.75032,-0.0157 1.53187,-0.24967 2.43906,-0.24628 0.9072,0.003 2.01286,0.29841 2.95178,0.38571 0.93892,0.0873 1.82188,0.18568 2.67685,0.14872 0.85497,-0.037 1.76476,-0.17282 2.3887,-0.4175 0.62395,-0.24469 0.8794,-0.38836 1.31907,-0.80165 0.43967,-0.41328 1.12725,-1.29556 1.19899,-1.62577 0.0717,-0.33022 0.0349,-0.9297 -0.0984,-1.17036 -0.13326,-0.24066 -0.47061,-0.84991 -0.694,-1.04099 -0.22339,-0.19108 -1.52532,-0.68308 -2.26942,-0.89071 -0.7441,-0.20763 -1.43713,-0.30772 -2.14242,-0.39815 -0.70529,-0.0904 -1.94548,-0.0828 -2.14243,-0.19907 -0.19695,-0.11625 -1.12891,-3.3458 -1.22842,-3.8162 -0.0995,-0.4704 0.37021,-1.75811 0.79314,-3.56913 0.42293,-1.81102 1.0511,-4.33701 1.78457,-7.28698 0.73347,-2.94997 2.62727,-10.40997 2.62727,-10.40997 0,0 1.51963,-5.80408 1.58629,-6.24598 0.0667,-0.4419 -0.12054,-2.75034 -0.0496,-3.22213 0.0709,-0.47179 0.69872,-2.44102 1.16107,-4.04392 0.46236,-1.60289 1.03691,-3.31292 1.56457,-5.60313 0.52766,-2.2902 1.04008,-5.94145 1.48792,-8.14904 0.44784,-2.20759 0.99498,-3.94338 1.18287,-4.94918 0.18788,-1.0058 0.0164,-1.01385 0.0984,-1.61973 0.16304,-1.2038 0.20407,-1.61493 0.354,-2.48156 0.0594,-0.34343 0.0965,-0.90758 0.13666,-1.3948 0.0613,-0.74225 -0.0313,-0.91747 -0.0454,-1.3527 -0.0141,-0.43522 -0.0658,-0.48496 0.0302,-1.09057 0.0416,-0.26214 0.25177,-0.63317 0.33145,-1.09894 0.1044,-0.61029 0.0237,-0.77336 0.0766,-1.30156 0.0529,-0.52821 -0.10337,-0.64245 0.26433,-1.86263 0.16861,-0.55953 0.82678,-1.60357 1.40477,-2.77178 0.57799,-1.16821 0.56647,-1.65935 0.95985,-2.30502 0.39338,-0.64566 0.2893,-1.15497 0.86953,-1.29514 0.58022,-0.14016 1.27752,0.10451 1.77939,0.28837 0.50187,0.18385 0.98269,0.47652 1.5173,0.66551 0.5346,0.18898 1.14359,0.25194 1.69799,0.51051 0.5544,0.25857 0.89294,0.61988 1.42961,0.79886 0.53667,0.17898 1.36618,0.23649 2.07793,0.51274 0.71176,0.27625 1.33905,0.76809 2.05812,0.9818 0.71908,0.21372 1.42164,0.27192 2.12473,0.1772 0.70309,-0.0947 1.37271,-0.43506 1.86947,-0.75725 0.49676,-0.3222 0.78865,-0.70457 1.15493,-1.26149 0.36628,-0.55691 0.60049,-1.50028 0.79943,-1.76014 0.19895,-0.25985 0.82903,-0.52586 0.82903,-0.52586 0,0 0.51409,-0.35522 0.89228,-0.94186 0.37819,-0.58664 0.90401,-1.83339 0.89117,-2.44897 -0.0128,-0.61557 -0.24674,-0.97144 -0.24674,-0.97144 0,0 0.35048,-0.18458 0.49627,-0.4541 0.14579,-0.26952 0.0405,-1.34791 0.0348,-1.7681 -0.006,-0.42019 -0.0354,-0.75208 -0.0354,-0.75208 0,0 0.26815,-0.48859 0.35328,-0.97201 0.0851,-0.48343 -0.0372,-0.88867 -0.50199,-1.70484 -0.46482,-0.81617 -1.9026,-1.78412 -2.51334,-2.91102 -0.1478,-0.27271 -0.32337,-0.36197 -0.57337,-1.05887 -0.25001,-0.6969 -0.46292,-2.14782 -0.6391,-2.56667 -0.23242,-0.55259 -0.47875,-0.84419 -0.51513,-1.21764 -0.0364,-0.37345 0.0727,-0.55476 -0.002,-0.94241 -0.0744,-0.38765 -0.65709,-0.4909 -0.886,-0.97552 -0.22891,-0.48462 -0.1646,-1.24282 -0.55953,-2.06314 -0.39492,-0.82031 -1.63982,-1.47203 -1.67138,-2.3 -0.0316,-0.82797 0.5583,-1.02169 0.78462,-2.17727 0.22632,-1.15558 0.0468,-4.66009 -0.72745,-5.08999 -0.67282,-0.37356 -1.87753,0.72188 -2.87874,1.36392 -1.0012,0.64204 -1.64284,1.47322 -1.99922,1.55339 -0.35638,0.0802 -1.93844,-0.74971 -3.33496,-1.15326 -0.57761,-0.16691 -1.32509,-0.25488 -1.90253,-0.42748 -0.81868,-0.24471 -1.45382,-0.55884 -2.14305,-0.6409 -1.17539,-0.13994 -1.87091,0.01 -2.86963,0.0108 -0.99873,9e-4 -2.12461,-0.28332 -3.34087,-0.11739 -1.21625,0.16593 -1.47067,0.94758 -1.47067,0.94758 0,0 -0.6799,-0.068 -0.99143,0.0222 -0.31153,0.0902 -0.76576,0.46038 -0.76576,0.46038 0,0 -1.28613,-0.51662 -2.0491,-0.33874 -0.76297,0.17788 -1.40889,0.51056 -1.93013,1.14906 -0.52123,0.6385 -0.35974,2.05113 -0.89467,2.6876 -0.53493,0.63646 -0.84299,0.80888 -1.5761,1.47456 -0.26491,0.24054 -0.5719,0.32847 -1.0197,0.74291 -0.79146,0.73249 -0.63799,0.73794 -1.69359,1.71975 -0.36012,0.33495 -0.90676,0.67611 -1.38734,1.15698 -0.92813,0.92867 -1.95982,2.10629 -3.3789,2.85885 -0.65606,0.34792 -1.56487,0.82808 -2.41851,1.04256 -0.85364,0.21447 -1.62801,0.17442 -2.37375,0.35095 -1.69371,0.40094 -1.94093,0.43164 -2.80361,0.70161 -0.86267,0.26997 -1.33852,0.47822 -2.36989,0.89573 -1.03138,0.41751 -1.51108,0.53508 -2.25155,0.96397 -1.83352,1.06199 -2.0217,1.92699 -4.17756,1.68038 z"
       id="path827"
       inkscape:connector-curvature="0"
       sodipodi:nodetypes="csssssssssssssssssssssszsssssssssszsssssszzzszszssssssssssssszssssssssssssssssssssssssszszsssssssssszszzzscczzsszszzcczzzzssssssssssczczcszssczczcczczcsscczcszczczczczczccczzzzzzzzzzzzzssszzzzzzzczczzcczczczczzzzzzzzssssszzzzzzzzzccazzzzzsszzzzzsszzsszczsssczczcczzzszzzzczczzzzzzzzzzzzzzzzzzczzzzzzssszsszszzzzzzzzzzzzzczzczzczzszszzzzzzszzssszzczczzzssssszszzssc" />
  </g>
</svg>
