<?xml version="1.0" encoding="UTF-8" standalone="no"?>
<!-- Created with Inkscape (http://www.inkscape.org/) -->

<svg
   xmlns:dc="http://purl.org/dc/elements/1.1/"
   xmlns:cc="http://creativecommons.org/ns#"
   xmlns:rdf="http://www.w3.org/1999/02/22-rdf-syntax-ns#"
   xmlns:svg="http://www.w3.org/2000/svg"
   xmlns="http://www.w3.org/2000/svg"
   xmlns:sodipodi="http://sodipodi.sourceforge.net/DTD/sodipodi-0.dtd"
   xmlns:inkscape="http://www.inkscape.org/namespaces/inkscape"
   width="115mm"
   height="292mm"
   viewBox="0 0 115 292"
   version="1.1"
   id="svg8"
   inkscape:version="0.92.4 (5da689c313, 2019-01-14)"
   sodipodi:docname="scarlet_macaw.svg">
  <defs
     id="defs2">
    <marker
       inkscape:stockid="Arrow1Lstart"
       orient="auto"
       refY="0"
       refX="0"
       id="Arrow1Lstart"
       style="overflow:visible"
       inkscape:isstock="true">
      <path
         id="path840"
         d="M 0,0 5,-5 -12.5,0 5,5 Z"
         style="fill:#000000;fill-opacity:1;fill-rule:evenodd;stroke:#000000;stroke-width:1.00000003pt;stroke-opacity:1"
         transform="matrix(0.8,0,0,0.8,10,0)"
         inkscape:connector-curvature="0" />
    </marker>
  </defs>
  <sodipodi:namedview
     id="base"
     pagecolor="#ffffff"
     bordercolor="#666666"
     borderopacity="1.0"
     inkscape:pageopacity="0.0"
     inkscape:pageshadow="2"
     inkscape:zoom="0.54115914"
     inkscape:cx="-179.0293"
     inkscape:cy="522.91565"
     inkscape:document-units="mm"
     inkscape:current-layer="layer2"
     showgrid="false"
     inkscape:window-width="1920"
     inkscape:window-height="1009"
     inkscape:window-x="-8"
     inkscape:window-y="-8"
     inkscape:window-maximized="1" />
  <metadata
     id="metadata5">
    <rdf:RDF>
      <cc:Work
         rdf:about="">
        <dc:format>image/svg+xml</dc:format>
        <dc:type
           rdf:resource="http://purl.org/dc/dcmitype/StillImage" />
        <dc:title></dc:title>
      </cc:Work>
    </rdf:RDF>
  </metadata>
  <g
     inkscape:groupmode="layer"
     id="layer2"
     inkscape:label="Layer 2"
     style="display:inline">
    <path
       style="opacity:0.8;fill:#fbf832;fill-opacity:1;stroke:none;stroke-width:0.15000001;stroke-linecap:butt;stroke-linejoin:miter;stroke-miterlimit:4;stroke-dasharray:none;stroke-opacity:1"
       d="m 36.790526,68.562598 c -0.802012,1.642336 -1.521792,3.719611 -2.821707,6.688944 -0.793713,1.813041 -1.923532,3.795727 -2.388602,5.326982 -1.69368,5.576487 -2.399749,11.332945 -3.687659,16.517597 -1.28791,5.184649 -3.346675,9.112979 -3.901597,14.030389 -0.138654,1.22868 -0.315635,1.37054 -0.737015,3.50356 -0.421381,2.13302 -1.217961,5.45564 -1.081662,5.84314 0.178582,0.50771 0.775369,0.30625 0.775369,0.30625 0,0 0.10553,4.85219 -0.82669,9.46249 -0.932219,4.61029 -4.677335,15.43387 -5.124179,16.54346 -0.446844,1.10959 0.135822,2.44512 -0.193082,3.59556 -0.328903,1.15043 -0.819176,1.66764 -1.077267,2.43826 -0.25809,0.77062 0.09943,0.78486 -0.394936,2.37263 -0.494364,1.58778 -2.037532,5.635 -1.971421,7.85586 0.06611,2.22086 0.574712,3.04107 1.113333,3.08914 0.538621,0.0481 0.904557,-1.52057 1.459721,-1.47197 0.636674,0.0557 0.521764,1.24711 1.247607,2.34297 0.930258,1.40447 1.535285,2.05751 2.922325,2.06279 1.38704,0.005 4.098904,-3.46352 4.098904,-3.46352 0,0 -0.395671,1.02093 -2.59788,14.16927 -0.822133,4.90856 -1.425918,11.62124 -3.64462,26.29682 -2.218702,14.67558 -5.768569,36.97422 -6.192768,38.54463 -0.424199,1.57041 -0.880008,2.97246 -0.935105,3.59608 -0.0551,0.62362 -0.170865,4.53292 -0.458488,8.349 -0.215881,2.86423 -0.3890027,7.24657 -0.5802887,9.62957 -0.191287,2.383 -0.264558,3.23483 -0.3809647,4.49288 -0.466689,5.04364 -1.5222764,14.27847 -1.5222764,14.27847 0,0 0.6805047,-0.91866 1.2990174,-4.15909 1.4861524,-7.78606 4.4797754,-22.37033 4.6212514,-23.01768 0.194336,-0.88922 0.303769,-1.9308 0.798845,-3.30039 0.609994,-1.6875 1.084529,-4.20031 1.658521,-6.24973 1.025048,-3.65991 1.61311,-4.95346 2.390048,-7.53141 2.32821,-7.72522 5.116223,-19.67128 7.542402,-30.73526 2.426178,-11.06398 3.213765,-15.59678 3.437422,-16.22467 0.582168,-1.63437 1.442917,-2.35676 1.940659,-3.3559 0.144764,-0.29059 3.64528,-11.24978 6.564488,-23.10195 2.919209,-11.85216 4.720876,-23.19404 5.208748,-24.14508 0.249059,-0.48551 2.21032,-2.15361 4.390323,-4.40074 2.180003,-2.24713 4.552932,-4.93873 6.09877,-6.75272 1.246852,-1.46314 2.526019,-2.8605 4.301923,-5.21695 1.775903,-2.35645 3.891133,-5.52021 4.092366,-5.60179 0.332522,-0.13481 1.016991,0.0712 2.463551,0.0494 0.972864,-0.0147 1.92863,-0.17462 2.144395,0.19926 0.195643,0.33895 -0.390673,1.00628 -1.790927,1.43777 -1.400253,0.43149 -2.668031,-0.61256 -2.668031,-0.61256 0,0 0.132135,0.90792 0.999797,1.34574 0.867662,0.43782 2.171183,0.92812 3.806684,-0.30917 0.820287,-0.62056 0.995566,-1.27967 1.640108,-1.21016 0.682831,0.0736 0.635049,0.76109 2.241331,1.45481 1.606282,0.69372 3.027643,-0.16516 3.199176,0.24125 0.142031,0.33651 -0.71918,1.237 -1.856551,1.25123 -1.13737,0.0142 -2.606675,-1.25183 -2.606675,-1.25183 0,0 0.580397,1.61285 1.910531,1.97585 1.330134,0.36299 3.173755,0.30977 4.503151,-0.97277 1.329396,-1.28254 3.168951,-3.76304 3.784779,-5.70026 0.615828,-1.93722 0.731368,-3.37491 0.595519,-5.1505 -0.135849,-1.7756 -0.743308,-3.22007 -1.767801,-4.23131 -1.024494,-1.01124 -1.897842,-1.53356 -3.359608,-1.84056 -1.461766,-0.307 -5.300358,-0.12416 -5.300358,-0.12416 0,0 3.116921,-4.76226 5.087731,-8.465742 1.97081,-3.703479 2.879339,-5.866599 3.883881,-7.658788 2.59535,-4.630325 3.010723,-5.303031 3.173893,-5.292914 0.444354,0.02755 0.472966,0.957362 0.813052,1.733159 0.340087,0.775798 0.819862,1.372979 1.055691,1.435365 0.490731,0.129819 1.936297,-1.224743 2.997014,-3.004528 1.060718,-1.779786 2.042626,-3.627286 2.600273,-7.302039 0.336193,-2.215424 0.2272,-5.597121 0.01035,-8.701222 -0.142843,-2.044711 -0.24855,-4.009217 -0.187491,-5.387239 0.153753,-3.470013 0.265394,-5.480052 0.797316,-6.463806 0.24564,-0.454295 0.896124,-0.445984 1.298707,-1.207599 0.402583,-0.761615 0.792433,-2.229265 1.203261,-2.85137 0.382564,-0.579306 0.837356,-0.959791 0.947276,-1.269769 0.10992,-0.309978 0.002,-4.791121 0.346777,-5.045081 0.34514,-0.25396 1.589291,1.861744 1.859381,1.710381 0.270087,-0.151363 -1.500401,-4.636639 -1.474631,-5.413566 0.0258,-0.776927 0.735904,-1.66568 0.904314,-2.787184 0.1684,-1.121504 0.356497,-1.980199 -0.11291,-3.481519 -0.226437,-0.724211 -1.100424,-1.474478 -1.637201,-1.986113 -0.536777,-0.511636 -0.881591,-1.037794 -0.881591,-1.037794 0,0 4.121873,-1.220313 5.693224,-2.307766 1.571351,-1.087452 2.744641,-1.771051 2.744641,-1.771051 0,0 0.0516,1.814029 -0.27251,3.109619 -0.32412,1.29559 -1.659964,4.289268 -1.659964,4.289268 0,0 1.197254,-0.760654 2.308564,-1.629055 1.35953,-1.062359 2.73994,-2.360728 3.49655,-3.552074 1.37509,-2.165186 2.11834,-4.873534 2.17964,-7.203787 0.0613,-2.330252 -1.25471,-10.109447 -1.25471,-10.109447 0,0 0.34103,-0.841213 0.27581,-1.586249 -0.0652,-0.745036 -0.18606,-2.054612 -0.9611,-2.930717 -0.77504,-0.876105 -2.70695,-1.6130776 -3.49383,-1.549234 -0.78688,0.06384 -2.767054,-1.0348553 -3.907098,-1.2768057 -0.593357,-0.086219 -1.467621,-0.1847316 -1.467621,-0.1847316 0,0 -2.358578,-0.7287268 -3.036892,-0.7372801 -0.678316,-0.00855 -0.663086,0.1530256 -1.024745,0.08783 C 92.116824,7.828485 86.738035,7.4189274 86.258713,7.6466637 85.779392,7.8744 86.04803,8.3168784 86.04803,8.3168784 c 0,0 -2.795338,-0.5175252 -3.809995,-0.3021288 -1.014656,0.2153965 -1.499112,0.5693126 -1.798739,0.9021155 -0.299626,0.3328028 -0.433094,0.9650525 -0.668182,1.2695919 -0.235088,0.30454 -4.369894,1.074654 -4.479801,1.56867 -0.109908,0.494015 0.53037,0.441363 0.53037,0.441363 0,0 -8.991616,3.682399 -9.330335,4.337313 -0.338718,0.654914 0.389304,1.463328 0.389304,1.463328 0,0 -1.819911,1.261731 -2.082092,2.045758 -0.262181,0.784027 0.02061,1.708515 0.02061,1.708515 0,0 -2.63704,1.987912 -2.632459,2.806808 0.0046,0.818896 1.008677,1.109748 1.008677,1.109748 0,0 -1.138014,0.475884 -1.288369,1.023795 -0.150354,0.547911 0.463283,1.102769 0.217341,1.565026 -0.227791,0.428139 -4.146396,4.37714 -4.016446,4.789634 0.151117,0.479679 1.206865,0.157535 1.568688,0.71193 0.361824,0.554396 -0.832453,1.453668 -0.888179,2.100275 -0.05573,0.646607 -0.114992,1.31923 -0.114992,1.31923 0,0 -1.105705,0.812459 -1.363525,1.419769 -0.25782,0.60731 -0.52908,1.82349 -0.52908,1.82349 0,0 -0.833537,1.089111 -1.026066,1.825235 -0.19253,0.736123 -0.660814,2.387332 -0.660814,2.387332 0,0 -2.257346,3.05119 -3.607011,4.592256 -1.349665,1.541066 -2.876866,3.372858 -4.141325,4.44861 -1.264459,1.075752 -2.272558,0.510357 -3.229329,2.156213 -0.956771,1.645856 -0.506342,2.688107 -1.559846,4.479717 -1.053504,1.79161 -2.292697,2.583893 -3.726575,5.069276 -0.51382,0.969632 -1.56326,2.237731 -2.039334,3.18285 z"
       id="path838"
       inkscape:connector-curvature="0"
       sodipodi:nodetypes="csszszsczzzzzzzsszcszzzszscssssszsszszszssszczsszszczzzzzzczsszszsssszszzzzzszczczcsszczzzcczzzczzzzczczczczsszzczczczzzzcc" />
  </g>
</svg>
