<?xml version="1.0" encoding="UTF-8" standalone="no"?>
<!-- Created with Inkscape (http://www.inkscape.org/) -->

<svg
   xmlns:dc="http://purl.org/dc/elements/1.1/"
   xmlns:cc="http://creativecommons.org/ns#"
   xmlns:rdf="http://www.w3.org/1999/02/22-rdf-syntax-ns#"
   xmlns:svg="http://www.w3.org/2000/svg"
   xmlns="http://www.w3.org/2000/svg"
   xmlns:sodipodi="http://sodipodi.sourceforge.net/DTD/sodipodi-0.dtd"
   xmlns:inkscape="http://www.inkscape.org/namespaces/inkscape"
   width="212mm"
   height="51mm"
   viewBox="0 0 212 51"
   version="1.1"
   id="svg8"
   inkscape:version="0.92.4 (5da689c313, 2019-01-14)"
   sodipodi:docname="american_alligator.svg">
  <defs
     id="defs2" />
  <sodipodi:namedview
     id="base"
     pagecolor="#ffffff"
     bordercolor="#666666"
     borderopacity="1.0"
     inkscape:pageopacity="0.0"
     inkscape:pageshadow="2"
     inkscape:zoom="1.4465947"
     inkscape:cx="150.80344"
     inkscape:cy="101.86828"
     inkscape:document-units="mm"
     inkscape:current-layer="layer2"
     showgrid="false"
     inkscape:window-width="1920"
     inkscape:window-height="1009"
     inkscape:window-x="-8"
     inkscape:window-y="-8"
     inkscape:window-maximized="1" />
  <metadata
     id="metadata5">
    <rdf:RDF>
      <cc:Work
         rdf:about="">
        <dc:format>image/svg+xml</dc:format>
        <dc:type
           rdf:resource="http://purl.org/dc/dcmitype/StillImage" />
        <dc:title></dc:title>
      </cc:Work>
    </rdf:RDF>
  </metadata>
  <g
     inkscape:groupmode="layer"
     id="layer2"
     inkscape:label="Layer 2"
     style="display:inline">
    <path
       style="opacity:0.8;fill:#32a1b5;fill-opacity:1;stroke:none;stroke-width:0.15000001;stroke-linecap:butt;stroke-linejoin:miter;stroke-miterlimit:4;stroke-dasharray:none;stroke-opacity:1"
       d="m 4.7896467,24.911842 c 0.6239645,-0.725839 1.4744814,-1.624163 1.9610664,-2.085214 0.486585,-0.461051 3.3387999,-0.353756 3.4872769,-0.316331 0.148477,0.03742 0.277442,0.254642 0.373009,0.305628 0.121774,0.06497 1.837965,0.01505 1.955491,-0.06151 0.117525,-0.07655 0.446743,-0.221949 0.830117,-0.305203 0.383375,-0.08325 2.557814,-0.161717 3.898446,-0.454123 0.166222,-0.03626 0.257379,0.05194 0.429219,-0.01016 0.179804,-0.06499 0.332529,-0.241833 0.551314,-0.338024 0.184554,-0.08114 0.44384,-0.04011 0.586564,-0.117529 0.144252,-0.07824 0.219435,-0.252302 0.395367,-0.270856 0.175932,-0.01855 0.220962,0.05999 0.577902,-0.182706 0.354264,-0.240879 0.537225,-0.237623 0.704385,-0.232462 0.09176,0.0028 0.510973,-0.0021 0.616716,-0.04817 0.07965,-0.03465 0.172598,-0.469951 0.292347,-0.542001 0.171871,-0.103411 0.239723,-0.0474 0.379901,-0.184503 0.140177,-0.137103 0.734955,-1.059169 0.943849,-1.177451 0.208894,-0.118281 0.547082,-0.0264 0.696739,-0.157053 0.149657,-0.130644 0.11235,-0.524167 0.22133,-0.752364 0.108979,-0.228198 0.25717,-0.275668 0.305874,-0.356776 0.0487,-0.08111 -0.0087,-0.239638 0.04881,-0.372633 0.05752,-0.132995 0.274664,-0.07553 0.369346,-0.393053 0.04406,-0.147775 0.0762,-0.319007 0.223648,-0.42778 0.191188,-0.141046 0.606987,-0.171672 0.976935,-0.217693 0.316494,-0.03937 0.594756,-0.101697 0.722141,-0.124004 0.775317,-0.135768 1.302105,0.350487 1.600145,0.295797 0.29804,-0.05469 0.499464,-0.387926 1.31748,-0.436343 0.818017,-0.04842 1.133332,0.04412 1.535903,0.0089 0.402572,-0.03525 0.405886,-0.145365 1.019578,-0.221693 0.235201,-0.02925 0.429747,0.04581 1.058386,0.102363 0.628638,0.05656 1.521496,0.03556 1.732044,-0.02839 0.210549,-0.06395 0.510876,-0.290696 0.668449,-0.299079 0.157573,-0.0084 0.5728,0.130019 0.722929,0.187807 0.150129,0.05779 1.254371,-0.0154 1.352872,-0.06678 0.0985,-0.05138 0.190718,-0.318067 0.309994,-0.34652 0.119275,-0.02845 0.324519,0.08211 0.393541,0.07053 0.06902,-0.01158 0.03927,-0.145633 0.125686,-0.200468 0.08642,-0.05484 0.312539,0.03407 0.374741,-0.04523 0.07885,-0.100517 0.03036,-0.314195 0.112011,-0.401443 0.08165,-0.08725 0.593626,-0.102983 0.698071,-0.03321 0.104445,0.0698 0.134983,0.528423 0.347826,0.584964 0.212838,0.05654 0.480787,-0.263856 0.653197,-0.320684 0.172411,-0.05683 0.4982,-0.08011 0.695327,0.0022 0.197127,0.0823 0.294252,0.211355 0.381986,0.270863 0.09106,0.06177 0.387383,-0.03263 0.565616,-0.03719 0.178234,-0.0046 0.277263,0.0465 0.448397,0.03954 0.171134,-0.007 0.404185,-0.03198 0.583219,-0.04749 0.179034,-0.01552 0.383615,0.08198 0.500501,0.03019 0.100483,-0.04449 0.200407,-0.223971 0.299401,-0.240538 0.09899,-0.01657 0.294904,0.04828 0.377673,0.0057 0.03065,-0.01576 0.177592,-0.313205 0.328667,-0.449366 0.121519,-0.109522 0.251001,-0.342692 0.417385,-0.409985 0.151445,-0.06125 0.4018,-0.04078 0.548982,-0.02283 0.147182,0.01796 0.371366,0.144367 0.633955,0.19175 0.262588,0.04738 0.824716,0.195107 0.909757,0.244817 0.10948,0.064 0.40325,0.541462 0.718503,0.545317 0.211087,0.0026 0.40335,-0.24374 0.780499,-0.57094 0.377149,-0.3272 0.7625,-0.656413 1.095913,-0.628729 0.333413,0.02768 0.831053,0.507854 1.078638,0.544433 0.247585,0.03658 0.787905,-0.325231 1.194978,-0.09891 0.407073,0.226324 0.553212,0.812847 0.73933,0.843151 0.481258,0.07836 0.637309,-0.163957 1.044319,-0.189945 0.312104,-0.01993 0.488524,0.17533 0.630741,0.09853 0.327679,-0.176943 0.635165,-0.692087 1.133404,-0.940114 0.117615,-0.05855 0.27096,-0.0031 0.437864,-0.02572 0.166904,-0.02263 0.290575,-0.127356 0.491029,-0.149464 0.28941,-0.03192 0.679321,0.0092 0.941915,-0.09462 0.58182,-0.229922 0.962814,-0.668951 1.489943,-0.817292 0.527128,-0.148342 1.327855,-0.09064 1.530937,-0.152541 0.203082,-0.0619 0.687433,-0.496252 1.049807,-0.596056 0.362373,-0.0998 0.54431,0.05015 0.921673,-0.06121 0.377363,-0.111364 0.663848,-0.400434 0.961212,-0.488216 0.297365,-0.08778 0.430546,-0.17443 0.829135,-0.05582 0.184333,0.05485 0.240305,0.12767 0.522991,-0.148737 0.282687,-0.276406 0.885492,-0.533084 1.186715,-0.577622 0.501723,-0.07418 0.983171,0.192604 1.178533,0.148414 0.195362,-0.04419 0.37995,-0.300847 0.696188,-0.424736 0.323973,-0.126919 0.747215,0.07316 0.930021,4.32e-4 0.182807,-0.07273 0.210669,-0.249156 0.415405,-0.309508 0.204738,-0.06035 0.55233,-0.09269 0.656969,-0.06702 0.349466,0.03576 0.397603,0.291786 0.78587,0.224756 0.388267,-0.06703 0.258015,-0.220439 0.546564,-0.346241 0.28855,-0.125802 0.359044,-0.149314 0.553208,-0.163239 0.194163,-0.01393 0.39548,0.138121 0.568078,0.130582 0.172597,-0.0075 0.425457,-0.2399991 0.674688,-0.2955171 0.24923,-0.055518 0.766667,0.015939 0.978213,-0.047258 0.271908,-0.206186 0.367286,-0.417913 0.555178,-0.6350693 0.143285,-0.071544 0.38322,-0.060342 0.522871,-0.029276 0.139651,0.031066 0.537778,0.2647495 0.789539,0.2330599 0.251761,-0.03169 0.638839,-0.1061291 0.638839,-0.1061291 l 0.737437,0.1938999 c 0,0 0.380137,-0.5066419 0.865353,-0.6020181 0.206525,-0.040596 0.695093,0.05745 1.141405,0.06631 0.263881,0.00524 0.485207,-0.094788 0.700039,-0.072272 0.275485,0.028873 0.240713,0.1456807 0.481058,0.1379822 0.240345,-0.0077 0.539699,-0.2284322 0.887345,-0.2232838 0.347646,0.00515 0.715492,0.1922515 0.933548,0.1912484 0.218055,-10e-4 0.467152,-0.1187786 0.467152,-0.1187786 l 0.517442,0.092618 c 0,0 0.420925,-0.3034954 0.734257,-0.3221323 0.313332,-0.018637 1.385926,0.00736 1.699298,0.018117 0.313372,0.010759 1.298009,0.1375732 1.298009,0.1375732 0,0 0.254117,-0.1748478 0.429728,-0.2301914 0.192625,-0.060705 0.886222,0.1971565 1.373024,0.1758392 0.486802,-0.021317 2.20851,-0.115718 2.367181,-0.00534 0.15867,0.1103828 0.146114,0.4093491 0.285815,0.4321909 0.139701,0.022842 0.166463,-0.1189873 0.325902,-0.1713 0.15944,-0.052313 0.403691,0.091333 0.558566,0.027217 0.154875,-0.064115 0.152919,-0.160715 0.307508,-0.196847 0.09158,-0.021406 0.362537,0.090493 0.631929,0.137039 0.185334,0.032022 0.369928,-0.012573 0.494867,0.031498 0.306544,0.1081316 0.593699,0.2224454 1.05134,0.251555 0.457641,0.02911 1.107144,-0.2453426 1.510333,-0.087213 0.403189,0.1581294 0.522008,0.5372954 0.759188,0.6080368 0.23718,0.070741 0.796598,-0.1048823 1.234542,-0.096187 0.437944,0.0087 0.940413,0.041196 1.261616,0.1628829 0.321203,0.1216866 0.446212,0.2557583 0.642059,0.3024173 0.19585,0.04666 0.28328,-0.02413 0.49808,0.01374 0.2148,0.03787 0.59871,0.138573 0.76892,0.256047 0.1702,0.117474 0.27199,0.333596 0.27199,0.333596 0,0 1.05372,-0.07799 1.40925,-0.08481 0.35553,-0.0068 0.47568,0.190446 0.66155,0.218893 0.18588,0.02845 0.7642,-0.0025 1.10098,0.110412 0.33678,0.112933 0.64508,0.433284 0.85711,0.491043 0.21204,0.05776 0.59784,-0.02219 0.9757,0.0673 0.37787,0.0895 0.75908,0.629939 1.21,0.682725 0.45092,0.05279 0.87363,-0.278661 1.23067,-0.113696 0.35705,0.164965 0.16054,0.546995 0.46443,0.715714 0.30389,0.168719 1.44248,-0.118758 1.62715,-0.0045 0.18468,0.11427 0.0583,0.304199 0.22238,0.391475 0.16403,0.08728 0.42016,-0.150592 0.60279,-0.05827 0.18263,0.09232 0.25813,0.469668 0.25813,0.469668 0,0 0.35843,0.0569 0.55974,0.04086 0.20132,-0.01603 0.36318,-0.151793 0.63308,-0.149444 0.26991,0.0023 0.47923,0.09918 0.72532,0.248554 0.24608,0.149373 0.36825,0.49003 0.71846,0.586167 0.35022,0.09614 1.12801,-0.158968 1.33709,-0.08615 0.20908,0.07281 0.30235,0.160985 0.39227,0.281046 0.0899,0.120062 0.0664,0.274661 0.13787,0.394037 0.0964,0.160971 0.29504,0.311259 0.42646,0.399399 0.13141,0.08814 0.31737,0.12765 0.70058,0.147693 0.38321,0.02004 1.02413,0.07033 1.42111,0.178762 0.39698,0.108437 0.46976,0.390668 0.69893,0.435082 0.22917,0.04441 0.32672,-0.08138 0.5044,-0.02859 0.17768,0.05279 0.27477,0.244155 0.43183,0.302577 0.15707,0.05842 0.30244,-0.08978 0.46464,0.01933 0.16221,0.109111 0.0858,0.516274 0.28376,0.630097 0.19799,0.113822 1.06298,0.17179 1.25088,0.148137 0.18791,-0.02365 0.37996,-0.104475 0.65337,-0.163211 0.27341,-0.05874 0.47953,0.01068 0.66751,0.131249 0.18797,0.120566 0.29695,0.283766 0.35641,0.47811 0.0595,0.194344 -0.0881,0.468136 -0.008,0.586742 0.0956,0.14118 0.47008,0.1124 0.70235,0.0863 0.23227,-0.0261 0.9015,-0.40767 1.2178,-0.242754 0.10711,0.05585 0.11854,0.363107 0.18085,0.619671 0.0393,0.162049 0.14651,0.258528 0.14991,0.402133 0.004,0.186118 -0.23538,0.318441 -0.13642,0.447026 0.099,0.128585 0.65014,-0.142685 0.86763,-0.190897 0.21748,-0.04821 0.61659,-0.05855 0.77186,-0.08322 0.15527,-0.02467 0.33059,-0.151373 0.49298,-0.160659 0.36326,-0.02077 1.01119,0.11313 1.20683,0.426347 0.19563,0.313218 -0.15676,0.935937 -0.15676,0.935937 l -0.25593,0.25284 c 0,0 0.33664,-0.06256 0.49787,-0.0586 0.16123,0.004 0.29353,0.05274 0.40529,0.03962 0.11176,-0.01312 0.21626,-0.110136 0.35376,-0.132049 0.1375,-0.02191 0.3295,0.0624 0.50496,0.04978 0.17545,-0.01263 0.33195,-0.0581 0.5015,-0.03195 0.16956,0.02615 0.2587,0.09824 0.44141,0.151419 0.18271,0.05318 0.48993,0.02406 0.63321,0.204174 0.14328,0.180113 0.09,0.66993 0.09,0.66993 0,0 0.23065,0.0104 0.36318,-0.02573 0.13253,-0.03613 0.21689,-0.145637 0.36841,-0.173813 0.15153,-0.02818 0.2464,0.01424 0.50614,0.01245 0.25973,-0.0018 0.62238,-0.153667 0.94172,-0.110244 0.31934,0.04342 0.56025,0.08019 0.75105,0.298467 0.1908,0.218279 0.11521,0.482691 0.0608,0.713678 -0.0544,0.230987 -0.543,0.567849 -0.543,0.567849 0,0 0.38718,-0.03693 0.54848,-0.0069 0.16129,0.03001 0.24562,0.167486 0.4047,0.161872 0.15908,-0.0056 0.23427,-0.157667 0.58957,-0.233966 0.35531,-0.0763 1.4415,-0.152241 1.60162,0.184438 0.267,0.561448 -0.68369,1.025939 -0.55381,1.228217 0.13014,0.202656 2.52308,-0.872543 2.97164,-0.725105 0.44855,0.147439 0.71952,0.539085 0.74466,0.975578 0.0251,0.436493 -0.75216,0.980585 -0.75216,0.980585 0,0 2.0099,-1.042039 2.80374,-0.925241 0.38631,0.05684 0.89023,0.417049 0.97751,0.781897 0.0883,0.369111 -0.19319,0.783999 -0.19319,0.783999 0,0 0.36946,-0.09066 0.57325,-0.157293 0.12041,-0.03937 0.35362,0.0739 0.519,0.0067 0.28438,-0.115584 0.2736,-0.331769 0.56939,-0.338336 0.14585,-0.0032 0.47143,-0.0076 0.61171,0.104461 0.1442,0.115137 0.16504,0.354122 0.29443,0.442668 0.0981,0.06714 0.36606,0.0011 0.42245,0.09177 0.20307,0.326576 -0.77212,0.932331 -0.70172,1.060026 0.0447,0.08107 0.31885,-0.173753 0.61078,-0.298904 0.16787,-0.07197 0.38327,-0.02194 0.45786,-0.04274 0.12491,-0.03484 0.22201,-0.189044 0.38951,-0.219116 0.1212,-0.02176 0.29374,0.04703 0.42566,0.01609 0.32801,-0.07692 0.53957,-0.305291 0.84946,-0.312156 0.33654,-0.0075 0.69099,0.162847 0.83989,0.263783 0.54204,0.36742 -0.33019,0.975569 -0.35569,1.101668 -0.0255,0.1261 -0.17324,0.233959 0.001,0.325736 0.0747,0.03927 0.40178,-0.355379 0.45455,-0.353956 0.25896,0.07498 0.41077,-0.04583 0.6804,-0.0866 0.26963,-0.04077 0.48651,-0.08789 0.73524,-0.105075 0.24873,-0.01718 0.47475,0.004 0.67077,-0.02935 0.19602,-0.03333 0.45168,0.0014 0.57343,-0.0021 0.21111,-0.006 0.35598,-0.02456 0.47601,0.03343 0.45988,0.222166 0.64964,0.855486 0.64964,0.855486 0.28988,-0.0063 0.42758,0.0016 0.6939,-5.86e-4 0.16428,-0.0013 0.45711,-0.116658 0.72242,-0.11642 0.18641,1.66e-4 0.37393,0.06822 0.60159,0.122659 0.2204,0.0527 0.50471,0.1072 0.51448,0.276338 0.0115,0.199649 -0.21447,0.40428 -0.21447,0.40428 0,0 0.38786,0.0933 0.82738,0.0051 0.43952,-0.08821 1.13615,-0.305697 1.8525,-0.225293 0.23486,0.104252 0.13413,0.436049 0.20905,0.435741 0.0749,-3.08e-4 0.1144,0.03526 0.22405,-0.0027 0.058,-0.02008 0.0592,-0.231807 0.2024,-0.316063 0.28455,-0.16742 0.63756,-0.43241 0.82438,-0.429918 0.37462,0.005 0.64844,0.278493 1.13929,0.395339 0.49085,0.116847 1.27649,0.120515 1.4694,0.263883 0.26136,0.194245 0.17624,0.637636 0.21984,0.843798 0.0265,0.125267 0.0592,0.148965 0.25174,0.142181 0.19258,-0.0068 0.6731,-0.198359 0.91255,-0.166439 0.33865,0.04514 0.32157,0.533116 0.56434,0.531316 0.11617,-8.61e-4 0.38339,-0.09422 0.72529,-0.358857 0.034,-0.02631 0.0714,-0.152484 0.10928,-0.181616 0.0379,-0.02913 0.16051,-0.08254 0.20105,-0.114595 0.0632,-0.04997 0.12346,-0.138053 0.18738,-0.185791 0.25706,-0.191973 0.46505,-0.380948 0.67765,-0.440348 0.63171,-0.176499 1.36752,-0.141663 1.68618,-0.02974 0.31866,0.111923 0.60215,0.261659 0.56916,0.616795 -0.0389,0.418449 -0.70236,0.621015 -0.53441,0.798462 0.16796,0.177447 1.23596,-0.913999 1.95465,-0.974035 0.2771,-0.02315 0.84194,-0.34514 1.02308,-0.226636 0.18114,0.118505 -0.12563,0.557167 -0.0614,0.723038 0.10773,0.278005 0.40669,0.08357 0.56506,0.339366 0.15836,0.255802 -0.73133,1.038539 -0.56956,1.174275 0.16178,0.135736 0.34852,-0.360314 0.90138,-0.854149 0.40312,-0.360087 1.11161,-0.338348 1.38252,-0.334093 0.58844,0.0092 1.09505,0.04915 1.32967,0.384352 0.23462,0.335198 -0.91245,1.35038 -0.73171,1.500974 0.18075,0.150594 1.59453,-1.12043 2.2009,-1.286298 0.60636,-0.165868 1.02445,-0.265069 1.35956,-0.11771 0.16187,0.07118 0.47593,0.255469 0.59746,0.430685 0.15922,0.229565 -0.62242,1.324573 -0.62242,1.324573 0,0 1.3221,-0.949107 1.98898,-1.035528 0.66687,-0.08642 1.75238,0.204442 1.83389,0.457033 0.0815,0.252592 -1.25162,1.373221 -1.10319,1.56815 0.14842,0.19493 0.695,-0.603211 1.45431,-0.859299 0.41255,-0.139139 0.92479,-0.106067 1.3246,-0.09837 0.33605,0.0065 0.58903,-0.03054 0.67261,0.0492 0.18304,0.174612 -0.0483,0.389705 -0.0483,0.389705 0,0 0.24948,-0.09278 0.34456,0.07049 0.0951,0.163275 -0.2109,0.80894 -0.2109,0.80894 0,0 2.19312,-1.062773 3.03272,-0.322712 0.83961,0.74006 -0.9667,1.705273 -0.78062,1.988105 0.24857,0.377817 0.43267,-0.29872 0.82623,-0.427675 0.29982,-0.09824 0.74457,-0.139821 0.98294,-0.18045 0.16232,-0.02767 0.36067,0.06193 0.52928,0.04077 0.0992,-0.01245 0.24121,-0.15318 0.33741,-0.161545 0.38973,-0.03389 0.71745,-0.06441 0.89811,0.02511 0.5584,0.276666 0.42432,0.679724 0.42432,0.679724 0,0 0.73224,-0.257558 1.27543,-0.269285 0.54318,-0.01173 1.37274,0.255429 1.40826,0.412091 0.0355,0.156663 -1.5332,1.727159 -1.41391,1.84157 0.0728,0.0698 0.45286,-0.299087 0.88966,-0.641681 0.11464,-0.08992 0.33328,-0.08509 0.45121,-0.162976 0.16932,-0.111834 0.23726,-0.29554 0.3906,-0.340365 0.66705,-0.194993 1.64418,-0.01719 1.78803,0.238689 0.14385,0.255877 -0.73565,1.399501 -0.61131,1.494047 0.12434,0.09455 1.01528,-0.732254 1.67077,-0.892347 0.6555,-0.160093 1.0092,-0.08434 1.28925,0.425033 0.28006,0.509379 -0.97295,1.32632 -0.87215,1.458153 0.1008,0.131834 0.80747,-0.494598 1.08934,-0.557619 0.0685,-0.01532 0.20016,-0.05314 0.36377,-0.09452 0.15786,-0.03993 0.17214,-0.172277 0.47779,-0.22 0.30566,-0.04772 0.91122,0.05699 1.0421,0.300255 0.13088,0.243266 -0.0476,0.592258 -0.24241,0.844807 -0.19483,0.25255 -0.98946,0.9523 -0.83412,1.108883 0.08,0.08064 0.85845,-0.741564 1.72652,-0.954779 0.81758,-0.200813 1.58567,-0.07538 1.73,0.208828 0.14433,0.28421 -0.96565,0.951111 -0.81808,1.047076 0.14756,0.09597 0.78504,-0.327448 1.21842,-0.330826 0.43338,-0.0034 0.84015,0.312296 0.87978,0.562051 0.0396,0.249755 -0.8124,0.592234 -0.64864,0.783841 0.21283,0.249006 0.61097,-0.286128 1.186,-0.34603 0.58156,-0.06058 1.02744,-0.03027 1.13232,0.210516 0.10488,0.240785 -0.64244,0.600239 -0.49669,0.743725 0.0661,0.06509 0.2983,-0.08957 0.74347,-0.14361 0.53617,-0.06509 0.96937,-0.115675 1.17124,0.153646 0.20187,0.269322 0.10067,0.496595 0.10067,0.496595 0,0 0.37882,-0.04246 0.49986,0.04421 0.12105,0.08667 0.15825,0.358011 0.15825,0.358011 0,0 0.34778,-0.0037 0.47852,0.06793 0.13074,0.07164 0.26778,0.312017 0.26778,0.312017 0,0 0.32,-0.07795 0.46291,0.0012 0.1429,0.07917 0.27549,0.437827 0.27549,0.437827 0,0 0.3383,-0.08719 0.49655,-0.02443 0.15824,0.06276 0.36363,0.377647 0.36363,0.377647 0,0 0.2639,-0.0057 0.44877,0.07497 0.0802,0.03502 0.11646,0.225969 0.2302,0.3184 0.14836,0.120554 0.67823,0.292286 0.67823,0.292286 0,0 -5.2234,0.106429 -7.23876,0.0207 -1.16628,-0.04961 -2.83241,-0.15157 -4.12321,-0.283425 -0.93972,-0.09599 -1.63687,-0.239013 -2.01118,-0.236506 -0.88845,0.006 -1.37034,-3.05e-4 -2.29356,0.08489 -0.92322,0.08519 -2.2006,-0.0099 -3.42126,-0.03503 -1.028,-0.0059 -1.34805,-0.137821 -2.98435,-0.03035 -1.6363,0.107471 -4.83864,-0.008 -7.00843,0.0062 -5.31794,0.03489 -11.95269,0.276709 -17.44215,-0.10789 -5.48946,-0.384596 -15.23707,-2.64485 -15.23707,-2.64485 l -11.9123,-3.798193 c -0.79968,-0.252083 -1.61735,-0.474524 -2.16649,-0.725447 -0.67651,-0.313367 -0.96521,-0.271623 -1.4678,-0.437566 -0.65794,-0.217232 -1.28462,-0.508944 -1.9269,-0.736099 -0.26085,-0.09226 -0.45596,-0.152453 -0.70109,-0.23918 -1.29036,-0.456529 -2.16394,-0.681535 -2.16394,-0.681535 0,0 0.18138,0.301564 0.10762,0.58561 -0.0738,0.284046 -0.13178,0.534971 -0.12741,0.753563 0.004,0.218592 -0.1262,0.393128 -0.13105,0.606481 -0.005,0.213352 0.13636,0.453325 0.10029,0.710035 -0.0361,0.256709 -0.35878,0.378207 -0.38859,0.677469 -0.0298,0.299262 0.17197,0.500094 0.0251,0.816136 -0.14685,0.316043 -0.3564,0.708028 -0.42691,0.966052 -0.0705,0.258024 -0.34337,0.328673 -0.51156,0.580954 -0.16819,0.252281 -0.13026,0.358036 -0.36845,0.668345 -0.23819,0.310309 -0.126,0.480316 -0.44024,0.617172 -0.31424,0.136856 -0.84933,0.708705 -1.01735,0.817583 -0.16802,0.108878 -0.55353,0.681519 -0.98052,1.004835 -0.42699,0.323316 -0.45396,0.220739 -1.00826,0.66098 -0.5543,0.440241 -1.34365,1.437782 -1.59054,1.592966 -0.24689,0.155185 -0.49633,0.0078 -0.66178,0.0538 -0.16545,0.04595 -0.17394,0.113895 -0.32813,0.110744 -0.22419,-0.08079 -0.22046,-0.05151 -0.40214,0.0073 -1.34378,-0.0042 -4.63355,0.0267 -4.63355,0.0267 0,0 -0.14516,-0.04038 -0.21245,-0.04021 -0.0673,1.71e-4 -0.1164,0.02527 -0.23335,0.03124 -0.11696,0.006 -0.37247,-0.06815 -0.50026,-0.02945 -0.0694,0.02101 -0.75779,0.428995 -0.84639,0.327572 -0.0721,-0.08251 0.26442,-0.414249 0.26442,-0.414249 0,0 -0.80459,0.135463 -0.93799,0.126505 -0.1334,-0.009 -0.17526,-0.119214 -0.17526,-0.119214 0,0 -0.23444,0.07132 -0.34919,0.07272 -0.11475,0.0014 -0.24157,-0.04797 -0.2802,-0.177052 -0.0386,-0.129081 0.12427,-0.251934 0.22639,-0.382429 0.10212,-0.130495 0.27722,-0.276643 0.36336,-0.319966 0.0861,-0.04332 0.23312,0.0048 0.30778,-0.03276 0.0747,-0.03754 0.0854,-0.137926 0.15689,-0.175264 0.0715,-0.03734 0.15067,0.01324 0.23914,-0.01953 0.0885,-0.03277 0.15767,-0.144305 0.24719,-0.189048 0.0895,-0.04474 0.2205,-0.102622 0.4477,-0.12279 0.2272,-0.02017 0.38655,-0.165187 0.56445,-0.246032 0.1779,-0.08085 0.48892,-0.103555 0.76774,-0.149208 0.27882,-0.04565 0.58533,-0.04005 0.84987,-0.1724 0.26454,-0.132348 0.43405,-0.29466 0.69983,-0.3891 0.26578,-0.09444 0.36426,-0.200006 0.49273,-0.239682 0.12847,-0.03968 0.17405,-0.114719 0.33091,-0.16443 0.19651,-0.06228 0.25866,-0.112874 0.41621,-0.181191 0.25697,-0.109749 0.6136,-0.277949 0.7643,-0.481309 0.27791,-0.384433 0.0998,-0.921775 0.51213,-2.007796 0.41229,-1.086021 0.96676,-1.810645 1.20103,-2.538911 0.048,-0.119637 0.11235,-0.254693 0.12688,-0.360961 0.0145,-0.106268 -0.0313,-0.242163 -0.10565,-0.31491 -0.0743,-0.07275 -0.27866,-0.08685 -0.27866,-0.08685 -3.14561,-0.962079 -5.94802,-3.218209 -8.2773,-5.096226 -0.4669,-0.329153 -1.11447,-1.25588 -1.76392,-1.970297 -0.64945,-0.714418 -1.42696,-1.0266 -1.95755,-1.029688 -0.5574,0.06216 -1.14991,0.01613 -1.52139,0.116734 -0.36519,0.06074 -0.51673,0.173455 -0.91276,0.237313 -0.39603,0.06386 -0.90139,0.264867 -1.23263,0.343353 -0.33125,0.07849 -0.66944,0.07844 -1.05686,0.212121 -0.38742,0.13368 -1.12334,0.257768 -1.54014,0.424786 -0.42141,0.167706 -1.05721,0.122532 -1.46448,0.259036 -0.32972,0.119045 -0.97436,0.09178 -1.28536,0.148377 -0.31101,0.0566 -0.659605,-0.09859 -0.895577,-0.07041 -0.235972,0.02819 -0.611461,-0.178341 -1.197232,-0.09463 -0.317075,0.04531 -1.020514,0.225322 -1.551427,0.483137 -0.530914,0.257815 -0.893889,0.503183 -1.31434,0.839115 -0.420452,0.335931 -0.745536,0.773162 -0.938377,1.22061 -0.192841,0.447448 -0.183618,0.72974 -0.151924,1.042459 0.03169,0.312719 0.182852,0.669325 0.240322,0.947222 0.05747,0.277897 0.143355,0.778356 0.218311,1.012011 0.07496,0.233655 0.03412,0.339187 0.111332,0.682165 0.07721,0.342978 0.174115,0.868304 0.199361,1.210055 0.02525,0.341751 0.104146,1.085612 0.08479,1.544751 -0.01935,0.459139 -0.149003,0.862205 -0.167783,1.198515 -0.01878,0.33631 0.05578,0.546206 0.02231,0.810495 -0.03347,0.264289 -0.170268,0.48376 -0.217227,0.757045 -0.04696,0.273286 0.04419,0.559753 -0.05333,0.874524 -0.09752,0.314771 -0.191594,0.899928 -0.294238,1.201172 -0.102644,0.301244 -0.344961,0.360662 -0.550112,0.573386 -0.205152,0.212725 -0.272096,0.414789 -0.332226,0.540851 -0.06013,0.126062 -0.335498,0.214732 -0.452751,0.334146 -0.117253,0.119414 -0.225984,0.318082 -0.374005,0.370665 -0.148021,0.05258 -0.746849,-0.05197 -1.154126,-0.02889 -0.407278,0.02308 -0.348306,0.122801 -0.591068,0.127305 -0.242762,0.0045 -0.24802,-0.08367 -0.526838,-0.09275 -0.278818,-0.0091 -0.907566,-1.88e-4 -1.367496,0.01878 -0.45993,0.01897 -1.044561,0.146878 -1.468031,0.124611 -0.42347,-0.02227 -0.802634,0.01562 -1.243523,-0.01187 -0.294493,0.0081 -0.587376,0.0076 -0.587376,0.0076 l -0.02153,0.371482 c 0,0 -0.263222,-0.07364 -0.352216,-0.142615 -0.08899,-0.06898 -0.175761,-0.23764 -0.175761,-0.23764 0,0 -4.115838,0.124882 -4.253531,0.01058 -0.137693,-0.114302 -0.390461,-0.169552 -0.514679,-0.166348 -0.124219,0.0032 -0.314171,-0.04686 -0.388938,-0.01358 -0.1243,0.05536 -0.113571,0.155039 -0.297557,0.148933 -0.183986,-0.0061 -0.288354,-0.02126 -0.547256,0.0034 -0.434015,0.01828 -0.807532,0.0298 -1.092203,0.09073 -0.284671,0.06092 -0.435358,-0.08951 -0.66909,-0.0323 -0.233732,0.05721 -0.437789,-0.02576 -0.700382,0.07182 -0.262593,0.09757 -0.279742,-0.109698 -0.508075,-0.126953 -0.228334,-0.01726 -0.373252,0.116422 -0.603702,-0.03778 -0.230451,-0.154203 0.192853,-0.36472 0.02444,-0.498623 -0.08127,-0.06214 -0.175794,0.04809 -0.286703,0.142073 -0.07802,0.06612 -0.167995,0.0935 -0.250522,0.180341 -0.130627,0.137452 -0.29962,0.226025 -0.41437,0.264272 -0.2903,0.09676 -0.397092,0.169283 -0.487126,0.002 -0.09003,-0.167287 0.136128,-0.311656 0.356108,-0.501221 0.156216,-0.134618 0.28979,-0.31095 0.444268,-0.450417 0.219114,-0.197821 0.479228,-0.391124 0.77842,-0.58786 0.208779,-0.137284 0.440484,-0.295726 0.674107,-0.376252 0.308975,-0.106499 0.585728,-0.148731 0.907221,-0.118656 0.269956,0.02525 0.660383,0.111512 0.985009,0.07626 0.324626,-0.03525 0.527005,-0.07685 0.762114,-0.09329 0.235109,-0.01644 0.478416,0.01846 0.723727,-0.02895 0.245311,-0.04741 0.511573,-0.124134 0.908376,-0.18028 0.396803,-0.05615 0.644585,-0.226335 1.067767,-0.308321 0.423183,-0.08199 0.637176,0.02552 0.779208,-0.01552 0.142032,-0.04104 0.243463,-0.169008 0.472946,-0.209152 0.30708,-0.05372 0.470206,-0.03912 0.696289,-0.09719 0.226083,-0.05807 0.541383,-0.02581 0.771485,-0.06997 0.311584,-0.0598 0.646589,-0.08478 0.861402,-0.183468 0.214813,-0.09869 0.292581,-0.25643 0.457597,-0.32863 0.165016,-0.0722 0.438528,-0.01525 0.630619,-0.08383 0.192091,-0.06858 0.315129,-0.211939 0.479499,-0.285837 0.158798,-0.07139 0.378084,-0.07858 0.506552,-0.152856 0.261444,-0.151162 0.428112,-0.297109 0.42973,-0.545521 0.0026,-0.404126 -0.304245,-0.257477 -0.288339,-0.646189 0.03332,-0.814158 -0.225955,-0.363547 -0.341596,-1.542471 -0.06232,-0.635305 -0.345252,-1.417734 -0.426831,-2.131401 -0.09013,-0.788458 0.01524,-1.413669 -0.185297,-1.56264 -0.223595,-0.1661 -0.976644,0.37957 -2.636192,0.736994 -0.949561,0.204512 -2.035138,0.233331 -2.876048,0.315843 -0.669226,0.06567 -1.785482,0.115628 -2.759747,0.103134 -0.4642,-0.006 -0.772854,-0.07306 -1.215816,-0.07169 -0.809937,0.0025 -1.367549,0.06792 -1.743748,0.02663 -0.294495,-0.03233 -0.460171,-0.168292 -0.665933,-0.196999 -0.120936,-0.01687 -0.803944,-0.04267 -1.71704,-0.218194 C 72.645108,37.470777 72.070351,37.19005 71.436608,37.060424 70.7431,36.918573 70.00654,36.638731 69.33055,36.498477 68.603828,36.347698 67.962439,36.351438 67.399565,36.273765 66.56333,36.158369 65.94624,36.010004 65.850994,36.095226 c -0.08708,0.07791 -0.120028,0.283177 -0.197233,0.435631 -0.07552,0.149117 -0.200682,0.19955 -0.17324,0.547375 0.0091,0.115205 0.111359,0.356887 0.193051,0.684443 0.04512,0.180925 0.05063,0.405591 0.108617,0.612964 0.103585,0.37046 0.28872,0.805314 0.520374,1.138492 0.112712,0.162109 0.282822,0.282753 0.37075,0.393633 0.157262,0.198312 0.334083,0.428752 0.560979,0.591773 0.180135,0.129425 0.390188,0.26398 0.511378,0.373023 0.06919,0.06226 0.05821,0.121316 0.125162,0.153457 0.187431,0.08998 0.356935,-0.05836 0.369094,0.201191 0.01,0.213355 -0.571585,0.150716 -0.611075,0.403048 -0.01827,0.116745 0.28122,0.952894 0.422804,1.327219 0.141584,0.374325 0.01155,0.333474 0.07371,0.493456 0.06216,0.159982 0.108546,0.171888 0.217523,0.380021 0.108978,0.208133 0.275614,0.366671 0.258458,0.841239 -0.0069,0.190635 -0.129652,0.593563 -0.201211,0.891265 -0.07156,0.297702 -0.110786,0.615911 -0.144463,0.719308 -0.03368,0.103397 -0.169308,0.206993 -0.184757,0.308699 -0.01545,0.101706 0.05409,0.911007 -0.01318,1.022467 -0.06727,0.11146 -0.427857,0.164665 -0.522476,0.100406 -0.01174,-0.008 -0.05909,-0.0513 -0.08162,-0.132705 -0.04055,-0.14652 -0.06515,-0.377761 -0.114696,-0.473883 -0.06308,-0.122383 -0.127871,-0.01926 -0.165799,-0.115891 -0.03793,-0.09663 0.03373,-0.302248 -0.02029,-0.349184 -0.07873,-0.06841 -0.153133,-0.08296 -0.22346,-0.03681 -0.06283,0.04123 -0.08265,0.111155 -0.136455,0.131709 -0.0538,0.02055 -0.104332,-0.03226 -0.155813,-0.0059 -0.05148,0.02635 -0.05452,0.119195 -0.122306,0.149214 -0.05554,0.0246 -0.246064,0.01644 -0.307604,0.05175 -0.06154,0.03531 -0.07887,0.111196 -0.136813,0.153085 -0.04966,0.0359 -0.196922,0.03775 -0.258227,0.07661 -0.06131,0.03887 -0.139492,0.233783 -0.223155,0.282352 -0.08366,0.04857 -0.818032,-0.01288 -0.866684,0.0403 -0.04865,0.05314 -0.05563,0.140027 -0.09642,0.206608 -0.01908,0.03114 -0.774637,0.03285 -1.573513,0.02585 -0.163315,-0.0014 -0.32844,-0.04929 -0.489454,-0.05127 -0.258593,-0.0032 -0.416866,0.04065 -0.719429,0.03579 -0.302563,-0.0049 -0.446041,0.02465 -0.584601,-0.02901 -0.13856,-0.05366 -0.237316,-0.280234 -0.437797,-0.290627 -0.04544,-0.0024 -0.118938,-0.02907 -0.196537,-0.0066 -0.05915,0.0171 -0.118264,0.07963 -0.183354,0.103846 -0.08635,0.03213 -0.190347,3.25e-4 -0.287631,0.04196 -0.09728,0.04163 -0.06616,0.192142 -0.178021,0.219074 -0.11187,0.02693 -0.413351,-0.05615 -0.430153,-0.280029 -0.0168,-0.223881 0.444407,-0.259137 0.720136,-0.388594 0.275729,-0.129457 0.236567,-0.05319 0.386274,-0.09784 0.120717,-0.03601 0.319052,-0.122012 0.414765,-0.158211 0.126595,-0.04788 0.164172,-0.110261 0.265431,-0.135724 0.604967,-0.152131 0.949274,-0.06634 1.46962,-0.195239 0.211161,-0.05231 0.427207,-0.15923 0.588874,-0.302034 0.236715,-0.209096 0.301264,-0.304769 0.572345,-0.416135 0.271082,-0.111365 0.656552,-0.103293 0.701882,-0.138964 0.04533,-0.03567 0.05657,-0.157128 0.08627,-0.201103 0.0297,-0.04397 0.121975,-0.11455 0.149496,-0.145157 0.02752,-0.03061 -0.02767,-0.790089 -0.05456,-0.90456 -0.02689,-0.114472 -0.152654,-0.593776 -0.176973,-0.749607 -0.02432,-0.155832 -0.01626,-0.395033 -0.05165,-0.508194 -0.03539,-0.11316 -0.201459,-0.338463 -0.393084,-0.605084 -0.191625,-0.26662 -0.765738,-0.934445 -0.869662,-1.059357 -0.103924,-0.124912 -0.213289,-0.352582 -0.270478,-0.399927 -0.05719,-0.04734 -0.150552,-0.08305 -0.285644,0.0437 -0.135092,0.126759 -0.1408,0.30159 -0.198233,0.450264 -0.05743,0.148673 -0.201589,0.168016 -0.267078,0.278889 -0.06549,0.110873 -0.03168,0.282057 -0.18076,0.480632 -0.149084,0.198574 -0.219602,0.522541 -0.439348,0.781504 -0.219746,0.258963 -0.445885,0.16266 -0.593421,0.317896 -0.147536,0.155236 -0.185642,0.296633 -0.490863,0.614099 -0.487556,0.507119 -0.541123,0.248975 -0.776542,0.394804 -0.176232,0.109166 -0.222495,0.307738 -0.329351,0.380086 -0.249599,0.168993 -0.54329,0.139953 -0.642288,0.224435 -0.099,0.08448 -0.120883,0.253218 -0.176313,0.29816 -0.05543,0.04494 -0.27881,0.03161 -0.35929,0.163091 -0.08048,0.131484 -0.145588,0.302276 -0.180073,0.43731 -0.03449,0.135034 0.06365,0.262767 0.06857,0.353139 0.0049,0.09037 -0.127497,0.421457 -0.0081,0.646294 0.119397,0.224837 0.465011,0.274039 0.799156,0.358953 0.334145,0.08491 2.134898,0.738315 2.148853,0.969769 0.0026,0.04321 -0.114354,0.116271 -0.349858,0.130062 -0.114753,0.0067 -0.277616,-0.04721 -0.430055,-0.03581 -0.167188,0.01251 -0.363879,0.07758 -0.532124,0.08513 -0.168245,0.0076 -0.306603,-0.09432 -0.462468,-0.08913 -0.155865,0.0052 -0.308135,0.142048 -0.47834,0.145958 -0.170205,0.0039 -0.288764,-0.06229 -0.559338,-0.04335 -0.270574,0.01893 -0.21354,0.03709 -0.330231,0.03832 -0.116691,0.0012 -0.08625,-0.08818 -0.365646,-0.08677 -0.279395,0.0014 -0.241502,0.09817 -0.436886,0.09927 -0.195384,0.0011 -0.346259,-0.08677 -0.542626,-0.08731 -0.196367,-5.43e-4 -0.220656,0.05223 -0.411471,0.0746 -0.190815,0.02237 0.15806,0.01685 -0.722149,0.02305 -0.880209,0.0062 -2.196464,-0.05491 -2.806592,-0.04896 -0.477916,0.03007 -0.452218,0.04647 -0.942784,0.01591 -0.169584,0.0038 -0.348302,0.05835 -0.487996,0.06204 -0.139694,0.0037 -0.220317,-0.04427 -0.341508,-0.04072 -0.121191,0.0036 -0.201184,0.07103 -0.360181,0.07625 -0.158997,0.0052 -0.328277,-0.03366 -0.539617,-0.03182 -0.21134,0.0018 -0.445874,0.05739 -0.653099,0.06762 -0.207225,0.01023 -0.329069,-0.05237 -0.42585,-0.01036 -0.09678,0.04201 -0.552134,0.651645 -0.727195,0.512223 -0.175061,-0.139422 0.238836,-0.299879 0.171488,-0.419605 -0.06735,-0.119726 -0.205844,-0.05639 -0.366295,-0.05837 -0.160451,-0.002 -0.19345,0.05093 -0.37784,0.04389 -0.18439,-0.007 -0.406299,-0.02421 -0.480255,-0.07733 -0.07396,-0.05311 -0.07605,-0.222366 -0.196109,-0.320818 -0.120059,-0.09845 -0.370689,-0.165415 -0.561786,-0.06182 -0.191097,0.103595 -0.246936,0.542573 -0.337239,0.549775 -0.0903,0.0072 -0.311001,-0.142652 -0.2611,-0.435126 0.0499,-0.292474 0.712018,-1.014074 1.240196,-1.231526 0.528178,-0.217452 0.949045,0.02901 1.439653,-0.07274 0.490608,-0.101749 0.839397,-0.340514 1.141388,-0.418844 0.301991,-0.07833 0.435469,0.02495 0.806183,-0.01116 0.370714,-0.03612 0.661704,-0.08553 0.846726,-0.165407 0.185022,-0.07987 0.191158,-0.145019 0.281517,-0.201887 0.09036,-0.05687 0.189913,-0.08119 0.257952,-0.14135 0.06804,-0.06016 0.09537,-0.160326 0.146539,-0.203526 0.05117,-0.0432 0.06831,-0.0251 0.135614,-0.06643 0.06731,-0.04133 0.156031,-0.113284 0.257856,-0.194323 0.101825,-0.08104 0.153032,-0.09051 0.350657,-0.294519 0.197625,-0.204007 0.568021,-0.666723 0.770814,-0.979281 0.202793,-0.312558 0.548467,-0.908398 0.730811,-1.252232 0.182344,-0.343835 0.223028,-0.527594 0.402072,-0.784503 0.179044,-0.256909 0.225802,-0.359925 0.357083,-0.593153 0.198721,-0.43031 0.52165,-0.878921 0.631145,-1.175315 0.176252,-0.460601 0.478224,-0.859082 0.614068,-1.179122 0.135843,-0.320039 0.381767,-0.507596 0.471719,-0.699323 0.08995,-0.191727 0.297456,-0.628736 0.49501,-0.870156 0.197555,-0.241419 0.382485,-0.463061 0.533399,-0.629825 0.150914,-0.166764 0.217657,-0.289025 0.341781,-0.450001 0.124124,-0.160976 0.246301,-0.29747 0.328869,-0.464423 0.01826,-0.141361 -0.110874,-0.22393 -0.277646,-0.417901 C 57.994872,35.633751 57.75508,35.305797 57.542136,35.05175 57.329191,34.797703 57.253961,34.632672 57.065293,34.455979 56.876624,34.279286 56.548849,34.3559 56.303559,34.31663 c -0.245291,-0.03927 -0.410285,-0.113656 -0.664158,-0.2028 -0.253872,-0.08914 -0.331682,-0.13988 -0.577214,-0.292719 -0.245532,-0.15284 -0.379347,-0.02614 -0.625135,-0.06995 -0.245788,-0.04381 -0.658136,-0.174854 -0.813509,-0.25532 -0.203878,-0.07703 -0.980863,-0.108192 -1.47563,-0.191546 -0.494767,-0.08336 -0.895092,-0.299633 -1.5788,-0.364923 -0.298346,-0.02849 -0.753221,0.04872 -1.326386,0.05907 -0.573166,0.01035 -1.002578,-0.08548 -1.281078,-0.0052 -0.278501,0.08029 -0.624986,0.355403 -1.504817,0.754483 -0.928424,0.42112 -2.258827,0.795876 -3.160111,0.987929 -1.755396,0.374054 -3.861755,0.454279 -5.710427,0.378981 -0.568851,-0.02314 -1.639574,0.0168 -2.387277,-0.12946 -0.747703,-0.146257 -1.494297,-0.518985 -2.289345,-0.753716 -0.948733,-0.280106 -1.879019,-0.594424 -2.652871,-0.945337 -1.318042,-0.597683 -4.483884,-3.112145 -5.07159,-3.394384 -0.587706,-0.282239 -2.85802,0.173646 -4.454628,0.265054 -0.736601,0.04217 -1.674723,0.374597 -2.641092,0.420093 C 16.961225,30.63 15.414654,30.426072 14.415198,30.28989 13.384195,30.1495 11.218941,29.334212 10.211055,29.093255 9.2038692,28.852311 9.2962326,29.02802 8.3990342,28.740864 7.7823908,28.543501 7.2005715,28.16281 6.8253684,27.942116 5.9042556,27.400319 4.9726619,26.347771 4.7979201,26.089003 4.5939484,25.78695 4.7896467,24.911842 4.7896467,24.911842 Z"
       id="path829"
       inkscape:connector-curvature="0"
       sodipodi:nodetypes="czzszzsssszsssszzzzzzsssszzzszzzzzzzzszzzzzszzzszssszzsszzzzsssszsszzzzzszszszzczzzzzcczzccssszzzcczzcszzzzzssszzzzzzzzczzzzzzzzzzzczzzzzzszzzzzzzzzzzzszssszzzszcczzzzzzzczzzzzzczzzsszzcsscssssssssssssszsczzzsscssssczczssszsszssszssszszszszzsszzzssczzzsssczczssssssczzsssszzzzzsszzzsszzzzsszsszczczczczcsscssszczszcccsssczzzzzzzzzzzzzzzccczzssczczzzzzzzzzzzzzzscczczzcczcczzzcczzszzzzzzzzzzzzzzzzzzzzzzzccczczzszczzzzzcssszssssszzzzzzszszzzssssssssssssssssssssssssssssszzzszzzzssszsszzszszzzssszzssszzzzssssszzzzzzzzzzzzzzzzssszzzzzzzssszzzzzzzzzzcczzzzzzzzzzzzzzzzzzzzzzzzzzzzzcczzzzzczzzzzzzczszzssszsszssszsssc" />
  </g>
</svg>
