<?xml version="1.0" encoding="UTF-8" standalone="no"?>
<!-- Created with Inkscape (http://www.inkscape.org/) -->

<svg
   xmlns:dc="http://purl.org/dc/elements/1.1/"
   xmlns:cc="http://creativecommons.org/ns#"
   xmlns:rdf="http://www.w3.org/1999/02/22-rdf-syntax-ns#"
   xmlns:svg="http://www.w3.org/2000/svg"
   xmlns="http://www.w3.org/2000/svg"
   xmlns:sodipodi="http://sodipodi.sourceforge.net/DTD/sodipodi-0.dtd"
   xmlns:inkscape="http://www.inkscape.org/namespaces/inkscape"
   width="190mm"
   height="88mm"
   viewBox="0 0 190 88"
   version="1.1"
   id="svg8"
   inkscape:version="0.92.4 (5da689c313, 2019-01-14)"
   sodipodi:docname="hippopotamus.svg">
  <defs
     id="defs2" />
  <sodipodi:namedview
     id="base"
     pagecolor="#ffffff"
     bordercolor="#666666"
     borderopacity="1.0"
     inkscape:pageopacity="0.0"
     inkscape:pageshadow="2"
     inkscape:zoom="0.85"
     inkscape:cx="-53.527573"
     inkscape:cy="148.94306"
     inkscape:document-units="mm"
     inkscape:current-layer="layer2"
     showgrid="false"
     inkscape:window-width="1920"
     inkscape:window-height="1009"
     inkscape:window-x="-8"
     inkscape:window-y="-8"
     inkscape:window-maximized="1" />
  <metadata
     id="metadata5">
    <rdf:RDF>
      <cc:Work
         rdf:about="">
        <dc:format>image/svg+xml</dc:format>
        <dc:type
           rdf:resource="http://purl.org/dc/dcmitype/StillImage" />
        <dc:title></dc:title>
      </cc:Work>
    </rdf:RDF>
  </metadata>
  <g
     inkscape:groupmode="layer"
     id="layer2"
     inkscape:label="Layer 2"
     style="display:inline"
     transform="translate(0,-7)">
    <path
       style="display:inline;opacity:0.8;fill:#28decb;fill-opacity:1;stroke:none;stroke-width:0.15000001;stroke-linecap:butt;stroke-linejoin:miter;stroke-miterlimit:4;stroke-dasharray:none;stroke-opacity:1"
       d="m 117.80377,8.7907233 c -6.86007,0.39464 -14.30795,1.20173 -18.346524,1.4720697 -4.038571,0.270331 -4.846444,0.479971 -7.200498,0.356201 -8.000788,-0.420631 -19.630977,-0.7073507 -25.67882,0.36483 -1.87624,0.33263 -4.020706,1.37299 -5.929916,1.976151 -1.909209,0.60316 -3.39943,0.84492 -5.52768,1.75356 -1.25661,0.53651 -2.501966,1.38857 -3.760838,1.92777 -1.258874,0.5392 -2.377958,0.72573 -3.634078,1.31292 -3.648459,1.705529 -7.218823,4.505981 -10.97533,7.004171 -3.942493,2.62189 -8.047289,4.95003 -10.804114,7.03373 -2.113656,1.59756 -4.674217,3.510657 -6.508466,5.4772 -2.751896,2.950374 -3.447374,4.678074 -4.227182,5.158447 -0.175457,0.108084 -0.404922,0.07582 -0.686976,-0.02384 -0.165639,-0.05853 -0.458959,0.114705 -0.685601,-0.02978 -0.428592,-0.273236 -0.840764,-0.680115 -1.165704,-1.033472 -0.317801,-0.345594 -0.672054,-0.488006 -0.789617,-0.447004 -0.367789,0.128269 -0.236069,1.146274 -0.09784,1.546591 0.06816,0.197396 0.339984,0.784022 0.769812,1.303315 0.429828,0.519294 1.017371,0.970658 1.044863,1.110223 0.05424,0.275331 -0.509922,1.232175 -0.733647,1.338443 -0.223726,0.106268 -1.125537,-0.645747 -1.46089,-0.286554 -0.335352,0.359192 0.930322,1.676612 0.918213,1.946135 -0.01211,0.269524 -0.502066,1.083848 -0.650172,1.606975 -0.148107,0.523126 -0.139475,1.300065 -0.208921,1.504586 -0.06945,0.204521 -0.974656,1.804223 -1.187673,2.001078 -0.213016,0.196855 -1.2041474,0.595615 -1.7011625,1.51684 -0.4970151,0.921225 -0.3225567,2.236882 -0.3103213,2.454561 0.012235,0.217679 0.3351044,0.172897 0.3268718,0.26779 -0.00823,0.09489 0.010601,0.158627 -0.024252,0.311196 -0.029836,0.130605 -0.444647,0.481529 -0.479849,1.116069 -0.0352,0.63455 0.24634,1.460272 0.848694,2.429682 0.124414,0.200228 0.406129,0.02331 0.535576,0.25341 0.140925,0.25051 0.20455,0.560448 0.205283,0.624739 0.0037,0.321011 -1.727245,3.511 -2.854244,6.415381 -0.4732379,1.219579 -0.7141029,2.205138 -1.0652139,3.289858 -0.351111,1.084721 -0.731871,2.082282 -0.803041,2.290022 -0.269135,0.785598 -0.624328,2.232128 -0.981902,2.831759 -0.357573,0.59963 -0.817059,0.830709 -1.086936,1.200639 -0.393092,0.538822 -0.664347,0.937602 -0.67271,1.40239 -0.0033,0.182282 -0.03489,0.30345 0.02083,0.419952 0.05571,0.116488 0.205835,0.195799 0.222005,0.235778 0.0337,0.0833 0.04324,0.429961 -0.0063,0.529212 -0.04951,0.0993 -0.5647921,0.182959 -0.6040631,1.109329 -0.01843,0.434861 0.20901,0.977849 0.5355101,1.48817 0.06158,0.0962 0.387989,0.107759 0.460162,0.211891 0.07217,0.10413 -0.10967,0.2994 -0.03116,0.405279 0.233096,0.31438 0.443956,0.574701 0.550545,0.725601 0.322338,0.456348 0.906734,1.417629 1.57004,2.20967 0.663306,0.79203 1.911333,1.723089 3.306099,2.41163 1.394766,0.688549 3.4488389,1.200179 4.7028129,1.39836 0.611534,0.0967 0.911375,0.0685 1.301022,-0.0979 0.185855,-0.0794 0.07272,-0.544599 0.301124,-0.548809 0.334036,-0.006 0.862624,-0.098 1.172307,-0.276561 0.532867,-0.307189 1.113511,-0.442878 1.969358,-0.767839 0.492526,-0.18701 1.264253,-0.16886 2.111375,-0.63318 0.295313,-0.161869 0.838953,-0.556681 1.159474,-0.76653 0.0895,-0.0586 0.179991,-0.230989 0.271485,-0.29378 2.617926,-1.79656 1.443383,-1.621739 2.681773,-2.83274 0.484795,-0.47407 0.871389,-0.419259 1.780497,-1.409269 0.90911,-0.99001 2.322623,-3.059832 2.415275,-3.175172 0.13941,-0.173558 0.768441,-0.468299 1.215262,-0.952378 0.446818,-0.484082 0.51653,-0.958271 0.701117,-1.116841 0.451201,-0.387609 0.992301,-0.38921 1.691441,-1.195019 0.69914,-0.80581 1.191234,-2.11336 1.287063,-2.186472 0.09583,-0.0731 0.498224,-0.0807 0.600557,-0.0296 0.137324,0.0685 0.638786,1.54141 1.638771,2.116881 0.267718,0.154059 0.683627,0.12841 1.052681,0.240469 0.485072,0.14727 0.585682,0.372679 1.426157,0.398759 0.840473,0.02609 0.899708,-0.2251 1.332096,-0.378068 1.136684,-0.402151 2.023655,-0.96637 2.903741,-1.986082 0.114366,-0.132509 0.226322,-0.287118 0.334769,-0.456118 0.274257,-0.427371 0.856464,-1.00289 1.076524,-1.508961 0.220056,-0.50606 0.0714,-0.937339 0.184255,-1.23055 0.05951,-0.15461 0.09987,-0.255231 0.117825,-0.27894 0.08591,-0.11343 0.127471,-0.213119 0.316589,-0.2095 0.04438,7.94e-4 0.136581,0.0484 0.259885,0.122471 0.140197,0.0843 0.233709,0.302238 0.429773,0.425799 0.173763,0.1095 0.44672,0.123531 0.62797,0.22021 0.200806,0.107101 0.395714,0.19373 0.561472,0.231981 0.632683,0.145989 1.388436,-0.0981 1.716384,-0.267142 0.327951,-0.169058 1.171268,-0.984599 1.541365,-1.761199 0.06209,-0.130291 0.01527,-0.441161 0.07119,-0.561141 0.12301,-0.263988 0.194714,-0.400119 0.250859,-0.542629 0.233765,-0.593341 -0.269399,-1.86812 0.30966,-1.856459 0.57906,0.01169 0.401212,0.474069 0.707967,0.712919 0.306755,0.23885 0.787744,0.730269 1.337416,0.97018 1.049494,0.458049 2.162514,-1.147681 2.655544,-0.959829 0.540533,0.20596 0.354515,6.557849 0.445079,7.589279 0.09056,1.031441 0.220178,1.82204 0.278424,1.90191 0.218773,0.300019 0.697722,1.104659 0.692052,1.740749 -0.0057,0.63609 -0.848326,0.593712 -1.31716,1.111591 -0.468833,0.51788 -1.774658,1.96714 -2.788136,2.78905 -1.013479,0.82191 -3.806233,1.618279 -4.219806,1.88907 -0.413572,0.270779 -0.776914,0.967361 -0.841287,1.232119 -0.06437,0.264761 -0.158951,1.716262 -0.04298,1.85815 0.04602,0.0563 0.142573,0.053 0.419026,0.128622 0.148889,0.0408 0.267181,0.149559 0.449445,0.195818 0.332195,0.0843 0.734211,0.103532 0.911587,0.133872 0.171509,0.0293 0.457338,0.151519 0.667533,0.304908 0.134523,0.0982 0.175872,0.229862 0.34017,0.29029 0.260628,0.0958 0.554157,-0.003 0.85975,0.0343 0.15511,0.019 0.478901,0.32208 0.959676,0.31627 0.413716,-0.005 0.848466,-0.142039 1.405993,-0.176171 0.262623,-0.01611 0.536686,0.0271 0.815888,0.007 0.345358,-0.02461 0.686662,-0.109199 1.041847,-0.13511 0.539001,-0.0393 1.087088,-0.0236 1.549103,-0.0905 0.23603,-0.0342 0.398553,-0.153371 0.606058,-0.178819 0.659839,-0.081 1.172424,-0.0633 1.271122,-0.0949 0.217577,-0.0697 1.546582,-0.584991 2.647251,-0.9618 1.100669,-0.376819 1.988487,-0.61487 2.130565,-0.742 0.146669,-0.131241 0.528241,-0.683749 1.027904,-1.162219 0.499663,-0.478462 1.109387,-0.764911 1.181899,-0.86895 0.05874,-0.0843 0.08557,-0.212942 0.154189,-0.344612 0.06861,-0.13167 0.17164,-0.260459 0.184377,-0.2867 0.08871,-0.18275 0.04539,-0.401159 0.147013,-0.869691 0.0461,-0.212637 0.18251,-0.353718 0.226452,-0.620749 0.04325,-0.262829 0.0024,-0.561528 0.05145,-0.847429 0.05115,-0.298611 0.197802,-0.34658 0.258627,-0.789231 0.06082,-0.44265 0.02777,-1.0239 0.02014,-1.145519 -0.025,-0.39788 -0.408043,-0.32227 -0.07122,-0.98054 0.104521,-0.204269 0.323898,-0.701511 0.683329,-1.334381 0.359431,-0.63287 0.904494,-1.41478 1.298403,-2.087679 0.393912,-0.67291 0.622956,-1.292701 0.794298,-1.293252 0.422936,-0.0011 0.528005,0.492022 1.938364,1.470891 1.410356,0.978871 3.442869,2.539711 4.624663,3.42525 2.117605,1.58676 2.383988,1.444062 2.774399,1.891732 0.277903,0.318658 0.548698,1.818978 1.158142,3.031389 0.609444,1.2124 1.436553,2.050709 1.418035,2.22808 -0.03993,0.382511 -1.382258,1.53706 -1.771163,1.76077 -0.388909,0.2237 -1.305828,0.32343 -1.55528,0.480619 -0.249457,0.157202 -2.172985,2.585302 -2.18396,2.887411 -0.01098,0.30212 1.136922,0.987229 1.655971,1.21231 0.519049,0.22507 5.593593,0.212421 5.751664,0.21848 0.158072,0.006 0.05929,-0.225751 0.191463,-0.24016 0.119903,-0.0131 0.692187,-0.007 0.990697,-0.01252 0.352912,-0.006 0.588,0.452811 1.653712,0.299612 0.197853,-0.0285 0.416799,-0.19571 0.701932,-0.269211 0.285134,-0.0735 0.534469,0.0286 1.114912,-0.16133 0.0962,-0.0315 0.136194,-0.129799 0.251058,-0.175609 0.114863,-0.0458 0.280998,-0.0241 0.569597,-0.159501 0.05948,-0.0279 0.08963,-0.13742 0.171829,-0.175088 0.0822,-0.0377 0.216455,-0.004 0.278056,-0.0509 0.11744,-0.0889 0.161792,-0.195321 0.217365,-0.23917 0.153842,-0.12138 0.212942,-0.112181 0.251672,-0.182541 0.217474,-0.3951 0.705792,-1.423491 0.927592,-2.009439 0.2218,-0.585949 0.294995,-0.739431 0.296035,-1.055691 0.0033,-0.995478 -0.92433,-2.380318 -0.888823,-2.940478 0.03551,-0.560163 0.472273,-2.881202 -0.03634,-3.762963 -0.508611,-0.881769 -3.025769,-4.862208 -3.153415,-5.199499 -0.127645,-0.33729 -0.269729,-1.525169 -0.10337,-1.79197 0.166354,-0.266811 4.78813,0.303192 7.02755,0.288071 1.018173,-0.007 2.25324,0.44596 3.99846,0.818031 1.745221,0.372078 4.027754,0.680907 5.341484,0.743727 0.81644,0.039 2.47099,0.269881 4.57373,0.346462 1.58118,0.0576 3.44033,-0.062 5.25073,0.0841 1.23672,0.0998 5.84177,0.38422 7.78467,0.229309 3.2458,-0.258789 9.04935,-1.600038 11.34438,-1.996778 2.29785,-0.397241 3.95317,-0.633982 6.57512,-1.438212 3.32446,-1.019709 5.90397,-2.2254 6.13238,-2.123689 0.11989,0.0534 0.14569,0.12055 1.0474,1.64714 0.90172,1.52659 3.20106,5.75214 3.14398,6.36411 -0.0661,0.7091 -1.28997,1.648579 -2.32083,2.85351 -0.87966,1.0282 -1.57123,2.128298 -1.5902,2.217 -0.0412,0.19264 0.0473,0.587039 -0.0493,0.737251 -0.0966,0.150209 -1.8314,1.296908 -2.05764,1.389369 -0.22625,0.0925 -2.42655,0.333309 -2.89511,0.450279 -0.46856,0.11694 -1.84442,1.74114 -1.93604,1.976011 -0.0916,0.234871 -0.10448,2.032519 -0.009,2.201389 0.0226,0.0396 0.21047,0.111202 0.48464,0.191241 0.27044,0.079 0.54797,0.212471 0.86909,0.31111 0.21209,0.0651 0.23207,0.174699 0.44201,0.23001 0.19161,0.0505 0.48466,0.0185 0.63907,0.061 0.2663,0.0732 0.39038,0.202279 0.45005,0.209389 0.24777,0.0295 2.3723,0.0398 2.44876,0.008 0.14903,-0.0609 0.13602,-0.175051 0.32585,-0.278641 0.18982,-0.1036 1.44903,0.531421 1.97651,0.60393 0.52748,0.0725 0.62246,0.0786 1.32781,0.01971 0.82291,-0.0687 0.58861,-0.205351 0.96011,-0.244981 0.5694,-0.0607 1.16665,-0.200019 1.71068,-0.29569 0.45071,-0.0793 0.86489,-0.11384 1.19643,-0.181679 0.28252,-0.0578 0.3882,-0.220609 0.51255,-0.255309 0.35743,-0.0998 1.18072,-0.0485 1.96971,-0.0926 0.41599,-0.02331 0.49656,-0.17145 0.85024,-0.239818 0.25255,-0.0488 0.6181,0.0522 0.86485,-0.0423 0.12212,-0.0468 0.1341,-0.15675 0.24513,-0.230881 0.11092,-0.074 0.27869,-0.0545 0.38958,-0.131968 0.20013,-0.139812 0.40806,-0.421079 0.59933,-0.5963 1.65072,-1.51221 6.82516,-10.230022 7.34377,-10.950741 0.51861,-0.720731 1.66583,-1.53044 2.17642,-2.71571 0.5106,-1.18526 -0.0126,-3.900919 0.32221,-4.1495 0.30103,-0.223499 0.30126,0.0844 0.73428,0.218371 0.20782,0.0643 0.42053,-0.11289 0.93003,0.0648 0.14149,0.0493 0.16674,0.152381 0.30039,0.23437 0.0825,0.0506 0.23883,0.0606 0.39189,0.142431 0.14245,0.0761 0.0544,0.205028 0.27229,0.266668 0.15044,0.0426 0.30883,-0.0145 0.46129,0.0515 0.11079,0.048 0.19193,0.21063 0.29136,0.269791 0.23555,0.14016 0.39979,0.123568 0.53582,0.242998 0.701,0.61545 1.63251,1.657311 2.06818,2.013421 0.43568,0.356122 1.23679,0.464201 1.55552,0.70325 0.0893,0.0669 0.32595,0.469071 0.93694,2.230231 0.31048,0.89494 0.64245,2.284748 1.0031,3.485308 0.36065,1.200552 0.75517,2.225752 0.75587,2.29988 0.002,0.230781 -0.0163,1.256991 -0.61125,1.67658 -0.59494,0.4196 -1.26928,0.324303 -1.59169,0.46228 -0.32241,0.137991 -2.06483,1.74648 -2.07369,2.408341 -0.009,0.66186 1.47074,1.46146 1.92526,1.608669 0.24399,0.079 0.97616,0.258252 1.46368,0.312103 0.48752,0.0538 0.74909,-0.0131 0.81838,0.0011 0.0613,0.01259 -0.0365,0.274841 0.0876,0.368231 0.17863,0.13452 0.58123,0.16042 0.72731,0.21848 0.11861,0.0471 0.48049,0.167031 1.36843,0.130791 0.88794,-0.0362 1.50007,-0.168261 2.26006,-0.332829 1.45928,-0.315992 3.87727,-0.525611 5.12014,-2.28822 1.24287,-1.762602 1.24235,-4.272701 1.37962,-4.522981 0.13727,-0.25028 0.48384,-0.74073 0.58262,-1.182981 0.0988,-0.442241 -0.0899,-2.4301 -0.15799,-3.02115 -0.0681,-0.59105 -0.6033,-1.778609 -1.29303,-4.287571 -0.25872,-0.94112 -0.57273,-2.28292 -0.68852,-3.09109 -0.11578,-0.808159 -0.0245,-1.155498 -0.14375,-1.616109 -0.2269,-0.876199 -0.56614,-1.041299 -0.60677,-1.332021 -0.0406,-0.290719 0.62637,-0.203578 0.50064,-3.108838 -0.12572,-2.90525 -1.90206,-4.40917 -1.82502,-4.84301 0.077,-0.433851 1.46689,-0.771311 2.2262,-2.761761 0.16497,-0.43244 0.40688,-0.73139 0.61961,-1.82454 0.12826,-0.659101 0.10761,-1.71269 0.16154,-2.44811 0.0539,-0.73541 0.20914,-0.71592 0.20544,-1.58178 -0.004,-0.865859 -0.0431,-2.13496 0.0726,-2.275869 0.11573,-0.140912 0.6762,-0.45439 0.98506,-0.943721 0.30885,-0.489331 0.34629,-1.29359 0.40089,-1.605981 0.097,-0.554779 -0.16136,-2.480329 -0.19665,-3.442528 -0.0353,-0.9622 -0.58718,-1.654141 -0.81938,-2.476461 0.004,-0.503089 -0.18418,-1.278289 -0.47283,-2.26518 -0.14992,-0.512601 -1.31771,-3.877341 -2.90957,-6.9243 -1.59186,-3.04697 -3.56431,-5.86323 -4.89966,-7.25285 -1.71334,-1.78298 -4.70278,-4.24741 -7.0025,-5.80709 -2.29973,-1.55968 -3.28079,-2.459151 -5.24149,-3.406951 -2.80679,-1.3568 -5.07236,-1.70078 -7.08221,-2.72776 -1.05099,-0.53705 -2.33309,-1.04294 -3.57601,-1.60056 -1.24292,-0.55762 -2.38521,-1.11884 -4.07023,-1.573361 -2.22166,-0.599338 -4.88986,-1.163518 -8.43197,-1.624579 -3.54211,-0.4610597 -8.09673,-0.7358197 -12.27943,-1.0095797 -4.62771,-0.30289 -9.13628,-0.53231 -12.76633,-0.32348 z"
       id="path827-3"
       inkscape:connector-curvature="0"
       sodipodi:nodetypes="czsszszsssssssssszszzzzzzzzzszsssszszsszszsszsszzssssssssszszszzssszssszssssssszssszzsszszzzzzsssssssssssssszszszsssszsszzszsszszzzzzssszszszssszszzzzszssssssszssszzzzssssssszzssssssssssszzssssssssszsszszzzszssszszzzzszszzzsszzzzszcszszsszszssc" />
  </g>
</svg>
