<?xml version="1.0" encoding="UTF-8" standalone="no"?>
<!-- Created with Inkscape (http://www.inkscape.org/) -->

<svg
   xmlns:dc="http://purl.org/dc/elements/1.1/"
   xmlns:cc="http://creativecommons.org/ns#"
   xmlns:rdf="http://www.w3.org/1999/02/22-rdf-syntax-ns#"
   xmlns:svg="http://www.w3.org/2000/svg"
   xmlns="http://www.w3.org/2000/svg"
   xmlns:sodipodi="http://sodipodi.sourceforge.net/DTD/sodipodi-0.dtd"
   xmlns:inkscape="http://www.inkscape.org/namespaces/inkscape"
   width="193mm"
   height="84mm"
   viewBox="0 0 193 84"
   version="1.1"
   id="svg8"
   inkscape:version="0.92.4 (5da689c313, 2019-01-14)"
   sodipodi:docname="mekong_giant_catfish.svg">
  <defs
     id="defs2" />
  <sodipodi:namedview
     id="base"
     pagecolor="#ffffff"
     bordercolor="#666666"
     borderopacity="1.0"
     inkscape:pageopacity="0.0"
     inkscape:pageshadow="2"
     inkscape:zoom="3.2796268"
     inkscape:cx="378.17774"
     inkscape:cy="205.87092"
     inkscape:document-units="mm"
     inkscape:current-layer="layer2"
     showgrid="false"
     inkscape:window-width="1920"
     inkscape:window-height="1009"
     inkscape:window-x="-8"
     inkscape:window-y="-8"
     inkscape:window-maximized="1" />
  <metadata
     id="metadata5">
    <rdf:RDF>
      <cc:Work
         rdf:about="">
        <dc:format>image/svg+xml</dc:format>
        <dc:type
           rdf:resource="http://purl.org/dc/dcmitype/StillImage" />
        <dc:title></dc:title>
      </cc:Work>
    </rdf:RDF>
  </metadata>
  <g
     inkscape:groupmode="layer"
     id="layer2"
     inkscape:label="Layer 2"
     style="display:inline"
     transform="translate(0,-24)">
    <path
       style="opacity:0.8;fill:#56e3ed;fill-opacity:1;stroke:none;stroke-width:0.14999983;stroke-linecap:butt;stroke-linejoin:miter;stroke-miterlimit:4;stroke-dasharray:none;stroke-opacity:1"
       d="m 188.45864,69.407537 c -0.18666,-0.22401 -0.43346,-0.73574 -2.21343,-1.89854 -1.77997,-1.162803 -5.79178,-3.268939 -10.1617,-4.970381 -8.98783,-3.499438 -17.41025,-4.82013 -22.00292,-6.299847 -3.68025,-1.185743 -4.97298,-1.973189 -6.01124,-2.687198 -1.03826,-0.714012 -1.60625,-1.310041 -4.43916,-2.392653 -5.18697,-1.982232 -14.59663,-2.889573 -14.78854,-3.004038 -0.1919,-0.114466 -3.64943,-2.009698 -3.76425,-2.197112 -0.12103,-0.197539 -0.0969,-0.439109 -0.51529,-1.08518 -1.36802,-2.112648 -2.96007,-3.571241 -3.56403,-4.289536 -0.88421,-1.051586 -1.75694,-1.523961 -3.82534,-3.18751 -1.07109,-0.861441 -1.9363,-0.873371 -2.53908,-1.334929 -0.60279,-0.46156 -2.69333,-2.214951 -3.56918,-2.606728 -2.64757,-1.184292 -4.61173,-1.087195 -5.4277,-1.008992 -0.27449,0.02632 -0.18604,0.342751 -0.11766,0.709103 0.0992,0.531293 0.30606,1.287411 0.45785,1.990957 0.21829,1.011791 0.049,1.689366 -0.0344,1.862438 -0.0834,0.173072 -0.40381,0.05645 -0.44466,0.205934 -0.0408,0.14948 0.1687,0.689764 0.42051,1.26705 0.21123,0.484258 0.45002,0.851705 0.44556,1.100793 -0.01,0.546028 -0.34036,0.500223 -0.31695,0.919034 0.0234,0.418813 1.10146,1.006443 1.08482,1.831302 -0.0167,0.824861 -0.35653,0.610648 -0.37832,0.946218 -0.0218,0.335569 0.54258,1.040152 0.71711,1.281334 0.17453,0.241181 0.35158,0.62494 0.44997,0.939179 0.0987,0.315381 -0.19882,0.120006 -0.20872,0.31717 -0.01,0.197163 0.0449,0.667359 0.10253,0.874226 0.0576,0.206866 0.71124,0.02869 0.84748,0.566975 0.13624,0.538288 -0.0419,0.489191 -0.052,0.650589 -0.0101,0.161401 0.18767,0.491651 0.11416,0.74202 -0.0735,0.250368 -0.10213,0.304868 -0.66127,0.304094 -0.55915,-7.74e-4 -15.300841,-0.703715 -22.418191,-0.774334 -2.94162,-0.02919 -6.21803,0.120691 -10.27076,0.285038 -4.05272,0.164349 -8.76957,0.42318 -8.76957,0.42318 0,0 -1.15282,-0.853318 -2.27912,-1.212707 -0.47213,-0.150654 -0.69529,0.08331 -1.41154,-0.210605 -0.71625,-0.293911 -1.77653,-0.571999 -2.76509,-0.227098 -0.98858,0.344902 -1.92421,2.756066 -1.92421,2.756066 0,0 -8.01238,0.245926 -9.54318,-0.300583 -1.5308,-0.54651 -5.89745,-4.432469 -6.59713,-5.31442 -0.69969,-0.881952 -1.07386,-2.600915 -2.66423,-5.358708 -1.59038,-2.757791 -3.39981,-4.697521 -4.87064,-6.309487 -1.47082,-1.611966 -4.71538,-3.991708 -6.70128,-4.214014 -1.9859,-0.222308 -3.00329,0.324762 -2.98859,0.612045 0.0147,0.287283 1.35156,0.272166 1.80027,0.709452 0.4487,0.437286 0.46997,0.8396 0.5809,1.511941 0.11091,0.672338 -0.38663,2.154412 -0.55429,2.63402 -0.16766,0.479609 -0.90683,0.928072 -1.02286,1.429222 -0.11602,0.501148 0.23125,1.06471 0.21937,1.476832 -0.0119,0.412122 -0.152,0.364617 -0.2078,0.692586 -0.0558,0.327967 0.0424,0.833275 -0.0163,1.250137 -0.0587,0.41686 -0.46498,0.740717 -0.49356,1.242049 -0.0286,0.501333 0.34302,1.979727 0.34118,2.485153 -0.009,0.737042 -0.49553,1.283977 -0.54573,1.80749 -0.0502,0.523514 0.34067,0.958469 0.34402,1.42497 0.003,0.466503 -0.19013,0.695097 -0.19249,1.124992 -0.002,0.429893 0.12057,1.208124 0.22688,1.420049 0.1063,0.211925 0.22782,0.101736 0.31398,0.655756 0.0491,0.315498 -0.0725,0.503056 -0.26433,0.962059 -0.14503,0.347006 -0.0774,0.782169 -0.29249,1.305954 -0.49947,1.216623 -1.72436,2.490154 -1.94334,2.700247 -0.21896,0.210094 -0.69043,0.294233 -0.88854,0.370823 -0.19811,0.07659 -0.55617,1.036018 -1.41495,1.953261 -0.85877,0.917246 -2.4828,1.553058 -2.4828,1.553058 0,0 -0.73258,1.130948 -1.29812,1.726529 -0.56554,0.595583 -1.96981,1.41677 -2.11374,1.609361 -0.14394,0.19259 -0.67613,1.81178 -1.1277,2.612034 -0.45157,0.80025 -1.73182,1.750472 -1.81787,1.99881 -0.086,0.248339 0.49036,1.309619 0.004,2.447693 -0.48605,1.138075 -1.61595,1.850849 -1.71946,2.048636 -0.10351,0.197787 0.13272,1.640273 -1.140549,2.843428 -1.27328,1.203155 -4.18194,2.583237 -4.18194,2.583237 0,0 1.15548,1.71001 6.254339,1.006832 5.09886,-0.703177 4.42869,-1.039224 7.61874,-2.545984 1.07383,-0.507202 3.13152,-1.48649 5.40045,-2.769745 4.47143,-2.528949 9.59248,-5.794564 11.12599,-6.828332 2.31165,-1.558324 4.40745,-2.155082 6.38219,-2.385958 1.97473,-0.230877 3.49933,0.215856 4.22472,0.332969 0.72539,0.117112 1.72648,0.249234 2.17185,0.678232 0.21858,0.21054 0.23365,3.20556 0.26542,3.563657 0.0318,0.358097 0.44404,1.056916 0.46574,1.293752 0.0217,0.236837 0.30436,2.075616 0.91424,4.224981 0.41671,1.468579 1.11569,3.320617 1.59131,4.713689 0,0 0.3632,0.935349 0.98844,2.320438 0.0877,0.19425 0.0781,0.611352 0.16942,0.809023 0.10905,0.236169 0.27934,0.389229 0.40536,0.59956 0.16396,0.273638 0.14807,0.630352 0.34182,0.855413 0.13596,0.157929 0.38221,0.246511 0.47505,0.417078 1.01893,1.87195 0.62049,4.017352 0.62049,4.017352 0,0 0.52664,0.546218 0.79802,1.094734 0.27137,0.548518 0.47264,1.274488 0.48571,2.194885 0.0131,0.920396 -0.33804,1.215046 -0.42316,1.999412 -0.23399,2.156036 -1.33642,1.761888 -1.31747,1.998428 0.0189,0.236541 0.51422,0.09374 1.31158,0.31911 0.5424,0.153306 1.17537,0.428176 2.0241,0.539642 0.53869,0.07075 1.05611,0.285469 1.89167,0.256555 0.83556,-0.02891 2.64473,-0.242024 3.93861,-0.589929 1.29388,-0.347904 2.05025,-0.730926 3.20031,-1.084723 1.17108,-0.360264 2.37165,-0.405825 3.44275,-0.773574 0.96807,-0.332382 1.82349,-0.877072 2.57974,-1.152492 3.55007,-1.292921 6.11067,-3.809151 6.11067,-3.809151 l 11.34585,1.507311 c 0,0 -1.45762,0.870351 -1.57039,1.678195 -0.11278,0.807842 0.21957,0.928946 0.15702,1.503387 -0.0626,0.574443 -0.59337,0.80372 -0.62647,1.04206 -0.0331,0.238343 0.59106,0.123372 0.2406,1.191395 -0.35045,1.068023 -1.32031,1.022072 -1.33725,1.458955 -0.0169,0.436883 1.06382,0.275438 0.82057,1.634211 -0.24325,1.358775 -0.86284,1.146424 -0.98794,1.528233 -0.085,0.259341 0.23117,0.74443 0.32543,1.120433 0.0943,0.376005 -0.13609,0.707785 -0.24835,1.468065 -0.0857,0.58032 -0.47399,1.20897 -0.51944,1.82309 -0.0147,0.19919 0.14624,0.26836 0.14444,0.4391 -0.003,0.23874 -0.18407,0.49323 -0.12546,0.69916 0.0586,0.20592 0.42662,0.0522 0.62434,0.21847 0.13661,0.11487 0.13589,0.3552 0.48269,0.32236 1.10994,-0.10509 3.09913,-0.86681 4.12997,-1.43706 1.35292,-0.7484 2.05366,-1.0644 5.360912,-3.571728 3.307269,-2.507329 6.770239,-7.420989 7.348519,-7.803602 0.57828,-0.382611 8.1831,-0.07095 12.5082,-0.01979 4.32509,0.05116 11.26458,0.103898 14.33251,-0.09855 3.06789,-0.202448 9.07099,-1.196026 15.09799,-2.13373 3.50735,-0.539692 8.39961,-1.2516 10.17056,-1.323087 1.77096,-0.07149 4.49646,0.06918 7.31918,-0.146652 2.82272,-0.215831 7.5468,-0.664437 10.70663,-1.604898 3.15983,-0.940464 5.91465,-1.564453 7.56053,-2.618334 0.62771,-0.401927 1.76249,-1.170783 2.47879,-1.827894 0.7163,-0.657112 1.06205,-1.087724 1.50842,-1.730453 0.44636,-0.642727 1.50491,-1.60134 1.37923,-3.845827 -0.0344,-0.679133 -0.0822,-1.325686 0.11565,-1.822337 0.36722,-0.921823 1.16457,-1.216431 1.53852,-1.951238 0.37395,-0.734805 0.29442,-1.314486 0.25665,-1.892102 -0.0378,-0.577616 -0.0439,-0.825583 -0.50831,-1.382921 z"
       id="path827"
       inkscape:connector-curvature="0"
       sodipodi:nodetypes="czsszszsssszsssszzsszzzzszzzzzzszcszzczzzzzzzzzzzzzzczzzzssszzzczzzzzzzczssszzszzscsssssczzszsszzssscczzzzzzszssszssszzzzczzzszzcszzzc" />
  </g>
</svg>
