<?xml version="1.0" encoding="UTF-8" standalone="no"?>
<!-- Created with Inkscape (http://www.inkscape.org/) -->

<svg
   xmlns:dc="http://purl.org/dc/elements/1.1/"
   xmlns:cc="http://creativecommons.org/ns#"
   xmlns:rdf="http://www.w3.org/1999/02/22-rdf-syntax-ns#"
   xmlns:svg="http://www.w3.org/2000/svg"
   xmlns="http://www.w3.org/2000/svg"
   xmlns:sodipodi="http://sodipodi.sourceforge.net/DTD/sodipodi-0.dtd"
   xmlns:inkscape="http://www.inkscape.org/namespaces/inkscape"
   width="180mm"
   height="137mm"
   viewBox="0 0 180 137"
   version="1.1"
   id="svg8"
   inkscape:version="0.92.4 (5da689c313, 2019-01-14)"
   sodipodi:docname="african_elephant.svg">
  <defs
     id="defs2" />
  <sodipodi:namedview
     id="base"
     pagecolor="#ffffff"
     bordercolor="#666666"
     borderopacity="1.0"
     inkscape:pageopacity="0.0"
     inkscape:pageshadow="2"
     inkscape:zoom="1.4088798"
     inkscape:cx="306.04255"
     inkscape:cy="270.14818"
     inkscape:document-units="mm"
     inkscape:current-layer="layer2"
     showgrid="false"
     inkscape:window-width="1920"
     inkscape:window-height="1009"
     inkscape:window-x="-8"
     inkscape:window-y="-8"
     inkscape:window-maximized="1" />
  <metadata
     id="metadata5">
    <rdf:RDF>
      <cc:Work
         rdf:about="">
        <dc:format>image/svg+xml</dc:format>
        <dc:type
           rdf:resource="http://purl.org/dc/dcmitype/StillImage" />
        <dc:title></dc:title>
      </cc:Work>
    </rdf:RDF>
  </metadata>
  <g
     inkscape:groupmode="layer"
     id="layer2"
     inkscape:label="Layer 2"
     transform="translate(0,-8)"
     style="display:inline">
    <path
       style="opacity:0.8;fill:#b372df;fill-opacity:1;stroke:none;stroke-width:0.15000001;stroke-linecap:butt;stroke-linejoin:miter;stroke-miterlimit:4;stroke-dasharray:none;stroke-opacity:1"
       d="m 22.821878,42.918452 c 0.336398,-0.174268 0.730847,0.174659 1.005659,-0.03783 0.09356,-0.07234 0.423622,-0.352951 0.582284,-0.397 0.18183,-0.05048 0.36429,0.0107 0.516477,-0.128251 0.214241,-0.195603 0.238425,-0.651747 0.554752,-0.858255 0.254516,-0.166155 0.828171,-0.0047 1.102507,-0.227244 0.141997,-0.115185 0.05864,-0.494133 0.208457,-0.616596 0.218444,-0.178556 0.567585,0.09461 0.801836,-0.09736 0.274679,-0.225103 -0.03733,-0.91849 0.255516,-1.161218 0.237272,-0.196667 0.741119,-4.91e-4 0.990731,-0.206096 0.157076,-0.129384 0.04097,-0.35243 0.202077,-0.485437 0.220338,-0.181911 0.582257,-0.198695 0.809945,-0.386376 0.259884,-0.214219 0.03456,-1.043966 0.302082,-1.265049 0.417432,-0.344973 1.151453,-0.20514 1.587097,-0.557113 0.736218,-0.594818 1.548142,-1.049341 2.266688,-1.707101 0.396652,-0.363098 0.883417,-0.719853 1.255366,-1.133193 0.26043,-0.289411 0.58573,-0.722012 0.867202,-0.961028 0.567646,-0.482026 1.023124,-0.744023 1.577445,-1.20649 0.235904,-0.196813 0.440189,-0.481552 0.673901,-0.66976 0.420022,-0.338243 0.885141,-0.515955 1.296183,-0.813337 0.992899,-0.718346 1.892089,-1.469457 2.68485,-2.047286 1.583046,-1.153853 2.818315,-2.13578 3.09049,-2.232343 1.360191,-0.482571 1.474457,0.0022 3.538306,-0.291712 1.482059,-0.211055 3.392328,-0.926999 5.135794,-0.981093 3.135351,-0.09728 5.695481,0.71274 6.896116,0.749567 2.797986,0.08582 3.524067,-1.74223 9.939481,-3.602843 6.415414,-1.860613 8.328288,-0.38146 8.328288,-0.38146 l 1.335709,1.898736 c 0,0 2.59044,-0.06809 5.713491,1.072571 2.062662,0.753369 1.746155,1.649262 3.361613,2.690173 2.210087,1.424062 2.935291,2.42594 4.696482,2.982576 0.897504,0.283665 7.731957,0.257239 14.167137,-0.149862 6.19261,-0.391755 8.10676,-0.670674 12.46357,-1.505318 4.35681,-0.834644 6.07851,-3.356685 14.6324,-3.513059 8.5539,-0.156375 14.04951,3.823052 21.20267,8.63714 7.15315,4.814087 11.66697,11.764219 14.17744,16.152285 2.51047,4.388066 3.72957,7.996769 4.10625,10.492853 0.12119,0.803045 0.24478,5.295585 -0.004,10.930262 -0.14431,3.26395 -0.85012,6.928439 -1.06455,10.526967 -0.43727,7.338323 -0.77196,11.286825 -0.93196,14.040969 -0.0198,0.341775 0.0399,1.143047 0.10987,2.068923 0.0501,0.662437 -0.0751,1.758066 -0.40926,1.988774 -0.33417,0.230709 -0.94425,0.297595 -1.57707,-0.05582 -0.7466,-0.416954 0.0322,-0.738286 -0.60468,-1.004144 -0.64032,-0.267306 -0.43595,-1.528964 -0.43595,-1.528964 0,0 0.51729,-2.871645 0.7478,-7.189525 0.23052,-4.31788 0.25333,-8.045846 0.34598,-10.638742 0.19069,-5.336939 -0.17083,-13.192613 -0.17083,-13.192613 0,0 -1.99985,5.959465 -2.81923,7.991871 -0.81937,2.032406 -1.39984,2.453758 -1.78245,3.560864 -0.38262,1.107107 -0.34986,1.953022 -0.56573,3.008038 -0.15828,0.773534 -0.48642,0.859629 -0.54243,1.636063 -0.0663,0.919461 0.0762,1.619453 0.13217,2.254165 0.0109,0.123358 0.15415,1.288145 0.38961,2.931794 0.1029,0.718276 0.28066,1.022424 0.3253,2.175873 0.0364,0.939308 -0.0369,1.919415 -0.0105,2.997238 0.18777,7.672384 0.13584,11.603184 0.20902,17.148664 0.003,0.22109 -0.17311,0.67232 -0.15679,0.92393 0.0151,0.23234 0.10062,0.25966 0.13974,0.51009 0.0181,0.11617 -0.0335,0.23701 -0.0123,0.36188 0.0632,0.37269 0.17469,0.76669 0.32724,1.18686 0.0601,0.16539 0.18581,0.33483 0.22778,0.50862 0.0304,0.12585 -0.0307,0.29865 -0.004,0.39224 0.0724,0.25517 0.2311,0.37353 0.36939,0.78629 0.14223,0.42455 -0.16389,0.37286 -0.0906,0.61519 0.15146,0.50089 0.67873,0.6735 0.8219,1.20495 0.0529,0.19632 0.001,0.40292 0.0556,0.60195 0.30718,1.12374 0.62463,2.28993 0.94197,3.44649 0.17241,0.62834 0.33241,1.25384 0.5191,1.86814 0.61789,2.03313 0.90555,3.09849 1.78499,5.56142 0.51734,1.44884 0.51037,1.86605 0.61958,2.80303 0.0437,0.37509 -0.31986,2.2048 -0.3993,4.23464 -0.11902,3.04085 0.82568,4.20498 0.16237,5.767 -0.33769,0.79524 -4.91246,1.22641 -9.2859,1.18985 -4.21692,-0.0353 -6.9775,-0.43774 -8.64147,-0.84737 -1.66396,-0.40963 -2.63711,-0.75845 -2.7286,-1.36093 -0.0893,-0.58778 1.36015,-1.77826 2.02127,-2.66655 0.66111,-0.8883 1.29189,-1.36509 2.08606,-2.575 0.79417,-1.20991 2.28093,-3.03083 2.20262,-7.48214 -0.008,-0.45311 -0.13724,-1.09303 -0.16241,-1.82776 -0.0271,-0.79094 0.13211,-1.69663 0.0381,-2.58769 -0.0988,-0.93629 -0.28846,-0.19784 -0.83698,-3.39645 -0.1425,-0.83102 -0.30388,-2.11654 -0.56645,-3.24031 -0.26258,-1.12376 -0.56228,-2.10912 -0.80693,-3.11702 -0.26055,-1.07341 -1.01378,-2.02468 -1.24638,-2.45835 -0.23259,-0.43367 -0.37769,-1.49795 -1.04235,-1.4739 -0.0949,0.003 -0.32762,0.53728 -0.65689,1.45003 -0.0624,0.17306 -0.35839,0.32681 -0.51118,0.68733 -0.0289,0.0682 -0.43091,1.41004 -0.66398,2.2094 -0.0635,0.21779 -0.23097,0.43209 -0.37515,0.66693 -0.14417,0.23485 -0.32185,0.43825 -0.36473,0.58562 -0.0974,0.33462 -0.58469,1.52294 -0.66236,1.8617 -0.0167,0.0729 -0.25144,0.97722 -0.60952,2.35151 -0.0634,0.2434 -0.41543,0.73653 -0.54348,1.11457 -0.0287,0.0848 -0.37534,1.16752 -0.73142,2.20369 -0.35608,1.03616 -0.69097,1.87286 -1.00207,3.14766 -0.36754,1.50605 -0.50049,2.53278 -0.93294,4.69371 -0.14396,0.71937 -0.29385,0.91156 -0.56595,2.1785 -0.0391,0.182 -0.28298,0.41151 -0.36519,0.82564 -0.0822,0.41412 -0.33451,1.12053 -0.39257,1.69208 -0.0581,0.57154 0.15979,0.54324 0.21335,1.03303 0.0536,0.4898 -2.15756,2.28809 -3.38983,3.23238 -1.23227,0.94429 -2.21798,2.06895 -3.82913,2.31947 -0.70793,0.11008 -2.37002,-0.0905 -4.29936,-0.11702 -1.92934,-0.0265 -4.49961,0.0499 -4.986,-0.29916 -0.48638,-0.34909 -1.03355,-0.45021 -0.83999,-1.7669 0.12299,-0.83663 1.52693,-2.83589 3.16027,-4.77509 0.90326,-1.07241 2.27489,-2.85956 2.87937,-4.04096 0.71546,-1.39831 2.76987,-5.7542 4.14503,-10.43285 0.28115,-0.95658 0.84602,-2.08171 1.09395,-3.03509 1.34938,-5.18892 1.53545,-7.86871 1.62227,-9.84956 0.0122,-0.27854 0.14082,-1.06667 0.0863,-1.66099 -0.0409,-0.44574 -0.26595,-0.66396 -0.27446,-1.12816 -0.017,-0.92572 0.23302,-1.76315 0.0596,-2.60204 -0.29835,-1.443061 -0.37669,-2.320896 -0.73341,-2.949976 -0.29935,-0.5279 -0.12788,-0.959109 -0.45977,-1.213386 -0.11529,-0.08833 -0.89148,0.07063 -2.02954,0.143947 -1.24049,0.07992 -3.42144,0.293382 -5.06377,0.30505 -0.53347,0.0038 -1.15326,0.100504 -1.65586,-0.01841 -0.40105,-0.09489 -0.68089,-0.324397 -1.12308,-0.32841 -0.52943,-0.0048 -1.0701,0.05754 -1.6302,0.10626 -1.18974,0.103497 -2.4171,0.168238 -3.45921,0.170533 -3.12556,0.0069 -3.56961,-0.167616 -6.35739,-0.490692 -1.03856,-0.120359 -3.83566,-0.508166 -7.05903,-1.49913 -2.09675,-0.644606 -4.35469,-1.634885 -6.66451,-2.663294 -3.00026,-1.335815 -4.939001,-2.670312 -4.939001,-2.670312 0,0 0.746524,4.508811 -0.20787,8.086233 -0.380627,1.426729 -1.792911,2.892887 -2.787795,4.517187 -1.499721,2.44851 -1.816198,3.13535 -2.948892,6.29716 -0.481177,1.34318 -1.274324,4.05771 -1.997538,8.54712 -0.0642,0.39875 -0.0668,1.56811 -0.12199,1.99116 -0.0993,0.76083 -0.485638,1.54257 -0.56156,2.29098 -0.160516,1.58233 -0.166079,3.02199 -0.233429,4.14328 -0.0825,1.37353 -0.207767,2.26222 -0.207767,2.26222 0,0 -0.08168,0.54429 -0.13466,1.17002 -0.02301,0.27183 -0.156761,0.41493 -0.213461,0.61442 -0.07382,0.25971 -0.07154,0.54566 -0.08169,0.62633 -0.04975,0.3955 -0.132423,0.32223 -0.143591,0.6274 -0.01539,0.42057 0.154762,0.72731 0.161725,1.18181 0.0071,0.46025 -0.192884,0.88915 -0.205241,1.30312 -0.02163,0.72476 0.138018,0.91167 0.169844,1.27264 0.03183,0.36096 -0.06208,0.33345 0.04208,0.76929 0,0 0.175724,0.59199 0.289164,1.09907 0.05565,0.24876 0.519815,1.54098 0.692081,2.6499 0.178895,1.15156 0.270655,1.86286 -0.05788,2.13402 -0.328533,0.27116 -8.892518,0.44279 -13.342905,0.50363 -3.161695,0.0432 -7.875583,-0.28477 -8.853409,-0.37944 -0.977825,-0.0947 -2.239874,0.0416 -2.251742,-0.80291 -0.0058,-0.40955 0.722704,-0.67653 1.492661,-1.24355 0.769958,-0.56701 2.566633,-2.88079 3.328963,-3.76437 0.173403,-0.20098 0.04597,-0.29287 0.27365,-0.61835 0.424153,-0.60634 0.967435,-0.56303 1.365403,-2.15163 0.06053,-0.24162 0.03697,-0.54105 0.134672,-0.72685 0.106823,-0.20314 0.361882,-0.16888 0.359192,-0.43432 -0.0034,-0.34004 -0.578769,-0.35836 -0.613074,-0.66005 -0.09131,-0.803 0.30306,-0.91641 0.295721,-1.17744 -0.011,-0.39143 -0.816444,-0.42216 -1.064552,-1.08507 -0.152164,-0.40656 0.05102,-0.86801 -0.04653,-1.35237 -0.144575,-0.71789 -0.476689,-0.279 -0.520829,-1.1783 -0.0094,-0.19246 0.219003,-0.80603 0.199442,-1.74037 -0.02322,-1.109 0.120784,-2.29522 0.05891,-3.80043 -0.04624,-1.12503 -0.225782,-2.28902 -0.304473,-3.33295 -0.141786,-1.88099 -0.05573,-1.93381 -0.207471,-3.47335 -0.0356,-0.36124 -0.156652,-1.23987 -0.323211,-2.60589 -0.132248,-1.08461 -0.231218,-2.55523 -0.549824,-4.21806 -0.132172,-0.68982 0.02369,-1.42055 -0.187108,-2.47328 -0.149605,-0.74711 -0.283117,-1.49958 -0.546568,-2.25622 -0.630887,-1.81194 -1.500222,-6.227309 -1.597324,-7.674623 -0.0971,-1.447314 0.76402,-6.156081 1.253592,-9.006969 0.238704,-1.390024 0.151905,-8.052405 -0.03426,-9.928132 -0.18617,-1.875727 -0.309987,-1.19862 -0.476016,-3.185007 -0.09984,-1.194475 -0.278321,-2.664046 -0.384639,-3.767752 -0.07049,-0.731735 -0.0613,-1.31065 -0.149489,-1.513128 -0.05693,-0.130711 -0.583889,0.02043 -1.121245,0.277678 -0.334572,0.160168 -0.673176,0.405131 -0.904873,0.51543 -0.169596,0.08074 -0.334457,0.04871 -0.334457,0.04871 0,0 -0.557756,0.217824 -1.031078,0.619334 -0.190701,0.161768 -0.270494,0.40843 -0.438709,0.592406 -0.270558,0.295909 -0.611434,0.520183 -0.821599,0.64758 -0.665148,0.403194 -1.029476,0.537025 -1.828812,0.55537 -0.799336,0.01834 -2.070274,-0.867804 -2.070274,-0.867804 0,0 -3.067584,0.604022 -4.517852,-0.239561 -0.585201,-0.340396 -1.03026,-0.94521 -1.218018,-1.262637 -0.27755,-0.469233 -0.349207,-0.611516 -0.451277,-1.596247 -0.10207,-0.984731 0.667976,-3.018934 -0.0168,-2.954878 -0.462088,0.06601 -2.45316,0.292872 -4.518897,0.391134 -2.042545,0.09716 -4.157452,0.06541 -5.050967,0.18558 -0.353953,0.0476 -0.649733,0.488138 -1.14848,0.615253 -0.778646,0.198453 -1.778203,0.08905 -2.609741,0.283278 -0.46002,0.107453 -0.836039,0.340798 -1.16899,0.394894 -0.637059,0.103507 -0.6661,-0.13616 -1.126115,0.03954 -0.460014,0.175697 -0.670189,1.244558 -2.080419,1.227272 -1.410231,-0.01728 -1.452773,-0.861734 -1.732677,-1.897558 -0.111596,-0.412976 0.241646,-0.897687 0.415242,-1.5371 0.119019,-0.438383 0.08731,-0.892032 0.211508,-1.346574 0.149013,-0.545363 0.434729,-1.066975 0.298099,-1.229309 -0.115568,-0.13731 -0.925085,0.161584 -1.763662,0.277607 -0.549742,0.07606 -1.300147,0.119949 -1.702011,-0.01137 -0.313878,-0.102564 -0.28166,-0.389869 -0.652382,-0.340477 -1.159583,0.154492 -0.743622,-0.24225 -1.446445,-0.194762 -0.266036,0.01798 -0.784936,0.452769 -1.633964,1.011939 -0.849028,0.559169 -1.538516,1.031403 -3.109809,1.868387 -1.571293,0.836983 -2.402815,1.294634 -6.350559,1.970976 -3.947743,0.676343 -6.211491,-0.0836 -6.167063,-0.594256 0.05569,-0.640072 1.412801,-0.657907 2.784102,-0.986037 1.162041,-0.278057 2.071539,-0.711129 2.071539,-0.711129 0,0 -2.369291,0.03809 -4.124369,-0.33428 -1.161829,-0.246498 -1.814801,-0.757104 -1.815718,-1.170349 -0.0027,-1.218875 5.057416,-0.727869 8.298277,-1.905994 3.24086,-1.178125 4.169705,-1.567754 4.206382,-1.729996 0.03221,-0.142472 -0.212074,-0.159722 -0.480982,-0.321731 -0.186368,-0.11228 -0.355229,-0.35276 -0.573219,-0.51036 C 21.765662,57.175097 20.665366,57.424665 19.41834,56.808146 18.541395,56.374592 17.707626,55.7641 16.836197,55.385079 15.587506,54.84197 16.011988,54.709996 15.448626,54.375996 15.251429,54.259084 14.624459,54.000146 14.016396,53.548158 13.723441,53.330398 13.567639,53.04832 13.275498,52.768457 12.973446,52.4791 12.53472,52.190815 12.210722,51.898041 11.640329,51.382616 11.244076,50.851319 10.820499,50.371093 10.206832,49.675355 9.540222,48.913503 9.0354238,48.110634 8.4051256,47.10816 7.9745879,46.04174 7.6083115,44.96023 7.4278512,44.427382 7.3924455,44.114153 7.3134028,43.656448 c -0.05643,-0.326762 -0.243595,-0.684747 -0.284313,-1.033558 -0.03847,-0.329519 0.06771,-0.65085 0.07413,-0.929936 0.0069,-0.299278 -0.102564,-0.608145 -0.114561,-0.856802 -0.02116,-0.438656 0.0455,-0.633823 0.140321,-1.1466 0.02893,-0.15646 0.03077,-0.505924 0.07121,-0.693668 0.110163,-0.511417 0.3199575,-0.98842 0.4574927,-1.42949 0.049827,-0.159793 0.030405,-0.411083 0.083933,-0.564736 0.070448,-0.202222 0.2122387,-0.304088 0.2566501,-0.49054 0.049595,-0.208214 0.02253,-0.404774 0.09882,-0.585618 0.133225,-0.315814 0.4189957,-0.416884 0.5533587,-0.66316 0.08133,-0.149074 0.04742,-0.442661 0.152285,-0.636273 0.1971347,-0.36395 0.5082427,-0.646682 0.7315384,-0.991954 0.332613,-0.514301 0.5290343,-0.747987 0.7959993,-1.256954 0.03097,-0.05905 -0.04267,-0.412568 0.0057,-0.643864 0.03524,-0.168574 0.292008,-0.310319 0.422915,-0.56901 0.104321,-0.206154 0.08088,-0.516469 0.148648,-0.756971 0.0497,-0.17638 0.134511,-0.493115 0.128867,-0.678205 -0.0051,-0.167428 -0.102092,-0.203317 -0.04179,-0.362485 0.115914,-0.30596 0.475126,-0.366656 0.530467,-0.701695 0.04243,-0.256908 -0.202133,-0.401448 -0.23488,-0.639839 -0.02736,-0.19917 0.100004,-0.375518 0.133736,-0.600749 0.02792,-0.186399 -0.03927,-0.421766 -0.0343,-0.592729 0.0033,-0.112623 0.08544,-0.378995 0.09075,-0.556719 0.0066,-0.221665 -0.175478,-0.474725 -0.137429,-0.637546 0.06586,-0.281837 0.20861,-0.323452 0.200493,-0.591224 -0.0063,-0.20773 -0.18865,-0.343307 -0.214299,-0.53224 -0.02006,-0.147734 0.109118,-0.356011 0.09269,-0.490163 -0.01792,-0.146325 -0.194386,-0.262491 -0.27584,-0.426814 -0.09638,-0.194439 0.0545,-0.352686 -0.03339,-0.521293 -0.12145,-0.232993 -0.366541,-0.269899 -0.467285,-0.446233 -0.100745,-0.176335 0.05656,-0.390729 -0.08065,-0.544927 -0.137203,-0.154199 -0.532485,-0.106118 -0.6762513,-0.284602 -0.123053,-0.152769 0.105688,-0.470672 -0.0225,-0.581581 -0.128187,-0.110909 -0.308712,0.01241 -0.382927,-0.140426 -0.07422,-0.152837 0.126216,-0.40706 0.01754,-0.632249 -0.03201,-0.06632 -0.3661127,0.0835 -0.5762834,-0.118917 -0.123392,-0.118842 -0.01759,-0.43662 -0.143788,-0.595553 -0.06909,-0.08701 -0.305885,-0.05339 -0.3830947,-0.133278 -0.06734,-0.06968 4.7e-5,-0.264345 -0.05788,-0.332845 -0.09342,-0.110483 -0.291273,-0.117665 -0.377925,-0.184399 C 7.8169445,18.969229 7.8089225,18.78991 7.0284928,18.873353 6.5147461,18.928283 6.2576994,19.511154 5.8732704,19.70406 5.6195197,19.831393 5.2416067,19.68099 5.066335,19.463237 4.6255293,18.915592 5.4664597,18.008998 6.0063824,17.330081 c 0.185095,-0.232745 0.124126,-0.73669 0.204992,-1.724624 0.02669,-0.326103 0.08455,-0.925221 -0.12363,-1.588175 -0.3541527,-1.127806 -1.7018241,-0.60184 -1.1295264,-1.303053 0.5722987,-0.701212 2.2409588,-0.367014 4.7324633,1.258975 2.4915057,1.625988 5.8507077,4.722172 7.4236437,7.173758 1.572935,2.451586 2.399231,4.191712 2.558142,6.854782 0.0833,1.395963 -0.832341,4.935323 -1.685621,7.591068 -0.85328,2.655745 -0.837775,2.376585 -1.036966,4.113644 -0.03143,0.274112 0.150008,0.552973 0.203211,0.823261 0.08951,0.454718 0.12398,0.88517 0.417767,1.227916 0.375704,0.438313 0.79666,0.917902 1.237409,1.154371 0.307958,0.165224 0.664716,0.133484 0.856482,0.217984 0.231403,0.101965 0.597277,0.308731 1.04534,0.333624 0.234828,0.01305 0.509773,-0.06796 0.778038,0.0054 0.27109,0.07417 0.535359,0.302134 0.744516,0.194445 0.568599,-0.292757 0.252837,-0.57078 0.589235,-0.745047 z"
       id="path831"
       inkscape:connector-curvature="0"
       sodipodi:nodetypes="csssssssssssssssssssssssszccsssszzzzssssszssczsczzsssssssssssssssssssssssszszzsssszszsssszsssszssszzzzszzsssssssssssssssssssscssssssscsssssszcsszszszsssssssssssssssssszszssssscssszcsszcssssszzsssssssszzzsscsszsssssssssssssssssssssssssssssssssssssssssszzszzsssssssssssszzzszsssssssszc" />
  </g>
</svg>
