<?xml version="1.0" encoding="UTF-8" standalone="no"?>
<!-- Created with Inkscape (http://www.inkscape.org/) -->

<svg
   xmlns:dc="http://purl.org/dc/elements/1.1/"
   xmlns:cc="http://creativecommons.org/ns#"
   xmlns:rdf="http://www.w3.org/1999/02/22-rdf-syntax-ns#"
   xmlns:svg="http://www.w3.org/2000/svg"
   xmlns="http://www.w3.org/2000/svg"
   xmlns:sodipodi="http://sodipodi.sourceforge.net/DTD/sodipodi-0.dtd"
   xmlns:inkscape="http://www.inkscape.org/namespaces/inkscape"
   width="175mm"
   height="232mm"
   viewBox="0 0 175 232"
   version="1.1"
   id="svg8"
   inkscape:version="0.92.4 (5da689c313, 2019-01-14)"
   sodipodi:docname="giraffe.svg">
  <defs
     id="defs2" />
  <sodipodi:namedview
     id="base"
     pagecolor="#ffffff"
     bordercolor="#666666"
     borderopacity="1.0"
     inkscape:pageopacity="0.0"
     inkscape:pageshadow="2"
     inkscape:zoom="0.66245342"
     inkscape:cx="-40.536067"
     inkscape:cy="459.89548"
     inkscape:document-units="mm"
     inkscape:current-layer="layer2"
     showgrid="false"
     inkscape:window-width="1920"
     inkscape:window-height="1009"
     inkscape:window-x="-8"
     inkscape:window-y="-8"
     inkscape:window-maximized="1" />
  <metadata
     id="metadata5">
    <rdf:RDF>
      <cc:Work
         rdf:about="">
        <dc:format>image/svg+xml</dc:format>
        <dc:type
           rdf:resource="http://purl.org/dc/dcmitype/StillImage" />
        <dc:title></dc:title>
      </cc:Work>
    </rdf:RDF>
  </metadata>
  <g
     inkscape:groupmode="layer"
     id="layer2"
     inkscape:label="Layer 2"
     transform="translate(0,-18)">
    <path
       style="opacity:0.8;fill:#dd8b37;fill-opacity:1;stroke:none;stroke-width:0.15000001;stroke-linecap:butt;stroke-linejoin:miter;stroke-miterlimit:4;stroke-dasharray:none;stroke-opacity:1"
       d="m 34.95196,54.059395 c 0.124188,0.148329 0.11651,0.380983 0.214744,0.505539 0.09823,0.124557 0.323618,0.239388 0.323618,0.239388 l 0.309939,0.27098 c 0,0 0.02256,0.21793 0.08264,0.310542 0.06008,0.09261 0.258509,0.154387 0.258509,0.154387 0,0 9.23e-4,0.07979 0.07654,0.185685 0.02056,0.02879 0.115473,0.0369 0.165101,0.08199 0.05527,0.05022 0.02853,0.146572 0.08457,0.210967 0.05605,0.0644 0.185717,0.09007 0.185717,0.09007 0,0 -0.01345,0.152509 0.03964,0.215805 0.05309,0.0633 0.219772,0.133247 0.219772,0.133247 l 0.007,0.264323 0.213277,0.139649 0.07174,0.375695 0.236246,0.124121 -0.0065,0.248076 0.249829,0.136297 c 0,0 0.03143,0.17882 0.05383,0.251597 l 0.225336,0.133651 0.01976,0.275822 0.208707,0.09186 0.107476,0.322642 0.192324,0.2131 0.06929,0.213891 0.201505,0.11116 0.03977,0.31568 0.220365,0.117053 0.06686,0.253473 0.208832,0.157454 0.08104,0.283862 c 0.167156,0.339008 0.434411,0.577915 0.706122,0.812367 l 0.09787,0.463896 0.646428,1.092566 c 0.08861,0.353134 0.227483,0.555461 0.348334,0.811864 l 0.188156,0.236359 0.08634,0.29651 0.214861,0.22723 0.09137,0.295979 0.181768,0.147096 0.138897,0.322326 7.366913,12.728737 c 0,0 1.722273,2.710089 3.364204,5.502874 1.011685,1.720792 1.957495,3.543726 2.556478,4.572753 0.563863,0.968691 3.960974,5.86693 7.857533,11.164446 1.402041,1.906136 2.883512,3.637906 4.346312,5.643596 0.382152,0.52397 0.991207,1.44634 1.369483,1.96662 0.599016,0.82388 1.410179,1.63188 2.020046,2.4074 0.50072,0.63672 0.800705,1.25155 1.291204,1.8353 0.642553,0.76471 1.306684,1.42038 1.837077,2.15267 0.529509,0.73107 0.87626,1.48611 1.322972,2.13981 0.503572,0.7369 1.103988,1.24305 1.508621,1.84607 0.432784,0.64499 0.588297,1.48186 0.868031,1.96583 0.535095,0.92579 1.448453,1.67784 1.763838,2.41158 0.07616,0.17719 0.09536,0.69545 0.31062,1.10976 0.300999,0.57936 0.922899,1.10038 0.976934,1.67948 0.506807,5.43144 -1.121811,5.65068 -1.713133,8.15417 -0.591323,2.5035 -2.018442,3.56187 -1.90886,6.83713 0.07191,2.14939 2.387346,6.3697 4.029012,9.18814 0.859923,1.47633 1.456281,2.49006 1.61481,2.78933 0.961034,1.81423 2.39767,7.63231 3.476435,13.29149 0.854303,4.48167 1.338448,6.60109 1.647714,8.24381 0.309267,1.64273 0.771018,3.47089 0.942982,5.03817 0.223748,2.03925 -0.04362,5.6773 -0.0375,11.53607 0.0024,2.26156 0.69514,6.1547 0.608761,11.12774 -0.03173,1.82679 -0.268867,3.59774 -0.354288,5.31219 -0.231051,4.63736 -0.447333,8.3486 -0.447333,8.3486 0,0 -0.199374,7.65703 -0.424947,10.59266 -0.225573,2.93563 -1.067374,5.61942 -1.289845,6.63752 -0.222471,1.01811 0.205014,1.83373 -0.07981,2.56729 -0.128568,0.33112 -0.694385,1.31631 -1.255156,2.19385 -0.681533,1.06653 -1.367456,2.04511 -1.402535,2.40089 -0.06394,0.64851 0.472335,0.96938 0.472335,0.96938 0,0 -0.61587,1.07557 -1.277996,2.0739 -0.563342,0.84939 -1.201288,1.62231 -1.081747,1.84941 0.131176,0.2492 2.343479,0.23327 4.558108,0.26368 2.17565,0.0299 4.352675,0.11051 4.656822,-0.13969 0.613747,-0.5049 1.931061,-1.9905 1.613751,-3.12938 -0.0989,-0.35505 -0.249997,-0.76301 -0.536367,-1.03484 -0.284057,-0.26963 -0.702824,-0.40334 -0.945084,-0.70707 -0.296917,-0.37226 -0.205687,-0.36436 -0.212337,-0.89158 -0.007,-0.52461 0.136357,0.34634 0.402557,0.11581 0.041,-0.0355 0.0645,-0.20756 0.0835,-0.43765 0.0102,-0.12321 0.255707,0.66915 0.395357,0.69204 0.336187,0.0551 0.223677,-0.39105 0.447047,-0.55938 0.16617,-0.1252 0.365547,-0.1437 0.339127,-0.35094 -0.0618,-0.48448 -0.134327,-0.43107 -0.140747,-0.69077 -0.006,-0.25971 -0.509397,-0.46649 -0.40161,-0.81923 0.0425,-0.13903 0.17862,-0.0885 0.31419,-0.1831 0.10122,-0.0706 0.0765,-0.16951 0.16574,-0.26226 0.0945,-0.0982 0.300897,-0.18956 0.331497,-0.23318 0.251747,-0.35883 -0.0819,-0.56829 0.085,-0.8623 0.0126,-0.0223 0.006,-0.0188 0.0455,-0.41952 0.0227,-0.23203 0.204597,-0.005 0.235527,-0.34866 0.023,-0.25489 -0.184897,-1.04461 0.0845,-1.53651 0.19655,-0.35884 0.18598,-0.64142 0.11366,-1.29271 -0.0723,-0.65129 0.0207,-1.75102 -0.0306,-2.8445 -0.025,-0.46297 0.11102,-1.56232 0.12295,-2.21133 0.007,-0.6317 -0.099,-1.31727 -0.0515,-1.92463 0.0627,-0.72868 0.0775,-1.39977 0.0441,-2.16491 -0.0365,-0.83826 -0.0913,-1.88788 -0.0434,-2.41642 0.0478,-0.52855 -0.0148,-1.91552 0.184067,-4.09349 0.19883,-2.17797 0.778047,-6.61853 1.110514,-9.78438 0.524177,-4.99139 0.749617,-8.29504 0.986764,-8.28164 0.12742,0.007 0.807527,1.70123 1.668801,3.99421 0.677057,1.80253 2.535398,9.87388 2.775058,11.08428 0.23967,1.2104 0.37099,3.28152 0.60131,5.50965 0.33835,3.27323 0.94452,7.71357 1.11834,11.50616 0.0203,0.44328 0.0343,0.87687 0.0431,1.29768 0.004,0.19764 -0.12274,0.54392 -0.1208,0.7356 0.002,0.19885 0.15487,0.32881 0.15574,0.51943 8.5e-4,0.18403 -0.15088,0.47255 -0.15215,0.6489 -0.001,0.20069 0.10495,0.26573 0.10289,0.45444 -0.002,0.17809 -0.13466,0.41645 -0.13834,0.58485 -0.005,0.23433 0.14161,0.41466 0.13728,0.62667 -0.004,0.17426 -0.18191,0.36289 -0.18845,0.52201 -0.0114,0.27789 0.17673,0.46576 0.1734,0.6907 -0.0115,0.77699 -0.28716,1.30836 -0.28716,1.30836 l -0.28123,1.19631 c 0,0 -1.14765,1.44292 -1.47834,2.24533 -0.33068,0.80242 -1.545231,3.41851 -1.145864,4.44047 0.296887,0.57234 7.259384,0.76051 8.453744,0.63948 1.19436,-0.12103 2.22148,-0.41233 2.49422,-1.30729 0.27274,-0.89496 -2.13499,-4.54322 -2.02127,-6.23843 0.0203,-0.30235 -0.0405,-0.72787 0.22488,-0.73467 0.26539,-0.007 0.2187,0.57139 0.37799,0.56616 0.1593,-0.005 0.11319,-0.62502 0.19403,-1.028 0.0827,-0.41242 0.31378,-0.61326 0.44244,-1.00167 0.0921,-0.27794 -0.006,-1.54994 -0.42465,-3.54523 -0.44035,-2.09945 -1.21696,-4.98748 -1.74117,-7.85526 -1.25233,-6.85119 -1.86163,-9.47561 -2.2677,-14.23722 -0.1021,-1.19724 -0.12214,-2.62412 -0.16806,-4.10258 -0.0701,-2.25672 -0.12468,-4.63359 -0.0284,-6.49735 0.0915,-1.77141 0.49692,-2.88834 0.42148,-3.48472 -0.20683,-1.6349 -0.67748,-1.8185 -1.03727,-3.92697 -0.0597,-0.34965 -0.45445,-3.61315 -0.53779,-6.3148 -0.0833,-2.70166 -0.41145,-4.87575 -0.59481,-8.72058 0.0576,-4.94871 -0.22994,-9.68985 0.0325,-14.63574 l 1.92984,-1.91526 c 0,0 4.50662,2.35353 7.51497,3.24616 3.00834,0.89263 9.91811,1.15996 9.91811,1.15996 0,0 0.0932,2.35975 2.08034,3.00366 1.98713,0.64391 2.38056,-0.25785 3.10889,-0.91456 0.72833,-0.65672 1.0036,-2.44554 1.0036,-2.44554 0,0 0.76493,-1.17837 1.77638,-1.11757 1.01146,0.0608 2.40765,1.93857 2.40765,1.93857 l 3.01944,3.00925 c 0,0 1.35299,2.28306 2.18108,3.40631 0.82809,1.12325 2.7917,3.30759 2.7917,3.30759 0,0 5.83944,10.2516 6.77325,11.36077 0.93381,1.10917 3.01602,11.28068 3.47989,14.02767 0.28165,1.66796 0.35553,12.78215 0.012,21.12186 -0.22222,5.39502 -1.39698,9.35862 -1.39698,9.35862 l -2.79033,5.21254 c 0,0 -1.84844,3.59787 -1.49897,4.22197 0.36486,0.65157 6.51072,0.0715 7.34286,0.0525 0.83213,-0.0191 2.72205,-0.97775 3.05018,-1.34231 0.32814,-0.36457 0.4197,-1.70225 0.26346,-2.60861 -0.15625,-0.90635 -1.08672,-2.36643 -0.95797,-2.90578 0.19202,-0.80441 0.97592,-0.5985 1.28109,-1.25928 0.38659,-0.83709 -0.41164,-4.12268 -0.47074,-9.51995 -0.0967,-8.83049 0.077,-20.50346 0.89625,-20.49747 0.98977,0.007 7.25316,23.79025 7.43651,25.34039 0.18335,1.55014 -3.04981,3.93453 -2.89433,4.74095 0.15547,0.80641 1.94901,1.26256 3.09121,1.70519 1.57294,0.22828 5.07184,0.64256 5.38552,-0.0137 0.43677,-0.91379 -1.09127,-1.12902 -0.98607,-4.03884 0.1052,-2.90982 1.31976,-0.99908 1.47354,-2.84069 0.0472,-0.56507 -0.97198,-3.33577 -2.20992,-6.98443 -2.79662,-8.24263 -6.86706,-20.38977 -6.86706,-20.38977 l -1.12307,-2.60216 0.15369,-2.60773 -0.84908,-4.34622 c 0,0 0.64443,-0.70976 0.51598,-2.35947 -0.12845,-1.64971 -2.01109,-4.07624 -2.72177,-7.00262 -0.71068,-2.92638 -1.27118,-11.32589 -1.27118,-11.32589 l 2.18199,-12.03132 c 0,0 -0.0819,3.27628 -10e-4,6.6803 0.0504,2.13428 0.0316,3.46259 -0.0129,4.73483 -0.10326,2.95258 -1.24528,4.05482 -1.50357,5.44988 -0.2583,1.39507 -0.17096,4.11284 -0.17096,4.11284 l 0.29133,2.68041 3.20847,6.70157 -0.37697,1.33777 -0.13898,1.0217 0.84908,4.34622 -0.15369,2.60773 2.69877,7.16736 c 0,0 0.77164,-3.37289 0.77821,-6.47197 0.007,-3.09908 -1.3538,-8.73181 -1.3908,-11.99555 -0.037,-3.26374 0.16941,-5.32205 -0.0828,-7.12962 -0.25223,-1.80757 -1.00563,-2.17806 -1.9105,-5.89715 -0.23844,-0.98 -0.63186,-2.68065 -0.64127,-3.98657 -0.0211,-2.93229 0.27157,-7.28618 0.27157,-7.28618 l -0.15917,-9.7748 c 0,0 0.10672,-7.35852 -0.49304,-10.31131 -0.59975,-2.95279 -1.01561,-4.26585 -2.94985,-7.21889 -0.90306,-1.37872 -2.72433,-3.03553 -4.42067,-4.6521 -0.7855,-0.74856 -1.31105,-1.4565 -2.03791,-2.14389 -1.06553,-1.00767 -2.54253,-2.07361 -3.33443,-2.73217 -1.00824,-0.83848 -1.81662,-1.23135 -2.42615,-1.7012 -0.90109,-0.69458 -0.73952,-0.91394 -1.27326,-1.10341 -0.53375,-0.18947 -2.67912,-0.15966 -6.1285,-1.23628 -3.44938,-1.07661 -8.26274,-2.72245 -11.16148,-4.18305 -1.35724,-0.68387 -4.27173,-2.36167 -7.22198,-4.77005 -0.68087,-0.52027 -1.50358,-1.0905 -2.06089,-1.67203 -0.84354,-0.88018 -1.24834,-1.84738 -1.9283,-2.64521 -0.52665,-0.61794 -1.21213,-1.02741 -1.70009,-1.57895 -0.43301,-0.48943 -0.67151,-1.11672 -1.08964,-1.71134 -0.26281,-0.37374 -0.0995,-1.29577 -0.35642,-1.67397 -0.0757,-0.11145 -0.3149,-0.0424 -0.41387,-0.16082 -0.13579,-0.16251 -0.13905,-0.50272 -0.29247,-0.5483 -0.23017,-0.0684 -0.46313,0.15304 -0.64773,-0.0667 -0.0749,-0.0892 -0.0831,-0.34267 -0.18104,-0.48241 -0.12047,-0.17184 -0.32977,-0.24219 -0.39458,-0.48082 -0.11114,-0.409192 -0.0491,-0.916219 -0.18984,-1.233382 -0.0811,-0.182838 -0.28744,0.108496 -0.37222,-0.06188 -0.0541,-0.108693 -0.0605,-0.578408 -0.11929,-0.660621 -0.16839,-0.235693 -0.23445,0.286357 -0.42348,0.193087 -0.13035,-0.06431 -0.2046,-0.393977 -0.39829,-0.371799 -0.19369,0.02218 -0.41217,-0.09402 -0.63836,-0.296936 -0.45688,-0.409861 -0.16958,-0.62748 -0.43872,-1.04428 -0.26914,-0.416801 -0.41012,0.277124 -0.62649,0.146298 -0.21636,-0.130826 0.0251,-0.702083 -0.2193,-0.845738 -0.24442,-0.143655 -0.4143,0.353006 -0.64226,0.268573 -0.22796,-0.08443 -0.13447,-0.497891 -0.34206,-0.681343 -0.20759,-0.183452 -0.54118,-0.22995 -0.78865,-0.203884 -0.24747,0.02607 -0.41871,0.433491 -0.6736,0.266284 -0.25489,-0.167207 -1.18253,-0.64521 -1.35626,-0.981836 -0.21763,-0.439473 -0.0575,-2.302636 -0.22662,-2.303998 -0.16911,-0.0014 -0.12438,-0.327833 -0.23423,-0.531223 -0.0915,-0.169476 -0.32249,-0.175879 -0.44688,-0.165247 -0.13376,0.01143 -0.21714,-0.167105 -0.34944,-0.164768 -0.092,0.0016 -0.32273,0.04109 -0.41353,0.03804 -0.0815,-0.0027 -0.14491,-0.415407 -0.311017,-0.43019 -0.16248,-0.01446 -0.42715,0.369606 -0.551857,0.310363 -0.15757,-0.07485 -0.13561,-0.291767 -0.23394,-0.30367 -0.562367,-0.06807 -0.970444,0.104365 -1.486441,0.06612 -0.16087,-0.01192 -0.2143,-0.24997 -0.12108,-0.46406 0.12418,-0.285218 0.425707,-0.575293 0.2773,-0.690326 -0.0806,-0.06251 -0.26116,0.23697 -0.580357,0.479539 -0.41554,0.315775 -1.013004,0.598818 -1.387964,0.513061 -0.622897,-0.142462 -1.305101,-0.185681 -1.968188,-0.39732 -0.663087,-0.211639 -0.489467,-0.768299 -0.782157,-1.196789 -0.159367,-0.216814 -0.601134,-0.126852 -0.798914,-0.27219 -0.19778,-0.145338 -0.315727,-0.291691 -0.371177,-0.507304 -0.0555,-0.215613 0.151587,-0.480115 -0.0392,-0.687482 -0.19081,-0.207367 -0.826977,0.197202 -0.924377,0.11764 -0.400377,-0.327071 -0.130217,-0.721669 -0.395157,-0.929312 -0.289397,-0.226812 -0.761985,-0.08125 -1.088847,-0.176561 -0.326862,-0.09531 -0.635515,0.05016 -0.682986,-0.0891 -0.119215,-0.349725 0.204631,-0.702055 0.0022,-1.108456 -0.202419,-0.406401 -0.912454,-0.118215 -1.241478,-0.279836 -0.329024,-0.161621 -0.305956,-0.349424 -0.538184,-0.568287 -0.232228,-0.218863 -0.382508,-0.277953 -0.98562,-0.670018 -0.199793,-0.122278 -0.444214,-0.136469 -0.666019,-0.1962 -0.221805,-0.05973 -0.311691,-0.154386 -0.463216,-0.333513 -0.151525,-0.179127 -0.201799,-0.373454 -0.503618,-0.511416 -0.301819,-0.137962 -0.867896,0.148908 -1.173949,10e-4 -0.306053,-0.147908 0.211949,-0.485671 -0.152175,-0.823104 -0.364124,-0.337433 -1.246409,-0.22453 -1.246409,-0.22453 0,0 -0.15899,-0.392196 -0.301916,-0.510824 -0.142926,-0.118628 -0.489751,-0.17796 -0.489751,-0.17796 0,0 -0.01648,-0.38372 -0.152537,-0.512342 -0.136059,-0.128622 -0.572885,-0.136065 -0.572885,-0.136065 0,0 -0.145325,-0.382911 -0.400235,-0.607976 -0.25491,-0.225065 -0.962025,-0.266504 -1.238547,-0.476949 -0.276522,-0.210445 -0.388963,-0.472517 -0.388963,-0.472517 l -1.061531,-0.36323 c 0,0 -0.02131,-0.411597 -0.190426,-0.56958 -0.16912,-0.157983 -0.762617,-0.198453 -0.762617,-0.198453 0,0 -0.405669,-0.375059 -0.691668,-0.532382 -0.285999,-0.157323 -1.0199,-0.372078 -1.0199,-0.372078 0,0 -0.365027,-0.431058 -0.59288,-0.562352 -0.227853,-0.131294 -0.561404,-0.21609 -0.821385,-0.413693 -0.259981,-0.197603 -0.268834,-0.495817 -0.521377,-0.729098 -0.252543,-0.233281 -0.500335,-0.157684 -0.770578,-0.446104 -0.270243,-0.28842 -0.205082,-1.08481 -0.491494,-1.361287 -0.286412,-0.276477 -0.896005,-0.288188 -0.896005,-0.288188 0,0 -0.264669,-0.09486 -0.3503,-0.190255 -0.08563,-0.0954 -0.14078,-0.342738 -0.14078,-0.342738 l -0.33585,-0.367012 -0.341781,-0.453738 c 0,0 -0.117661,-0.575956 -0.195209,-0.589943 -0.07755,-0.01399 -0.258798,-0.0493 -0.426692,-0.375261 -0.167894,-0.325961 -0.0024,-0.4912 -0.524762,-0.696103 -0.164465,-0.06451 -0.117315,-0.44735 -0.224701,-0.63457 -0.149301,-0.260291 -0.401965,-0.41466 -0.583997,-0.664371 -0.072,-0.09878 0.04123,-0.444114 -0.02685,-0.544657 -0.116039,-0.170765 -0.315488,-0.119117 -0.452366,-0.231295 -0.208921,-0.171219 -0.353371,-0.480209 -0.469907,-0.629103 -0.619596,-0.791637 -0.951798,-1.119393 -1.38207,-1.517877 -0.430273,-0.398484 -0.868476,-0.770634 -1.17896,-0.978371 -0.310481,-0.207737 -0.6079,-0.287303 -0.811953,-0.524174 -0.204053,-0.236871 -0.136744,-0.578812 -0.374694,-0.828626 -0.23795,-0.249814 -0.747873,-0.229888 -1.138922,-0.515385 -0.39105,-0.285497 -0.569018,-0.75056 -1.043133,-1.217888 -0.474116,-0.467328 -1.350603,-1.054626 -1.695832,-1.524227 -0.345229,-0.469602 -0.246075,-0.837657 -0.481362,-1.172609 -0.235287,-0.334952 -0.660844,-0.528284 -0.907962,-0.884745 -0.247118,-0.356461 -0.536941,-1.221941 -0.536941,-1.221941 0,0 -0.139289,-0.224022 -0.2469,-0.323207 -0.10761,-0.09919 -0.396615,-0.25472 -0.396615,-0.25472 0,0 -0.107314,-0.221974 -0.209664,-0.33442 -0.10235,-0.112446 -0.410818,-0.314862 -0.410818,-0.314862 l -0.262576,-0.364039 -0.356901,-0.19676 -0.305327,-0.419137 c 0,0 -0.224252,-0.498589 -0.360114,-0.722069 -0.135861,-0.22348 -0.533715,-0.433686 -0.533715,-0.433686 0,0 -0.239853,-0.338142 -0.385433,-0.681405 -0.0673,-0.158674 -0.03516,-0.373943 -0.09217,-0.457805 -0.180355,-0.265282 -0.493206,-0.481721 -0.493206,-0.481721 0.01784,0.0071 -0.02523,-0.181047 -0.0394,-0.430581 -0.0088,-0.155303 -0.03151,-0.26052 -0.110348,-0.355019 -0.205506,-0.246334 -0.35573,-0.19698 -0.35573,-0.19698 0,0 0.0044,-0.298369 -0.08353,-0.406373 -0.08789,-0.108005 -0.394436,-0.08704 -0.394436,-0.08704 0,0 -0.0284,-0.255612 -0.138839,-0.370845 -0.110439,-0.115234 -0.40305,-0.01 -0.40305,-0.01 0,0 0.07581,-0.544788 -0.06427,-0.777929 -0.14008,-0.233142 -0.67238,-0.390642 -0.67238,-0.390642 0,0 -0.265552,-0.495979 -0.487982,-0.717992 -0.22243,-0.222013 -0.842599,-0.570362 -0.842599,-0.570362 l -0.37271,-0.603821 c 0,0 0.03842,-0.336403 -0.144038,-0.612082 C 48.54633,46.602823 47.89554,46.32596 47.636222,46.077513 47.376904,45.829065 47.136015,45.45313 47.136015,45.45313 c 0,0 0.09396,-0.490669 -0.07548,-0.785378 -0.169439,-0.294709 -1.082578,-0.455226 -1.082578,-0.455226 0,0 -0.398488,-0.42524 -0.514753,-0.702664 -0.116264,-0.277423 0.02771,-0.591541 -0.1501,-0.921624 -0.177809,-0.330082 -1.269972,-0.843416 -1.269972,-0.843416 0,0 0.04941,-0.283111 -0.160777,-0.636943 -0.05446,-0.09168 -0.282469,-0.143298 -0.395471,-0.249935 -0.113999,-0.107577 -0.112986,-0.269989 -0.16555,-0.319232 -0.30576,-0.286447 -0.973225,-0.222405 -0.973225,-0.222405 l -0.636803,-0.812618 c 0,0 -0.0838,-0.339161 -0.216119,-0.490993 -0.132316,-0.151833 -0.512746,-0.37091 -0.512746,-0.37091 l -0.42195,-0.559849 c 0,0 1.975688,-3.187155 0.869672,-4.619237 -1.106016,-1.432083 -4.848971,0.01036 -5.389949,2.14e-4 -0.540977,-0.01015 -0.951674,-0.593085 -1.911691,-0.745571 -0.446187,-0.07087 -1.058629,0.16184 -1.640568,0.238205 -0.670161,0.08794 -1.29987,0.009 -1.58863,-0.311915 -0.245759,-0.273142 -1.006109,-1.45987 -1.009606,-2.915456 -0.0018,-0.765758 0.144719,-1.337577 0.262462,-1.996414 0.05562,-0.311247 -0.146047,-0.765802 -0.05672,-0.9987 0.181698,-0.473726 0.789813,-0.445269 0.754008,-0.770351 -0.0358,-0.325081 -0.646821,-0.238819 -0.741303,-0.482208 -0.09448,-0.243389 0.171085,-0.660362 0.171085,-0.660362 l -0.636339,-0.381797 c 0,0 -0.07628,-0.603322 -0.977942,-0.661203 -0.96693,-0.06207 -1.268024,0.600381 -1.975102,1.003282 -0.579015,0.329928 -0.536786,-0.108024 -1.576867,1.206466 -0.261455,0.330436 -0.312476,1.09976 -0.484022,1.819015 -0.270902,1.135834 -0.587326,2.382306 -0.886364,3.531916 -0.264893,1.018342 -0.50011,1.992747 -0.914358,2.274123 -1.178025,0.800167 -1.18335,-0.416498 -2.186,-0.223599 -0.262893,0.05058 -0.720595,0.196025 -1.112791,0.488438 -0.289737,0.216022 -0.498627,0.55735 -0.800331,0.766367 -0.279,0.193289 -0.573459,0.148446 -0.811036,0.345284 -0.484077,0.40107 -0.851664,0.908038 -0.851664,0.908038 l 0.04953,1.341898 c 0,0 -0.19018,0.376221 -0.581852,0.758161 -0.319266,0.311333 -0.797397,0.576495 -1.210942,1.053975 -0.341979,0.39485 -0.519533,0.897247 -0.907976,1.328386 -1.343103,1.490733 -2.851942,3.019765 -3.082647,3.351877 -0.477099,0.686807 -0.0245,0.622745 -0.927849,1.678994 -0.9033467,1.056248 -3.6526979,3.583304 -3.8238539,3.888608 -0.171156,0.305305 0.02238,0.108362 -0.4988007,1.152067 -0.221813,0.444199 -0.5554987,0.960126 -0.8968944,1.696127 -0.341395,0.736 -0.7367177,1.501138 -0.440535,2.06517 0.5430927,1.034233 1.2951754,0.800269 1.8574711,0.79042 0.2620297,-0.0046 0.8822164,-0.493297 1.5771921,-0.888028 0.7963854,-0.452329 1.6840841,-0.826186 1.7471691,-0.712142 0.1675077,0.302818 -2.5031298,1.807008 -2.3201258,2.774736 0.183004,0.967728 1.6338541,1.17768 2.8312955,1.115054 0.223635,-0.0117 0.989629,0.01047 1.616991,-0.276906 0.721094,-0.330316 1.803277,-1.136565 2.545064,-1.530757 0.741788,-0.394193 1.25806,-0.491514 1.781231,-0.709307 2.226341,-0.926812 3.615695,-1.249414 4.131647,-1.344231 0.515952,-0.09482 1.509451,0.07621 2.924188,-0.213997 0.645017,-0.132312 1.621732,-0.66982 2.760332,-1.032166 0.357321,-0.113713 0.861277,-0.107877 1.206792,-0.195582 0.968319,-0.245798 1.136057,-0.510953 1.422779,-0.521879 0.05728,-0.0022 0.22595,0.223277 0.542054,0.344406 0.224438,0.086 0.771454,-0.266942 1.085235,-0.161196 0.371282,0.125124 0.339111,0.369323 0.557295,0.468435 0.291567,0.132447 0.664872,-0.243706 0.966621,-0.08926 0.461426,0.236174 0.429203,0.519993 0.691509,0.672044 0.166073,0.09627 0.482219,0.05319 0.639414,0.144908 0.13443,0.07843 0.138824,0.188195 0.257617,0.266127 0.13956,0.09155 0.410688,0.04235 0.534523,0.125606 0.182232,0.122515 0.171982,0.48199 0.279759,0.596732 0.183345,0.195191 0.447117,0.07628 0.571305,0.224607 z"
       id="path827"
       inkscape:connector-curvature="0"
       sodipodi:nodetypes="czcczcsszczcccccccccccccccccccccccccccccccsssssssssssssszsssszssssczzssscssssssssssssszsssssssszcccszzssszssssssssssscczczzszzssssssssszccczczzczcczczssccszzzsssszzcszsscccczzccsszcccccccczzzsscczssssszzscsssssssssssssszszzzzzzzczsssssssssssszczzzsazszzzczzzzzczczczzcczczczzzzzczccczzsssssszzzzzzzzzczczcccczcsscssczczczczcczzczczzcssscczcczzsssssszzccssssssssssccsssszzszsssszsszszssssssssssssszc" />
  </g>
</svg>
