<?xml version="1.0" encoding="UTF-8" standalone="no"?>
<!-- Created with Inkscape (http://www.inkscape.org/) -->

<svg
   xmlns:dc="http://purl.org/dc/elements/1.1/"
   xmlns:cc="http://creativecommons.org/ns#"
   xmlns:rdf="http://www.w3.org/1999/02/22-rdf-syntax-ns#"
   xmlns:svg="http://www.w3.org/2000/svg"
   xmlns="http://www.w3.org/2000/svg"
   xmlns:sodipodi="http://sodipodi.sourceforge.net/DTD/sodipodi-0.dtd"
   xmlns:inkscape="http://www.inkscape.org/namespaces/inkscape"
   width="178mm"
   height="108mm"
   viewBox="0 0 178 108"
   version="1.1"
   id="svg8"
   inkscape:version="0.92.4 (5da689c313, 2019-01-14)"
   sodipodi:docname="lion.svg">
  <defs
     id="defs2" />
  <sodipodi:namedview
     id="base"
     pagecolor="#ffffff"
     bordercolor="#666666"
     borderopacity="1.0"
     inkscape:pageopacity="0.0"
     inkscape:pageshadow="2"
     inkscape:zoom="1.1519446"
     inkscape:cx="220.62548"
     inkscape:cy="141.9221"
     inkscape:document-units="mm"
     inkscape:current-layer="layer2"
     showgrid="false"
     inkscape:window-width="1920"
     inkscape:window-height="1009"
     inkscape:window-x="-8"
     inkscape:window-y="-8"
     inkscape:window-maximized="1" />
  <metadata
     id="metadata5">
    <rdf:RDF>
      <cc:Work
         rdf:about="">
        <dc:format>image/svg+xml</dc:format>
        <dc:type
           rdf:resource="http://purl.org/dc/dcmitype/StillImage" />
        <dc:title></dc:title>
      </cc:Work>
    </rdf:RDF>
  </metadata>
  <g
     inkscape:groupmode="layer"
     id="layer2"
     inkscape:label="Layer 2"
     style="display:inline"
     transform="translate(0,-11)">
    <path
       style="opacity:0.8;fill:#49c3a7;fill-opacity:1;stroke:none;stroke-width:0.15000001;stroke-linecap:butt;stroke-linejoin:miter;stroke-miterlimit:4;stroke-dasharray:none;stroke-opacity:1"
       d="m 4.3442763,40.93766 c 0.01579,0.0025 -0.07708,-0.358355 0.0587,-0.497134 0.05992,-0.06124 0.196206,-0.03882 0.275672,-0.118728 0.04425,-0.04449 -0.0027,-0.204418 0.04649,-0.254182 0.127397,-0.128796 0.168412,-0.385387 0.324089,-0.539405 0.05841,-0.05778 0.165585,-0.05102 0.2273654,-0.110872 0.06844,-0.06631 0.03536,-0.19026 0.106869,-0.258866 0.04907,-0.04709 0.145876,-0.01944 0.196395,-0.06715 0.07429,-0.07015 0.06532,-0.225636 0.14162,-0.29711 0.04671,-0.04375 0.1501657,0.02509 0.1976267,-0.01866 0.05826,-0.05371 -0.01455,-0.20154 0.04419,-0.255577 0.06039,-0.05556 0.187043,-0.0358 0.248305,-0.09077 0.07147,-0.06413 0.01164,-0.137515 0.08296,-0.201082 0.06807,-0.06067 0.2116607,-0.0083 0.2801907,-0.0678 0.05328,-0.0463 0.0031,-0.15829 0.05569,-0.2044 0.07749,-0.06791 0.2207027,-0.05976 0.2975357,-0.12534 0.05565,-0.0475 -0.01144,-0.113472 0.04257,-0.160151 0.06731,-0.05817 0.171963,-0.0027 0.238236,-0.05848 0.0641,-0.05396 0.0425,-0.229959 0.103665,-0.283323 0.09164,-0.07996 0.3324297,-0.06062 0.4193247,-0.12904 0.08623,-0.0679 0.105152,-0.218845 0.1700447,-0.281201 0.07951,-0.07641 0.150308,0.0044 0.208829,-0.04139 0.109735,-0.08584 0.09067,-0.227423 0.176316,-0.26242 0.08565,-0.035 0.2340567,0.04827 0.2340567,0.04827 l -0.02237,-0.324828 0.205297,-0.04223 c 0,0 0.06859,-0.047 0.2727127,-0.390222 0.06006,-0.100981 0.07183,-0.304769 0.17178,-0.444452 0.04242,-0.05928 0.221515,-0.04702 0.290011,-0.129123 0.04526,-0.05425 10e-4,-0.225879 0.05423,-0.288667 0.0359,-0.04239 0.1863,0.0077 0.225635,-0.03734 0.06921,-0.07917 0.07657,-0.294252 0.15214,-0.38084 0.04327,-0.04958 0.1908504,0.01299 0.2359514,-0.03732 0.03256,-0.03632 -0.01917,-0.363999 0.01367,-0.400949 0.03762,-0.04233 0.160107,0.03793 0.198342,-0.0032 0.05511,-0.0593 0.06315,-0.240189 0.117621,-0.298275 0.102356,-0.109151 0.288822,-0.136763 0.387477,-0.231963 0.06984,-0.0674 0.03289,-0.170246 0.09514,-0.232582 0.06939,-0.06948 0.244519,-0.03131 0.31527,-0.09106 0.291847,-0.24647 0.01722,-0.545095 0.142149,-0.75897 0.0137,-0.02346 0.09037,0.0042 0.21603,-0.111686 0.06171,-0.05693 0.07891,-0.321091 0.162587,-0.396819 0.04691,-0.04245 0.09708,-0.0029 0.150227,-0.05006 0.06821,-0.06054 0.09439,-0.340844 0.171754,-0.408632 0.01755,-0.01538 0.194899,0.0348 0.212901,0.01914 0.02754,-0.02398 -0.01016,-0.198482 0.01829,-0.223134 0.04917,-0.04262 0.156023,0.0078 0.207791,-0.03639 0.05112,-0.04364 0.103395,-0.257057 0.156686,-0.302237 0.04497,-0.03813 0.231473,-0.08603 0.277827,-0.124875 0.05194,-0.04353 0.160883,-0.190722 0.214081,-0.235 0.07678,-0.06391 0.248725,-0.128244 0.327794,-0.19282 0.04081,-0.03333 -0.0027,-0.235696 0.03834,-0.269154 0.03785,-0.03085 0.188483,-0.0053 0.226585,-0.03603 0.05976,-0.04817 0.06329,-0.227663 0.123146,-0.27558 0.05398,-0.04322 0.220679,0.0077 0.274731,-0.03482 0.144668,-0.113913 0.438297,-0.235718 0.579248,-0.345748 0.06872,-0.05364 -0.05136,-0.144234 0.01515,-0.196583 0.029,-0.02283 0.395826,0.0014 0.424625,-0.02108 0.06412,-0.05011 -0.03305,-0.221601 0.02763,-0.270313 0.101672,-0.08163 0.416117,-0.03779 0.511094,-0.11236 0.04974,-0.03905 0.04137,-0.17144 0.08757,-0.209345 0.100124,-0.08216 0.305746,-0.04692 0.391606,-0.119245 0.06435,-0.05421 -0.0084,-0.144838 0.04491,-0.196246 0.08893,-0.08571 0.329988,-0.08959 0.402616,-0.160266 0.236399,-0.230042 0.369565,-0.203177 0.369565,-0.203177 0,0 0.03276,-0.277859 0.103279,-0.376258 0.07052,-0.0984 0.27839,-0.188449 0.27839,-0.188449 0,0 0.111912,-0.322183 0.213519,-0.503908 0.101607,-0.181724 0.336734,-0.400346 0.407193,-0.571752 0.07046,-0.171406 0.0086,-0.299855 0.06579,-0.40469 0.05719,-0.104835 0.227745,-0.205131 0.227745,-0.205131 0,0 -8.8e-5,-0.274282 0.10374,-0.500403 0.103828,-0.226122 0.200508,-0.228585 0.327372,-0.324183 0.226002,-0.170306 0.204203,-0.443019 0.231439,-1.205507 0.02724,-0.762489 0.206782,-1.867227 0.577973,-2.36119 0.05548,-0.07383 0.09088,-0.423898 0.414353,-0.710517 0.07678,-0.06803 0.263306,-0.159303 0.352397,-0.23577 0.127369,-0.109322 0.228682,-0.414783 0.377109,-0.539452 0.133018,-0.111727 0.311598,-0.162425 0.459224,-0.282555 0.10664,-0.08678 0.0945,-0.363502 0.20711,-0.454332 0.120371,-0.09709 0.328655,-0.05499 0.455226,-0.15487 0.285382,-0.225204 0.743151,-0.08347 1.046835,-0.319601 0.204427,-0.158951 0.456888,-0.386505 0.661538,-0.550081 0.193489,-0.154657 0.273113,-0.414448 0.46256,-0.571047 0.0582,-0.04811 0.181955,0.0071 0.239812,-0.0407 0.05792,-0.04789 0.03108,-0.245939 0.08839,-0.293714 0.0507,-0.04226 0.185706,0.0096 0.236026,-0.03224 0.04083,-0.03392 0.02514,-0.180377 0.06556,-0.214086 0.05515,-0.04599 0.241309,-0.0166 0.295617,-0.06198 0.05204,-0.04349 0.05665,-0.274424 0.10765,-0.317318 0.0613,-0.05156 0.121918,-0.102273 0.181789,-0.15211 0.942485,-0.784542 2.732046,-1.502239 2.939337,-1.149159 0.173988,0.296353 -0.954612,0.819153 -1.448477,1.422871 -0.493865,0.603719 0.009,0.745435 0.206895,0.805198 0.263303,0.07951 4.55544,-3.243803 4.723074,-2.999994 0.167635,0.243809 -2.418387,1.904161 -2.154264,2.147258 0.264124,0.243097 5.207621,-2.675627 5.361817,-2.500607 0.263897,0.299536 -1.658355,1.15893 -1.174337,1.429854 0.265777,0.148766 1.943411,-1.152277 2.052941,-0.904492 0.10953,0.247785 -0.412923,0.897938 -0.300168,0.999033 0.204117,0.183008 1.83214,-0.805146 1.988288,-0.565003 0.211923,0.325921 -0.440289,0.745167 -0.879843,1.388327 -0.365487,0.534785 -0.654417,1.115142 -0.579997,1.178599 0.280351,0.239053 3.385608,-2.403179 3.803067,-2.354656 0.184551,0.02145 -1.300352,1.377567 -1.120518,1.401024 0.320985,0.04187 1.971552,-1.603589 2.283604,-1.559954 0.100659,0.01408 -0.939652,1.185281 -0.841246,1.205273 0.289558,0.05883 1.799808,-0.779656 1.786335,-0.684971 -0.02437,0.17129 -0.283187,0.697917 -0.336304,1.074279 -0.03577,0.253415 0.105232,0.422003 0.158556,0.43118 0.345657,0.05949 1.8565,-2.214053 2.132236,-2.018593 0.393514,0.278948 -1.013172,2.449213 -0.509747,2.692561 0.503425,0.243348 3.104365,-2.055164 3.354713,-2.011054 0.269465,0.04748 -1.972803,2.212809 -1.730154,2.327627 0.171897,0.08134 0.616702,-0.191554 1.076705,-0.410041 0.272458,-0.129408 0.563339,-0.134997 0.77038,-0.321562 0.139665,-0.125853 0.113732,-0.357657 0.228999,-0.498643 0.390101,-0.477145 0.800523,-0.872243 0.975014,-0.84703 0.262746,0.03796 -0.07176,0.780222 0.116802,0.948221 0.368859,0.32864 2.790217,-1.728428 3.276741,-1.311747 0.331202,0.283656 -0.29242,0.38256 -0.754037,0.879805 -0.286924,0.30907 -0.637182,0.646756 -0.572632,0.713987 0.672011,0.699919 2.057251,-0.703982 2.474716,-0.488554 0.417465,0.215427 -2.310893,2.660409 -2.204811,2.694919 0.136534,0.04442 0.436896,0.169108 0.894411,-0.138111 0.18676,-0.125411 0.409575,-0.54496 0.625351,-0.765101 0.330046,-0.336721 0.69464,-0.417022 1.018347,-0.58589 0.255083,-0.133069 0.576352,0.112691 0.786531,0.0043 0.326501,-0.168328 0.505055,-0.473494 0.633716,-0.459824 0.165026,0.01753 0.162746,0.172584 0.264866,0.323151 0.243185,0.358554 0.624471,0.229446 0.616145,0.352399 -0.0073,0.108314 -0.692804,0.207282 -0.676786,0.565847 0.01953,0.437226 -0.09768,0.622468 0.07347,0.722118 0.179939,0.104767 0.743781,-0.251086 1.289651,-0.768614 0.547122,-0.518715 1.076283,-1.199105 1.263778,-1.092612 0.209936,0.119239 -0.222242,0.674929 -0.517178,1.292404 -0.111287,0.23299 1.42414,-0.894291 1.576089,-0.718389 0.106489,0.123275 -0.689315,0.660745 -1.204729,1.207427 -0.356601,0.378234 -0.380476,0.663602 -0.314002,0.744124 0.15328,0.185672 2.007765,-0.688615 2.186815,-0.434573 0.209128,0.296717 -1.365824,0.895043 -1.13925,1.294103 0.385183,0.678414 2.352972,-1.527651 2.703559,-1.196198 0.101562,0.09602 -0.508128,0.714255 -0.430378,0.976766 0.07389,0.249476 0.840441,0.139535 0.744705,0.380469 -0.08607,0.21661 -0.41358,0.638058 -0.68302,0.874061 -0.204091,0.178765 -0.413934,0.172992 -0.236377,0.339035 0.101702,0.09511 0.292478,-0.0033 0.548933,-0.234833 0.217875,-0.196667 0.483155,-0.506361 0.781491,-0.69483 0.772971,-0.488312 1.779475,-0.430061 1.884296,-0.174732 0.192899,0.469872 -1.109448,0.482752 -1.468928,0.8794 -0.207459,0.228909 -0.130549,0.298806 0.213996,0.239587 0.252474,-0.04339 0.770826,-0.248448 0.883015,-0.134226 0.231125,0.235316 -0.206056,0.353857 0.04012,0.586025 0.197967,0.186703 0.512559,0.203419 0.7625,0.09667 0.380433,-0.162487 0.688515,-0.133191 1.061374,-0.175788 0.308165,-0.03521 1.358244,-0.08455 1.406786,0.05671 0.110229,0.320684 -1.287313,0.379148 -1.004378,0.607305 0.215367,0.17367 0.976646,-0.111097 1.020768,-0.02932 0.175752,0.325727 -1.381014,0.928714 -1.029308,1.208089 0.160164,0.127225 0.533785,-0.06654 1.309354,-0.304933 0.927505,-0.285097 1.905521,-0.422293 2.002298,-0.17049 0.09653,0.251162 -0.58055,0.356439 -1.188393,0.635373 -0.511122,0.234549 -0.618035,0.474513 -0.564751,0.694354 0.116653,0.481283 2.047381,-0.183513 2.094727,-0.04801 0.111805,0.319985 -0.903755,0.686159 -0.733717,0.857321 0.09725,0.09789 1.382397,-0.06934 1.389785,0.257851 0.0065,0.285866 -1.755027,0.238026 -1.754359,0.549717 3.91e-4,0.182358 0.58265,0.241193 1.100578,0.410445 0.188957,0.06175 0.960285,-0.647704 1.387554,-0.382612 0.187377,0.116254 -0.494213,0.596149 -0.208051,0.869341 0.280527,0.267813 0.355549,0.271311 0.764968,0.291366 0.453484,0.02221 0.978296,-0.14279 1.18878,-0.05551 0.08217,0.03407 -1.039235,0.226338 -0.84113,0.636579 0.09722,0.201316 0.531389,-0.07628 1.017973,-0.209639 0.530011,-0.145261 1.118446,-0.153236 1.305116,-0.05071 0.241027,0.132379 -1.354729,0.423477 -1.466493,0.829039 -0.02389,0.08668 0.231713,0.178591 0.351229,0.275298 0.114035,0.09227 0.292746,0.322194 0.467918,0.377437 0.175171,0.05524 0.357823,-0.07492 0.626628,-0.09222 0.485269,-0.03125 1.112174,-0.207724 1.200971,0.01692 0.07337,0.18562 -0.291493,0.187928 -0.491887,0.25377 -0.285579,0.09383 -0.426118,0.222206 -0.105021,0.385679 0.711614,0.362288 1.822557,0.193297 2.426348,0.601843 0.141963,0.09606 0.06428,0.278076 0.232665,0.352271 0.250818,0.110518 0.737009,0.122986 0.803509,0.394345 0.102558,0.418495 -0.02319,1.174629 0.203374,1.443444 0.210152,0.249344 2.839683,-0.01088 2.877469,0.283284 0.06442,0.501537 -0.703848,0.701919 -0.685701,1.08192 0.01815,0.380001 0.850415,0.285446 1.161963,0.338294 0.527821,0.08954 1.315756,0.03855 3.636321,-0.09155 0.694136,-0.03892 1.368037,-0.175099 2.091203,-0.341303 0.822852,-0.189114 1.709486,-0.417098 2.76228,-0.584896 0.794484,-0.126627 1.526481,0.0646 2.326865,-0.0065 0.800397,-0.0711 1.524534,-0.366622 2.474718,-0.47379 1.074654,-0.121207 2.057917,-0.02328 2.965341,-0.02177 0.907414,0.0015 1.851871,-0.294465 2.686965,-0.336835 0.835086,-0.04237 1.462626,0.177596 2.135416,0.138427 1.68499,-0.0981 3.34416,-0.0025 4.94488,-0.08491 0.73799,-0.038 1.35052,-0.235963 2.04079,-0.272063 0.69028,-0.0361 1.27514,0.117374 1.917,0.08568 6.69776,-0.330744 10.55549,-0.553627 11.33171,-0.691784 0.77622,-0.138157 0.64523,-0.496981 2.71862,-0.587666 2.07339,-0.09068 8.67396,1.678082 12.53938,3.657258 1.31535,0.673488 2.37257,1.123374 4.15584,2.476574 0.87857,0.66668 1.53135,1.453863 2.43765,2.278473 0.93327,0.849149 1.84909,1.550571 2.35795,2.274116 0.3014,0.428572 0.46573,1.273978 1.33447,3.345883 0.86875,2.071905 2.00993,4.756802 2.54645,9.154447 0.38584,3.162568 0.44147,7.006949 0.58368,10.425432 0.16672,4.007713 0.46322,7.664095 0.94312,10.196026 1.17821,6.21615 4.5436,9.725737 6.96514,12.27325 2.0906,1.994513 5.91049,3.547575 8.13617,2.12277 2.22568,-1.424806 1.66829,-2.229369 4.67509,-2.710638 3.0068,-0.481269 3.35554,1.471813 3.35782,2.053387 0.002,0.459794 -0.46586,0.722693 -0.78305,1.01652 -0.3172,0.293827 -0.43982,0.16115 -0.55543,0.376844 -0.026,0.04843 -0.20328,0.184793 -0.035,0.338778 0.12145,0.111134 0.54022,0.189662 0.44976,0.342623 -0.0258,0.04369 -0.68399,0.0051 -0.74699,0.104621 -0.07,0.110584 0.71235,0.26897 0.63904,0.435692 -0.063,0.143229 -1.6542,0.306692 -1.74148,0.440625 -0.0873,0.133934 1.26941,-0.0052 1.19849,0.524115 -0.0629,0.469853 -1.69871,-0.06744 -1.73508,0.503068 -0.009,0.143193 1.16018,-0.1548 1.14803,0.183595 -0.004,0.101946 -1.03287,0.05718 -1.29609,0.30962 -0.0538,0.05159 0.63662,0.08245 0.59597,0.262289 -0.0209,0.09269 -1.2783,-0.0458 -1.45117,0.101496 -0.16256,0.138508 1.15667,0.366697 0.87129,0.669614 -0.0947,0.100555 -1.33908,-0.33233 -1.82978,-0.134226 -0.1332,0.05378 1.15383,0.345848 0.87082,0.517949 -0.28302,0.1721 -1.40254,0.04048 -1.99441,-0.04548 -0.59187,-0.08596 -1.08197,-8.43e-4 -1.40467,-0.07268 -0.89848,-0.199999 -1.77511,-0.415045 -2.81755,-0.833115 -0.61497,-0.246633 -1.22822,-0.641834 -1.80818,-0.863674 -1.91616,-0.732948 -3.45511,-1.745037 -5.50548,-3.495659 -0.89633,-0.765291 -1.56483,-1.710225 -2.10024,-2.258017 -0.53541,-0.547792 -1.80312,-1.893146 -2.50463,-2.829381 -0.81591,-1.088916 -1.32436,-2.240735 -1.8448,-3.192615 -0.9679,-1.770296 -1.58206,-3.535866 -2.42976,-6.267059 -0.53692,-1.729864 -0.56665,-2.297201 -1.06921,-6.265319 -0.50256,-3.968119 -1.05653,-11.671176 -1.34616,-11.668035 -0.3271,0.0035 -0.4259,1.915777 -0.6763,3.638794 -0.22878,1.57426 -0.5079,2.941078 -0.46536,3.270398 0.0543,0.420292 0.68828,2.512424 0.98762,4.057759 0.29934,1.545336 0.23319,2.484657 0.45592,3.442193 0.1858,0.798774 0.42779,1.321654 1.01761,2.986779 0.58982,1.665124 0.70422,2.266445 1.76151,4.480366 1.05728,2.213921 5.47494,7.904713 5.61861,8.433762 0.14367,0.52905 -0.0621,3.138491 -0.70118,6.72737 -0.54171,3.04211 -1.34595,6.523106 -2.35473,8.947366 -0.25774,0.61938 -0.0103,1.10459 -0.15202,1.579 -0.21384,0.71602 -0.42225,1.08218 -0.90234,1.59025 -0.48009,0.50806 -1.53028,1.29832 -2.1994,1.39067 -0.66911,0.0923 -3.90957,0.36201 -4.60704,0.35489 -0.95507,-0.01 -2.74309,0.24031 -3.32677,-0.38742 -0.58367,-0.62772 -0.7678,-2.42268 -0.44155,-3.07342 0.32626,-0.65074 0.95146,-1.47253 2.14258,-1.84102 1.19111,-0.36848 2.38106,-0.005 2.67503,-0.27403 0.29396,-0.26932 2.2168,-5.64285 2.04159,-8.576254 -0.0975,-1.632678 -0.78164,-3.192027 -1.69642,-4.604181 -0.91478,-1.412154 -2.19271,-2.615883 -2.43637,-2.395532 -0.13189,0.119273 0.61893,1.732142 1.31966,3.23572 0.59384,1.274214 1.12289,2.271885 1.11118,2.784001 -0.002,0.07654 -0.73062,0.992263 -0.97297,1.687528 -0.24236,0.695265 -0.0783,1.097987 -0.42431,1.726626 -0.36307,0.659671 -1.11815,1.323376 -1.44019,2.136278 -0.58144,1.467724 -0.14152,1.705994 -0.60208,2.488404 -0.61572,1.04598 -1.1341,1.34421 -1.8624,2.30661 -0.30729,0.40607 -0.34288,0.92484 -0.47239,1.30295 -0.14493,0.42314 -0.37623,0.69822 -0.61168,1.00531 -0.44584,0.5815 0.0468,0.18897 -0.38046,0.87248 -0.42721,0.68352 -1.31306,1.28226 -1.74621,1.91136 -0.58295,0.84665 -0.57516,1.39454 -1.05667,1.61967 -0.46105,0.21557 -3.25394,0.21572 -6.01557,0.23014 -2.2657,0.0118 -4.45459,-0.0134 -5.32383,-0.3873 -0.36417,-0.0402 -1.65551,-2.71764 -0.15236,-4.05446 0.45323,-0.40308 0.71505,-0.88214 1.7878,-1.18354 1.07274,-0.30141 3.09788,-0.0705 3.38755,-0.29362 0.48992,-0.37742 1.18675,-1.30804 1.97874,-2.41877 1.50811,-2.11507 3.19871,-4.883185 3.32145,-5.728116 0.18719,-1.288649 0.0585,-3.905945 -0.06,-4.820212 -0.0489,-0.377406 -0.48407,-1.44002 -0.89467,-2.986225 -0.28058,-1.056596 -0.46391,-2.372009 -0.84351,-3.718593 -0.4106,-1.456556 -0.92249,-2.94206 -1.33863,-4.539951 -0.75631,-2.9041 -2.02461,-4.651161 -2.85728,-6.386287 -0.72185,-1.50421 -0.95376,-3.226255 -1.3664,-3.630941 -0.31702,-0.310919 -1.28949,-0.819028 -2.18018,-1.449888 -0.10935,-0.07746 -0.0763,-0.158241 -0.1744,-0.258251 -0.19111,-0.194867 -0.50884,-0.425607 -0.74736,-0.586902 -0.0827,-0.05594 -0.27264,-0.07212 -0.35728,-0.128068 -0.0709,-0.04685 2e-5,-0.157758 -0.0589,-0.21946 -0.0587,-0.06147 -0.30323,-0.0088 -0.39333,-0.05853 -0.10102,-0.05573 -0.0488,-0.212834 -0.13134,-0.26475 -0.0805,-0.05067 -0.29436,-0.04793 -0.37605,-0.09792 -0.08,-0.04896 -0.0675,-0.190555 -0.14811,-0.238919 -0.0991,-0.0594 -0.39786,0.01464 -0.49816,-0.04325 -0.0972,-0.05611 0.0843,-0.138347 -0.013,-0.193527 -0.0947,-0.05371 -0.32277,-0.04051 -0.41877,-0.09302 -0.11333,-0.06198 -0.0407,-0.123549 -0.15373,-0.184494 -0.14592,-0.07869 -0.49207,-0.05016 -0.63987,-0.126319 -0.0548,-0.02825 -0.0697,-0.202423 -0.12417,-0.230503 -0.12925,-0.06658 -0.36906,-0.195352 -0.57555,-0.219067 -0.11265,-0.01294 -0.21539,0.08929 -0.28485,0.05615 -0.1142,-0.0545 -0.15982,-0.255001 -0.26982,-0.309041 -0.24601,-0.12086 -0.49541,0.01035 -0.72445,-0.08373 -0.24515,-0.100688 -0.45435,-0.567414 -0.68494,-0.668379 -0.24369,-0.106701 -0.38155,0.28878 -0.6251,0.302253 -0.26414,0.01461 -0.71876,-0.345764 -0.89577,-0.341948 -0.17701,0.0038 -0.15739,0.338445 -0.24883,0.345615 -0.14849,0.01165 -0.32261,-0.382194 -0.46904,-0.359201 -0.0884,0.01389 -0.17646,0.308806 -0.26398,0.327167 -0.10655,0.02235 -0.30528,-0.09845 -0.4103,-0.07064 -0.0603,0.01596 -0.0937,0.351392 -0.1534,0.369164 -0.0765,0.02279 -0.30569,-0.40651 -0.38722,-0.379387 -0.0815,0.02712 -0.98887,1.891719 -1.34847,1.712522 -0.11574,-0.05768 0.48176,-1.725003 0.1502,-1.695473 -0.0648,0.0058 -0.38105,0.103598 -0.58432,0.387328 -0.14656,0.204568 -0.15151,0.563131 -0.35262,0.782413 -0.15209,0.165828 -0.46118,0.100692 -0.65048,0.245169 -0.36082,0.275381 -0.63897,1.381682 -0.77797,1.546258 -0.10118,0.119789 0.0249,-0.889495 -0.2506,-0.636037 -0.27546,0.253458 0.0277,1.508955 -0.20375,1.576324 0,0 -0.32405,-1.368704 -0.43363,-1.196682 -0.0935,0.146772 -0.0302,1.812249 -0.15103,2.015164 -0.13567,0.227903 -0.30205,-1.662744 -0.46576,-1.429969 -0.0915,0.13016 -0.2214,1.075594 -0.39103,1.870811 -0.16963,0.795217 -0.28314,2.361129 -0.48716,2.355184 -0.28312,-0.0083 -0.14101,-1.008975 -0.35067,-0.918568 -0.20965,0.09041 -0.34661,2.230268 -0.544,2.26643 -0.19738,0.03616 -0.46304,-2.092054 -0.46304,-2.092054 0,0 -0.31986,2.473568 -0.54083,2.451171 -0.1893,-0.01919 -0.29573,-0.973572 -0.29573,-0.973572 0,0 -0.28361,0.698656 -0.47868,0.750362 -0.17758,0.04707 -0.43661,-0.129819 -0.43661,-0.129819 0,0 -0.26895,0.351381 -0.46753,0.375028 -0.19859,0.02365 -0.42385,-0.246687 -0.42385,-0.246687 l -0.39567,0.509091 -0.37855,-0.531428 -0.25662,0.505216 c 0,0 -0.36176,-1.277476 -0.6284,-1.240877 -0.22763,0.03124 -0.1105,1.419276 -0.34433,1.445716 -0.23383,0.02644 -0.53183,-2.201941 -0.74555,-2.179081 -0.0941,0.01007 -0.23179,0.387052 -0.27989,0.81268 -0.0611,0.540571 -0.0296,1.159612 -0.14792,1.205116 -0.10877,0.04182 -0.35497,-0.925413 -0.48729,-1.187829 -0.13321,-0.264179 -0.42105,-0.155239 -0.78736,-0.07029 -0.366306,0.08495 -1.604937,0.920092 -3.314948,1.547825 -2.758864,1.012761 -5.501759,1.91075 -6.419933,2.087747 -0.339067,0.06536 -1.569361,0.38043 -3.368733,0.429266 -1.815719,0.04928 -3.912862,-0.09793 -6.314662,0.0385 -2.401799,0.136424 -1.926707,0.617863 -4.366618,0.925901 -0.605714,0.07647 -1.538059,0.41325 -1.852799,0.586525 -0.31474,0.173275 0.992253,1.036944 0.702636,1.307141 -0.144612,0.134915 -0.849655,-0.07431 -1.538948,-0.195331 -0.783614,-0.137585 -1.55236,-0.199595 -1.55236,-0.199595 0,0 0.06609,0.3835 0.722387,0.649078 0.69506,0.281266 1.988083,0.451607 2.198414,0.683133 0.166076,0.182813 -1.919387,-0.115857 -1.698161,0.06432 0.645596,0.525819 1.630458,0.902414 1.54608,1.058047 -0.184486,0.340279 -3.34616,-0.609173 -3.444985,-0.462306 -0.09882,0.146866 0.102953,0.356801 0.773043,0.886884 0.570562,0.45135 1.203031,0.797567 1.153663,0.899129 -0.107347,0.22084 -1.433607,-0.09522 -1.496329,0.01669 -0.06272,0.111907 0.654148,0.673469 0.456591,0.848238 -0.197556,0.174769 -2.446894,-1.157341 -2.577031,-1.004709 -0.130137,0.152632 1.107666,0.948522 1.05376,1.093779 -0.03663,0.0987 -1.266146,0.02204 -2.115283,0.02804 -0.400593,0.0028 -0.764651,-0.08663 -0.790188,0.07336 -0.07967,0.4991 0.464302,1.311726 0.321032,1.463496 -0.14327,0.15177 -2.463446,-0.01726 -2.641048,0.127522 -0.219266,0.17875 -0.319627,0.852093 -0.437034,2.114088 -0.09041,0.971836 -0.13213,2.382427 -0.516378,4.028531 -0.20346,0.871614 -0.410776,1.849504 -0.646281,2.866723 -0.209262,0.90387 -0.45555,1.838793 -0.517097,2.757801 -0.260404,3.88828 0.811244,3.52167 0.504677,7.07623 -0.03065,0.35538 -0.103161,0.5256 -0.23998,0.62567 -0.04062,0.0297 -0.134827,-0.0506 -0.175361,-0.004 -0.01998,0.0229 0.02973,0.14211 0.0091,0.16513 -0.02293,0.0256 -0.134025,0.0511 -0.158052,0.0766 -0.01863,0.0198 0.02396,0.10961 0.0052,0.12949 -0.02379,0.0252 -0.126699,0.0503 -0.151065,0.0755 -0.03292,0.034 -0.0042,0.22578 -0.03631,0.2606 -0.04841,0.0525 -0.342573,0.18995 -0.391151,0.24049 -0.118336,0.12312 0.01319,0.43199 -0.02896,0.58968 -0.04693,0.17561 -0.184152,0.38724 -0.236736,0.77848 -0.04819,0.35858 -0.03282,0.82634 -0.03237,1.27627 2.98e-4,0.29584 -0.03568,0.57901 0.0047,0.83586 0.0614,0.39045 0.267034,0.57727 0.30177,0.92089 0.08629,0.85365 -0.04045,1.41251 -0.153515,1.68855 -0.113065,0.27603 -0.966182,1.25861 -1.37497,1.72373 -0.408788,0.46512 -0.83566,0.9596 -1.1289,1.05063 -0.08135,0.0252 0.04319,0.14862 -2.468726,0.28499 -0.577928,0.0314 -1.442648,0.15446 -2.393463,0.19192 -0.394598,0.0155 -0.845059,-0.032 -1.266373,-0.0187 -0.228951,0.007 -0.460046,0.12594 -0.691599,0.13319 -0.440055,0.0138 -0.931298,-0.0372 -1.363099,-0.0285 -0.222268,0.004 -0.441444,0.13274 -0.656044,0.13713 -0.366577,0.007 -0.756947,-0.0637 -1.089397,-0.0635 -0.175914,8e-5 -0.345489,0.0747 -0.507751,0.0751 -1.204587,0.003 -1.512658,-0.005 -1.845151,-0.17038 -0.332493,-0.16558 -0.762317,-0.68631 -1.117766,-0.81294 -0.150864,-0.0537 -1.15427,0.034 -2.259343,0.052 -1.498557,0.0244 -2.781699,0.10945 -3.219104,-0.12861 -0.437405,-0.23805 -1.429109,-1.09187 -1.496719,-2.19077 -0.06761,-1.0989 0.801198,-2.39924 1.308851,-2.89883 0.276672,-0.27228 1.417303,-0.69573 2.680786,-0.95531 1.054826,-0.21671 2.167674,-0.15202 2.726723,-0.7691 0.245937,-0.27146 0.385285,-0.68006 0.598762,-1.09553 0.311255,-0.60575 0.772218,-1.72356 0.76757,-3.43174 -0.0013,-0.48513 -0.132113,-1.0056 -0.180263,-1.56317 -0.08507,-0.98511 -0.127267,-2.62181 -0.167645,-3.872344 -0.01724,-0.533869 0.229103,-4.104471 0.194637,-5.529047 -0.0056,-0.230758 0.145528,-0.525134 0.186563,-0.9432 0.09508,-0.96868 0.13483,-2.371857 0.09633,-3.544403 -0.04746,-1.445495 -0.09697,-2.391261 -0.165674,-2.696927 -0.0687,-0.305666 -0.419945,-0.646716 -0.419945,-0.646716 0,0 -0.219648,0.748635 -0.415496,0.742257 -0.16772,-0.0055 -0.181051,-1.489806 -0.181051,-1.489806 l -0.346607,0.272675 -0.313316,-1.137981 c 0,0 -0.197651,0.620148 -0.26152,0.991444 -0.06387,0.371296 0.01662,1.211037 -0.102147,1.230909 -0.186254,0.03116 -0.32139,-0.859897 -0.32139,-0.859897 0,0 -0.228185,0.565488 -0.417231,0.473314 -0.09641,-0.04701 -0.02517,-0.780395 -0.05163,-1.496823 -0.0236,-0.638967 -0.149867,-1.272124 -0.149867,-1.272124 0,0 -0.373853,1.930985 -0.615096,1.940177 -0.241243,0.0092 -1.007809,-4.196588 -1.007809,-4.196588 0,0 -0.180174,0.573239 -0.305029,1.260475 -0.139987,0.770524 -0.232153,1.665045 -0.351678,1.674442 -0.226131,0.01778 -0.190937,-2.524167 -0.190937,-2.524167 0,0 -0.346932,1.398781 -0.589529,1.357518 -0.242596,-0.04126 -0.008,-2.536289 -0.008,-2.536289 0,0 -0.686732,1.483005 -0.994931,1.355756 -0.184671,-0.07625 -0.06231,-1.443483 -0.0023,-2.542279 0.04016,-0.734995 0.0058,-1.360252 0.0058,-1.360252 0,0 -0.258606,1.241162 -0.545683,1.282087 -0.287076,0.04092 -0.502388,-0.62322 -0.502388,-0.62322 0,0 -0.180811,0.4136 -0.297437,0.957788 -0.145244,0.677729 -0.242657,1.516626 -0.369349,1.529742 -0.228421,0.02365 -0.210426,-4.02898 -0.210426,-4.02898 0,0 -0.496149,1.601314 -0.685425,1.589078 -0.169404,-0.01095 -0.358772,-0.903134 -0.358772,-0.903134 0,0 -0.259318,0.181913 -0.395755,0.01572 -0.07038,-0.08572 -0.05747,-0.644992 0.01156,-1.141663 0.0648,-0.466205 0.186855,-0.87056 0.103632,-0.975451 -0.171887,-0.216636 -1.071266,-0.106272 -1.317836,0.07882 -0.24657,0.185092 -0.799784,1.621078 -0.799784,1.621078 0,0 0.368948,-1.664367 0.639027,-1.886079 0.270079,-0.221713 1.035857,-0.362255 1.035857,-0.362255 0,0 0.783313,-1.412485 0.598192,-1.566956 -0.185122,-0.15447 -1.62617,1.004791 -1.62617,1.004791 0,0 1.525647,-2.781975 1.329073,-2.87106 -0.196574,-0.08909 -0.726861,1.423132 -0.911348,1.343664 -0.184487,-0.07947 0.151927,-2.666778 -0.06222,-2.921433 -0.214152,-0.254655 -2.616559,0.933659 -2.695185,0.700574 -0.04295,-0.127336 0.751168,-0.465331 1.412448,-0.865054 0.549175,-0.331959 0.98343,-0.747269 0.98343,-0.747269 0,0 -0.555397,0.145927 -0.738754,-0.06639 -0.183356,-0.212322 0.05318,-0.939978 0.05318,-0.939978 0,0 -0.458879,0.0406 -0.682984,0.256755 -0.224105,0.216152 -0.193928,1.060029 -0.438852,1.050526 -0.244924,-0.0095 -0.193839,-1.339283 -0.481727,-1.316365 -0.287888,0.02292 -1.056896,1.459708 -1.493446,1.349847 -0.43655,-0.109861 -1.646555,-3.140622 -1.931948,-3.057305 -0.285392,0.08332 0.02743,3.696577 -0.272118,3.802412 -0.299552,0.105835 -1.092169,-2.994694 -1.558953,-3.077328 -0.466783,-0.08263 -0.892068,1.546715 -1.107347,1.547918 -0.168349,9.42e-4 -0.476546,-1.104699 -0.960336,-1.330921 -0.48379,-0.226222 -0.521709,-0.171503 -0.930362,-0.602552 -0.13394,-0.14128 -0.300229,-0.414002 -0.438034,-0.628487 -0.28264,-0.439912 -0.454672,-0.674514 -0.693383,-1.089583 -0.238711,-0.415068 -0.596108,-1.422057 -0.791891,-1.423576 -0.09489,-7.36e-4 -0.277382,0.481801 -0.444081,1.120826 -0.177249,0.679466 -0.339093,1.517469 -0.443917,1.501065 -0.203409,-0.03183 0.170534,-3.227975 0.054,-3.399931 -0.08746,-0.129057 -0.330053,-0.335225 -0.531791,-0.143525 -0.107787,0.102423 -0.210964,0.825515 -0.126165,1.389976 0.0848,0.564461 0.329992,0.918906 0.213874,1.026261 -0.163557,0.151214 -0.607132,-0.452853 -0.96321,-1.276549 -0.356079,-0.823696 -0.271062,-1.940866 -0.534515,-1.938473 -0.263453,0.0024 -0.151149,1.563699 -0.369918,1.606055 -0.05558,0.01076 -0.109241,-0.494427 -0.25684,-0.976452 -0.05947,-0.194204 -0.207661,-0.17748 -0.293535,-0.354806 -0.07081,-0.146224 -0.07822,-0.484475 -0.142622,-0.655842 -0.137873,-0.36687 -0.374444,-0.408537 -0.482951,-0.774788 -0.227233,-0.766999 -0.209789,-1.487534 -0.290846,-1.542918 -0.06237,-0.04262 -0.292055,0.150653 -0.556471,0.412379 -0.152015,0.150468 -0.284091,0.386403 -0.482736,0.452586 -0.350478,0.116769 -0.547813,-0.197145 -0.815986,-0.220108 -0.447193,-0.03829 -0.861724,0.07236 -1.244396,-0.0061 -0.08648,-0.01772 -0.185852,-0.242132 -0.278301,-0.277438 -0.106936,-0.04084 -0.217082,0.0596 -0.328841,0.003 -0.169064,-0.08558 -0.125932,-0.284497 -0.296857,-0.400589 -0.07356,-0.04996 -0.195163,0.89364 -0.270274,0.841427 -0.05179,-0.036 -0.141157,-0.949136 -0.192806,-0.992859 -0.0517,-0.04377 -0.14061,0.36326 -0.19146,0.320133 -0.08024,-0.06805 -0.09303,-0.872831 -0.16918,-0.948179 -0.07253,-0.07177 -0.322208,0.390032 -0.391599,0.333246 -0.112304,-0.0919 -0.0045,-1.410758 -0.0901,-1.508731 -0.30552,-0.349583 -0.276529,-0.213787 -0.294752,-0.456418 -0.02265,-0.301505 0.214602,-0.21545 0.230596,-0.505641 0.01512,-0.274293 0.09987,-0.718572 0.08604,-1.142559 -0.01021,-0.312959 -0.110565,-0.609275 -0.09736,-0.842692 0.03161,-0.558768 0.366524,-0.131788 0.327314,-0.884163 -0.0035,-0.06732 0.01624,-0.185288 -0.03479,-0.252473 -0.05799,-0.07636 -0.190972,-0.103546 -0.258985,-0.210647 -0.04389,-0.06912 -0.01795,-0.239154 -0.07107,-0.299658 -0.05204,-0.05927 -0.134293,0.02826 -0.188368,-0.0388 -0.04268,-0.05293 -0.0396,-0.218435 -0.08395,-0.270839 -0.04441,-0.05246 -0.245917,-0.0492 -0.283924,-0.102739 -0.0693,-0.09762 -0.06672,-0.298637 -0.123881,-0.393993 -0.05489,-0.09157 -0.153418,-0.04603 -0.20108,-0.125208 -0.212075,-0.352311 0.03649,-0.406503 -0.20547,-0.609679 -0.241961,-0.203176 -0.478733,0.08636 -0.642837,0.04282 -0.164105,-0.04354 -0.04586,-0.162289 -0.312133,-0.20681 -0.08355,-0.01397 -0.195808,0.227506 -0.362062,0.2692 -0.363602,0.09119 -0.543066,-0.03156 -0.543066,-0.03156 l -0.5714364,4.7e-4 -0.31517,-0.325862 c 0,0 -0.370394,0.191001 -0.526787,0.101633 -0.156392,-0.08937 -0.0506,-0.357497 -0.0506,-0.357497 L 8.6686233,49.660387 c 0,0 -0.3253377,0.09904 -0.4583357,5.99e-4 -0.132998,-0.09844 -0.0796,-0.420028 -0.0796,-0.420028 0,0 -0.198933,0.130775 -0.2853727,0.07563 -0.08644,-0.05514 -0.05603,-0.315015 -0.05603,-0.315015 0,0 -0.251612,0.144808 -0.326919,-0.07652 -0.01343,-0.03945 0.05611,-0.09165 -0.101799,-0.227315 -0.05705,-0.04901 -0.2515097,-0.0975 -0.2925117,-0.191658 -0.03798,-0.08723 -0.171889,-0.125707 -0.213425,-0.226345 -0.02788,-0.06755 0.04713,-0.184844 0.01865,-0.257477 -0.03918,-0.09995 -0.2390997,0.06834 -0.2801387,-0.03818 -0.07247,-0.188103 -0.04907,-0.710562 -0.11629,-0.919271 -0.0361,-0.112097 -0.008,0.489368 -0.2019777,0.449189 -0.189523,-0.03926 0.01998,-1.273542 -0.07825,-1.83275 -0.04875,-0.27755 -0.144171,0.0021 -0.237377,-0.08077 -0.09458,-0.08408 -0.149066,-1.035453 -0.149066,-1.035453 0,0 0.0499,0.221908 -0.1444897,0.153399 -0.194393,-0.06851 -0.07344,-0.801648 -0.07344,-0.801648 0,0 -0.114974,0.06033 -0.214861,-0.01308 -0.09989,-0.07341 -0.102586,-0.359815 -0.102586,-0.359815 0,0 -0.1646284,0.135396 -0.2633334,0.06812 -0.0987,-0.06728 -0.07965,-0.320948 -0.07965,-0.320948 0,0 -0.16813,0.02139 -0.2665027,-0.05198 -0.09837,-0.07337 -0.09284,-0.340034 -0.09284,-0.340034 0,0 -0.09159,0.120004 -0.237591,0.05009 -0.145997,-0.06991 -0.04902,-0.612202 -0.04902,-0.612202 l -0.2239897,0.05902 c 0,0 -0.07664,-0.455623 -0.0467,-0.901613 0.02993,-0.44599 0.2138707,-0.575246 0.3291137,-0.556654 z"
       id="path827"
       inkscape:connector-curvature="0"
       sodipodi:nodetypes="cssssssssssssssssssssszcccssssssssssssssssssssssssssssssssssssssczczzzczszsssssssssssssssssszszzsszsssssssssssszsssssssssszsssssssssssssssssssssssssssssssssssssssssssssssssssssszssssssssszsssszszzsszszzsssszsssczzszssssszsssssssszzsssszssszssszszzzssszzszzzzazssszsssssszssscszsssssssssssssssssssssssssssssszssssszsssssszsssszszzcscsczccccszsssszssszszsscsssszsszzzssszssssssssssssssssssszzssssssssszsszzsssssssssszcsccczscssczcssczcssczcsscscssszczczczzzssczczzzzzzzszsszssssszszzsssssssssssssssssssssssssssssssszzssccczcczczcssssssssssczczczczczcczsc" />
  </g>
</svg>
