<?xml version="1.0" encoding="UTF-8" standalone="no"?>
<!-- Created with Inkscape (http://www.inkscape.org/) -->

<svg
   xmlns:dc="http://purl.org/dc/elements/1.1/"
   xmlns:cc="http://creativecommons.org/ns#"
   xmlns:rdf="http://www.w3.org/1999/02/22-rdf-syntax-ns#"
   xmlns:svg="http://www.w3.org/2000/svg"
   xmlns="http://www.w3.org/2000/svg"
   xmlns:sodipodi="http://sodipodi.sourceforge.net/DTD/sodipodi-0.dtd"
   xmlns:inkscape="http://www.inkscape.org/namespaces/inkscape"
   width="208mm"
   height="85mm"
   viewBox="0 0 208 85"
   version="1.1"
   id="svg8"
   inkscape:version="0.92.4 (5da689c313, 2019-01-14)"
   sodipodi:docname="great_white_shark.svg">
  <defs
     id="defs2" />
  <sodipodi:namedview
     id="base"
     pagecolor="#ffffff"
     bordercolor="#666666"
     borderopacity="1.0"
     inkscape:pageopacity="0.0"
     inkscape:pageshadow="2"
     inkscape:zoom="1.01"
     inkscape:cx="133.14706"
     inkscape:cy="168.7717"
     inkscape:document-units="mm"
     inkscape:current-layer="layer2"
     showgrid="false"
     inkscape:window-width="1920"
     inkscape:window-height="1009"
     inkscape:window-x="-8"
     inkscape:window-y="-8"
     inkscape:window-maximized="1" />
  <metadata
     id="metadata5">
    <rdf:RDF>
      <cc:Work
         rdf:about="">
        <dc:format>image/svg+xml</dc:format>
        <dc:type
           rdf:resource="http://purl.org/dc/dcmitype/StillImage" />
        <dc:title></dc:title>
      </cc:Work>
    </rdf:RDF>
  </metadata>
  <g
     inkscape:groupmode="layer"
     id="layer2"
     inkscape:label="Layer 2"
     transform="translate(0,-212)">
    <path
       style="opacity:0.8;fill:#594ed1;fill-opacity:1;stroke:none;stroke-width:0.1;stroke-linecap:butt;stroke-linejoin:miter;stroke-miterlimit:4;stroke-dasharray:none;stroke-opacity:1"
       d="m 4.3361241,251.60415 c -6.623e-4,-0.75333 3.404018,-2.279 8.2430209,-3.96778 2.983694,-1.04129 5.659915,-1.82087 9.132219,-2.75835 2.485628,-0.67109 4.845324,-1.28083 7.845345,-1.92279 3.247695,-0.69496 5.477616,-0.90771 10.425086,-1.64417 4.947469,-0.73647 12.661642,-1.83567 17.195496,-2.4167 2.435291,-0.31208 4.769127,-0.56857 6.421131,-0.77593 1.652004,-0.20736 2.779244,-0.39301 3.763231,-0.48926 2.33829,-0.22871 3.578991,-0.334 5.205765,-0.4236 1.106681,-0.0609 1.870468,-0.0798 2.689338,-0.15915 0.818869,-0.0793 1.555916,-0.29089 1.964329,-0.38521 0.718975,-0.16604 0.940439,-0.12659 1.433944,-0.56946 1.217005,-1.09214 2.265523,-2.95316 3.58502,-5.27874 0.453397,-0.7991 0.889936,-1.52995 1.389876,-2.44804 1.954894,-3.58998 5.153368,-8.26503 6.925546,-9.87615 1.772177,-1.61112 4.210427,-3.14293 4.857309,-2.82339 0.291461,0.14397 0.149019,0.83994 0.109566,1.99623 -0.0205,0.6008 0.102092,1.45501 0.121765,2.17826 0.01967,0.72324 -0.0667,1.3161 -0.0088,1.87884 0.07229,0.70264 0.308165,1.16284 0.48104,2.2315 0.172876,1.06867 0.199307,2.42364 0.582696,3.64061 0.164224,0.52128 0.35271,0.76113 0.533669,1.21672 0.18096,0.4556 0.328513,0.98717 0.492133,1.31479 0.349206,0.69921 0.869949,1.42232 1.323845,2.05319 0.453896,0.63088 0.836688,1.18114 1.258706,1.58588 0.43988,0.42187 1.47316,1.0197 2.31027,1.80456 0.79903,0.74915 1.51444,1.36829 1.49301,1.41125 -0.0427,0.0856 -0.8617,-0.0728 -1.72066,-0.0748 -0.7713,-0.002 -1.10901,0.15014 -1.84589,0.1419 -0.736882,-0.008 -0.877651,-0.0663 -0.980158,-0.0411 -0.169654,0.0416 -0.21782,0.24992 -0.498569,0.27641 -0.280748,0.0265 -0.604307,0.0272 -0.577319,0.21659 0.02106,0.14781 1.448717,0.11958 2.404236,0.17202 0.95551,0.0524 11.96165,1.67573 16.22282,2.32794 2.21481,0.33899 5.3354,0.90253 8.7826,1.47296 3.10897,0.51446 6.45448,0.98276 9.48225,1.53641 3.10792,0.5683 6.01688,1.16851 7.74017,1.51261 1.72329,0.34411 2.55106,0.49531 2.72704,0.46625 0.51364,-0.0848 2.09941,-1.09659 2.93619,-1.5845 0.83678,-0.48792 1.2476,-0.5923 1.36753,-0.53157 0.309,0.15649 0.15911,1.25698 0.38324,1.71846 0.22413,0.46148 1.06717,1.14845 1.00883,1.27588 -0.0583,0.12743 -1.83999,-0.16345 -1.80908,0.19883 0.0131,0.1534 1.3074,0.43802 3.52781,0.68083 2.2204,0.2428 3.3558,0.26874 5.577,0.42933 2.2212,0.16059 7.75078,0.52409 7.75078,0.52409 l 0.32771,0.40835 c 0,0 0.77925,0.006 1.30327,0.006 0.52403,-4.1e-4 0.71716,0.0393 1.02292,-0.0479 0.30257,-0.0863 0.57941,-0.38793 0.78846,-0.56991 0.73503,-0.63981 2.32504,-2.63417 3.91067,-4.63143 1.58563,-1.99726 3.00354,-3.80053 4.88619,-5.78259 3.18225,-3.35028 7.23012,-7.07245 9.72693,-9.0346 0.93285,-0.73309 1.88594,-1.31912 3.05868,-2.03682 1.29659,-0.79349 2.94459,-1.61365 4.2858,-2.24313 1.34121,-0.62947 2.29196,-1.10623 3.40834,-1.5096 2.81857,-1.01839 5.27536,-1.49943 5.50702,-1.16184 0.44719,0.65168 -1.26828,3.16174 -1.66513,4.40005 -0.39685,1.23832 -0.68367,1.72621 -0.8141,2.19283 -0.13044,0.46663 -0.18188,0.92057 -0.36855,1.50865 -0.18666,0.58808 -0.40125,0.96461 -0.51852,1.0553 -0.36223,0.28012 -0.98472,-0.49657 -1.39062,-0.70732 -0.4059,-0.21075 -0.94109,-0.38753 -0.99876,-0.27257 -0.0577,0.11496 0.36209,0.13851 0.33519,0.42177 -0.0167,0.17584 -0.63074,0.48189 -1.15106,0.9853 -0.52031,0.50341 -0.81551,1.00054 -1.31876,1.67064 -0.70139,0.93392 -1.61461,2.42822 -2.15639,3.3585 -0.54178,0.93027 -0.6724,1.25283 -0.99429,1.77648 -2.71975,4.4245 -5.64094,9.82862 -6.20406,10.86291 -1.09491,2.01105 -0.98817,2.60419 -1.27888,3.85658 -0.16006,0.68957 -0.51827,1.54083 -0.59112,2.17865 -0.0729,0.63783 -0.002,1.47239 0.13716,2.12431 0.31518,1.47755 1.4645,5.87721 1.9612,7.64067 0.49669,1.76346 1.08949,2.94619 1.76431,4.49396 0.67483,1.54777 1.33708,3.02354 1.69402,3.66062 0.68704,1.22628 0.75427,1.73218 -0.0899,1.72168 -0.8442,-0.0105 -1.40542,-0.12822 -3.14188,-0.73492 -1.23114,-0.43014 -1.99757,-0.93184 -2.82453,-1.43766 -0.82697,-0.50583 -1.28992,-0.78259 -2.19698,-1.52703 -2.60068,-2.13443 -6.30394,-5.89567 -8.3517,-8.58622 -1.21205,-1.59252 -2.38796,-3.36047 -3.41417,-4.6587 -0.71962,-0.91037 -1.24027,-1.42239 -1.72526,-1.9721 -0.89025,-1.00905 -1.46521,-1.64905 -2.14742,-1.72422 -0.31143,-0.0343 -0.68169,0.0981 -1.11992,0.26994 -0.43823,0.17185 -0.94517,0.39555 -1.28295,0.44414 -0.62148,0.0894 -0.776,0.0327 -2.80765,0.13997 -0.9896,0.0522 -2.60354,0.19089 -4.08666,0.26167 -1.48312,0.0708 -2.81177,0.0736 -2.81153,0.12257 6.5e-4,0.13167 1.6078,0.0546 1.6179,0.21919 0.005,0.0887 -0.3557,0.18531 -0.64861,0.32541 -0.29292,0.1401 -0.43369,0.37288 -0.57724,0.55596 -0.31138,0.39713 -0.55748,0.74824 -0.66869,1.19855 -0.1112,0.45032 0.0508,1.20622 0.006,1.34053 -0.0491,0.14551 -0.15557,0.30731 -0.35196,0.30513 -0.19638,-0.002 -0.73917,-0.086 -1.30037,-0.42071 -0.16618,-0.0991 -0.61303,-0.31331 -1.05008,-0.62096 -0.43705,-0.30765 -0.87424,-0.71622 -1.22852,-0.95206 -0.67486,-0.44925 -0.95632,-0.56559 -1.01373,-0.58111 -0.15242,-0.0412 -1.36605,0.20332 -2.34764,0.40426 -0.98159,0.20094 -1.39929,0.35138 -2.19199,0.50795 -0.7927,0.15657 -1.0568,0.11255 -2.90548,0.4784 -0.71068,0.14064 -1.34354,0.37995 -2.4422,0.62478 -1.09866,0.24483 -2.56783,0.48866 -2.55743,0.53898 0.0365,0.17642 1.94121,-0.22693 1.97049,-0.12277 0.0293,0.10417 -1.75551,1.90108 -1.86187,4.06479 -0.0512,1.04241 0.0995,2.17317 0.30249,3.22927 0.20886,1.08679 0.81618,1.76109 0.52426,2.13105 -0.29193,0.36996 -0.39198,0.49717 -0.63133,0.63509 -0.23935,0.13791 -0.55041,0.16239 -0.96247,0.18531 -0.69718,0.0388 -1.97677,-0.20842 -4.6607,-1.4903 -1.50165,-0.7172 -3.16364,-1.77544 -4.24872,-2.48767 -1.08508,-0.71224 -1.64396,-1.17855 -1.8757,-1.16404 -0.49387,0.0309 -2.87321,1.18863 -6.38506,2.26182 -2.15988,0.66004 -4.57477,1.18236 -6.67153,1.63655 -5.506,1.1927 -14.240072,2.22538 -19.948851,2.7863 -5.708779,0.56092 -16.971524,1.15794 -16.971524,1.15794 0,0 0.02746,2.90947 0.25476,5.52918 0.06613,0.76211 0.04391,1.37696 0.223605,2.49136 0.179698,1.1144 0.624131,2.69341 0.957952,3.88977 0.506877,1.81657 0.717248,2.56359 1.214473,3.77077 1.429148,3.46972 2.97724,6.02674 2.909534,6.46761 -0.06771,0.44087 -0.600367,0.8335 -1.234417,1.02626 -0.634051,0.19276 -1.278776,0.16494 -2.236138,-0.0622 -0.957362,-0.22716 -1.597918,-0.33055 -3.240185,-1.43553 -1.642267,-1.10499 -2.305327,-1.32958 -4.552853,-3.52272 -0.564271,-0.55062 -1.154108,-1.15534 -2.011586,-2.27576 -0.857479,-1.12042 -2.000158,-2.85945 -2.769433,-4.00453 -1.292127,-1.92335 -1.909975,-2.76431 -2.59627,-4.00789 -1.808203,-3.2765 -4.100577,-8.26393 -4.100577,-8.26393 0,0 -5.168102,-0.78861 -7.998396,-1.29143 -2.830294,-0.50282 -4.249805,-0.67735 -5.733108,-0.86457 -0.655881,-0.0828 -1.094232,-0.0493 -1.66809,-0.0465 -0.573858,0.003 -1.275177,-0.0193 -2.115384,-0.11791 -1.915011,-0.2247 -4.078883,-0.66346 -5.723626,-1.03462 -2.941699,-0.66384 -5.37536,-1.62241 -7.718199,-2.51655 -2.34284,-0.89414 -4.739731,-1.37139 -6.025905,-1.88476 -1.286174,-0.51337 -1.626386,-0.70874 -2.193245,-1.13903 -0.566859,-0.43029 -1.155202,-1.21097 -1.221522,-1.34227 -0.06632,-0.1313 -0.0988,-0.48915 -0.114145,-0.56099 -0.01535,-0.0718 -0.08268,-0.0886 -0.104015,-0.1317 -0.02134,-0.0432 -0.0066,-0.24062 -0.01911,-0.30469 -0.0125,-0.0641 -0.257105,-0.66078 -0.257105,-0.66078 0,0 0.364904,0.49928 0.415032,0.53359 0.05013,0.0343 0.14527,0.0729 0.214489,0.0135 0.06922,-0.0594 -0.158003,-0.69817 -0.158003,-0.69817 0,0 0.411714,0.52137 0.539032,0.46341 0.127318,-0.058 -0.0079,-0.7725 -0.0079,-0.7725 0,0 0.26199,0.45386 0.38418,0.40263 0.12219,-0.0512 -0.0024,-0.53244 -0.0024,-0.53244 0,0 0.383213,0.48196 0.459759,0.50531 0.07655,0.0233 0.172546,0.005 0.213316,-0.0534 0.04429,-0.0634 0.02916,-0.52211 0.02916,-0.52211 l 0.175559,0.12289 0.08778,-0.29845 0.175559,0.28089 0.08778,-0.158 c 0,0 0.161479,0.27319 0.210671,0.29845 0.04919,0.0253 0.118413,-0.008 0.140447,-0.0527 0.02203,-0.0443 0.07022,-0.47401 0.07022,-0.47401 0,0 0.235266,0.27142 0.305053,0.26556 0.06979,-0.006 0.236128,-0.29355 0.236128,-0.29355 0,0 0.0418,0.30369 0.08865,0.34402 0.04685,0.0403 0.25713,0.007 0.302824,-0.0352 0.04569,-0.0423 0.103154,-0.43455 0.103154,-0.43455 0,0 0.301048,0.3111 0.362059,0.3402 0.06101,0.0291 0.310249,-0.0332 0.346732,-0.0768 0.03648,-0.0436 0.03516,-0.37527 0.03516,-0.37527 0,0 0.198302,0.161 0.274279,0.17775 0.07598,0.0168 0.410691,0.0124 0.410691,0.0124 0,0 0.129538,-0.0454 0.130982,-0.15083 0.0014,-0.10541 -0.13609,-0.17762 -0.13609,-0.17762 0,0 -0.780321,-0.0425 -1.329163,0.007 -0.177756,0.0162 -0.195936,0.0933 -0.743649,0.20261 -0.380613,0.076 -1.343513,0.27953 -1.890774,0.37275 -0.547262,0.0932 -0.669974,0.0714 -0.977866,0.12699 -1.492624,0.2697 -2.722164,0.17918 -3.868183,-0.0263 -1.146019,-0.20548 -2.482535,-0.52448 -3.639277,-1.1224 -1.1567422,-0.59792 -2.1137444,-0.7075 -3.0510475,-1.42959 -0.9373032,-0.7221 -3.7595539,-2.8015 -3.7608314,-4.25474 z"
       id="path827"
       inkscape:connector-curvature="0"
       sodipodi:nodetypes="cssszszsszsssszsszszszszsssszszszssszszszzszzcczsszssszsszzzszzszszssszszzszszssssszsszsszszszszsszzszszsszzsszssszcszsszzzzszssczszsszzzzzzzczzczczczsccccczzczczzczzczczcsszszzzsc" />
  </g>
</svg>
