<?xml version="1.0" encoding="UTF-8" standalone="no"?>
<!-- Created with Inkscape (http://www.inkscape.org/) -->

<svg
   xmlns:dc="http://purl.org/dc/elements/1.1/"
   xmlns:cc="http://creativecommons.org/ns#"
   xmlns:rdf="http://www.w3.org/1999/02/22-rdf-syntax-ns#"
   xmlns:svg="http://www.w3.org/2000/svg"
   xmlns="http://www.w3.org/2000/svg"
   xmlns:sodipodi="http://sodipodi.sourceforge.net/DTD/sodipodi-0.dtd"
   xmlns:inkscape="http://www.inkscape.org/namespaces/inkscape"
   width="200.3mm"
   height="75mm"
   viewBox="0 0 200.3 75"
   version="1.1"
   id="svg8"
   inkscape:version="0.92.4 (5da689c313, 2019-01-14)"
   sodipodi:docname="humpback_whale.svg">
  <defs
     id="defs2" />
  <sodipodi:namedview
     id="base"
     pagecolor="#ffffff"
     bordercolor="#666666"
     borderopacity="1.0"
     inkscape:pageopacity="0.0"
     inkscape:pageshadow="2"
     inkscape:zoom="0.98994949"
     inkscape:cx="297.25002"
     inkscape:cy="143.91276"
     inkscape:document-units="mm"
     inkscape:current-layer="layer2"
     showgrid="false"
     inkscape:window-width="1920"
     inkscape:window-height="1009"
     inkscape:window-x="-8"
     inkscape:window-y="-8"
     inkscape:window-maximized="1" />
  <metadata
     id="metadata5">
    <rdf:RDF>
      <cc:Work
         rdf:about="">
        <dc:format>image/svg+xml</dc:format>
        <dc:type
           rdf:resource="http://purl.org/dc/dcmitype/StillImage" />
        <dc:title></dc:title>
      </cc:Work>
    </rdf:RDF>
  </metadata>
  <g
     inkscape:groupmode="layer"
     id="layer2"
     inkscape:label="Layer 2"
     transform="translate(0,-222)">
    <path
       style="fill:#293ed9;stroke:none;stroke-width:0.15000001;stroke-linecap:butt;stroke-linejoin:miter;stroke-miterlimit:4;stroke-dasharray:none;stroke-opacity:1;fill-opacity:1;opacity:0.8"
       d="m 169.7919,229.68583 c -0.61202,-0.0516 -0.77159,0.10567 -2.35005,0.40502 -1.57846,0.29934 -17.67597,-0.53293 -26.72441,-0.57896 -9.04844,-0.046 -16.67581,0.24701 -23.54146,0.85009 -6.86565,0.60308 -13.01116,2.03986 -17.939844,2.17938 -4.928678,0.13951 -11.162384,-0.75883 -11.162384,-0.75883 0,0 -4.353093,-0.20584 -4.670855,0.66723 -0.317761,0.87307 2.491034,0.286 2.422797,2.01645 -0.06824,1.73044 -3.280739,1.66783 -3.280739,1.66783 0,0 -2.362735,0.14132 -5.381006,0.2673 -0.666565,0.0278 -1.33564,0.22208 -2.048181,0.22474 -2.417615,0.009 -4.897232,-0.009 -6.886129,-0.0419 -5.307197,-0.0887 -10.397418,-0.59915 -10.835048,-0.72556 -0.43763,-0.12641 -0.995802,-0.57173 -1.668441,-0.57999 -0.672638,-0.008 -3.534941,-0.14329 -4.206796,-0.17416 -0.671855,-0.0309 -2.562236,-0.007 -2.901009,-0.0727 -0.338773,-0.0661 -0.509333,-0.36937 -0.88395,-0.47821 -0.374618,-0.10885 -2.258809,-0.0782 -2.505003,-0.0317 -0.246194,0.0465 -0.498783,0.21449 -0.643107,0.24877 -0.144325,0.0343 -0.756913,0.0405 -0.86065,-0.0145 -0.103738,-0.055 -0.572094,-0.42801 -0.801679,-0.49363 -0.229586,-0.0656 -2.398658,-0.0932 -2.669215,-10e-4 -0.270557,0.0918 -0.354049,0.35369 -0.84641,0.35648 -0.492361,0.003 -0.528303,-0.29388 -0.784382,-0.37254 -0.256078,-0.0787 -2.017989,-0.10677 -2.197161,0.0204 -0.179171,0.12716 -0.143064,0.29521 -0.350236,0.28442 -0.207173,-0.0108 -2.752355,-1.40224 -5.23008,-2.97468 -2.477725,-1.57244 -4.409837,-2.96762 -5.948731,-3.81873 -1.634594,-0.90403 -3.414601,-1.64929 -4.080658,-1.93715 -0.666057,-0.28785 -1.857944,-0.72815 -2.671588,-0.88746 -0.813644,-0.1593 -4.061084,-0.7387 -5.937381,-0.1291 -1.876297,0.6096 -3.5974061,1.3075 -3.5579291,1.96883 0.03948,0.66133 1.9297811,0.75182 2.2705291,1.33807 0.340748,0.58626 0.0075,0.98223 0.170869,1.34059 0.16332,0.35835 0.749833,0.65493 0.78099,0.87354 0.03116,0.21861 -0.318117,0.33724 -0.297616,0.5104 0.0205,0.17315 0.423091,0.48064 0.506511,0.62181 0.08342,0.14118 0.0058,0.47134 0.09636,0.6326 0.09059,0.16126 0.567865,0.76461 0.73132,0.87787 0.163455,0.11325 0.335531,0.0256 0.514274,0.22391 0.178742,0.19834 0.327687,0.53478 0.488248,0.69137 0.160561,0.15659 0.340178,0.004 0.392693,0.29181 0.05251,0.28767 -0.348968,0.59458 -0.245567,0.8509 0.1034,0.25632 0.745903,0.21433 1.041239,0.37848 0.295335,0.16414 0.593231,1.15917 0.839554,1.23989 0.246324,0.0807 0.455415,-0.41241 0.673868,-0.31496 0.218453,0.0974 0.0808,0.34501 0.201304,0.51492 0.120506,0.16991 0.393191,0.23452 0.570717,0.41898 0.177526,0.18446 0.249636,0.5967 0.464106,0.68579 0.21447,0.0891 0.657867,-0.13533 0.838499,-0.0198 0.180632,0.11548 -0.0334,0.47267 0.222659,0.61992 0.256062,0.14725 0.597279,-0.35134 0.878188,-0.19029 0.280909,0.16105 0.08673,0.38402 0.379523,0.7423 0.123193,0.15074 0.404845,0.40105 0.708987,0.51793 0.418729,0.16091 0.85966,-0.0693 0.88426,0.42091 0.02031,0.40462 -0.684331,0.50683 -1.11654,0.69417 -0.432209,0.18734 -1.128059,0.0536 -1.3727,0.12962 -0.24464,0.0761 -0.339536,0.46176 -0.622028,0.5917 -0.282491,0.12993 -0.632221,-0.0474 -0.948654,0.0147 -0.316432,0.0621 -0.777189,0.18496 -0.918559,0.35855 -0.141369,0.17359 0.01892,0.76448 -0.121251,0.88444 -0.140176,0.11997 -0.620367,0.0159 -0.767347,0.11711 -0.14698,0.10117 -0.349976,0.43754 -0.581284,0.55827 -0.231308,0.12073 -0.616208,-0.028 -0.747504,0.0951 -0.185674,0.17414 -0.01914,0.64251 -0.329646,0.69619 -0.310502,0.0537 -1.314723,0.3466 -1.737212,0.55329 -0.42249,0.20669 -0.626968,0.48617 -1.022601,0.68155 -0.395634,0.19539 -1.052656,0.21086 -1.236512,0.38368 -0.183856,0.17283 -0.2654477,0.7809 -0.4056307,0.87924 -0.140182,0.0984 -0.8443687,0.0777 -1.9325461,0.48425 -1.0881781,0.40656 -4.5465873,1.20918 -4.5688135,1.65872 -0.022226,0.44954 1.4249544,0.66255 1.8708575,0.66117 0.4459035,-0.001 0.8433532,-0.2326 1.3008729,-0.23287 0.4575197,-2.7e-4 4.3374279,-0.35744 6.2094599,-0.75527 2.680978,-0.56976 7.464073,-1.87173 8.75326,-2.40431 1.289187,-0.53258 8.164171,-3.45452 9.439845,-4.01836 1.275674,-0.56383 2.848151,-1.55095 5.34419,-1.03688 2.49604,0.51407 6.086173,1.43222 10.469523,3.62941 1.255625,0.62939 1.683012,0.73135 3.805965,1.78748 2.122952,1.05614 6.017528,3.17165 10.285055,5.33371 4.89222,2.47855 8.700721,4.15877 14.183299,6.55937 5.034167,2.20426 10.225981,3.83516 12.827328,4.54549 5.438549,1.48507 12.671433,2.93278 18.510833,3.49612 5.83941,0.56334 14.434,0.97365 14.55503,1.20825 0.14333,0.27783 -0.7639,1.3759 -1.39662,2.16793 -0.63273,0.79204 -1.6943,1.27672 -2.42246,2.01792 -0.72817,0.7412 -1.30441,1.68134 -2.18089,2.49131 -0.87647,0.80998 -1.88645,1.23442 -2.91583,2.17683 -1.02938,0.94242 -1.44804,2.162 -3.13439,3.52526 -1.68636,1.36325 -3.12936,2.09359 -4.45341,3.01688 -1.32404,0.92329 -1.493,0.6705 -2.23742,1.14573 -0.40368,0.25771 -0.78982,0.73822 -1.3984,1.2801 -0.60859,0.54188 -1.459384,0.97067 -2.253311,1.67084 -0.201437,0.17765 -0.580037,0.0285 -0.760854,0.30395 -0.18083,0.27545 -0.385897,0.89649 -0.642747,1.1336 -0.767707,0.70873 -1.280944,0.78659 -1.610791,1.35551 -0.329854,0.56892 -0.583849,1.66323 0.0646,2.53132 0.372727,0.49895 1.790031,0.71299 2.311318,0.80811 0.521277,0.0951 0.116597,1.02192 0.980564,1.06831 0.639974,0.0344 1.054324,-0.355 1.054324,-0.355 0,0 0.111767,0.62412 0.479927,0.60303 0.36815,-0.0211 0.32479,-0.41327 0.74812,-0.74126 0.42332,-0.328 1.03507,-0.79214 1.42603,-0.82345 0.6634,-0.0531 0.87916,0.913 1.4048,0.93345 0.52563,0.0205 0.66506,-0.39598 0.83614,-0.5615 0.13319,-0.12885 0.40244,-0.33195 0.52546,-0.53476 0.68249,-1.12518 1.01769,-0.53675 1.50402,-0.55029 0.48634,-0.0136 0.75645,-0.78786 1.52001,-0.78637 0.76355,10e-4 0.83497,1.21018 1.53083,1.1359 0.69585,-0.0743 0.45945,-0.9656 0.91433,-1.51485 0.45487,-0.54924 1.46333,-0.94868 1.79579,-0.8525 0.33246,0.0962 0.3088,0.88048 0.6519,1.02287 0.34309,0.14239 0.65899,0.0826 0.92951,-0.47588 0.27051,-0.55848 0.26785,-1.40796 1.13579,-2.00368 0.86794,-0.59572 1.57251,-0.69714 2.0353,-0.62307 0.46278,0.0741 0.19373,0.55266 0.81839,0.54 0.62466,-0.0127 1.04796,0.0449 1.15558,-0.25869 0.10763,-0.30362 0.12045,-0.85651 0.5165,-1.24966 0.39604,-0.39316 1.00581,-0.50578 1.54331,-0.85886 0.5375,-0.35308 1.09688,-1.00286 1.70097,-1.3296 0.6041,-0.32674 1.2671,-0.071 1.91774,-0.46465 0.65064,-0.39358 0.97606,-1.38702 1.49781,-1.70814 0.52174,-0.32113 0.54615,-0.20602 0.92355,-0.44924 0.3774,-0.24322 0.5904,-0.62189 1.03081,-0.70463 0.44041,-0.0827 0.93664,0.45175 1.26831,0.43764 0.33167,-0.0141 0.77685,-0.0496 1.01108,-0.43595 0.23423,-0.38635 -0.17231,-0.71403 0.1807,-1.64036 0.35301,-0.92632 0.42899,-1.37562 0.59144,-1.61645 0.48459,-0.71843 0.83648,-0.5475 1.29187,-1.02931 0.45539,-0.48182 0.76506,-1.24039 1.31006,-1.7545 0.54499,-0.51411 1.42576,-0.64346 1.95959,-1.23699 0.53384,-0.59353 0.46969,-1.38221 1.07542,-2.08794 0.60573,-0.70573 1.23376,-0.9203 1.47241,-0.98039 0.23865,-0.0601 0.70913,0.33279 1.05219,0.12785 0.34306,-0.20493 0.65828,-0.58999 0.66298,-0.93364 0.005,-0.34366 -0.51833,-0.55467 -0.48083,-0.79583 0.0375,-0.24116 1.52888,-4.20381 1.78289,-4.17951 0.13449,0.0129 0.16291,0.77639 0.31627,1.21825 0.15336,0.44186 0.44641,1.0169 0.67254,1.55682 0.22613,0.53992 1.14498,2.0775 1.67181,4.05321 0.32756,1.22839 0.95434,3.63961 1.25279,6.05047 0.40986,3.31086 0.46554,6.62757 0.60524,6.86797 0.24141,0.41545 0.73062,0.99434 1.37387,1.02207 0.64325,0.0277 1.41882,-0.6117 1.41882,-0.6117 0,0 0.68868,0.25135 0.89203,0.0127 0.20336,-0.23862 -0.008,-0.90583 -0.008,-0.90583 l 0.24021,-0.18368 c 0,0 0.62909,0.20676 0.86859,-0.053 0.2395,-0.25976 -0.20145,-0.57266 -0.0445,-0.8249 0.18878,-0.30334 0.43945,-0.63193 0.52269,-0.77641 0.15986,-0.27744 0.57215,0.0508 0.72676,-0.31328 0.20023,-0.47146 -0.60908,-0.29794 -0.056,-1.1929 0.55315,-0.89496 0.46282,-0.81446 0.64784,-1.0137 0.18502,-0.19924 1.00358,-0.30421 1.04441,-0.80788 0.0408,-0.50366 -0.83054,-0.38989 -0.94044,-1.22278 -0.1099,-0.83289 -0.21007,-2.10647 -0.0566,-2.55463 0.15346,-0.44817 0.91792,-0.13798 0.93158,-0.82923 0.004,-0.198 -0.1577,-0.30858 -0.38122,-0.40566 -0.26168,-0.11366 -0.72896,-0.23784 -0.80763,-0.89921 -0.0874,-0.73473 -0.23461,-1.41622 -0.22771,-1.78247 0.0141,-0.74744 0.59002,-0.66537 0.86393,-0.80016 0.27391,-0.13479 0.51087,-0.59251 0.25559,-1.12024 -0.11663,-0.24111 -0.52811,-0.39801 -0.9626,-0.70967 -0.4345,-0.31166 -0.79553,-0.81232 -0.94888,-1.12083 -0.28236,-0.56803 -0.31055,-0.76799 -0.21197,-0.95582 0.0986,-0.18783 0.69222,-0.27932 0.79956,-0.52018 0.10734,-0.24086 0.13398,-0.63378 -0.0138,-0.80931 -0.14777,-0.17552 -0.55838,-0.10595 -0.8378,-0.51079 -0.19947,-0.28899 -0.28587,-0.6052 -0.25022,-1.19754 0.0357,-0.59234 0.46727,-2.36424 0.42238,-2.62351 -0.0449,-0.25927 -0.35372,-0.59116 -0.25267,-0.80146 0.10105,-0.21031 6.9437,-3.28737 10.70614,-5.20152 3.76244,-1.91416 4.72547,-2.65657 6.18321,-3.37618 4.43279,-2.18824 6.25823,-3.50026 9.59325,-4.59173 3.33501,-1.09148 9.47787,-1.87139 10.23894,-1.92847 0.76107,-0.0571 1.63659,0.21362 2.34355,0.13722 0.70695,-0.0764 1.37404,-0.28595 1.90631,-0.59659 0.53228,-0.31064 1.00655,-0.64076 1.21455,-0.94474 0.208,-0.30397 0.1615,-0.75344 0.63125,-1.30851 0.46975,-0.55508 1.27957,-0.32566 1.77702,-0.89303 0.49746,-0.56738 0.25836,-1.03467 0.57299,-1.4261 0.31463,-0.39143 0.79067,-0.16034 0.85051,-0.68906 0.0598,-0.52871 -0.18825,-1.46152 -0.39488,-1.67432 -0.20663,-0.2128 -0.53386,-0.0227 -0.57212,-0.26077 -0.0278,-0.17299 -0.0662,-0.34395 -0.14395,-0.43581 -0.2096,-0.24766 -0.62349,-0.0718 -0.69301,-0.39233 -0.11328,-0.52223 -0.2143,-1.1639 -0.80468,-1.70306 -0.59039,-0.53917 -1.68153,-1.10258 -2.33009,-1.25523 -0.64856,-0.15265 -0.9899,-0.13417 -1.30759,-0.18175 -0.3177,-0.0476 -0.83419,-0.12374 -1.00305,-0.18316 -0.16886,-0.0594 -0.33284,-0.30483 -0.59137,-0.26217 -0.25853,0.0427 -0.29911,0.38371 -0.85643,0.29722 -0.55732,-0.0865 -0.71886,-0.69275 -1.19634,-0.86885 -0.47748,-0.1761 -0.93228,-0.21139 -1.26964,-0.18199 -0.33736,0.0294 -0.45481,0.139 -0.83642,0.15072 -0.38161,0.0117 -0.65529,-0.11534 -0.86057,-0.16625 -0.20573,-0.0511 -0.48317,0.0646 -0.67812,-0.0302 -0.30377,-0.1475 -0.38822,-0.4142 -0.68551,-0.4981 -0.29729,-0.0839 -0.463,-0.1219 -0.94138,-0.20133 -0.47838,-0.0794 -0.5278,-0.3532 -0.75666,-0.42984 -0.22886,-0.0766 -0.37383,-0.0939 -0.55791,-2e-4 -0.0545,0.0277 -0.1124,0.20059 -0.15053,0.24735 -0.0907,0.11122 -0.20284,0.14116 -0.31431,0.18502 -0.15833,0.0623 -0.32127,0.0586 -0.47385,-0.0104 -0.15258,-0.069 -0.15368,-0.12257 -0.24874,-0.1698 -0.13002,-0.0646 -0.32842,0.002 -0.46443,-0.0497 -0.16785,-0.0636 -0.21606,-0.24031 -0.29078,-0.26736 -0.29251,-0.10591 -1.28004,-0.32764 -1.62985,-0.32336 -0.34982,0.004 -0.75929,0.17379 -1.21597,0.10599 -0.45667,-0.0678 -1.16872,-0.40745 -1.51444,-0.4207 -0.34572,-0.0132 -1.04712,0.14345 -2.05581,-0.16868 -1.00869,-0.31213 -1.91496,-1.07942 -2.52699,-1.13099 z"
       id="path829"
       inkscape:connector-curvature="0"
       sodipodi:nodetypes="czzzzczzcssszzzzzzzzzzzzzzzszzzzzzzzzzzzzzzzzzzzzzzzssszzzzzzzzszzzzzzzzzszzzszssszszzzzzzszszszszsczzszsszzzzzzzzzzzzzzzzzzzzzszzzzzzzzszzssszczcczssszzzzzsssszszszzzszzzzszzzzzzzzzzssszzzzzzzzzsszzzssszssszzzzzc" />
  </g>
</svg>
