<?xml version="1.0" encoding="UTF-8" standalone="no"?>
<!-- Created with Inkscape (http://www.inkscape.org/) -->

<svg
   xmlns:dc="http://purl.org/dc/elements/1.1/"
   xmlns:cc="http://creativecommons.org/ns#"
   xmlns:rdf="http://www.w3.org/1999/02/22-rdf-syntax-ns#"
   xmlns:svg="http://www.w3.org/2000/svg"
   xmlns="http://www.w3.org/2000/svg"
   xmlns:sodipodi="http://sodipodi.sourceforge.net/DTD/sodipodi-0.dtd"
   xmlns:inkscape="http://www.inkscape.org/namespaces/inkscape"
   width="200mm"
   height="55mm"
   viewBox="0 0 200 55"
   version="1.1"
   id="svg8"
   inkscape:version="0.92.4 (5da689c313, 2019-01-14)"
   sodipodi:docname="monk_seal.svg">
  <defs
     id="defs2" />
  <sodipodi:namedview
     id="base"
     pagecolor="#ffffff"
     bordercolor="#666666"
     borderopacity="1.0"
     inkscape:pageopacity="0.0"
     inkscape:pageshadow="2"
     inkscape:zoom="0.9983453"
     inkscape:cx="417.09775"
     inkscape:cy="83.284651"
     inkscape:document-units="mm"
     inkscape:current-layer="layer2"
     showgrid="false"
     inkscape:window-width="1920"
     inkscape:window-height="1009"
     inkscape:window-x="-8"
     inkscape:window-y="-8"
     inkscape:window-maximized="1" />
  <metadata
     id="metadata5">
    <rdf:RDF>
      <cc:Work
         rdf:about="">
        <dc:format>image/svg+xml</dc:format>
        <dc:type
           rdf:resource="http://purl.org/dc/dcmitype/StillImage" />
        <dc:title></dc:title>
      </cc:Work>
    </rdf:RDF>
  </metadata>
  <g
     inkscape:groupmode="layer"
     id="layer2"
     inkscape:label="Layer 2"
     transform="translate(0,-242)"
     style="display:inline">
    <path
       style="fill:#682bcb;fill-opacity:1;stroke:none;stroke-width:0.15000001;stroke-linecap:butt;stroke-linejoin:miter;stroke-miterlimit:4;stroke-dasharray:none;stroke-opacity:1;opacity:0.8"
       d="m 176.85677,252.8593 c -1.25706,-0.0338 -2.68983,-0.0891 -4.60744,0.0888 -3.85818,0.35791 -8.32706,0.9347 -11.47299,0.93375 -4.53821,-10e-4 -17.69246,-1.04129 -25.26353,-1.74645 -7.57108,-0.70517 -12.45295,-1.80853 -20.9019,-2.35787 -3.13819,-0.20404 -7.56021,-0.14864 -11.36697,0.13257 -3.806752,0.2812 -7.024464,0.76958 -9.636013,0.92445 -5.592066,0.33163 -7.19052,0.10412 -10.465764,0.09 -10.805059,-0.0465 -15.183522,0.32901 -20.995202,0.61918 -5.811679,0.29018 -8.961423,0.50341 -13.872845,0.94048 -4.911422,0.43706 -6.795939,0.80568 -7.190143,0.81983 -1.033728,0.0371 -0.608065,-0.83731 -1.91335,-1.27118 -1.305285,-0.43386 -2.842967,0.14833 -4.511654,-0.45713 -1.668687,-0.60546 -3.499253,-2.02682 -5.731406,-3.13424 -2.232154,-1.10742 -5.934077,-2.63372 -8.664743,-2.97378 -1.50121,-0.18695 -2.722004,0.0605 -4.398665,0.53959 -1.676661,0.4791 -2.185036,0.53482 -3.690552,1.13925 -0.898899,0.36089 -3.6041418,1.6613 -5.2393288,2.62039 -1.6351869,0.95908 -2.5304697,1.23594 -2.5594015,1.54622 -0.071804,0.77007 0.5716358,1.71268 0.9730361,1.89203 0.1895822,0.0847 1.6764421,0.12952 3.3750069,-0.11137 1.6985643,-0.24089 3.6261823,-0.76562 3.8146943,-0.54504 0.35724,0.41802 -0.764141,0.98167 -0.839119,1.13049 -0.07498,0.14882 0.206526,1.19528 -0.02195,1.42568 -0.106413,0.10732 -1.8066119,0.17599 -3.9011637,0.0589 -2.0945519,-0.11711 -4.6173851,-0.42241 -4.6786678,-0.26371 -0.1147333,0.29713 2.2717811,1.99013 5.3720462,2.7992 3.1002653,0.80906 6.9547313,0.49566 12.8208103,0.14112 5.866079,-0.35453 10.348337,1.46357 11.550268,1.5754 1.20193,0.11184 4.444811,0.0369 4.444811,0.0369 0,0 8.620789,8.06913 15.49151,12.47198 6.870721,4.40285 16.849637,7.39854 25.868614,10.27734 3.95497,1.2624 7.8547,2.52973 13.038402,3.81126 5.183703,1.28152 11.562349,2.47966 15.101169,3.06826 6.30263,1.04829 12.88531,1.75347 17.80012,2.0632 4.91481,0.30973 11.37794,-0.11084 11.54155,0.0252 0.16361,0.13591 -0.0203,0.48767 0.0154,0.70997 0.0159,0.0988 0.22053,0.19206 0.33738,0.34737 0.14597,0.19402 0.19897,0.45556 0.0835,0.6074 -0.11836,0.15566 -0.73108,-0.14415 -1.0215,-0.21177 -0.29042,-0.0676 -0.71061,0.0313 -0.79473,0.20351 -0.0841,0.17225 0.9504,1.371 3.02525,2.17045 2.07485,0.79944 4.36943,0.21109 5.58048,-0.24515 1.21105,-0.45624 2.12041,-1.06574 3.24141,-1.65622 1.121,-0.59047 2.31899,-1.11939 3.50558,-1.90103 1.18659,-0.78164 2.71242,-2.44075 3.2508,-2.91409 0.26937,-0.23683 2.50385,-0.8752 5.09397,-1.84318 2.59012,-0.96799 5.53478,-2.26511 7.49871,-3.22203 3.93043,-1.9151 10.46461,-6.48192 10.91491,-6.6992 0.4503,-0.21729 4.02802,-0.13975 4.97024,-0.13515 0.94222,0.005 1.94372,0.14086 3.17532,0.33835 1.23161,0.1975 3.64117,0.50284 4.46743,0.23919 0.82625,-0.26365 1.42732,-0.70092 1.83892,-1.09491 0.4116,-0.39399 0.79596,-1.04015 0.85727,-1.06604 0.0613,-0.0259 0.57767,0.11367 0.63624,0.0799 0.0595,-0.0343 0.17778,-0.34415 0.17778,-0.34415 0,0 0.3438,-0.0497 0.39997,-0.0952 0.0562,-0.0455 0.18835,-0.62847 0.18835,-0.62847 l 0.1334,-0.36062 c 0,0 0.19445,-0.0629 0.23132,-0.11493 0.0406,-0.0572 0.008,-0.41479 0.008,-0.41479 l 0.21874,-0.52989 c 0,0 0.17772,-0.4253 0.11731,-1.0646 -0.0604,-0.63931 -0.41236,-1.09255 -0.41236,-1.09255 0,0 -0.42053,-0.66968 -0.80775,-1.29287 -0.22784,-0.36667 -0.39566,-0.81146 -0.54786,-1.00843 -0.21029,-0.27214 -0.4959,-0.40388 -0.68745,-0.56166 -0.18272,-0.15052 -0.27573,-0.33162 -0.30304,-0.40267 -0.0559,-0.14553 0.15511,-0.85504 0.17908,-1.50989 0.024,-0.65486 0.006,-1.09894 0.006,-1.19067 -2.4e-4,-0.0521 0.13168,-0.29587 0.16156,-0.62085 0.0299,-0.32499 -0.0159,-0.68838 -0.088,-0.94638 -0.0721,-0.258 -0.22826,-0.63854 -0.3433,-0.8386 -0.11504,-0.20006 -0.13007,-0.27639 -0.18202,-0.33391 -0.0516,-0.0575 -0.28706,-0.0845 -0.31411,-0.0989 -0.0271,-0.0144 -0.67123,-0.84215 -0.67123,-0.84215 0,0 -2.62349,-3.06658 -4.79668,-4.67875 -2.17318,-1.61218 -4.32769,-2.93682 -8.61333,-3.04713 z"
       id="path827"
       inkscape:connector-curvature="0"
       sodipodi:nodetypes="csszszsszzszzzszszsszszszszzzczszszzssszzzzzzszszzzzzzsczccscczcsssszszzzzzczzc" />
    <path
       style="opacity:0.65;fill:none;stroke:#682bcb;stroke-width:0.06;stroke-linecap:round;stroke-linejoin:miter;stroke-miterlimit:4;stroke-dasharray:none;stroke-opacity:1"
       d="m 192.77043,274.84924 c 0,0 0.73686,0.76845 1.03392,1.42844 0.29706,0.65999 0.60436,2.04733 0.60436,2.04733"
       id="path829"
       inkscape:connector-curvature="0"
       sodipodi:nodetypes="czc" />
    <path
       style="opacity:0.65;fill:none;stroke:#682bcb;stroke-width:0.06;stroke-linecap:round;stroke-linejoin:miter;stroke-miterlimit:4;stroke-dasharray:none;stroke-opacity:1"
       d="m 193.34966,274.404 c 0,0 0.81185,0.96326 1.1764,1.53762 0.36455,0.57435 1.04118,1.80696 1.04118,1.80696"
       id="path831"
       inkscape:connector-curvature="0"
       sodipodi:nodetypes="czc" />
    <path
       style="opacity:0.65;fill:none;stroke:#682bcb;stroke-width:0.06;stroke-linecap:round;stroke-linejoin:miter;stroke-miterlimit:4;stroke-dasharray:none;stroke-opacity:1"
       d="m 193.88124,273.32172 c 0,0 0.84326,0.71731 1.43459,1.31346 0.59133,0.59614 1.22732,1.655 1.22732,1.655 v 0"
       id="path833"
       inkscape:connector-curvature="0"
       sodipodi:nodetypes="czcc" />
    <path
       style="opacity:0.65;fill:none;stroke:#682bcb;stroke-width:0.06;stroke-linecap:round;stroke-linejoin:miter;stroke-miterlimit:4;stroke-dasharray:none;stroke-opacity:1"
       d="m 193.96053,272.78963 c 0,0 0.12185,-0.0255 0.40818,0.0851 0.28634,0.11065 0.88924,0.68832 0.88924,0.68832"
       id="path835"
       inkscape:connector-curvature="0"
       sodipodi:nodetypes="czc" />
    <path
       style="opacity:0.65;fill:none;stroke:#682bcb;stroke-width:0.06;stroke-linecap:round;stroke-linejoin:miter;stroke-miterlimit:4;stroke-dasharray:none;stroke-opacity:1"
       d="m 194.20304,272.15441 c 0.29515,-0.075 0.41179,0.0175 0.64278,0.0206"
       id="path837"
       inkscape:connector-curvature="0"
       sodipodi:nodetypes="cc" />
    <path
       style="opacity:0.65;fill:none;stroke:#682bcb;stroke-width:0.06;stroke-linecap:round;stroke-linejoin:miter;stroke-miterlimit:4;stroke-dasharray:none;stroke-opacity:1"
       d="m 194.26706,271.61785 c 0,0 0.3337,-0.0754 0.48165,-0.076 0.14796,-5.5e-4 0.30927,0.0566 0.30927,0.0566"
       id="path839"
       inkscape:connector-curvature="0"
       sodipodi:nodetypes="czc" />
  </g>
</svg>
