<?xml version="1.0" encoding="UTF-8" standalone="no"?>
<!-- Created with Inkscape (http://www.inkscape.org/) -->

<svg
   xmlns:dc="http://purl.org/dc/elements/1.1/"
   xmlns:cc="http://creativecommons.org/ns#"
   xmlns:rdf="http://www.w3.org/1999/02/22-rdf-syntax-ns#"
   xmlns:svg="http://www.w3.org/2000/svg"
   xmlns="http://www.w3.org/2000/svg"
   xmlns:sodipodi="http://sodipodi.sourceforge.net/DTD/sodipodi-0.dtd"
   xmlns:inkscape="http://www.inkscape.org/namespaces/inkscape"
   width="185mm"
   height="120mm"
   viewBox="0 0 185 120"
   version="1.1"
   id="svg8"
   inkscape:version="0.92.4 (5da689c313, 2019-01-14)"
   sodipodi:docname="american_bison.svg">
  <defs
     id="defs2" />
  <sodipodi:namedview
     id="base"
     pagecolor="#ffffff"
     bordercolor="#666666"
     borderopacity="1.0"
     inkscape:pageopacity="0.0"
     inkscape:pageshadow="2"
     inkscape:zoom="1.17"
     inkscape:cx="-12.49222"
     inkscape:cy="255.01515"
     inkscape:document-units="mm"
     inkscape:current-layer="layer2"
     showgrid="false"
     inkscape:window-width="1920"
     inkscape:window-height="1009"
     inkscape:window-x="-8"
     inkscape:window-y="-8"
     inkscape:window-maximized="1" />
  <metadata
     id="metadata5">
    <rdf:RDF>
      <cc:Work
         rdf:about="">
        <dc:format>image/svg+xml</dc:format>
        <dc:type
           rdf:resource="http://purl.org/dc/dcmitype/StillImage" />
        <dc:title></dc:title>
      </cc:Work>
    </rdf:RDF>
  </metadata>
  <g
     inkscape:groupmode="layer"
     id="layer2"
     inkscape:label="Layer 2"
     style="display:inline;opacity:1"
     transform="translate(0,-20)">
    <path
       style="fill:#23c83b;stroke:#00fe10;stroke-width:0.15000001;stroke-linecap:butt;stroke-linejoin:miter;stroke-miterlimit:4;stroke-dasharray:none;stroke-opacity:1;fill-opacity:1;opacity:0.8"
       d="m 73.69868,38.779984 c -0.122033,0.143677 -14.343859,3.021453 -18.913708,3.527692 -4.569848,0.506238 -6.14051,0.356454 -8.146072,0.194992 -2.005562,-0.161463 -2.621445,-0.798606 -4.572202,-0.622752 -1.950758,0.175854 -4.155407,2.023807 -6.274118,2.529915 -2.118712,0.506107 -5.110844,-0.06674 -7.451765,0.377016 -2.340922,0.443758 -6.037848,1.839155 -8.222756,3.377445 -2.184908,1.538289 -4.070187,3.742218 -5.335504,6.020538 -1.265317,2.27832 -1.828104,4.563523 -2.194523,6.59526 -0.366419,2.031738 0.208548,3.945871 -0.843685,5.855334 -0.413343,0.750085 -0.864264,1.824455 -1.8119627,2.655265 -1.4648224,1.284153 -3.4844802,2.212138 -3.4844802,2.212138 l 2.5532885,-0.464102 c 0,0 -0.5682897,0.922846 -1.5489171,1.45085 -0.9806274,0.528005 -2.2095348,1.339054 -2.2095348,1.339054 0,0 1.3513344,-0.206358 1.8635831,-0.103087 0.5122487,0.103271 1.1408414,0.555503 1.1408414,0.555503 l -2.0462808,0.300329 1.5288681,0.517414 c 0,0 -1.5462591,1.400273 -1.9487861,2.141216 -0.4025267,0.740943 -0.5499124,2.093032 -0.5499124,2.093032 l 1.5080561,-0.678624 c 0,0 -1.4608474,1.456169 -1.9058811,2.409044 -0.4450347,0.952876 -0.6578144,3.170764 -0.6578144,3.170764 l 1.1089491,-1.293534 c 0,0 -0.7856714,2.028644 -1.0972614,3.087669 -0.3115887,1.059025 -0.6357204,3.095363 -0.6357204,3.095363 l 1.8304778,-2.476606 -0.8281484,2.315395 1.4313701,-1.485964 -0.9048334,1.885072 1.4326531,-1.432655 0.184589,0.656532 c 0,0 0.9079864,-0.86275 1.3046351,-1.235949 C 8.3987732,86.976345 9.0765986,86.3455 9.0765986,86.3455 l 0.5395077,0.473229 c 0,0 1.0726197,-2.086651 1.7316997,-3.185168 0.65908,-1.098517 0.669503,-3.320288 0.669503,-3.320288 0,0 0.354427,0.781475 0.493162,1.297468 0.138735,0.515993 0.293365,1.79405 0.293365,1.79405 0,0 0.435281,-1.414778 0.575192,-2.258737 0.139912,-0.843958 0.221741,-2.793254 0.221741,-2.793254 l 0.904833,1.58346 c 0,0 -0.08263,-2.195893 0.04282,-3.016873 0.125451,-0.820981 0.560402,-1.884314 0.560402,-1.884314 l 0.452417,0.226208 c 0,0 1.286782,-1.816921 1.194758,-3.779264 -0.09202,-1.962343 -0.774031,-2.038254 -0.913956,-3.004426 -0.139926,-0.966172 0.126404,-1.319431 0.118305,-2.327082 -0.0081,-1.007651 -0.329751,-3.515503 -0.05331,-5.137651 0.276443,-1.622147 0.644696,-1.935602 1.939663,-4.841464 1.294966,-2.905862 3.693457,-3.8092 3.693457,-3.8092 0,0 -2.692255,2.970666 -3.46069,5.443254 -0.768435,2.472588 -0.66801,4.162973 -0.351074,8.452811 0.316937,4.289838 2.931561,12.101058 4.080876,16.909917 1.149315,4.808859 1.11015,7.596986 0.309454,9.879055 -0.800696,2.282069 -1.977262,1.563302 -3.410093,3.850823 -1.43283,2.287522 -0.585875,3.730046 -0.12743,5.592646 0.458445,1.8626 1.626309,4.49627 2.191957,7.24157 0.565648,2.74531 1.136729,6.50373 1.12192,9.18733 -0.01481,2.6836 -0.680184,4.81639 -0.904833,6.78626 -0.224649,1.96987 0.367846,2.79052 1.023141,2.96152 0.655296,0.17099 2.036792,-1.81609 2.381673,-1.48597 0.367655,0.35192 -0.478373,1.88364 -0.49661,3.19239 -0.01824,1.30876 0.582985,4.58558 0.582985,4.58558 l 11.305896,0.0799 -3.304018,-5.82271 c 0,0 0.180189,-0.63553 0.02346,-1.39881 -0.156727,-0.76327 -1.159834,-1.2318 -1.51074,-2.12435 -0.350906,-0.89255 -0.268431,-2.95042 -0.268431,-2.95042 0,0 -1.866701,-3.53695 -2.230918,-5.60528 -0.372168,-2.11348 0.10925,-6.43707 0.10925,-6.43707 0,0 2.271208,4.64453 3.16692,7.31409 0.895712,2.66956 1.875353,8.56408 1.875353,8.56408 l -0.4427,2.44473 c 0,0 0.160843,1.21644 0.625341,1.5399 0.464498,0.32345 1.16236,0.27697 1.755042,0.0124 0.592682,-0.26458 1.175281,-1.45544 1.175281,-1.45544 0,0 -0.02352,2.13479 0.172252,2.9836 0.195767,0.84881 0.862594,2.06507 0.862594,2.06507 l 10.942476,-0.0709 c 0,0 -2.262085,-3.9436 -2.6391,-4.09441 -0.377013,-0.15081 -1.70377,-1.06603 -1.70377,-1.06603 0,0 -0.194065,-1.10154 -0.514076,-1.57173 -0.320012,-0.47019 -1.261742,-0.82105 -1.261742,-0.82105 0,0 -0.185431,-1.57242 -0.375671,-2.05264 -0.19024,-0.48021 -2.968662,-3.17561 -3.835825,-7.23163 -0.867163,-4.05602 -0.770448,-11.71501 -0.474537,-12.39594 0.295912,-0.68093 1.775794,-2.36937 2.962829,-4.56977 1.187035,-2.200399 2.213129,-5.784764 3.395139,-7.567099 1.182009,-1.782336 1.686101,-1.925583 2.860965,-2.470752 1.174864,-0.545169 1.552142,-1.260973 1.552142,-1.260973 0,0 4.164567,3.024716 7.283928,5.040385 1.80165,1.16419 4.348174,2.35666 6.303771,3.141339 1.430307,0.573907 2.544508,0.839035 2.819975,1.167061 0.652102,0.77652 0.982251,1.862219 1.230717,2.742749 0.248467,0.88052 0.500143,2.16597 0.500143,2.16597 0,0 0.180122,-0.82326 0.39977,-0.64798 0.238347,0.1902 -0.01543,3.64542 -0.01543,3.64542 l 0.512666,-0.25615 c 0,0 0.003,0.92892 -0.08748,1.54022 -0.09047,0.61131 -0.380458,1.86697 -0.380458,1.86697 0,0 0.275427,-0.11855 0.656905,-0.65574 0.331581,-0.46693 0.610267,-1.13768 0.776854,-1.10737 0.148933,0.0271 0.114019,0.61659 0.217173,1.04826 0.144975,0.60666 0.324326,0.79025 0.324326,0.79025 0,0 0.228263,-0.89311 0.356837,-1.43438 0.128574,-0.54128 0.472963,-1.48971 0.472963,-1.48971 0,0 0.326429,0.57469 0.468042,0.95924 0.141614,0.38455 0.270832,1.37789 0.270832,1.37789 0,0 0.417287,-0.84793 0.516692,-1.37355 0.09941,-0.52563 0.04107,-1.95972 0.04107,-1.95972 l 0.618747,0.52856 c 0,0 0.222023,-0.83968 0.268117,-1.27923 0.04609,-0.43955 0.0032,-1.34473 0.0032,-1.34473 l 0.738135,0.79987 c 0,0 0.437201,-1.30287 0.40806,-1.97933 -0.02914,-0.67646 -0.46757,-2.13828 -0.46757,-2.13828 0,0 7.099904,-0.0344 10.058138,-0.317132 2.958232,-0.28279 5.489887,-1.090111 7.464478,-1.11515 1.974598,-0.02504 4.405123,0.633529 4.405123,0.633529 l 0.10497,1.808573 c 0,0 1.172764,-1.950812 1.433021,-1.793787 0.26026,0.157026 -1.198631,2.702027 -1.508041,4.130907 -0.309417,1.42889 -0.392547,4.34419 -0.392547,4.34419 l 1.055634,-2.63911 c 0,0 -0.13319,1.63374 -0.468307,2.60843 -0.33511,0.9747 -1.567191,3.01651 -1.567191,3.01651 0,0 0.822024,-0.57556 1.230151,-0.95166 0.40813,-0.3761 1.196774,-1.31044 1.196774,-1.31044 l -0.511547,3.0457 0.511547,-0.2251 c 0,0 -0.824424,1.34511 -1.309551,2.36448 -0.485137,1.01938 -0.665327,2.91336 -0.665327,2.91336 l 0.980234,-0.90484 c 0,0 -0.399377,0.97862 -0.518597,1.41096 -0.11922,0.43234 -0.21953,1.16715 -0.21953,1.16715 l 0.813527,-0.76844 c -0.16256,0.4429 -0.14133,0.81229 -0.10534,1.17577 0,0 0.354417,-0.58889 0.516617,-0.78166 0.1622,-0.19276 0.418157,-0.39411 0.418157,-0.39411 l 0.1508,1.05564 c 0,0 0.16883,-0.61532 0.320057,-0.90769 0.15123,-0.29237 0.584777,-0.82658 0.584777,-0.82658 l 0.28608,2.23068 c 0,0 0.920394,-1.36513 1.131784,-1.2959 0.288717,0.0945 -0.0554,1.96715 0.120487,2.59105 0.1759,0.6239 0.42211,1.14915 0.42211,1.14915 l 0.603214,-0.67862 c 0,0 0.16819,1.30035 0.37702,1.44595 0.10676,0.0744 0.690997,-0.26876 1.221797,-0.69612 0.50751,-0.4086 0.96488,-0.90064 0.96488,-0.90064 0,0 0.15482,1.20131 0.38798,1.24311 0.23315,0.0418 0.1376,-0.47613 0.30428,-0.63041 0.16669,-0.15428 0.43878,-0.23569 0.43878,-0.23569 0,0 0.41259,1.3093 0.50313,1.92343 0.0905,0.61412 0.17991,1.43858 0.064,1.73522 -0.1159,0.29665 -1.00697,1.16815 -1.27013,1.77131 -0.26316,0.60317 -0.42577,1.73331 -0.42577,1.73331 0,0 1.17325,0.40434 1.75505,0.39554 0.58182,-0.009 1.4408,-0.312 1.4408,-0.312 0,0 -0.32306,2.64483 -0.182,3.30959 0.14105,0.66476 1.28185,3.69474 1.28185,3.69474 l 11.43128,-0.0303 c 0,0 -2.89081,-5.01496 -2.97102,-5.33734 -0.0802,-0.32238 0.16958,-1.15835 0.0602,-1.56941 -0.10933,-0.41106 -1.94494,-2.99948 -1.94494,-2.99948 0,0 -0.68101,-2.80805 -0.7093,-4.2706 -0.0283,-1.46256 1.297,-3.43712 1.297,-3.43712 0,0 -0.16977,2.95406 0.15191,3.02941 0.30377,0.0712 0.82832,-1.06894 0.82832,-1.06894 0,0 0.27858,1.30249 0.63353,1.37167 0.35495,0.0692 1.77936,-1.82409 1.77936,-1.82409 0,0 0.14843,0.55329 0.42211,0.45205 0.27369,-0.10124 0.10608,-0.79802 0.10608,-0.79802 0,0 0.82306,0.65071 0.89005,1.20719 0.067,0.55647 0.35509,2.80179 0.37553,4.06953 0.0204,1.26775 -0.56378,2.20975 -0.28608,3.19613 0.1045,0.37119 0.44552,0.7092 0.72217,1.04191 0.4585,0.55141 0.92546,1.00884 1.2091,0.99434 0.45477,-0.0233 1.53764,-2.24583 1.53764,-1.5672 0,0.67862 -0.51167,3.2059 -0.40658,3.66333 0.10507,0.45742 0.66345,2.34043 0.66345,2.34043 l 10.79777,-0.12234 c 0,0 -0.77207,-2.14345 -1.36453,-3.15157 -0.59247,-1.00812 -2.30064,-2.80526 -2.30064,-2.80526 0,0 0.20558,-0.91951 0,-1.35725 -0.20558,-0.43774 -1.38682,-2.00593 -1.38682,-2.00593 l -0.40658,-1.68844 c 0,0 -2.18247,-1.49608 -2.50309,-4.19151 -0.3206,-2.69542 1.31334,-5.31417 1.70248,-7.19359 0.38914,-1.87942 0.25652,-3.69587 0.25652,-3.69587 0,0 0.31912,1.06866 0.60322,1.05565 0.175,-0.008 0.32515,-0.97424 0.61352,-1.80924 0.33009,-0.95579 0.78957,-1.79607 0.78957,-1.79607 l 0.859,1.1754 0.90372,-2.04809 0.60433,1.46187 0.82943,-1.28186 0.10497,1.31069 c 0,0 0.61563,-1.56311 0.96252,-2.24104 0.34688,-0.67793 1.11921,-1.55796 1.11921,-1.55796 l 0.4672,1.82299 c 0,0 0.5793,-1.01156 0.92776,-1.55518 0.34845,-0.54362 1.16873,-1.70047 1.16873,-1.70047 0,0 -0.63077,1.62541 -0.82099,2.48422 -0.19022,0.8588 -0.11304,2.24919 -0.11304,2.24919 0,0 0.92464,-2.11397 1.44522,-2.84648 0.52057,-0.7325 1.52469,-1.58531 1.52469,-1.58531 l 0.0288,0.93441 c 0,0 0.73843,-0.6976 1.60353,-1.18395 0.4992,-0.28065 1.17197,-0.32922 1.43106,-0.549219 0.70808,-0.601249 1.30994,-1.614137 1.30994,-1.614137 l 0.84348,1.687326 0.60432,-1.445227 c 0,0 0.87538,1.462457 1.18746,2.231017 0.31208,0.76856 0.63701,2.20113 0.63701,2.20113 l 0.87452,-1.58236 c 0,0 0.66829,1.17747 0.94669,1.98242 0.27842,0.80495 0.63714,2.84303 0.63714,2.84303 l 0.67863,-1.80968 c 0,0 0.0913,1.21723 0.18142,1.77061 0.0901,0.55337 0.34675,1.54565 0.34675,1.54565 l 0.67826,-1.43118 1.73428,4.29799 c 0,0 0.037,-0.61365 0.11778,-0.86746 0.0808,-0.25381 0.33463,-0.64061 0.33463,-0.64061 0,0 0.49254,1.15025 0.64984,1.67315 0.15729,0.5229 0.31451,1.44759 0.31451,1.44759 l 0.63316,-0.46573 0.18296,2.24472 c 0,0 0.41258,-0.27897 0.63349,-0.56385 0.22091,-0.28488 0.60216,-1.16894 0.60216,-1.16894 l 0.37701,1.58346 c 0,0 0.5772,-0.68766 0.85115,-1.17803 0.27394,-0.49036 0.73231,-1.76269 0.73231,-1.76269 l 0.51193,1.29627 c 0,0 0.0592,-1.28904 0.14931,-1.75682 0.0901,-0.46777 0.319,-1.04752 0.319,-1.04752 l 0.76844,1.53653 c 0,0 0.55546,-2.49741 1.17983,-3.57353 0.62438,-1.07611 2.5005,-2.7134 2.5005,-2.7134 0,0 0.51598,-1.58314 1.49216,-2.29056 0.97618,-0.70743 3.08022,-0.59165 4.14716,-1.11774 1.06694,-0.5261 1.5779,-1.13476 2.24767,-1.310321 0.66978,-0.175562 1.0254,0.06817 1.75089,-0.168914 0.7255,-0.237088 2.34711,-2.649456 2.34711,-2.649456 0,0 2.57805,-2.325555 2.62801,-3.429342 0.05,-1.103787 -0.67916,-1.38455 -0.96472,-2.033293 -0.28556,-0.648742 -0.29367,-1.135043 -0.63316,-1.67291 -0.3395,-0.537867 -0.90492,-0.95456 -1.00907,-1.281848 -0.10414,-0.327289 -0.16854,-0.768446 -0.16854,-0.768446 0,0 0.52905,0.0019 0.76956,-0.229159 0.2405,-0.231059 0.40731,-2.034769 0.40731,-2.034769 l 0.70894,0.362227 -0.10497,-1.74905 0.60322,-0.346336 c 0,0 -0.15456,-0.511078 -3.7e-4,-0.661626 0.15418,-0.150547 0.75513,0.0122 0.75513,0.0122 l -0.18296,-1.537997 0.66347,-0.300873 c 0,0 -0.48764,-0.80598 -0.68804,-1.602414 -0.20041,-0.796435 -1.08947,-2.379153 -1.08947,-2.379153 l 2.18446,0.390325 c 0,0 0.0454,-0.793423 -0.0117,-1.168713 -0.0571,-0.375289 -0.31912,-1.061957 -0.31912,-1.061957 l 0.91962,0.407693 c 0,0 -0.23115,-2.078972 -0.46532,-3.016862 -0.23417,-0.93789 -0.75517,-2.593627 -0.75517,-2.593627 l 0.48199,-0.134174 -0.33192,-3.258954 2.56296,1.055269 -1.1,-1.777883 1.14436,0.435788 c 0,0 -0.92333,-1.250218 -1.25007,-1.975261 -0.32674,-0.725043 -0.60135,-2.116181 -1.14841,-2.686038 -0.54707,-0.569857 -1.79304,-1.009806 -1.79304,-1.009806 0,0 1.01747,-4.120508 0.75476,-6.935955 -0.26271,-2.815447 -1.73906,-4.635788 -1.73906,-4.635788 0,0 -2.15826,-1.922813 -2.74075,-1.758301 -0.39373,0.111201 -0.34287,0.750091 -0.21657,1.245917 0.30508,1.197714 0.3844,1.45463 0.44573,2.663893 0.0909,1.791997 -0.34892,3.175843 -0.34892,3.175843 0,0 -2.00717,-1.239668 -2.98949,-1.491055 -0.98232,-0.251388 -1.50257,-0.04566 -2.55927,-0.256888 -1.05669,-0.211228 -2.29435,-1.069736 -3.72579,-1.130304 -1.43144,-0.06057 -4.25695,0.832096 -4.47833,0.616531 -0.21396,-0.208328 -0.13714,-1.069316 -0.13714,-1.069316 0,0 -1.83659,0.637282 -2.7559,0.558129 -0.9193,-0.07915 -1.48701,-0.353259 -1.49512,-0.858633 -0.003,-0.188252 0.69674,-1.1985 1.454,-1.999914 1.27564,-1.350032 2.92945,-2.641916 2.60113,-3.189574 -0.52322,-0.872764 -6.25151,1.876673 -6.69571,1.763835 -0.44419,-0.112837 -1.00748,-0.527549 -1.73315,-1.431547 -0.72566,-0.903997 -1.27504,-2.980285 -1.94495,-4.191882 -0.28953,-0.523642 -0.91012,-0.933309 -1.2806,-1.53948 -0.48672,-0.796381 -0.43128,-1.258111 -0.86247,-1.658117 -0.43119,-0.400005 -1.85237,0.505787 -3.16765,-0.619484 -1.31528,-1.12527 -0.73041,-2.131791 -1.0841,-2.516388 -0.35369,-0.384597 -1.02571,-0.287561 -1.02571,-0.287561 0,0 -0.27156,-1.758688 -1.17576,-2.471663 -0.90421,-0.712975 -2.42878,-1.087425 -2.42878,-1.087425 l -1.23639,-1.80893 -0.1948,0.632793 c 0,0 -0.90676,-1.035396 -2.52972,-1.84064 -2.20133,-1.092204 -5.3258,-2.040953 -5.61379,-2.018952 -0.5003,0.03822 -0.33302,0.964713 -0.33302,0.964713 0,0 -1.01343,-0.806156 -2.29461,-1.130673 -1.28118,-0.324517 -2.64503,0.138923 -4.16972,0.209578 -1.52469,0.07065 -2.94403,-0.691935 -2.94403,-0.691935 l -0.27462,1.250433 c 0,0 -1.49337,-0.686999 -2.57121,-1.008245 -1.07783,-0.321245 -2.52477,-1.419063 -2.52477,-1.419063 l -0.19626,1.537259 c 0,0 -1.00873,-0.500544 -2.03736,-0.602116 -1.02863,-0.101573 -2.35659,0.687705 -3.2682,0.737398 -0.91161,0.04969 -1.1956,-0.05987 -2.21994,0.229899 -1.02435,0.289764 -1.91978,0.813189 -2.95476,0.826479 -1.03498,0.01329 -3.046797,-0.768445 -3.046797,-0.768445 l 0.904837,1.61303 c 0,0 -2.064248,-0.05388 -3.030145,0.121607 -0.965884,0.175487 -1.127074,0.547911 -2.140098,0.827954 -1.013024,0.280043 -1.950898,0.103789 -3.135122,0.452417 -1.184231,0.348628 -1.590601,1.401959 -1.966358,1.539843 -0.375757,0.137884 -2.598075,-0.561394 -4.055476,-0.301612 -1.457414,0.259782 -3.040795,1.77509 -4.160806,1.853286 -1.12003,0.0782 -2.23326,-0.283873 -2.23326,-0.283873 l 0.739612,1.114412 c 0,0 -1.668064,0.300957 -2.517496,0.722981 -0.849432,0.422025 -2.459094,1.840715 -2.459094,1.840715 l 0.451311,0.346337 c -1.149893,0.514039 -2.175014,0.862304 -3.089303,1.101471 0,0 1.049046,0.494975 0.83023,0.7526 z"
       id="path827"
       inkscape:connector-curvature="0"
       sodipodi:nodetypes="szzzzzzzzsscczczccczcczcczccccccczcczczczcczcczzzzzczzzzzzzzzzszccczzcsczcczzczcccczczzzzzzcssszcscczcsssczczczcczcczczzcczzcczczccczcczccczcczccszccssczzczzzczczcczzczcsczczczzsssszcczczcczzcsscccccczcczczczccssccczcczcczccczczccczcczcczcczczzzzczzzzczcccczccczcczcczcccccczzczcsssczzzsczssszzsszzzczcccssczzcczcczzzzcczzzzzzcczcccs" />
  </g>
</svg>
