<?xml version="1.0" encoding="UTF-8" standalone="no"?>
<!-- Created with Inkscape (http://www.inkscape.org/) -->

<svg
   xmlns:dc="http://purl.org/dc/elements/1.1/"
   xmlns:cc="http://creativecommons.org/ns#"
   xmlns:rdf="http://www.w3.org/1999/02/22-rdf-syntax-ns#"
   xmlns:svg="http://www.w3.org/2000/svg"
   xmlns="http://www.w3.org/2000/svg"
   xmlns:sodipodi="http://sodipodi.sourceforge.net/DTD/sodipodi-0.dtd"
   xmlns:inkscape="http://www.inkscape.org/namespaces/inkscape"
   width="120mm"
   height="170mm"
   viewBox="0 0 120 170"
   version="1.1"
   id="svg8"
   inkscape:version="0.92.4 (5da689c313, 2019-01-14)"
   sodipodi:docname="bald_eagle.svg">
  <defs
     id="defs2" />
  <sodipodi:namedview
     id="base"
     pagecolor="#ffffff"
     bordercolor="#666666"
     borderopacity="1.0"
     inkscape:pageopacity="0.0"
     inkscape:pageshadow="2"
     inkscape:zoom="0.75575672"
     inkscape:cx="-85.361076"
     inkscape:cy="316.05424"
     inkscape:document-units="mm"
     inkscape:current-layer="layer2"
     showgrid="false"
     inkscape:window-width="1920"
     inkscape:window-height="1009"
     inkscape:window-x="-8"
     inkscape:window-y="-8"
     inkscape:window-maximized="1" />
  <metadata
     id="metadata5">
    <rdf:RDF>
      <cc:Work
         rdf:about="">
        <dc:format>image/svg+xml</dc:format>
        <dc:type
           rdf:resource="http://purl.org/dc/dcmitype/StillImage" />
        <dc:title></dc:title>
      </cc:Work>
    </rdf:RDF>
  </metadata>
  <g
     inkscape:groupmode="layer"
     id="layer2"
     inkscape:label="Layer 2"
     transform="translate(0,-28)">
    <path
       style="opacity:0.8;fill:#db591e;fill-opacity:1;stroke:none;stroke-width:0.15000001;stroke-linecap:butt;stroke-linejoin:miter;stroke-miterlimit:4;stroke-dasharray:none;stroke-opacity:1"
       d="m 25.013518,109.95425 c 0,0 -1.298639,1.80353 -2.279184,3.76563 -0.980545,1.96209 -2.700928,5.90603 -3.270131,8.12578 -0.569203,2.21975 -1.314387,4.01711 -0.594569,4.95474 0.719818,0.93763 1.475601,0.51263 2.080993,0.29729 0.605392,-0.21534 1.189138,-1.28824 1.189138,-1.28824 0.03809,1.05271 0.368659,2.56469 0.495474,3.07195 0.126816,0.50727 1.090044,0.0991 1.090044,0.0991 0,0 -3.569409,7.38956 -4.558363,10.00858 -0.890884,2.64314 -1.597582,5.31724 -2.576468,7.92759 0,0 -0.572317,1.72004 -0.891855,3.17104 -0.319538,1.451 -0.240625,3.76464 -0.891852,5.54932 -0.651227,1.78468 -2.358088,2.85296 -2.972847,4.95474 -0.614759,2.10178 -0.714568,7.18777 -0.792758,8.62125 -0.07819,1.43348 -1.1045057,4.25688 -1.1891377,5.9457 -0.08463,1.68882 0.3963767,4.06288 0.3963767,4.06288 0,0 1.278668,-1.8487 1.78371,-2.08099 0.505042,-0.23229 0.594569,0 0.594569,0 0,0 -3.4132644,8.22507 -3.5674164,10.30587 -0.1541517,2.0808 0.297286,1.58552 0.297286,1.58552 0,0 0.9917004,-1.84782 1.8828014,-3.07194 0.891101,-1.22412 2.838921,-3.04366 3.567416,-4.16199 0.728495,-1.11833 0.630926,-1.70096 1.090044,-2.27918 0.459118,-0.57822 1.486421,-1.18914 1.486421,-1.18914 0,0 -1.847151,7.56489 -2.378276,9.7113 -0.531125,2.14641 -0.792758,3.17103 -0.792758,3.17103 l 1.189138,-2.08099 0.219228,1.10672 c 0,0 0.449181,-0.3662 0.672624,-0.31396 0.223443,0.0522 0.308247,0.52308 0.427075,0.98659 0.118828,0.4635 0.167497,1.78807 0.167497,1.78807 0,0 0.86203,-3.30576 1.288233,-4.55836 0.426203,-1.2526 1.189138,-2.97285 1.189138,-2.97285 l -0.198189,2.97285 c 0,0 2.426524,-5.55723 3.171036,-7.13484 0.744512,-1.57761 0.728463,-1.50177 1.189138,-2.37827 0.460675,-0.8765 1.585519,-2.87375 1.585519,-2.87375 0,0 -1.325441,3.55355 -2.080993,5.94569 -0.755552,2.39214 -2.378276,8.42306 -2.378276,8.42306 0,0 1.423974,-2.00774 1.882801,-2.57646 0.458827,-0.56872 0.353387,-0.13189 0.792758,-0.89186 0.439371,-0.75997 0.762661,-2.95178 1.288235,-3.8647 0.525574,-0.91292 1.486424,-1.68461 1.486424,-1.68461 0,0 0.08878,-2.16693 0.396377,-3.56742 0.307598,-1.40049 1.014157,-3.56012 1.585519,-4.75655 0.571362,-1.19643 1.203471,-1.5056 1.585518,-2.47737 0.382047,-0.97177 0.233782,-2.4231 0.594569,-3.27013 0.360787,-0.84703 1.288235,-1.78371 1.288235,-1.78371 0,0 0.932639,3.04042 0.891852,4.16198 -0.04079,1.12156 -0.693663,2.37828 -0.693663,2.37828 0,0 0.873406,0.22245 1.229665,-0.005 0.356259,-0.22769 0.349108,-0.37353 0.554042,-1.18391 0.204934,-0.81038 -0.188711,-2.2148 0.198191,-3.36923 0.386902,-1.15443 1.401162,-3.00213 2.040465,-3.08397 0.302686,-0.0387 0.461635,0.82593 0.716641,1.1101 0.283592,0.31602 0.647416,0.0573 0.647416,0.0573 0,0 -0.201654,-2.22448 0.757461,-3.83097 0.959115,-1.60649 2.793211,-2.82716 5.508788,-4.35495 2.715577,-1.52778 6.776815,-2.40791 9.242232,-3.32346 2.465417,-0.91555 3.780558,-1.85814 5.563432,-2.13198 1.782874,-0.27384 2.462631,0.37002 3.505971,0.46017 1.043341,0.0902 1.735412,-0.25911 2.710077,0.13675 0.407716,0.1656 0.458552,1.02728 0.948249,1.4864 0.680944,0.63843 1.754243,0.88953 1.754243,0.88953 l -1.655329,0.73498 -0.04938,0.51687 -1.376672,0.10371 -0.06544,0.32718 c 0,0 -1.814164,0.21832 -2.617422,0.71979 -0.803258,0.50147 -1.575878,1.36281 -1.963065,2.22481 -0.387187,0.862 -0.428259,2.02321 -0.257368,2.98537 0.17089,0.96217 1.369771,2.51122 1.369771,2.51122 l 0.320016,-1.13098 c 0,0 -0.510853,-0.79537 -0.526466,-1.42101 -0.01561,-0.62564 0.152703,-1.38106 0.533629,-1.96307 0.380926,-0.58201 0.967922,-1.16832 1.505018,-1.43958 0.537096,-0.27126 1.505016,-0.26174 1.505016,-0.26174 0,0 -0.456144,0.73571 -0.458046,1.1124 -0.0019,0.37669 0.392612,0.98153 0.392612,0.98153 l 1.116781,-0.22972 -0.0044,-1.34073 c 0,0 1.226368,-0.36586 2.28587,-0.90595 0.356046,-0.1815 0.591486,-0.65185 1.148881,-1.07281 1.101273,-0.83172 2.697297,-1.34533 2.697297,-1.34533 0,0 -1.418028,1.92107 -2.182645,2.48358 -0.764616,0.5625 -2.182643,0.97138 -2.182643,0.97138 v 0.39262 l -0.981532,0.13087 v 0.52348 l -2.093939,0.39261 c 0,0 -1.47415,0.79174 -1.963066,1.37415 -0.73877,1.08776 -1.282181,2.69421 -1.112406,3.99157 0.09771,0.61112 0.67325,1.53406 0.67325,1.53406 l 1.019325,0.0465 -0.318427,-1.51516 c 0,0 0.509925,-1.98431 1.112404,-2.61743 0.602479,-0.63312 2.226202,-1.0336 2.226202,-1.0336 0,0 -0.143951,1.07314 0.01977,1.40867 0.163717,0.33553 0.647956,0.5207 0.647956,0.5207 l 0.966775,-0.0451 c 0,0 -0.04718,-0.35407 0.158862,-0.59212 0.262266,-0.30302 0.818744,-0.52582 1.142882,-0.76309 0.248335,-0.18178 0.149072,-0.72194 0.549993,-0.94371 0.533486,-0.29511 0.885651,0.0401 1.163304,-0.13278 0.277653,-0.17285 0.327266,-0.19119 0.427647,-0.66603 0.09526,-0.45063 -0.344438,-0.65879 0.287147,-1.55899 0.631585,-0.9002 1.63255,-1.3319 2.331727,-1.40067 0.699177,-0.0688 0.636913,0.43275 1.485252,0.78244 0.294575,0.12143 0.476747,-0.24986 1.217233,-0.12325 0.280658,0.048 0.07047,0.51892 0.606749,0.67797 0.536275,0.15905 1.418928,0.097 2.035584,0.31071 0.772385,0.26761 1.54439,0.3506 2.007908,0.48338 0.463514,0.13278 0.633394,0.18311 0.980721,0.6962 0.347337,0.51308 0.654897,2.48816 0.654897,2.48816 0,0 0.423967,-0.53237 0.458577,-1.15666 0.0346,-0.62428 -0.24936,-1.7631 -0.523747,-2.42031 -0.27439,-0.65721 -0.492937,-1.07533 -0.981534,-1.50502 -0.488604,-0.42969 -1.897626,-0.9161 -1.897626,-0.9161 0,0 0.04697,-0.79226 1.002724,-0.87185 0.955762,-0.0796 2.148103,1.42727 3.426497,2.15938 1.278381,0.73211 2.775815,1.52057 4.143866,2.44123 1.368041,0.92067 3.443312,2.44112 3.443312,2.44112 l 0.980244,0.11408 0.294027,0.83603 c 0,0 0.967474,0.39238 1.301384,0.60141 0.333907,0.20903 1.020204,1.34095 1.020204,1.34095 l 0.818394,-0.21268 c 0,0 0.0129,-1.31477 -0.268157,-1.97893 -0.28106,-0.66416 -0.885677,-1.31566 -1.439574,-1.8322 -0.553897,-0.51654 -1.135351,-0.80432 -1.832178,-1.24327 -0.696827,-0.43895 -1.769961,-1.00853 -2.355668,-1.37415 -0.585707,-0.36562 -0.978144,-0.67291 -0.978144,-0.67291 0,0 0.081,-0.61883 -0.0688,-1.22472 -0.149847,-0.60589 -0.549957,-1.64448 -1.046964,-2.29025 -0.676404,-0.78162 -1.869808,-1.45105 -2.296295,-1.73538 -0.4265,-0.28434 -0.44072,-0.43927 -0.832117,-0.5579 -0.391397,-0.11862 -1.149874,-0.12064 -1.764058,-0.12181 -0.614187,-0.001 -1.248704,0.0726 -1.663181,0.17473 -0.41448,0.10217 -0.849731,0.0264 -1.40015,-0.15012 -0.550419,-0.17646 -1.159788,-0.6872 -1.656771,-1.09957 -0.496983,-0.41238 -1.334117,-1.14045 -2.001552,-2.02617 -0.667436,-0.88572 -1.470639,-2.05775 -1.615949,-2.76848 -0.145331,-0.71073 0.142982,-1.13806 0.142982,-1.13806 0,0 0.196028,0.37318 0.501905,0.2803 0.305878,-0.0929 0.456057,-0.87604 0.610501,-1.19639 0.154444,-0.32035 0.327176,-0.71979 0.327176,-0.71979 l 0.392615,2.09393 c 0,0 0.419308,-0.86122 0.371032,-2.74829 -0.04828,-1.88707 -0.982829,-7.11475 -0.872239,-8.0074 0.11059,-0.89264 0.636883,-1.00788 0.784529,-1.44028 0.147645,-0.4324 0.174727,-1.08745 0.174727,-1.08745 0,0 4.742471,-4.9918 6.324962,-6.64842 1.582481,-1.65661 2.273285,-2.10577 3.387809,-3.53491 1.114524,-1.42914 3.177982,-5.06315 3.177982,-5.06315 l -1.243271,4.58049 1.570441,-3.07547 0.850664,2.42111 c 0,0 -0.06,-0.72305 0.0654,-1.83219 0.1254,-1.10914 0.331867,-3.35888 0.916094,-4.7768 0.584227,-1.41792 1.630231,-2.81138 2.421108,-3.59896 0.790874,-0.78759 1.562111,-0.98022 2.250095,-1.67066 0.687987,-0.69044 1.294914,-1.49273 1.806881,-2.45181 0.511967,-0.95908 0.664627,-2.20718 1.177834,-3.2718 0.513207,-1.06461 1.082004,-2.10426 1.523204,-2.71354 0.44121,-0.60929 1.52703,-1.12546 2.04472,-1.967162 0.51769,-0.841702 0.33134,-1.754412 0.83515,-2.884879 0.5038,-1.130467 1.41465,-2.441735 1.99981,-3.230608 0.58515,-0.788872 1.06204,-1.043235 1.38394,-1.571151 0.3219,-0.527916 0.58892,-1.505016 0.58892,-1.505016 0,0 0.3511,0.868258 0.75082,0.819285 0.39971,-0.04897 0.51909,-0.605217 0.62333,-1.146464 0.10424,-0.541247 0.0702,-1.382384 0,-1.897631 -0.0702,-0.515247 -0.32718,-1.17784 -0.32718,-1.17784 l 1.04697,0.850661 c 0,0 0.19681,-0.78086 0.13087,-1.17784 -0.0659,-0.39698 -0.52348,-1.112404 -0.52348,-1.112404 0,0 0.46491,-1.593648 0.52348,-2.813729 0.0586,-1.220081 -0.10952,-3.52859 -0.41757,-4.886436 -0.30805,-1.357845 -0.81834,-2.111674 -1.21832,-3.227573 -0.39998,-1.115899 -0.63258,-2.162154 -1.17784,-3.468084 -0.54526,-1.30593 -1.32661,-3.050875 -2.15937,-4.318746 -0.83276,-1.267871 -1.98749,-2.160615 -2.74829,-3.27178 -0.7608,-1.111165 -1.1654,-2.378233 -1.8322,-3.337213 -0.666797,-0.95898 -1.088654,-1.428952 -1.400274,-2.173378 -0.311617,-0.744426 -0.428167,-1.538301 -0.329057,-2.180911 0.2866,-1.05354 0.2947,-1.578635 0.763357,-2.563099 l 0.180747,0.897318 0.39262,-1.112406 -0.0654,1.76676 0.916097,-2.290244 0.45805,2.159374 c 0,0 0.25248,-1.096074 0.26174,-1.63589 0.009,-0.539816 -0.19631,-1.570453 -0.19631,-1.570453 0,0 0.58014,1.488515 0.71979,2.028502 0.13965,0.539987 0.19631,1.177841 0.19631,1.177841 0,0 0.30123,-0.786093 0.32718,-1.505019 0.0259,-0.718926 -0.39261,-2.748293 -0.39261,-2.748293 0,0 1.4691,0.3414 2.29864,0.464464 0.82954,0.123064 1.89717,0.198053 2.82423,0.217885 0.92705,0.01983 2.74187,-0.09343 2.74187,-0.09343 l 0.0632,3.378204 c 0,0 0.87086,-0.39712 1.43891,-1.902883 0.56805,-1.505763 0.39904,-2.675488 0.24265,-3.700128 -0.15639,-1.02464 -0.54357,-1.915095 -0.97209,-2.68286 -1.05402,-1.860195 -3.20732,-2.986589 -4.1032,-3.464702 -0.89589,-0.478114 -3.26429,-0.775342 -4.14168,-1.365399 -0.87739,-0.590056 -0.84932,-1.172519 -1.24328,-1.498601 -0.39396,-0.326082 -0.64446,-0.419145 -0.94409,-0.716758 -0.29963,-0.297614 -0.529417,-0.852757 -1.036514,-1.341319 -0.507097,-0.488561 -2.206278,-1.363119 -2.206278,-1.363119 l 0.096,0.729873 c 0,0 -0.783307,-0.724041 -1.393534,-1.119544 -0.610227,-0.395503 -2.081158,-0.90026 -2.081158,-0.90026 l 0.956584,1.224496 c 0,0 -1.654158,-1.018157 -2.396505,-1.348327 -0.301057,-0.133899 -0.639087,-0.269769 -1.113864,-0.348361 -0.474787,-0.07859 -1.053824,-0.06583 -1.053824,-0.06583 l 1.096134,1.042725 c 0,0 -0.793107,-0.448252 -1.229704,-0.645766 -0.436597,-0.197513 -1.387711,-0.532074 -1.387711,-0.532074 l 0.0654,0.458049 c 0,0 -0.3368,-0.02915 -0.513707,-0.01892 -0.17692,0.01023 -0.533257,0.08436 -0.533257,0.08436 l 0.327177,0.58892 c 0,0 -0.331587,-0.09565 -0.539577,-0.12013 -0.207997,-0.02448 -0.703694,-0.01074 -0.703694,-0.01074 l 0.850664,0.58892 c 0,0 -0.917624,-0.380809 -1.364681,-0.407911 -0.44706,-0.0271 -1.252734,0.08073 -1.252734,0.08073 l 0.654357,0.327178 c 0,0 -0.763827,-0.08139 -1.162524,-0.04752 -0.398697,0.03387 -1.214634,0.270525 -1.214634,0.270525 0,0 0.641577,0.134906 0.983544,0.173929 0.34198,0.03902 1.066434,0.06111 1.066434,0.06111 0,0 -1.853738,0.245074 -2.551975,0.458049 -0.698237,0.212975 -1.157464,0.591201 -1.635871,0.719791 -0.478407,0.12859 -1.306903,0.176494 -1.306903,0.176494 0,0 0.242745,0.274646 0.374306,0.38705 0.13156,0.112404 0.40911,0.287118 0.40911,0.287118 0,0 -0.966707,0.104221 -1.47114,0.233467 -0.504433,0.129247 -1.879188,0.674645 -1.879188,0.674645 0,0 0.129068,0.132628 0.208928,0.178451 0.07986,0.04582 0.26224,0.09128 0.26224,0.09128 0,0 -0.561604,0.498269 -1.030271,0.966513 -0.468667,0.468244 -0.676153,1.076545 -0.676153,1.076545 0,0 0.272951,0.09966 0.437924,0.131654 0.164972,0.03199 0.548709,0.0501 0.548709,0.0501 0,0 -1.038496,0.289689 -1.731085,0.689947 -0.692588,0.400258 -1.508645,1.247891 -1.508645,1.247891 0,0 0.387937,0.02241 0.612486,0.0064 0.224549,-0.01596 0.729613,-0.112094 0.729613,-0.112094 0,0 -0.493021,0.237919 -0.733966,0.390522 -0.240945,0.152603 -0.705616,0.525574 -0.705616,0.525574 l 0.58892,0.06544 c 0,0 -1.315677,1.056281 -1.84502,1.620364 -0.529342,0.564083 -0.771289,1.3664 -0.771289,1.3664 l 1.438468,-1.089132 c 0,0 -0.724654,1.050417 -0.973799,1.491023 -0.249144,0.440606 -0.547191,1.130718 -0.547191,1.130718 l 1.782732,-1.967387 c 0,0 -0.54013,1.026927 -0.745475,1.475326 -0.205344,0.448399 -0.365461,1.160269 -0.365461,1.160269 l 1.699856,-1.588625 c 0,0 -1.397971,1.59805 -1.76676,2.486551 -0.368789,0.888501 -0.410164,1.705787 -0.505313,2.711217 -0.09515,1.00543 -0.01818,3.308855 -0.01818,3.308855 0,0 0.491703,-3.155496 0.916099,-4.057004 0.424396,-0.901508 1.112404,-1.439585 1.112404,-1.439585 0,0 -0.85826,1.351195 -1.050001,2.08713 -0.191742,0.735934 -0.127843,2.231619 -0.127843,2.231619 0,0 0.368461,-1.146487 0.603612,-1.615731 0.235151,-0.469243 0.770536,-1.197999 0.770536,-1.197999 0,0 -0.835261,3.051129 -1.137367,4.041492 -0.302106,0.990363 -0.5653,1.336376 -0.641874,2.325002 -0.07657,0.988626 0.386132,2.966493 0.217885,3.319143 -0.168247,0.35265 -0.871296,0.824273 -1.841294,1.700151 -0.969998,0.875878 -2.873713,2.676696 -3.926133,3.729826 -1.05242,1.05313 -1.750403,1.83326 -3.082583,2.83904 -1.33218,1.00578 -3.572625,1.780203 -5.096863,2.722983 -1.524238,0.94278 -2.598478,1.729536 -4.057004,2.879164 -1.458526,1.149628 -3.440519,3.022238 -4.620964,4.144369 -1.180445,1.12213 -1.23353,1.25551 -2.511512,2.530058 -1.277982,1.274548 -3.561074,3.293735 -5.169408,5.103974 -0.330358,0.37183 -0.496333,0.702337 -0.916099,1.17784 -0.419766,0.475503 -1.015211,1.034911 -1.635889,1.63589 -0.620678,0.600979 -1.433135,1.209883 -2.093937,1.963065 -0.660802,0.753182 -1.556475,1.942337 -1.832197,2.551988 -0.249196,1.193583 -1.013343,2.180481 -1.76676,3.140906 -0.5292,0.663529 -1.570453,1.701325 -1.570453,1.701325 0,0 -1.260995,1.19977 -1.570453,1.96308 -0.625925,1.54391 -2.222057,2.27378 -3.010035,3.4681 -0.434277,0.69825 -0.719791,2.42113 -0.719791,2.42113 l -0.58892,-0.13087 z"
       id="path4530"
       inkscape:connector-curvature="0"
       sodipodi:nodetypes="czzzzczccczzzzzczczczzzczccczzczcczzczczzzczzzzczczzzssczzzzzssccccczzzcczzzczcccssczcccccccccczczccssszszzsszszzczzzczzzccczcczzzzczczzzzzzzzczzcczzzczzcccczzzzzzzzzzzczzzcczczzzzzzzzccccccczczczczzcczzczzzzzcczccszcczcczcczcczcczczczzczczczczczczczczcczcczcczcczzczczczczzzzzzzzzzszzzcccscccc" />
  </g>
</svg>
