<?xml version="1.0" encoding="UTF-8" standalone="no"?>
<!-- Created with Inkscape (http://www.inkscape.org/) -->

<svg
   xmlns:dc="http://purl.org/dc/elements/1.1/"
   xmlns:cc="http://creativecommons.org/ns#"
   xmlns:rdf="http://www.w3.org/1999/02/22-rdf-syntax-ns#"
   xmlns:svg="http://www.w3.org/2000/svg"
   xmlns="http://www.w3.org/2000/svg"
   xmlns:sodipodi="http://sodipodi.sourceforge.net/DTD/sodipodi-0.dtd"
   xmlns:inkscape="http://www.inkscape.org/namespaces/inkscape"
   width="210mm"
   height="133mm"
   viewBox="0 0 210 133"
   version="1.1"
   id="svg8"
   inkscape:version="0.92.4 (5da689c313, 2019-01-14)"
   sodipodi:docname="grizzly_bear.svg">
  <defs
     id="defs2" />
  <sodipodi:namedview
     id="base"
     pagecolor="#ffffff"
     bordercolor="#666666"
     borderopacity="1.0"
     inkscape:pageopacity="0.0"
     inkscape:pageshadow="2"
     inkscape:zoom="0.81631366"
     inkscape:cx="-68.0657"
     inkscape:cy="152.13824"
     inkscape:document-units="mm"
     inkscape:current-layer="layer2"
     showgrid="false"
     inkscape:window-width="1920"
     inkscape:window-height="1009"
     inkscape:window-x="-8"
     inkscape:window-y="-8"
     inkscape:window-maximized="1" />
  <metadata
     id="metadata5">
    <rdf:RDF>
      <cc:Work
         rdf:about="">
        <dc:format>image/svg+xml</dc:format>
        <dc:type
           rdf:resource="http://purl.org/dc/dcmitype/StillImage" />
        <dc:title></dc:title>
      </cc:Work>
    </rdf:RDF>
  </metadata>
  <g
     inkscape:groupmode="layer"
     id="layer2"
     inkscape:label="Layer 2">
    <path
       style="opacity:0.8;fill:#ff6ef0;fill-opacity:1;stroke:none;stroke-width:0.15000001;stroke-linecap:butt;stroke-linejoin:miter;stroke-miterlimit:4;stroke-dasharray:none;stroke-opacity:1"
       d="m 10.817771,38.813405 c -0.120963,1.437862 0.655553,2.87576 1.010973,4.179279 0.35542,1.30352 2.114289,3.273453 2.114289,3.273453 0,0 -0.332238,0.918673 -0.750048,1.686575 -0.417811,0.767902 -0.24713,1.800826 -0.84148,3.037901 -0.59435,1.237075 -1.874459,2.030043 -2.5848767,4.244591 -0.7104167,2.214548 0.07438,8.726281 0.07438,8.726281 l 1.3249817,2.161813 c 0,0 0.873903,1.099261 0.627623,2.649963 -0.24628,1.550702 -3.2480571,5.124447 -3.4867928,5.718339 -0.238736,0.593892 -2.4436408,6.949584 -2.5205998,7.390663 -0.07696,0.441079 -0.05594,1.768815 0.171812,2.152373 0.227754,0.383557 1.7818901,1.146027 2.1530408,1.30342 0.3711507,0.157392 2.2937558,-0.163775 2.7205768,0.124302 0.796866,0.537833 1.207391,1.51382 2.385992,1.751009 0.633929,0.127576 2.167189,-0.96607 2.581328,-0.683772 0.19568,0.133386 0.239273,0.748541 0.290354,1.271323 0.04995,0.511193 -0.37631,1.708387 0.357001,2.262967 1.289145,0.120968 3.748664,-1.204531 5.093286,-2.251413 1.280861,-0.997241 1.783656,-1.524317 2.957782,-2.050024 1.032065,-0.407345 3.817389,-0.404037 4.242037,-0.333765 0.424648,0.07027 1.094248,0.899713 1.428398,0.890731 0.334149,-0.009 2.343605,-0.895031 2.808373,-1.363353 0.464767,-0.468323 1.198425,-1.497439 1.50827,-1.058524 0.309846,0.438915 -0.175486,1.086329 -0.798895,1.758586 -0.772483,0.825996 -0.663352,1.148165 -1.057438,1.516627 -0.394087,0.368462 -0.651085,0.829541 -0.900172,1.324981 -0.249088,0.49544 -0.243159,1.139343 -0.47804,1.614705 -0.234881,0.475362 -0.766463,0.777767 -0.996524,1.174059 -0.230061,0.396292 -0.306832,0.726913 -0.467929,1.05749 -0.161097,0.330577 -0.601627,0.62341 -0.802482,0.992137 -0.200854,0.368727 -0.222601,0.728513 -0.388084,1.181125 -0.165483,0.452611 -0.407171,1.055987 -0.616843,1.528464 -0.209672,0.472476 -0.516084,0.702296 -0.659961,1.158892 -0.143878,0.456597 -0.10725,1.174342 -0.25233,1.485344 -0.14508,0.311002 -0.596665,0.496063 -0.75126,0.731039 -0.154594,0.234976 -0.04623,1.377184 -0.17181,1.730604 -0.125584,0.35341 -1.002787,1.07067 -1.169006,1.37383 -0.166219,0.30316 -0.429611,1.06722 -0.618182,1.59315 -0.188572,0.52593 -0.111978,0.94578 -0.514462,1.5608 -0.402485,0.61502 -1.131408,1.07293 -1.702958,2.06041 -0.571549,0.98748 -1.693108,3.83222 -1.697229,4.33945 -0.0041,0.50723 0.591207,1.22512 0.389788,2.00012 -0.201418,0.775 -1.006437,1.69585 -1.784506,2.1143 -0.778069,0.41845 -1.356725,0.45036 -2.312063,0.59595 -0.955338,0.14559 -3.035212,0.0298 -3.406278,0.17115 -0.371066,0.1414 -1.492162,0.99405 -2.02234,1.60392 -0.530178,0.60987 -0.962935,1.47256 -1.148114,1.95529 -0.1851797,0.48272 -0.4853087,3.16983 -0.3803497,3.42515 0.104959,0.25532 0.5998777,0.8866 0.9705767,1.105 0.370699,0.2184 0.637803,0.18734 1.020092,0.25738 0.38229,0.07 0.746342,-0.029 1.265357,0.0805 0.519015,0.10949 1.473436,0.52782 1.614034,0.64985 0.180426,0.1566 0.17968,0.824 0.289369,0.94582 0.16516,0.18341 0.467951,0.32623 0.739726,0.26389 0.227077,-0.0521 0.143096,-0.61637 0.426855,-0.74442 0.28376,-0.12805 2.966382,0.18241 4.884127,0.25271 1.917745,0.0702 6.277227,0.082 6.635114,-0.0207 0.357888,-0.10272 1.291243,-0.689 1.825953,-1.10733 0.53471,-0.41833 1.056737,-0.8692 1.45304,-1.2751 0.396303,-0.4059 0.634601,-0.82788 1.008618,-1.43973 0.374018,-0.61184 0.478082,-1.02348 0.669263,-1.25292 0.477795,-0.57341 0.667096,-0.60496 0.965342,-0.87908 0.298246,-0.27411 0.366177,-0.52063 0.749596,-0.58256 0.439621,-0.071 0.842308,0.0662 1.347519,0.34096 0.489703,0.2663 1.08536,0.67037 1.305257,0.60407 0.446759,-0.13472 0.1347,-1.03262 0.509576,-1.32357 0.374876,-0.29095 0.861764,-0.49791 1.169874,-0.34868 0.30811,0.14923 0.271319,1.46943 0.599328,1.46585 0.328009,-0.004 1.159704,-2.30268 1.159704,-2.30268 0,0 0.368716,1.68248 0.649046,1.62394 0.28033,-0.0585 0.606201,-2.53051 0.606201,-2.53051 0,0 0.470485,1.80078 0.768661,1.78484 0.298175,-0.016 0.974656,-1.62262 1.249457,-2.3912 0.274801,-0.76857 0.497081,-1.5315 0.754274,-1.83158 0.257194,-0.30009 0.475959,-0.16381 0.710179,-0.39543 0.23422,-0.23161 0.246204,-0.97515 0.578722,-1.66776 0.332518,-0.69262 0.486516,-0.66142 0.914194,-1.39375 0.427678,-0.73233 1.351425,-1.27369 1.851696,-2.21577 0.191587,-0.38396 0.817884,-0.86008 0.991839,-1.14139 0.173955,-0.28131 0.28587,-0.52335 0.498222,-0.91063 0.21235,-0.38727 0.677835,-0.48502 1.004694,-0.84277 0.326858,-0.35776 0.328762,-0.74085 0.577738,-1.11875 0.248978,-0.37791 1.042,-0.48997 1.238202,-0.74133 0.196201,-0.25135 -0.134543,-0.63128 -0.0072,-1.10873 0.127349,-0.47746 0.662128,-0.69118 0.888117,-1.09733 0.225989,-0.40615 0.205038,-0.8888 0.398399,-1.32341 0.19336,-0.43462 0.649901,-0.7728 1.058861,-1.430372 0.40896,-0.657574 0.802174,-1.40063 1.16284,-2.160244 0.360667,-0.759614 0.524259,-1.518382 0.842456,-2.329901 0.318197,-0.811519 0.831022,-1.226147 1.164247,-1.842998 0.333225,-0.61685 0.570858,-1.321478 0.839645,-1.844562 0.268786,-0.523084 0.767698,-0.816245 0.998971,-1.156892 0.231273,-0.340647 0.184296,-0.920149 0.522396,-1.307942 0.3381,-0.387793 0.877665,-0.478905 1.147044,-0.751458 0.269379,-0.272553 0.365205,-0.511031 0.650454,-0.777103 0.28525,-0.266071 0.610188,-0.75681 1.060267,-0.806966 0.450079,-0.05016 1.254343,0.550137 1.495723,0.384492 0.24138,-0.165646 0.223602,-0.729322 0.442652,-1.335152 0.219051,-0.60583 0.454903,-1.466185 0.848085,-1.589695 0.393181,-0.123509 1.269505,0.964673 1.91852,1.714939 0.649015,0.750266 1.26578,2.32911 1.547012,2.539109 0.281231,0.21 0.848941,0.04583 1.241015,0.219054 0.392075,0.173226 0.410464,0.966289 0.710182,1.115936 0.299718,0.149647 1.245033,-0.554532 1.566865,-0.432805 0.321832,0.121728 0.149284,2.20381 0.391367,2.342561 0.128684,0.07376 0.53988,-0.36559 0.990195,-0.540599 0.450315,-0.175009 1.113127,0.179827 1.621202,0.351967 0.994157,0.336836 0.747432,1.710773 1.633169,2.290326 0.885738,0.579553 1.392621,-0.04932 1.80541,0.101397 0.412789,0.150719 0.493381,0.859061 0.83402,1.066055 0.340638,0.206993 0.69865,0.389003 0.960828,0.608815 0.262179,0.219818 0.328008,1.053848 0.755528,2.039567 0.427521,0.985718 0.72261,1.385935 0.865277,1.767649 0.372313,0.996142 0.15152,0.806832 0.493983,1.550782 0.342463,0.74395 0.748252,1.53125 1.004903,2.19349 0.467319,1.20582 0.480862,1.29993 0.679968,1.73499 0.617379,1.34902 1.134603,1.88135 1.364853,2.71689 0.230251,0.83553 0.209909,1.55565 0.385573,2.32114 0.175665,0.76549 0.54154,1.70416 0.714563,2.31833 0.173024,0.61417 0.07414,2.01325 -0.07311,3.04136 -0.14725,1.0281 -0.01817,2.55711 -0.447235,2.71928 -0.429068,0.16217 -0.851152,-0.26994 -1.402406,-0.30842 -0.551254,-0.0385 -0.935438,0.43898 -1.565458,0.43123 -0.630021,-0.008 -2.458556,-0.0705 -3.548088,0.36713 -0.620218,0.26019 -1.254169,0.41468 -1.620967,0.8226 -0.366798,0.40792 -0.481812,0.85793 -1.05644,1.28262 -0.574628,0.42469 -1.539549,0.57064 -1.953618,1.27775 -0.414069,0.70711 -0.139723,1.54645 -0.197796,2.15338 -0.05807,0.60692 -0.467644,1.28589 -0.308808,1.48712 0.209619,0.26556 1.200116,-0.3993 1.572656,-0.20498 0.372539,0.19432 0.341597,0.32792 0.434049,0.6334 0.09245,0.30548 -0.01739,0.8302 0.29036,0.98631 0.307754,0.15611 0.626841,-0.0655 0.966293,-0.0727 0.339452,-0.007 0.511983,0.37418 0.851058,0.47111 0.339075,0.0969 0.709056,-0.22396 1.065895,-0.0926 0.35684,0.13139 0.257765,0.54969 0.806966,0.80276 0.549201,0.25307 1.28744,0.17992 2.008112,0.22621 0.720672,0.0463 1.486585,0.0905 2.116314,0.10961 0.629729,0.0191 0.974521,-0.0238 1.525586,0.027 0.551065,0.0508 1.074985,0.36952 1.751998,0.32163 0.677013,-0.0479 1.379027,-0.57621 1.952606,-0.55789 0.573579,0.0183 1.096936,0.33271 1.686322,0.41701 0.589386,0.0843 1.119765,-0.0865 1.800471,-0.0683 0.680697,0.0181 1.121248,0.17799 1.630955,0.18075 0.509717,0.003 0.881304,-0.15394 1.410361,-0.14084 0.529047,0.0131 1.287094,0.34409 1.770431,0.30881 0.483337,-0.0353 0.740907,-0.10903 1.046024,-0.27894 0.30512,-0.16991 0.43948,-0.47495 0.73724,-0.69454 0.29776,-0.2196 1.0494,-0.11095 1.05027,-0.59479 8.7e-4,-0.48383 -0.24169,-0.69587 0.0299,-1.06887 0.27159,-0.373 0.87981,-0.18186 1.20834,-0.498 0.32852,-0.3161 0.12878,-0.57735 0.35149,-1.05183 0.22271,-0.47447 0.46368,-0.59951 0.95784,-0.90162 0.49417,-0.3021 1.48258,-0.46482 1.68508,-0.7478 0.20249,-0.28297 0.0745,-1.25869 -0.0342,-2.00007 -0.10863,-0.74137 -0.29006,-1.98932 -0.0598,-2.41315 0.50637,-0.93199 0.94818,-0.60487 1.21395,-0.89672 0.26578,-0.29185 0.17258,-0.65308 0.44265,-0.98208 0.27008,-0.329 0.93651,-0.38089 1.17708,-0.70861 0.24057,-0.32772 0.0785,-0.75197 0.2915,-1.29404 0.21301,-0.54207 0.94097,-0.43177 1.26254,-0.85777 0.32157,-0.426 0.16613,-0.83529 0.35571,-1.25963 0.18958,-0.42434 0.59716,-0.42632 0.77851,-0.69736 0.18136,-0.27104 0.31855,-0.51675 0.30318,-0.85966 -0.0154,-0.3429 -0.20399,-0.65863 -0.29473,-1.05447 -0.0907,-0.39585 0.34306,-0.92445 0.28472,-1.40473 -0.0583,-0.48029 -0.26603,-0.7064 -0.40427,-1.15754 -0.13825,-0.45115 -0.10662,-0.58064 -0.20192,-1.50102 -0.0953,-0.92038 -0.24033,-0.98937 -0.39584,-1.44605 -0.15552,-0.45668 -0.13512,-1.13812 -0.20622,-1.55822 -0.0711,-0.42011 -0.56342,-0.82926 -0.53507,-1.27526 0.0284,-0.446 0.54789,-0.92464 0.48252,-1.3206 -0.0654,-0.39597 -0.59467,-0.685626 -0.88952,-1.241024 -0.29486,-0.555398 -0.31563,-1.185121 -0.38433,-1.89569 -0.0687,-0.710569 0.19019,-1.463914 0.2619,-2.21732 0.0712,-0.747619 0.12831,-1.31722 0.19441,-1.937167 0.0661,-0.619947 0.28532,-1.198137 0.20839,-1.785724 -0.0769,-0.587587 -0.77107,-1.438884 -0.84403,-2.270174 -0.0729,-0.831289 -0.0973,-1.281852 0.47243,-1.569876 0.56968,-0.288025 1.19078,-0.004 1.78195,0.353095 0.59117,0.357104 0.75355,1.255401 1.36908,1.27245 0.61552,0.01705 0.79867,-0.875995 1.27228,-1.051825 0.47361,-0.175829 0.53783,0.04446 1.00617,0.159326 0.46834,0.11487 0.77055,0.460866 1.12506,0.851385 0.35451,0.390519 0.41401,0.76244 0.79487,1.033051 0.38085,0.270612 0.85186,0.190256 1.33061,0.239073 0.47874,0.04882 1.01181,0.40848 1.73197,0.506598 0.72017,0.09812 1.86004,0.51618 2.25719,0.401374 0.39716,-0.114807 0.50124,-0.437344 1.00343,-0.525308 0.50219,-0.08796 0.94153,0.102976 1.26609,0.377041 0.32457,0.274068 0.29895,0.594417 0.56546,0.767453 0.82247,0.534003 1.94008,0.504216 2.87356,0.630277 0.93347,0.12606 1.19719,0.09488 1.89042,0.72117 0.69323,0.626289 1.17993,1.715212 1.30891,2.716395 0.12898,1.001183 0.019,1.787518 0.0953,2.723426 0.0763,0.935908 0.60877,1.506394 0.53084,2.793814 -0.0779,1.28742 -0.35033,2.7074 -0.44828,3.66175 -0.098,0.95435 0.0299,1.70869 -0.19795,2.54474 -0.22788,0.83605 -0.96255,1.84 -1.13845,2.49329 -0.1759,0.65329 -0.22572,1.243 -0.63207,1.77369 -0.40635,0.53069 -0.87828,0.76792 -1.44734,1.07985 -0.56907,0.31194 -1.23435,0.832 -1.75747,1.06449 -0.52312,0.23249 -1.43238,0.17114 -2.06784,0.33727 -0.63546,0.16613 -1.6993,0.6703 -1.6993,0.6703 -1.11503,0.68158 -2.18857,1.35777 -2.58461,2.33255 -0.37543,0.97545 0.0332,4.30202 0.19775,4.51877 0.21267,0.28009 0.53994,0.0448 0.96505,0.17497 0.42512,0.1302 0.29859,0.37314 0.8681,0.53943 0.5695,0.1663 3.17819,0.0379 4.67245,0.0769 1.49427,0.039 2.60605,0.0116 3.55513,0.13504 0.94909,0.1234 0.99451,0.45167 1.79031,0.52082 0.7958,0.0692 2.48799,-0.0792 3.56091,-0.0584 1.07291,0.0209 2.68049,0.0676 3.24615,0.0157 0.56567,-0.052 0.65712,-0.28049 0.99335,-0.20921 0.45758,0.097 0.57104,0.16101 0.90077,0.13103 0.32974,-0.03 0.25702,-0.38132 0.76656,-0.66548 0.50954,-0.28416 1.19794,-0.35651 1.9714,-0.45865 0.77346,-0.10214 1.42038,-0.30919 2.42588,-0.3808 1.00551,-0.0716 2.41208,-0.0912 3.48453,-0.1941 1.07245,-0.10284 1.53472,-0.12434 2.28875,-0.29909 0.75404,-0.17475 1.25548,-0.24077 1.52547,-0.71696 0.26999,-0.47619 -0.15822,-1.05105 0.10948,-1.56147 0.2677,-0.51043 1.07505,-0.64734 1.17268,-0.91629 0.0722,-0.19897 -0.1138,-0.38974 -0.27916,-0.76284 -0.16535,-0.3731 -0.0146,-0.91003 -0.12646,-1.25098 -0.11183,-0.34095 -0.36878,-0.52963 -0.47067,-0.86285 -0.10189,-0.33322 0.0844,-0.95599 -0.05,-1.43193 -0.13441,-0.47594 -0.49067,-0.85595 -0.66707,-1.28126 -0.17641,-0.42531 -0.12468,-1.05008 0.0197,-1.47096 0.14441,-0.42088 0.44688,-0.76042 0.55788,-1.11577 0.111,-0.35535 -0.0305,-0.6537 0.13947,-0.9763 0.16994,-0.3226 0.63242,-0.4712 0.88482,-0.81284 0.25241,-0.34165 0.3416,-0.99109 0.57964,-1.21601 0.23804,-0.22492 0.89714,-1.03788 1.14424,-1.27472 0.2471,-0.23684 0.14712,-0.86513 0.41149,-1.26163 0.26433,-0.39649 0.54259,-0.51634 0.74555,-0.73469 0.20296,-0.21835 0.0692,-0.56692 0.27895,-0.83683 0.20971,-0.26991 0.87905,-0.26048 0.98301,-0.63211 0.10397,-0.37162 -0.0765,-0.49071 -0.16368,-0.8236 -0.0872,-0.33289 -0.002,-0.61235 0.5682,-0.769 0.57006,-0.15666 0.64007,0.68166 1.27342,0.88246 0.63334,0.2008 1.33909,0.01 1.80214,0.15674 0.46305,0.14683 0.47234,0.78011 0.95455,0.87831 0.48221,0.0982 0.95814,-0.47662 1.45774,-0.38365 0.49959,0.093 0.55004,0.76842 1.03729,1.01777 0.48725,0.24936 0.95201,0.0756 1.45555,0.38667 0.50354,0.31113 0.66918,0.7443 0.98806,0.90202 0.31887,0.15773 0.52251,0.3829 0.86996,0.25161 0.34746,-0.13129 0.61122,-0.0229 0.86112,-0.0931 0.2499,-0.0702 0.23683,0.24486 0.53135,0.5487 0.29453,0.30384 0.49157,0.68739 0.83213,0.82347 0.34056,0.13608 0.83663,0.27394 1.32918,0.37624 0.49254,0.10226 0.79438,0.12832 1.23662,0.4889 0.44225,0.36059 0.81575,0.96122 1.20936,1.13963 0.39362,0.17841 0.91197,0.002 1.39347,0.21863 0.4815,0.21692 0.83821,0.785 1.26467,0.99516 0.42647,0.21017 0.61486,0.26243 1.15474,0.69064 0.53987,0.42819 0.68574,0.47155 1.05989,0.93088 0.37416,0.45934 1.08461,1.12868 1.34565,1.39472 0.26105,0.26605 0.57855,0.46977 0.98198,0.50951 0.40343,0.0397 0.76466,0.004 1.07682,0.1099 0.31215,0.10616 0.39619,0.66032 0.72814,0.70803 0.33195,0.0477 0.57114,-0.27812 0.90656,-0.43852 0.33542,-0.16039 0.44365,-0.34907 0.83557,-0.1042 0.39191,0.24488 0.24975,0.3071 0.38891,0.78521 0.13916,0.47811 0.45995,0.65427 0.78845,1.02344 0.3285,0.36917 0.61568,0.99612 0.98348,1.50832 0.36781,0.51219 0.62773,0.92802 0.73212,1.47616 0.1044,0.54814 0.34233,1.29829 0.18733,1.62502 -0.15492,0.32672 -0.30125,0.66892 -0.3983,0.98947 -0.0971,0.32055 -0.10817,0.85397 -0.18093,1.25524 -0.0728,0.40127 -0.33262,0.71167 -0.41841,1.11578 -0.0858,0.40411 -0.14667,0.64318 -0.0767,1.28477 0.07,0.6416 0.0489,0.94362 0.5134,1.30358 0.61268,0.47484 0.60705,0.36646 1.03077,0.52761 0.42575,0.16193 0.45212,0.34565 0.75636,0.4717 0.74224,0.30753 0.70955,0.34776 1.41568,0.57175 0.70612,0.22396 1.18024,0.21589 1.88522,0.25871 0.70498,0.0428 0.92754,0.10082 1.55265,-0.10889 0.62511,-0.20966 0.50389,-0.30108 1.02434,-0.70415 0.52045,-0.40306 0.84156,-0.73861 1.34306,-1.22143 0.5015,-0.48282 0.81873,-0.71805 1.01142,-1.11084 0.19269,-0.39278 0.074,-0.66642 0.23544,-0.99921 0.16165,-0.33278 0.46726,-0.33248 0.74086,-0.68788 0.2736,-0.3554 0.40382,-0.71152 0.58717,-1.00919 0.18335,-0.29767 0.47218,-0.52678 0.69111,-0.91431 0.23532,-0.41655 0.27254,-0.95689 0.44664,-1.17392 0.33608,-0.41892 0.6463,-0.32172 0.85946,-0.81192 0.21316,-0.4902 0.16622,-0.83359 0.32072,-1.23768 0.15449,-0.40408 0.29878,-0.80675 0.50319,-1.18139 0.20442,-0.37464 0.17724,-1.0552 0.30569,-1.59674 0.12845,-0.54154 0.34609,-0.83473 0.54405,-1.70254 0.19796,-0.86781 -0.0797,-1.99213 0.1695,-4.15516 0.15688,-1.36195 0.68944,-2.97681 0.6839,-3.62323 -0.0143,-1.67305 -0.1648,-1.56735 -0.13561,-2.15332 0.0292,-0.58597 0.32897,-1.16794 0.35051,-1.79682 0.0215,-0.62889 0.2447,-1.374149 -0.0717,-1.957256 -0.31638,-0.583108 -0.87245,-0.958437 -1.60197,-1.45619 -0.72951,-0.497753 -1.44636,-0.900104 -2.9615,-1.423132 -1.51513,-0.523027 -2.83758,-0.64417 -3.92611,-1.297492 -1.30696,-0.843467 -1.56526,-2.828023 -2.58343,-4.504931 -1.01817,-1.676907 -2.23511,-3.322589 -3.15993,-4.860445 -0.92483,-1.537855 -1.99199,-1.777608 -2.54142,-4.466712 -0.54944,-2.689104 0.5145,-6.55598 0.22516,-10.219771 -0.16838,-1.886825 -1.17544,-4.450971 -1.39266,-6.116502 -0.21722,-1.665532 -2.04682,-5.958933 -3.21249,-8.590424 -0.60115,-1.404388 -0.90672,-3.479675 -1.49958,-5.095369 -0.59287,-1.615695 -0.50893,-3.217508 -0.95592,-4.904701 -0.44699,-1.687193 -1.60076,-6.681279 -2.48552,-10.048793 -0.45207,-1.675714 -0.52829,-3.11942 -2.02057,-5.322255 -1.49228,-2.202834 -6.46824,-6.872021 -9.55898,-9.015439 -3.09074,-2.143418 -8.06425,-4.767832 -9.95685,-5.825212 -1.89259,-1.057381 -3.63809,-2.515692 -4.89475,-3.352197 -1.25666,-0.836505 -2.92451,-1.610927 -4.32847,-2.256634 -1.40396,-0.6457074 -1.92343,-1.0224262 -5.10259,-1.8611727 -3.17917,-0.8387465 -10.21159,-0.9712769 -14.1445,-0.9979977 -3.93291,-0.026721 -6.33358,0.089727 -8.29031,0.3791565 -1.95673,0.2894296 -2.58811,0.495661 -3.97386,0.7359268 -1.38574,0.2402658 -3.2316,0.2416701 -4.75139,0.4191058 -1.51979,0.1774357 -2.10523,0.467941 -3.60405,0.6627489 -1.49883,0.194808 -4.10964,0.1070602 -5.38826,0.4137664 -1.27861,0.306707 -1.82608,1.009998 -3.490401,1.294504 C 97.159668,11.664969 95.376217,10.950791 92.877682,10.61526 90.37921,10.279769 87.560252,9.6109084 84.376872,8.8254185 81.193493,8.0399285 78.910645,7.3464167 76.457976,6.7169864 74.005307,6.0875561 67.470654,5.6249806 63.816665,6.3595255 c -1.575822,0.3388977 -3.832952,1.2921267 -5.370176,2.083811 -1.537225,0.7916843 -2.789491,1.7939325 -3.85717,2.5327035 -1.067679,0.738771 -2.203378,1.565519 -3.042033,2.317814 -0.838655,0.752296 -1.376161,2.002605 -2.026474,3.037901 -0.650313,1.035296 -1.501918,2.052698 -2.092076,3.138114 -0.590158,1.085416 -2.866752,3.912492 -4.504363,5.547012 -1.196892,1.180209 -3.179088,2.781457 -4.748872,3.86595 -1.569784,1.084493 -3.234448,2.189054 -4.624203,2.930288 -1.389755,0.741234 -2.011051,0.862618 -3.386063,1.799702 -1.375013,0.937083 -2.713906,2.804382 -5.941496,3.251757 -0.850276,0.124712 -1.708385,0.657239 -3.036869,0.867306 -1.328484,0.210068 -1.918509,0.142739 -3.256406,0.07852 -1.337897,-0.06422 -2.431474,-0.727 -3.928336,-0.880801 -1.496862,-0.153801 -3.063394,0.445942 -3.184357,1.883802 z"
       id="path827"
       inkscape:connector-curvature="0"
       sodipodi:nodetypes="zzczzzcczzzzzsssscsczzzzczzzzzzzzzzzzzzzzzzzzzzzzzzzssszzzzzzszssszzzcscszzzzzczzzzzzzzzzzzzzzzzzzzzzzzzzszszzzzzszsszzzzzzzczzzzszzzzzzzzzzzzzzzzzzzzzzzzzzszzzzzzzzzzzzzzzzzzszzzzzzzzzzzzzzzazzzzzzzzzzzzccszzzzzzzszzzzzzzzszzzzzzzzzzzzzzzzzzzzzzzzzzzzzzzzzzzzzzzzzzzzzzzzzzssszzzzzzzzzsszzzzzsszzzzzczzzczczzczzzzzzzzzzzzzzzzczzzzzczzzczzzz" />
  </g>
</svg>
