<?xml version="1.0" encoding="UTF-8" standalone="no"?>
<!-- Created with Inkscape (http://www.inkscape.org/) -->

<svg
   xmlns:dc="http://purl.org/dc/elements/1.1/"
   xmlns:cc="http://creativecommons.org/ns#"
   xmlns:rdf="http://www.w3.org/1999/02/22-rdf-syntax-ns#"
   xmlns:svg="http://www.w3.org/2000/svg"
   xmlns="http://www.w3.org/2000/svg"
   xmlns:sodipodi="http://sodipodi.sourceforge.net/DTD/sodipodi-0.dtd"
   xmlns:inkscape="http://www.inkscape.org/namespaces/inkscape"
   width="180mm"
   height="137mm"
   viewBox="0 0 180 137"
   version="1.1"
   id="svg8"
   inkscape:version="0.92.4 (5da689c313, 2019-01-14)"
   sodipodi:docname="african_elephant-terrestrial.svg">
  <defs
     id="defs2" />
  <sodipodi:namedview
     id="base"
     pagecolor="#ffffff"
     bordercolor="#666666"
     borderopacity="1.0"
     inkscape:pageopacity="0.0"
     inkscape:pageshadow="2"
     inkscape:zoom="1.4088798"
     inkscape:cx="57.618232"
     inkscape:cy="270.14818"
     inkscape:document-units="mm"
     inkscape:current-layer="layer2"
     showgrid="false"
     inkscape:window-width="1920"
     inkscape:window-height="1009"
     inkscape:window-x="-8"
     inkscape:window-y="-8"
     inkscape:window-maximized="1" />
  <metadata
     id="metadata5">
    <rdf:RDF>
      <cc:Work
         rdf:about="">
        <dc:format>image/svg+xml</dc:format>
        <dc:type
           rdf:resource="http://purl.org/dc/dcmitype/StillImage" />
        <dc:title></dc:title>
      </cc:Work>
    </rdf:RDF>
  </metadata>
  <g
     inkscape:groupmode="layer"
     id="layer2"
     inkscape:label="Layer 2"
     transform="translate(0,-8)"
     style="display:inline">
    <path
       style="opacity:0.8;fill:#37963c;fill-opacity:1;stroke:none;stroke-width:0.15000001;stroke-linecap:butt;stroke-linejoin:miter;stroke-miterlimit:4;stroke-dasharray:none;stroke-opacity:1"
       d="m 157.28496,42.918452 c -0.33639,-0.174268 -0.73084,0.174659 -1.00565,-0.03783 -0.0936,-0.07234 -0.42363,-0.352951 -0.58229,-0.397 -0.18183,-0.05048 -0.36429,0.0107 -0.51648,-0.128251 -0.21424,-0.195603 -0.23842,-0.651747 -0.55475,-0.858255 -0.25451,-0.166155 -0.82817,-0.0047 -1.1025,-0.227244 -0.142,-0.115185 -0.0586,-0.494133 -0.20846,-0.616596 -0.21845,-0.178556 -0.56759,0.09461 -0.80184,-0.09736 -0.27468,-0.225103 0.0373,-0.91849 -0.25551,-1.161218 -0.23728,-0.196667 -0.74112,-4.91e-4 -0.99073,-0.206096 -0.15708,-0.129384 -0.041,-0.35243 -0.20208,-0.485437 -0.22034,-0.181911 -0.58226,-0.198695 -0.80995,-0.386376 -0.25988,-0.214219 -0.0346,-1.043966 -0.30208,-1.265049 -0.41743,-0.344973 -1.15145,-0.20514 -1.5871,-0.557113 -0.73621,-0.594818 -1.54814,-1.049341 -2.26668,-1.707101 -0.39666,-0.363098 -0.88342,-0.719853 -1.25537,-1.133193 -0.26043,-0.289411 -0.58573,-0.722012 -0.8672,-0.961028 -0.56765,-0.482026 -1.02313,-0.744023 -1.57745,-1.20649 -0.2359,-0.196813 -0.44019,-0.481552 -0.6739,-0.66976 -0.42002,-0.338243 -0.88514,-0.515955 -1.29618,-0.813337 -0.9929,-0.718346 -1.89209,-1.469457 -2.68485,-2.047286 -1.58305,-1.153853 -2.81832,-2.13578 -3.09049,-2.232343 -1.36019,-0.482571 -1.47446,0.0022 -3.53831,-0.291712 -1.48206,-0.211055 -3.39232,-0.926999 -5.13579,-0.981093 -3.13535,-0.09728 -5.69548,0.71274 -6.89612,0.749567 -2.79798,0.08582 -3.52406,-1.74223 -9.93948,-3.602843 -6.41541,-1.860613 -8.32829,-0.38146 -8.32829,-0.38146 l -1.335705,1.898736 c 0,0 -2.59044,-0.06809 -5.713491,1.072571 -2.062662,0.753369 -1.746155,1.649262 -3.361613,2.690173 -2.210087,1.424062 -2.935291,2.42594 -4.696482,2.982576 -0.897504,0.283665 -7.731957,0.257239 -14.167137,-0.149862 -6.19261,-0.391755 -8.10676,-0.670674 -12.46357,-1.505318 -4.35681,-0.834644 -6.07851,-3.356685 -14.6324,-3.513059 -8.5539,-0.156375 -14.04951,3.823052 -21.20267,8.63714 -7.15315,4.814087 -11.66697,11.764219 -14.1774398,16.152285 -2.51047,4.388066 -3.72957,7.996769 -4.10625,10.492853 -0.12119,0.803045 -0.24478,5.295585 0.004,10.930262 0.14431,3.26395 0.85012,6.928439 1.06455,10.526967 0.43727,7.338323 0.77196,11.286825 0.93196,14.040969 0.0198,0.341775 -0.0399,1.143047 -0.10987,2.068923 -0.0501,0.662437 0.0751,1.758066 0.40926,1.988774 0.33417,0.230709 0.94425,0.297595 1.57707,-0.05582 0.7466,-0.416954 -0.0322,-0.738286 0.60468,-1.004144 0.6403198,-0.267306 0.43595,-1.528964 0.43595,-1.528964 0,0 -0.51729,-2.871645 -0.7478,-7.189525 -0.23052,-4.31788 -0.25333,-8.045846 -0.34598,-10.638742 -0.19069,-5.336939 0.17083,-13.192613 0.17083,-13.192613 0,0 1.9998498,5.959465 2.8192298,7.991871 0.81937,2.032406 1.39984,2.453758 1.78245,3.560864 0.38262,1.107107 0.34986,1.953022 0.56573,3.008038 0.15828,0.773534 0.48642,0.859629 0.54243,1.636063 0.0663,0.919461 -0.0762,1.619453 -0.13217,2.254165 -0.0109,0.123358 -0.15415,1.288145 -0.38961,2.931794 -0.1029,0.718276 -0.28066,1.022424 -0.3253,2.175873 -0.0364,0.939308 0.0369,1.919415 0.0105,2.997238 -0.18777,7.672384 -0.13584,11.603184 -0.20902,17.148664 -0.003,0.22109 0.17311,0.67232 0.15679,0.92393 -0.0151,0.23234 -0.10062,0.25966 -0.13974,0.51009 -0.0181,0.11617 0.0335,0.23701 0.0123,0.36188 -0.0632,0.37269 -0.17469,0.76669 -0.32724,1.18686 -0.0601,0.16539 -0.18581,0.33483 -0.22778,0.50862 -0.0304,0.12585 0.0307,0.29865 0.004,0.39224 -0.0724,0.25517 -0.2311,0.37353 -0.36939,0.78629 -0.14223,0.42455 0.16389,0.37286 0.0906,0.61519 -0.15146,0.50089 -0.67873,0.6735 -0.8219,1.20495 -0.0529,0.19632 -0.001,0.40292 -0.0556,0.60195 -0.30718,1.12374 -0.62463,2.28993 -0.94197,3.44649 -0.17241,0.62834 -0.33241,1.25384 -0.5191,1.86814 -0.6178898,2.03313 -0.9055498,3.09849 -1.7849898,5.56142 -0.51734,1.44884 -0.51037,1.86605 -0.61958,2.80303 -0.0437,0.37509 0.31986,2.2048 0.3993,4.23464 0.11902,3.04085 -0.82568,4.20498 -0.16237,5.767 0.33769,0.79524 4.9124598,1.22641 9.2858998,1.18985 4.21692,-0.0353 6.9775,-0.43774 8.64147,-0.84737 1.66396,-0.40963 2.63711,-0.75845 2.7286,-1.36093 0.0893,-0.58778 -1.36015,-1.77826 -2.02127,-2.66655 -0.66111,-0.8883 -1.29189,-1.36509 -2.08606,-2.575 -0.79417,-1.20991 -2.28093,-3.03083 -2.20262,-7.48214 0.008,-0.45311 0.13724,-1.09303 0.16241,-1.82776 0.0271,-0.79094 -0.13211,-1.69663 -0.0381,-2.58769 0.0988,-0.93629 0.28846,-0.19784 0.83698,-3.39645 0.1425,-0.83102 0.30388,-2.11654 0.56645,-3.24031 0.26258,-1.12376 0.56228,-2.10912 0.80693,-3.11702 0.26055,-1.07341 1.01378,-2.02468 1.24638,-2.45835 0.23259,-0.43367 0.37769,-1.49795 1.04235,-1.4739 0.0949,0.003 0.32762,0.53728 0.65689,1.45003 0.0624,0.17306 0.35839,0.32681 0.51118,0.68733 0.0289,0.0682 0.43091,1.41004 0.66398,2.2094 0.0635,0.21779 0.23097,0.43209 0.37515,0.66693 0.14417,0.23485 0.32185,0.43825 0.36473,0.58562 0.0974,0.33462 0.58469,1.52294 0.66236,1.8617 0.0167,0.0729 0.25144,0.97722 0.60952,2.35151 0.0634,0.2434 0.41543,0.73653 0.54348,1.11457 0.0287,0.0848 0.37534,1.16752 0.73142,2.20369 0.35608,1.03616 0.69097,1.87286 1.00207,3.14766 0.36754,1.50605 0.50049,2.53278 0.93294,4.69371 0.14396,0.71937 0.29385,0.91156 0.56595,2.1785 0.0391,0.182 0.28298,0.41151 0.36519,0.82564 0.0822,0.41412 0.33451,1.12053 0.39257,1.69208 0.0581,0.57154 -0.15979,0.54324 -0.21335,1.03303 -0.0536,0.4898 2.15756,2.28809 3.38983,3.23238 1.23227,0.94429 2.21798,2.06895 3.82913,2.31947 0.70793,0.11008 2.37002,-0.0905 4.29936,-0.11702 1.92934,-0.0265 4.49961,0.0499 4.986,-0.29916 0.48638,-0.34909 1.03355,-0.45021 0.83999,-1.7669 -0.12299,-0.83663 -1.52693,-2.83589 -3.16027,-4.77509 -0.90326,-1.07241 -2.27489,-2.85956 -2.87937,-4.04096 -0.71546,-1.39831 -2.76987,-5.7542 -4.14503,-10.43285 -0.28115,-0.95658 -0.84602,-2.08171 -1.09395,-3.03509 -1.34938,-5.18892 -1.53545,-7.86871 -1.62227,-9.84956 -0.0122,-0.27854 -0.14082,-1.06667 -0.0863,-1.66099 0.0409,-0.44574 0.26595,-0.66396 0.27446,-1.12816 0.017,-0.92572 -0.23302,-1.76315 -0.0596,-2.60204 0.29835,-1.443061 0.37669,-2.320896 0.73341,-2.949976 0.29935,-0.5279 0.12788,-0.959109 0.45977,-1.213386 0.11529,-0.08833 0.89148,0.07063 2.02954,0.143947 1.24049,0.07992 3.42144,0.293382 5.06377,0.30505 0.53347,0.0038 1.15326,0.100504 1.65586,-0.01841 0.40105,-0.09489 0.68089,-0.324397 1.12308,-0.32841 0.52943,-0.0048 1.0701,0.05754 1.6302,0.10626 1.18974,0.103497 2.4171,0.168238 3.45921,0.170533 3.12556,0.0069 3.56961,-0.167616 6.35739,-0.490692 1.03856,-0.120359 3.83566,-0.508166 7.05903,-1.49913 2.09675,-0.644606 4.35469,-1.634885 6.66451,-2.663294 3.00026,-1.335815 4.939001,-2.670312 4.939001,-2.670312 0,0 -0.746524,4.508811 0.20787,8.086233 0.380627,1.426729 1.792911,2.892887 2.787795,4.517187 1.499721,2.44851 1.816198,3.13535 2.948892,6.29716 0.481177,1.34318 1.274324,4.05771 1.997538,8.54712 0.0642,0.39875 0.0668,1.56811 0.12199,1.99116 0.0993,0.76083 0.485638,1.54257 0.56156,2.29098 0.160516,1.58233 0.166079,3.02199 0.233429,4.14328 0.0825,1.37353 0.207767,2.26222 0.207767,2.26222 0,0 0.08168,0.54429 0.13466,1.17002 0.02301,0.27183 0.156761,0.41493 0.213461,0.61442 0.07382,0.25971 0.07154,0.54566 0.08169,0.62633 0.04975,0.3955 0.132423,0.32223 0.143591,0.6274 0.01539,0.42057 -0.154762,0.72731 -0.161725,1.18181 -0.0071,0.46025 0.192884,0.88915 0.205241,1.30312 0.02163,0.72476 -0.138018,0.91167 -0.169844,1.27264 -0.03183,0.36096 0.06208,0.33345 -0.04208,0.76929 0,0 -0.175724,0.59199 -0.289164,1.09907 -0.05565,0.24876 -0.519815,1.54098 -0.692081,2.6499 -0.178895,1.15156 -0.270655,1.86286 0.05788,2.13402 0.328533,0.27116 8.892518,0.44279 13.342907,0.50363 3.16169,0.0432 7.87558,-0.28477 8.85341,-0.37944 0.97782,-0.0947 2.23987,0.0416 2.25174,-0.80291 0.006,-0.40955 -0.7227,-0.67653 -1.49266,-1.24355 -0.76996,-0.56701 -2.56663,-2.88079 -3.32896,-3.76437 -0.17341,-0.20098 -0.046,-0.29287 -0.27365,-0.61835 -0.42416,-0.60634 -0.96744,-0.56303 -1.36541,-2.15163 -0.0605,-0.24162 -0.037,-0.54105 -0.13467,-0.72685 -0.10682,-0.20314 -0.36188,-0.16888 -0.35919,-0.43432 0.003,-0.34004 0.57877,-0.35836 0.61307,-0.66005 0.0913,-0.803 -0.30306,-0.91641 -0.29572,-1.17744 0.011,-0.39143 0.81645,-0.42216 1.06455,-1.08507 0.15217,-0.40656 -0.051,-0.86801 0.0465,-1.35237 0.14458,-0.71789 0.47669,-0.279 0.52083,-1.1783 0.009,-0.19246 -0.219,-0.80603 -0.19944,-1.74037 0.0232,-1.109 -0.12078,-2.29522 -0.0589,-3.80043 0.0462,-1.12503 0.22578,-2.28902 0.30447,-3.33295 0.14179,-1.88099 0.0557,-1.93381 0.20747,-3.47335 0.0356,-0.36124 0.15666,-1.23987 0.32322,-2.60589 0.13224,-1.08461 0.23121,-2.55523 0.54982,-4.21806 0.13217,-0.68982 -0.0237,-1.42055 0.18711,-2.47328 0.1496,-0.74711 0.28311,-1.49958 0.54657,-2.25622 0.63088,-1.81194 1.50022,-6.227309 1.59732,-7.674623 0.0971,-1.447314 -0.76402,-6.156081 -1.25359,-9.006969 -0.23871,-1.390024 -0.15191,-8.052405 0.0343,-9.928132 0.18617,-1.875727 0.30998,-1.19862 0.47601,-3.185007 0.0998,-1.194475 0.27832,-2.664046 0.38464,-3.767752 0.0705,-0.731735 0.0613,-1.31065 0.14949,-1.513128 0.0569,-0.130711 0.58389,0.02043 1.12125,0.277678 0.33457,0.160168 0.67317,0.405131 0.90487,0.51543 0.1696,0.08074 0.33446,0.04871 0.33446,0.04871 0,0 0.55775,0.217824 1.03107,0.619334 0.19071,0.161768 0.2705,0.40843 0.43871,0.592406 0.27056,0.295909 0.61144,0.520183 0.8216,0.64758 0.66515,0.403194 1.02948,0.537025 1.82881,0.55537 0.79934,0.01834 2.07028,-0.867804 2.07028,-0.867804 0,0 3.06758,0.604022 4.51785,-0.239561 0.5852,-0.340396 1.03026,-0.94521 1.21802,-1.262637 0.27755,-0.469233 0.34921,-0.611516 0.45128,-1.596247 0.10207,-0.984731 -0.66798,-3.018934 0.0168,-2.954878 0.46208,0.06601 2.45316,0.292872 4.51889,0.391134 2.04255,0.09716 4.15745,0.06541 5.05097,0.18558 0.35395,0.0476 0.64973,0.488138 1.14848,0.615253 0.77865,0.198453 1.7782,0.08905 2.60974,0.283278 0.46002,0.107453 0.83604,0.340798 1.16899,0.394894 0.63706,0.103507 0.6661,-0.13616 1.12612,0.03954 0.46001,0.175697 0.67018,1.244558 2.08041,1.227272 1.41024,-0.01728 1.45278,-0.861734 1.73268,-1.897558 0.1116,-0.412976 -0.24164,-0.897687 -0.41524,-1.5371 -0.11902,-0.438383 -0.0873,-0.892032 -0.21151,-1.346574 -0.14901,-0.545363 -0.43473,-1.066975 -0.2981,-1.229309 0.11557,-0.13731 0.92509,0.161584 1.76366,0.277607 0.54975,0.07606 1.30015,0.119949 1.70202,-0.01137 0.31387,-0.102564 0.28166,-0.389869 0.65238,-0.340477 1.15958,0.154492 0.74362,-0.24225 1.44644,-0.194762 0.26604,0.01798 0.78494,0.452769 1.63397,1.011939 0.84902,0.559169 1.53851,1.031403 3.10981,1.868387 1.57129,0.836983 2.40281,1.294634 6.35055,1.970976 3.94775,0.676343 6.2115,-0.0836 6.16707,-0.594256 -0.0557,-0.640072 -1.4128,-0.657907 -2.7841,-0.986037 -1.16205,-0.278057 -2.07154,-0.711129 -2.07154,-0.711129 0,0 2.36929,0.03809 4.12437,-0.33428 1.16182,-0.246498 1.8148,-0.757104 1.81571,-1.170349 0.003,-1.218875 -5.05741,-0.727869 -8.29827,-1.905994 -3.24086,-1.178125 -4.16971,-1.567754 -4.20639,-1.729996 -0.0322,-0.142472 0.21208,-0.159722 0.48099,-0.321731 0.18636,-0.11228 0.35523,-0.35276 0.57322,-0.51036 0.18403,-0.133051 1.28433,0.116517 2.53135,-0.500002 0.87695,-0.433554 1.71072,-1.044046 2.58215,-1.423067 1.24869,-0.543109 0.8242,-0.675083 1.38757,-1.009083 0.19719,-0.116912 0.82416,-0.37585 1.43223,-0.827838 0.29295,-0.21776 0.44875,-0.499838 0.74089,-0.779701 0.30206,-0.289357 0.74078,-0.577642 1.06478,-0.870416 0.57039,-0.515425 0.96665,-1.046722 1.39022,-1.526948 0.61367,-0.695738 1.28028,-1.45759 1.78508,-2.260459 0.6303,-1.002474 1.06083,-2.068894 1.42711,-3.150404 0.18046,-0.532848 0.21587,-0.846077 0.29491,-1.303782 0.0564,-0.326762 0.24359,-0.684747 0.28431,-1.033558 0.0385,-0.329519 -0.0677,-0.65085 -0.0741,-0.929936 -0.007,-0.299278 0.10257,-0.608145 0.11456,-0.856802 0.0212,-0.438656 -0.0455,-0.633823 -0.14032,-1.1466 -0.0289,-0.15646 -0.0308,-0.505924 -0.0712,-0.693668 -0.11016,-0.511417 -0.31996,-0.98842 -0.45749,-1.42949 -0.0498,-0.159793 -0.0304,-0.411083 -0.0839,-0.564736 -0.0704,-0.202222 -0.21224,-0.304088 -0.25665,-0.49054 -0.0496,-0.208214 -0.0225,-0.404774 -0.0988,-0.585618 -0.13323,-0.315814 -0.419,-0.416884 -0.55336,-0.66316 -0.0813,-0.149074 -0.0474,-0.442661 -0.15229,-0.636273 -0.19713,-0.36395 -0.50824,-0.646682 -0.73154,-0.991954 -0.33261,-0.514301 -0.52903,-0.747987 -0.79599,-1.256954 -0.031,-0.05905 0.0427,-0.412568 -0.006,-0.643864 -0.0352,-0.168574 -0.29201,-0.310319 -0.42292,-0.56901 -0.10432,-0.206154 -0.0809,-0.516469 -0.14865,-0.756971 -0.0497,-0.17638 -0.13451,-0.493115 -0.12886,-0.678205 0.005,-0.167428 0.10209,-0.203317 0.0418,-0.362485 -0.11592,-0.30596 -0.47513,-0.366656 -0.53047,-0.701695 -0.0424,-0.256908 0.20213,-0.401448 0.23488,-0.639839 0.0274,-0.19917 -0.10001,-0.375518 -0.13374,-0.600749 -0.0279,-0.186399 0.0393,-0.421766 0.0343,-0.592729 -0.003,-0.112623 -0.0854,-0.378995 -0.0907,-0.556719 -0.007,-0.221665 0.17548,-0.474725 0.13743,-0.637546 -0.0659,-0.281837 -0.20861,-0.323452 -0.20049,-0.591224 0.006,-0.20773 0.18865,-0.343307 0.2143,-0.53224 0.0201,-0.147734 -0.10912,-0.356011 -0.0927,-0.490163 0.0179,-0.146325 0.19438,-0.262491 0.27584,-0.426814 0.0964,-0.194439 -0.0545,-0.352686 0.0334,-0.521293 0.12145,-0.232993 0.36654,-0.269899 0.46728,-0.446233 0.10075,-0.176335 -0.0566,-0.390729 0.0806,-0.544927 0.13721,-0.154199 0.53249,-0.106118 0.67625,-0.284602 0.12306,-0.152769 -0.10568,-0.470672 0.0225,-0.581581 0.12819,-0.110909 0.30872,0.01241 0.38293,-0.140426 0.0742,-0.152837 -0.12622,-0.40706 -0.0175,-0.632249 0.032,-0.06632 0.36611,0.0835 0.57628,-0.118917 0.1234,-0.118842 0.0176,-0.43662 0.14379,-0.595553 0.0691,-0.08701 0.30589,-0.05339 0.3831,-0.133278 0.0673,-0.06968 -5e-5,-0.264345 0.0579,-0.332845 0.0934,-0.110483 0.29127,-0.117665 0.37792,-0.184399 0.14462,-0.111374 0.15264,-0.290693 0.93307,-0.20725 0.51375,0.05493 0.77079,0.637801 1.15522,0.830707 0.25375,0.127333 0.63167,-0.02307 0.80694,-0.240823 0.4408,-0.547645 -0.40013,-1.454239 -0.94005,-2.133156 -0.1851,-0.232745 -0.12413,-0.73669 -0.20499,-1.724624 -0.0267,-0.326103 -0.0845,-0.925221 0.12363,-1.588175 0.35415,-1.127806 1.70182,-0.60184 1.12952,-1.303053 -0.57229,-0.701212 -2.24095,-0.367014 -4.73246,1.258975 -2.4915,1.625988 -5.85071,4.722172 -7.42364,7.173758 -1.57294,2.451586 -2.39923,4.191712 -2.55814,6.854782 -0.0833,1.395963 0.83234,4.935323 1.68562,7.591068 0.85328,2.655745 0.83777,2.376585 1.03696,4.113644 0.0314,0.274112 -0.15001,0.552973 -0.20321,0.823261 -0.0895,0.454718 -0.12398,0.88517 -0.41777,1.227916 -0.3757,0.438313 -0.79666,0.917902 -1.2374,1.154371 -0.30796,0.165224 -0.66472,0.133484 -0.85649,0.217984 -0.2314,0.101965 -0.59727,0.308731 -1.04534,0.333624 -0.23482,0.01305 -0.50977,-0.06796 -0.77803,0.0054 -0.27109,0.07417 -0.53536,0.302134 -0.74452,0.194445 -0.5686,-0.292757 -0.25284,-0.57078 -0.58924,-0.745047 z"
       id="path831"
       inkscape:connector-curvature="0"
       sodipodi:nodetypes="csssssssssssssssssssssssszccsssszzzzssssszssczsczzsssssssssssssssssssssssszszzsssszszsssszsssszssszzzzszzsssssssssssssssssssscssssssscsssssszcsszszszsssssssssssssssssszszssssscssszcsszcssssszzsssssssszzzsscsszsssssssssssssssssssssssssssssssssssssssssszzszzsssssssssssszzzszsssssssszc" />
  </g>
</svg>
