<?xml version="1.0" encoding="UTF-8" standalone="no"?>
<!-- Created with Inkscape (http://www.inkscape.org/) -->

<svg
   xmlns:dc="http://purl.org/dc/elements/1.1/"
   xmlns:cc="http://creativecommons.org/ns#"
   xmlns:rdf="http://www.w3.org/1999/02/22-rdf-syntax-ns#"
   xmlns:svg="http://www.w3.org/2000/svg"
   xmlns="http://www.w3.org/2000/svg"
   xmlns:sodipodi="http://sodipodi.sourceforge.net/DTD/sodipodi-0.dtd"
   xmlns:inkscape="http://www.inkscape.org/namespaces/inkscape"
   width="199mm"
   height="170mm"
   viewBox="0 0 199 170"
   version="1.1"
   id="svg8"
   inkscape:version="0.92.4 (5da689c313, 2019-01-14)"
   sodipodi:docname="andean_condor-terrestrial.svg">
  <defs
     id="defs2" />
  <sodipodi:namedview
     id="base"
     pagecolor="#ffffff"
     bordercolor="#666666"
     borderopacity="1.0"
     inkscape:pageopacity="0.0"
     inkscape:pageshadow="2"
     inkscape:zoom="1.32"
     inkscape:cx="84.170452"
     inkscape:cy="336.74677"
     inkscape:document-units="mm"
     inkscape:current-layer="layer2"
     showgrid="false"
     inkscape:window-width="1920"
     inkscape:window-height="1009"
     inkscape:window-x="-8"
     inkscape:window-y="-8"
     inkscape:window-maximized="1" />
  <metadata
     id="metadata5">
    <rdf:RDF>
      <cc:Work
         rdf:about="">
        <dc:format>image/svg+xml</dc:format>
        <dc:type
           rdf:resource="http://purl.org/dc/dcmitype/StillImage" />
        <dc:title></dc:title>
      </cc:Work>
    </rdf:RDF>
  </metadata>
  <g
     inkscape:groupmode="layer"
     id="layer2"
     inkscape:label="Layer 2"
     transform="translate(0,-15)"
     style="display:inline">
    <path
       style="opacity:0.8;fill:#10b406;fill-opacity:1;stroke:none;stroke-width:0.15000001;stroke-linecap:butt;stroke-linejoin:miter;stroke-miterlimit:4;stroke-dasharray:none;stroke-opacity:1"
       d="m 84.488046,100.9554 c 1.57863,-0.38624 2.93819,-0.22847 5.70971,-0.95474 2.77151,-0.726275 5.30952,-1.835493 6.63372,-2.975117 2.91858,-2.511755 13.632974,-13.689176 18.239834,-19.569737 4.60685,-5.880561 4.25644,-7.060132 8.83223,-12.789215 4.5758,-5.729083 12.20558,-13.086523 17.20603,-18.829242 5.00046,-5.742718 7.30251,-9.375815 12.69262,-15.675802 2.64015,-3.085813 5.29437,-5.359017 5.48924,-5.575928 0.59273,-0.659757 4.31388,-3.617543 4.31388,-3.617543 0,0 -1.0409,3.549004 -1.34505,4.127958 -0.30416,0.578954 -12.28992,15.675211 -12.28992,15.675211 0,0 0.76224,-0.382151 3.94828,-3.111261 3.18604,-2.72911 10.4437,-9.20666 12.75874,-11.10933 3.5332,-2.903852 2.76315,-2.309629 4.30915,-3.418852 1.546,-1.109222 5.11809,-3.416811 5.11809,-3.416811 0,0 -0.9815,2.548923 -2.43482,4.893227 -0.84407,1.361553 -5.63366,5.633329 -9.36501,9.09213 -2.69325,2.496517 -4.75749,4.636082 -4.75749,4.636082 0,0 4.47934,-2.565934 6.53265,-3.411633 1.21026,-0.49847 3.13496,-1.212173 4.18762,-1.504766 1.05266,-0.292592 1.50029,-0.255418 1.50029,-0.255418 0,0 -1.20194,1.290249 -2.72696,2.573147 -1.52502,1.282899 -6.57182,4.91736 -6.57182,4.91736 0,0 11.823,-6.120869 16.15698,-7.843282 4.33398,-1.722412 8.12139,-2.383229 8.12139,-2.383229 0,0 -2.99294,2.449346 -5.72571,4.29548 -2.73277,1.846133 -4.92544,2.967441 -6.82262,4.095122 -4.85962,2.88856 -16.66946,8.74621 -16.66946,8.74621 0,0 5.56185,-2.003043 11.38758,-4.237659 3.65544,-1.402143 8.40335,-3.485976 10.63116,-4.217175 5.7783,-1.89652 12.23072,-3.441226 12.23072,-3.441226 0,0 -0.96402,1.313941 -2.89748,3.107127 -0.84313,0.781963 -2.07188,1.112329 -3.61205,1.722435 -1.99172,0.78898 -4.21062,1.719843 -6.90569,2.893664 -4.77914,2.081516 -17.51803,7.117923 -17.51803,7.117923 0,0 3.39435,-0.561454 7.30793,-1.401966 3.04325,-0.653595 6.40046,-1.558361 8.71971,-1.968387 5.30177,-0.937313 15.76383,-2.264975 15.76383,-2.264975 0,0 -2.52417,2.351877 -3.73366,2.759885 -1.2095,0.408008 -13.62146,3.066546 -17.43263,4.208716 -3.81117,1.142171 -6.17258,2.144547 -6.17258,2.144547 0,0 11.74014,-1.742734 16.35894,-2.07649 4.61881,-0.333755 11.51295,-0.451425 11.51295,-0.451425 0,0 -0.43361,1.007229 -4.24295,2.458836 -3.80933,1.451607 -19.15402,3.941331 -19.15402,3.941331 0,0 10.30455,0.278654 13.79152,0.605227 3.48696,0.326573 3.53092,0.925596 3.53092,0.925596 0,0 -2.0558,1.244974 -3.31621,1.786099 -1.26041,0.541126 -2.19609,0.771557 -3.91907,1.144828 -1.72298,0.37327 -3.71059,0.755269 -3.71059,0.755269 0,0 0.31319,0.336614 -0.903,1.808841 -1.21619,1.472228 -3.2703,0.99752 -3.2703,0.99752 0,0 0.9598,1.516027 0.55661,2.249754 -0.40319,0.733726 -1.78582,0.881395 -1.78582,0.881395 0,0 -0.0843,2.218004 -0.51013,3.200085 -0.42584,0.982082 -1.21836,1.05985 -1.85546,2.504176 -0.6371,1.444327 0.0544,2.438387 -0.20823,3.476828 -0.26267,1.03844 -1.12343,1.140584 -1.4842,2.158359 -0.36077,1.017774 -0.0611,1.357424 -0.53468,2.073988 -0.19971,0.302181 -0.83469,-0.105234 -0.98485,0.299482 -0.31265,0.842627 0.0801,2.053599 -0.3276,2.65227 -0.40773,0.598671 -0.81966,0.747743 -0.81966,0.747743 0,0 -0.16018,2.293592 -0.88125,2.922774 -0.72107,0.629181 -4.01055,-0.255845 -4.01055,-0.255845 0,0 1.27371,2.31498 0.57878,3.432051 -0.69492,1.117071 -1.06735,0.642183 -1.41272,1.172535 -0.34537,0.530352 -0.12204,1.458256 -0.53527,1.886975 -0.41323,0.428719 -1.1722,-0.420211 -1.53287,0.496435 -0.25195,0.640332 -0.12898,1.485671 -0.31172,1.735034 -0.50159,0.684445 -0.50199,0.270727 -0.68276,0.598631 -0.18078,0.327903 0.0637,0.690254 -0.20894,1.322164 -0.27264,0.631914 -0.84408,1.189954 -1.43585,1.935294 -0.26636,0.3355 -0.53763,0.34104 -0.69707,0.59235 -0.51364,0.80963 -0.52862,1.88508 -1.16041,2.36561 -0.63179,0.48052 -1.36078,0.036 -1.87735,0.53287 -0.51657,0.49684 -1.08221,2.78756 -1.69065,3.44861 -0.60844,0.66105 -0.83524,0.46371 -1.18465,0.81824 -0.34942,0.35453 -0.26632,0.59824 -0.86055,1.28544 -0.52698,0.60941 -1.36132,1.28879 -1.75947,1.68298 -0.84714,0.83869 -1.22603,1.88526 -2.088,2.17996 -0.86198,0.2947 -1.44763,0.17585 -2.01708,0.3471 -0.56945,0.17125 -0.51637,0.54666 -0.968,1.2069 -0.45164,0.66024 -0.84217,1.28563 -1.09484,1.55256 -0.64111,0.67729 -0.49124,0.5819 -1.76236,1.11407 -1.27112,0.53216 -3.49523,1.34886 -4.79913,1.48349 -1.30391,0.13464 -0.85893,0.18375 -1.97273,0.39443 -1.1138,0.21068 -0.69665,0.65274 -1.04899,1.18767 -0.31552,0.47903 -0.78181,0.97047 -0.71323,1.20024 0.10702,0.35857 7.03726,1.07167 14.35552,1.67599 4.28444,0.35381 8.57333,0.32049 11.7949,0.57535 2.72268,0.21539 4.49767,0.64656 4.62122,0.94846 0.51943,1.26928 -0.96351,1.4822 -1.71546,2.20271 -0.75195,0.72051 -0.31821,1.07046 0.2304,1.62349 0.54862,0.55304 1.57583,0.88315 1.55413,2.04081 -0.0217,1.15766 -1.94785,2.11018 -1.94785,2.11018 0,0 0.31583,0.96364 0,1.78553 -0.31582,0.82189 -1.11685,2.07446 -2.342,2.59742 -1.22514,0.52297 -4.19888,-0.11626 -4.19888,-0.11626 0,0 2.29973,1.04273 2.66963,2.50445 0.3699,1.46172 -1.06974,1.90412 -1.67069,2.55123 -0.60095,0.64711 -1.31264,1.17782 -1.76222,1.69215 -0.26969,0.30853 -0.034,1.36602 -0.05,2.52361 -0.0107,0.77218 -0.20799,1.406 -0.52991,1.6966 -0.80454,0.72623 -1.36826,-0.28876 -2.04024,0.2095 -0.67198,0.49826 -0.5579,2.0537 -1.21958,2.41556 -0.66168,0.36187 -1.80951,-0.18585 -1.80951,-0.18585 0,0 -0.20414,0.46974 -0.65626,0.73785 -0.45211,0.2681 -1.99561,0.20879 -1.99561,0.20879 0,0 -1.15912,1.81233 -3.3155,2.64334 -2.15637,0.83101 -3.94698,-0.32689 -4.52324,0.0236 -0.36805,0.22385 -0.38495,1.11988 -0.9506,1.9581 -0.31998,0.47418 -1.06763,0.96136 -1.53027,1.21995 -0.55578,0.31066 -1.64074,0.69785 -2.58726,0.88497 -1.47672,0.29192 -2.81581,0.2962 -2.81581,0.2962 0,0 -0.76404,1.05966 -1.34548,1.34561 -0.58143,0.28596 -1.3567,-0.13944 -1.87407,-0.0165 -0.51738,0.12295 -0.66228,0.72637 -1.14038,1.08252 -0.4781,0.35616 -1.27829,0.79812 -2.06227,0.71936 -0.78399,-0.0788 -2.17894,-1.33165 -2.45969,-1.76265 -0.0947,-0.14533 -0.71506,-2.65303 -1.58803,-5.94417 -0.54387,-2.05043 -1.25845,-4.25928 -1.8543,-6.51007 -1.28416,-4.85087 -2.35461,-9.38988 -2.35461,-9.38988 0,0 -0.57225,0.73412 -0.83611,0.93434 -0.26385,0.20021 -0.42138,-0.0806 -0.8309,0.0831 -0.26575,0.10626 -0.1888,0.67263 -0.36682,1.01143 -0.0963,0.18329 -0.43113,0.16888 -0.56233,0.27726 -0.18443,0.15233 -0.31151,0.39859 -0.55202,0.5151 -0.24688,0.11958 -0.60706,0.10991 -0.78301,0.30779 -0.35008,0.39373 -0.18118,1.12424 -0.66629,1.43328 -0.48512,0.30904 -1.44935,-0.14964 -1.98058,0.26286 -0.53123,0.4125 -0.17226,0.98291 -0.63755,1.4181 -0.46529,0.4352 -1.77856,0.11256 -2.23143,0.43863 -0.45286,0.32607 0.0613,0.6833 -0.50812,0.96033 -0.56945,0.27702 -1.935925,0.23401 -2.851384,0.45378 -0.91546,0.21977 -1.67489,0.80863 -2.24744,1.2056 -0.57255,0.39697 -0.67487,0.6572 -1.06575,0.8133 -0.39087,0.1561 -0.94511,-0.30682 -1.51878,-0.0871 -0.57367,0.21974 -0.60695,0.80003 -1.05859,0.96432 -0.45164,0.1643 -0.74304,-0.30352 -1.21917,-0.10626 -0.47613,0.19727 -0.34515,1.02205 -0.83648,1.26552 -0.49134,0.24348 -1.15478,-0.0699 -1.82557,0.19493 -0.67079,0.26481 -0.91377,1.36448 -1.53953,1.63063 -0.62576,0.26614 -1.48045,0.19893 -1.48045,0.19893 0,0 -0.51063,0.81789 -0.98108,1.01225 -0.47046,0.19436 -1.11793,-0.24779 -1.64421,-0.0288 -0.52629,0.21905 -0.39878,0.69844 -0.90758,0.80931 -0.50879,0.11087 -0.90725,-0.65744 -1.67779,0.004 -0.77055,0.66144 -0.11984,0.86053 -0.72223,1.23435 -0.60239,0.37382 -1.96043,0.42248 -3.0679,0.64155 -1.10748,0.21908 -2.51776,-0.0236 -3.26958,0.51559 -0.75182,0.53915 0.33372,0.85983 -1.00885,1.19832 -1.34256,0.33849 -4.51168,0.0911 -5.74962,0.63366 -1.23793,0.54256 -0.59954,0.5715 -1.12073,0.71949 -0.52119,0.14799 -1.84592,-0.0455 -1.84592,-0.0455 0,0 -1.30801,0.0812 -1.94909,0.22337 -0.64108,0.14217 -1.26381,0.50675 -1.87621,0.6267 -0.6124,0.11995 -1.19645,-0.0486 -2.07795,0.26372 -0.66511,0.23563 -0.9772,0.8157 -1.44024,0.99356 -1.07673,0.4136 -2.75972,1.44862 -2.75972,1.44862 0,0 -0.29743,4.42037 -1.75827,6.98228 -1.46084,2.5619 -3.07282,3.0381 -3.07282,3.0381 0,0 -0.64844,-1.38466 -1.02466,-3.07507 -0.37622,-1.69041 -0.82986,-7.10101 -0.82986,-7.10101 0,0 -0.11155,7.24742 -1.16884,9.98828 -1.05729,2.74086 -4.39736,6.16167 -4.39736,6.16167 0,0 -0.81374,-2.68661 -1.09111,-5.70159 -0.27737,-3.01497 0.0693,-12.36101 0.0693,-12.36101 0,0 -3.05472,12.64969 -3.8253,14.23862 -0.77058,1.58893 -4.85448,5.14853 -4.85448,5.14853 0,0 -0.93141,-2.08943 -0.45844,-6.52989 0.47297,-4.44046 4.14408,-19.23276 4.14408,-19.23276 0,0 -5.70024,15.85888 -6.94151,17.6736 -1.24127,1.81472 -4.88525,4.35265 -4.88525,4.35265 0,0 -1.16526,-2.47253 -0.28669,-6.61879 0.87857,-4.14626 6.90679,-16.15127 6.90679,-16.15127 0,0 -7.04745,12.24044 -8.31287,13.52689 -1.26542,1.28646 -5.07568,3.69432 -5.07568,3.69432 0,0 -0.42321,-1.83749 0.79325,-5.72321 1.21647,-3.88573 8.98252,-15.74834 8.98252,-15.74834 0,0 -6.47376,6.86365 -9.457,8.9257 -2.98324,2.06205 -7.8717899,3.83267 -7.8717899,3.83267 0,0 -0.0549,-1.79954 2.7011599,-5.09567 2.7561,-3.29613 9.96093,-9.01934 9.96093,-9.01934 l -12.1555299,6.98833 c 0,0 1.2359699,-2.67148 2.6664599,-4.51361 1.43049,-1.84212 7.24161,-5.13117 7.24161,-5.13117 0,0 -2.87444,0.74647 -6.3755,1.1762 -3.5010599,0.42974 -7.2108499,-0.50656 -7.2108499,-0.50656 0,0 9.5071099,-1.61018 13.2012899,-3.05072 2.58671,-1.00868 3.83829,-1.63861 6.54162,-3.21059 1.15743,-0.67304 2.52749,-1.73271 4.47016,-2.71762 6.48009,-3.28531 9.83896,-5.63207 12.65859,-6.91774 7.32963,-3.3421 9.48668,-3.81738 14.76844,-6.2674 5.28176,-2.45002 17.31422,-9.1327 17.31422,-9.1327 0,0 -1.80687,-0.22439 -2.32164,-0.75249 -0.51477,-0.5281 -0.0607,-1.29382 -0.56338,-1.90266 -0.50265,-0.60885 -1.22341,-0.65744 -2.15857,-1.04719 -0.93517,-0.38976 -2.20548,-0.38415 -2.93316,-0.84205 -0.72768,-0.45791 -0.94478,-0.96697 -1.46693,-1.15067 -0.52215,-0.1837 -1.13706,-0.10152 -1.39856,0.0451 -0.26151,0.14661 -0.5394,0.45338 -0.97948,0.58906 -0.44008,0.13567 -1.50028,0.11999 -1.50028,0.11999 l -0.1331,1.03554 c 0,0 -0.91844,-0.80653 -0.99561,-1.23581 -0.0772,-0.42928 -0.0983,-1.6005 0.13266,-2.00412 0.23093,-0.40362 1.15575,-1.46208 1.15575,-1.46208 0,0 1.01549,-3.20411 2.12748,-4.48586 0.67357,-0.7764 1.27772,-1.17904 1.99163,-1.59858 0.7139,-0.41954 1.58442,-1.062413 2.65744,-1.470193 1.07302,-0.407787 2.46848,-0.101086 3.13124,0.165463 0.32382,0.130232 0.40215,0.8495 0.35441,1.18784 -0.0478,0.33833 -0.14715,0.7292 -0.14715,0.7292 0,0 1.24459,0.30453 2.68031,0.23312 1.43573,-0.0714 4.87009,-1.43745 5.57423,-1.11138 0.70413,0.32607 1.42213,1.60993 1.42213,1.60993 0,0 1.82934,-0.77291 3.40796,-1.15916 z"
       id="path827"
       inkscape:connector-curvature="0"
       sodipodi:nodetypes="czszzzssczczszcsscszczczczscsscssscssczzczczczczzczczczzzzsszczczzzsszzsszzzzsszzzszzzssssszzzczzczzssszzczczssssczzzzsssczssssszzzzzzzzzzzzzzczzzzzzzzzzczzssczczczczczczczczczczczczcczczcsssszczzzzzzzcczzcszzszczzczc" />
  </g>
</svg>
