<?xml version="1.0" encoding="UTF-8" standalone="no"?>
<!-- Created with Inkscape (http://www.inkscape.org/) -->

<svg
   xmlns:dc="http://purl.org/dc/elements/1.1/"
   xmlns:cc="http://creativecommons.org/ns#"
   xmlns:rdf="http://www.w3.org/1999/02/22-rdf-syntax-ns#"
   xmlns:svg="http://www.w3.org/2000/svg"
   xmlns="http://www.w3.org/2000/svg"
   xmlns:sodipodi="http://sodipodi.sourceforge.net/DTD/sodipodi-0.dtd"
   xmlns:inkscape="http://www.inkscape.org/namespaces/inkscape"
   width="190mm"
   height="109mm"
   viewBox="0 0 190 109"
   version="1.1"
   id="svg8"
   inkscape:version="0.92.4 (5da689c313, 2019-01-14)"
   sodipodi:docname="tiger-terrestrial.svg">
  <defs
     id="defs2" />
  <sodipodi:namedview
     id="base"
     pagecolor="#ffffff"
     bordercolor="#666666"
     borderopacity="1.0"
     inkscape:pageopacity="0.0"
     inkscape:pageshadow="2"
     inkscape:zoom="1.0076756"
     inkscape:cx="88.135068"
     inkscape:cy="203.2467"
     inkscape:document-units="mm"
     inkscape:current-layer="layer2"
     showgrid="false"
     inkscape:window-width="1920"
     inkscape:window-height="1009"
     inkscape:window-x="-8"
     inkscape:window-y="-8"
     inkscape:window-maximized="1" />
  <metadata
     id="metadata5">
    <rdf:RDF>
      <cc:Work
         rdf:about="">
        <dc:format>image/svg+xml</dc:format>
        <dc:type
           rdf:resource="http://purl.org/dc/dcmitype/StillImage" />
        <dc:title></dc:title>
      </cc:Work>
    </rdf:RDF>
  </metadata>
  <g
     inkscape:groupmode="layer"
     id="layer2"
     inkscape:label="Layer 2"
     style="display:inline"
     transform="translate(0,-17)">
    <path
       style="opacity:0.8;fill:#4e8600;fill-opacity:1;stroke:none;stroke-width:0.15000001;stroke-linecap:butt;stroke-linejoin:miter;stroke-miterlimit:4;stroke-dasharray:none;stroke-opacity:1"
       d="m 137.99734,34.218766 c -1.53234,-0.21427 -1.92702,-0.64874 -5.10759,-0.82467 -5.50173,-0.22887 -13.00496,0.84949 -16.11643,1.01604 -1.05659,0.0546 -3.51016,0.20623 -4.38912,0.24862 -0.87897,0.0424 -0.81849,-0.23767 -3.45655,-0.19807 -0.65473,0.01 -1.773,0.20731 -3.08438,0.21882 -0.76748,0.007 -1.6011,-0.28593 -2.44666,-0.29057 -3.531127,-0.0194 -4.606107,0.13477 -7.270527,0.17561 -2.66441,0.0408 -7.434721,0.55242 -7.434721,0.55242 0,0 -4.24606,-0.11933 -6.05241,-0.20656 -1.80635,-0.0872 -2.04262,-0.45647 -2.95282,-0.5851 -0.9102,-0.12863 -1.7411,0.0546 -2.3144,-0.18639 -0.5733,-0.24099 -0.5087,-0.4055 -0.98418,-0.4789 -0.47549,-0.0734 -1.53161,-0.004 -2.26114,-0.18601 -0.72954,-0.18185 -0.8825,-0.53126 -1.51651,-0.66529 -0.63401,-0.13403 -1.88422,-0.0566 -2.76617,-0.31901 -0.39997,-0.11902 -0.83904,-0.48894 -1.35877,-0.76639 -0.51974,-0.27744 -0.91966,0.0102 -1.93977,-0.7765 -1.02011,-0.78671 -2.13949,-1.81585 -3.72471,-2.52731 -0.89255,-0.40058 -2.826,-0.65756 -3.9502,-1.03803 -0.87245,-0.29527 -1.03538,-0.61532 -1.71591,-0.90364 -0.68052,-0.28832 -2.42073,-0.42588 -2.42073,-0.42588 0,0 -0.66004,0.0456 -1.11738,-0.0797 -0.45733,-0.12533 -0.34199,-0.36766 -1.14393,-0.585391 -0.80194,-0.217739 -2.25932,0.0371 -3.21881,-0.132699 -0.95949,-0.16978 -1.50927,-0.667791 -2.23452,-0.79829 -0.72525,-0.1305 -1.56001,0.17474 -2.04836,-0.0265 -0.48836,-0.20125 -0.35181,-0.567091 -0.99838,-0.962121 -0.27724,-0.16938 -0.87744,-0.0232 -1.60294,-0.009 -0.7255,0.0138 -1.17928,-0.113149 -2.55892,-0.172439 -1.37964,-0.0593 -3.67843,0.105739 -5.64001,-0.505321 -0.46562,-0.14505 -0.86261,-0.21015 -0.94652,-0.47923 -0.0839,-0.26908 -0.10778,-0.54279 -0.46372,-0.70922 -0.35594,-0.16643 -1.10122,-0.0504 -1.62955,-0.11604 -0.80154,-0.0995 -1.22189,-0.51886 -1.96747,-0.55129 -0.37642,-0.0164 -0.77965,0.36601 -1.26166,0.53476 -0.48201,0.16875 -0.95414,0.0255 -1.39224,0.23014 -0.4381,0.20463 -0.31202,0.50381 -1.2599,0.81208 -0.67074,0.218131 -1.50557,0.0972 -2.2723,0.33341 -0.72607,0.2237 -1.29748,0.62124 -1.90024,0.665731 -2.13879,0.157859 -6.27655,-1.526741 -6.79218,-0.889151 -0.62759,0.77605 1.60407,2.20178 1.56785,3.306011 -0.0206,0.62851 -0.48836,1.148599 -0.73304,1.5079 -0.24468,0.35931 -0.22013,0.567949 -0.53672,0.92496 -0.73487,0.82869 -2.31798,1.66671 -3.10744,2.71031 -0.78947,1.0436 -1.5891095,2.69271 -1.9293395,3.66037 -0.17309,0.49231 -0.38056,1.38172 -0.42829,1.98954 -0.0477,0.60783 0.0553,1.20566 -0.35358,2.1666 -0.18495,0.43472 -1.28393,1.68798 -2.27824,3.70586 -0.99432,2.01788 -1.79948,3.12763 -1.99456,3.73578 -0.27347,0.85254 -0.38583,2.16794 -0.0311,2.925011 0.2186,0.466569 1.1371,1.018 1.64204,1.3217 0.50494,0.30371 0.64495,0.36409 0.83509,0.610388 0.49555,0.641901 0.46422,0.873371 0.814,1.229871 0.34978,0.356499 0.85257,0.49549 1.12084,0.950539 0.0713,0.121021 -0.22924,0.590521 -0.12941,1.184431 0.0998,0.593911 0.16849,0.966449 0.55504,1.624669 0.38655,0.658223 1.1800195,1.440461 1.9897895,1.706211 0.80977,0.265739 3.47178,-0.10337 4.84141,-0.40426 1.03729,-0.22788 1.27415,-1.217581 2.08657,-1.75981 0.81243,-0.542221 2.67084,-2.343581 3.89018,-2.245079 1.21934,0.0985 1.7724,0.02439 2.58924,0.70377 0.4568,0.37991 0.59019,1.17007 0.96074,1.624439 0.37055,0.454371 0.68248,1.199621 1.30912,1.2545 0.64538,0.0565 0.81655,-0.45331 1.74615,-0.370059 0.3601,0.0323 0.47347,0.16832 0.93709,0.356658 0.24969,0.101442 0.55167,0.097 1.03143,-0.116819 0.41961,-0.187031 1.0215,-0.0553 1.23216,-0.0671 1.0531,-0.0591 1.27704,-0.0387 2.317,-0.0377 0.43248,5.29e-4 0.66002,0.436562 1.12784,0.58647 0.60062,0.192482 1.42703,0.125992 1.78461,0.318691 2.55036,1.374391 1.8122,3.12149 3.17477,4.75688 1.36257,1.63539 3.68127,3.366241 4.74557,5.025469 1.0643,1.659232 1.1214,3.00904 1.97898,4.26711 0.85758,1.25807 3.01472,2.711651 4.33788,6.958492 0.38585,1.23843 0.46301,1.912681 0.66995,4.29819 0.20694,2.38551 0.54341,6.81163 0.89983,9.840299 0.50313,4.275442 1.22161,9.808843 1.08696,11.109073 -0.0697,0.67265 -0.27789,1.52758 -0.73797,1.98611 -0.46008,0.45853 -2.49636,0.13743 -3.70337,0.635 -1.207,0.49756 -2.3021,1.37859 -2.40788,2.36281 -0.10578,0.98422 0.59977,1.98902 1.03349,2.64394 0.43371,0.65491 0.92524,0.82848 1.65847,1.19707 0.73323,0.36859 1.50513,0.59701 2.83187,0.62381 1.32675,0.0268 3.949,-0.30386 3.949,-0.30386 0,0 -0.95149,0.70725 -0.80934,2.84162 0.14215,2.13438 1.29414,2.1778 2.28516,2.94222 0.99103,0.76443 4.08657,0.99943 5.83553,1.26604 1.74896,0.26662 3.60852,-0.64848 5.04878,-1.35237 1.44026,-0.70389 1.97865,-1.84978 2.36772,-2.58028 0.38907,-0.7305 0.18261,-3.97169 0.39917,-4.65592 0.21655,-0.68422 0.51358,-1.60378 0.95753,-1.78229 0.44395,-0.17851 0.45939,0.23555 0.74482,0.10641 0.28542,-0.12914 0.65348,-0.14999 0.71825,-0.66508 0.0852,-0.6777 -0.8026,-3.91251 -0.87789,-8.00646 -0.027,-1.469303 0.1071,-3.815192 0.41499,-6.344402 0.18356,-1.507871 0.43543,-2.40239 0.67349,-4.5461 0.23805,-2.14371 0.33896,-5.30669 0.5341,-5.47035 0.19514,-0.163661 1.18338,0.25193 1.85489,0.257169 0.6715,0.005 1.03678,-0.582059 1.41096,-0.618609 0.37417,-0.0366 0.49926,0.53213 0.84767,0.600049 0.34841,0.0679 0.61193,-0.566169 0.99407,-0.610878 0.38215,-0.0447 0.74099,0.450649 1.08447,0.357079 0.34347,-0.0936 0.39022,-0.720371 0.39022,-0.720371 0,0 0.77818,-0.250769 1.36827,-0.168449 0.59008,0.0823 1.42479,0.6814 2.17269,0.659241 0.7479,-0.0222 0.79502,-0.37792 1.9545,-0.344001 0.36728,0.01069 1.06997,0.399921 1.7402,0.44087 0.67023,0.041 1.29768,-0.306231 1.727337,-0.19113 1.007584,0.269928 0.0995,0.458359 0.894967,0.84449 0.112547,0.0546 0.724797,-0.005 1.151107,0.0945 0.4263,0.0997 0.62664,0.36195 1.20116,0.39166 0.64779,0.0335 1.30436,-0.424262 2.07449,-0.41248 0.75254,0.01151 1.49514,0.488497 2.2368,0.520358 0.78521,0.0337 1.42911,0.0322 2.178697,0.135811 0.44387,0.0614 1.87191,-0.0222 3.11252,-0.316032 0.85446,-0.202387 1.4612,-0.59527 2.23908,-0.741939 1.00685,-0.189838 1.78119,0.186539 3.12324,-0.298479 1.34205,-0.485021 3.07268,-1.575501 4.08105,-2.08371 0.63707,-0.32108 0.97756,-0.503801 1.39291,-0.74712 0.98443,-0.57672 0.34076,0.737039 1.5207,0.346509 0.69676,-0.230608 0.78424,-0.41329 1.74263,-0.75188 1.80504,-0.637709 3.0951,-0.46459 4.72518,-0.963969 1.63009,-0.49938 1.64395,-1.773481 2.79166,-1.823681 1.14772,-0.0502 1.41941,0.220732 2.28782,1.835261 0.86842,1.614959 2.36578,5.186868 3.27229,6.863768 0.90651,1.6769 1.22599,1.887842 1.99165,3.275571 0.76565,1.387732 1.67054,3.37217 2.53051,5.92835 0.85998,2.556181 2.04239,6.602634 1.80906,8.114164 -0.23334,1.51153 -2.38796,4.7617 -4.04352,5.37333 -1.65557,0.61164 -3.14976,-0.1302 -4.62883,0.1593 -1.47907,0.28951 -2.99791,0.65384 -3.83083,1.48975 -0.83292,0.8359 -1.02343,1.833 -0.90449,2.89946 0.11896,1.06647 0.83287,1.86812 1.75554,2.55377 0.92267,0.68566 3.93732,1.30361 3.93732,1.30361 0,0 -0.27356,1.06029 -0.0532,1.83548 0.22034,0.77518 0.81138,1.35457 2.10143,2.1549 0.3861,0.23952 0.74544,0.30125 1.8446,0.50646 1.09917,0.20523 3.37147,0.55219 4.96522,0.58429 0.68248,0.0137 0.9571,-0.19522 2.07583,-0.26507 0.83913,-0.0524 1.47491,0.14019 2.87239,-0.20888 0.46566,-0.11633 1.22572,-1.51007 1.67579,-1.76003 0.1665,-0.0925 0.28852,-0.40505 0.49783,-0.58138 0.17727,-0.14934 0.44721,-0.15583 0.54792,-0.31593 0.14478,-0.23015 -0.0856,-0.28497 0.0751,-0.49996 0.1953,-0.26141 0.36256,-0.37846 0.62564,-0.64677 0.24957,-0.25453 0.64653,-0.55211 0.89446,-0.86492 0.79323,-1.00078 1.54395,-1.55142 2.22489,-2.16448 0.68092,-0.61306 1.26358,-1.25521 1.57219,-1.76396 0.58543,-0.96506 5.86914,-10.35643 5.71941,-11.70479 -0.0667,-0.60084 -0.35143,-1.51505 -1.49408,-3.331973 -1.14264,-1.81691 -2.23269,-3.782081 -2.65551,-6.270151 -0.30722,-1.807859 -0.13487,-3.224869 -0.13869,-5.383919 -0.002,-0.84473 -0.54123,-1.880309 -0.55877,-2.898072 -0.0175,-1.017759 0.36495,-0.917879 0.48427,-1.85452 0.0193,-0.151519 -0.24553,-1.039368 0.0102,-1.930998 0.0632,-0.22031 -0.0396,-0.564419 0.16213,-0.817419 0.22352,-0.280271 0.75441,-0.472911 0.85216,-0.787702 0.0478,-0.153868 -0.7277,-0.63061 -0.6779,-0.791678 0.048,-0.155192 0.94844,0.006 0.99941,-0.154951 0.0401,-0.12633 -1.11605,-0.414009 -1.07517,-0.543779 0.0726,-0.23046 0.8931,-0.14673 0.97196,-0.386192 0.11846,-0.35969 -0.0854,-0.958619 -0.077,-1.42931 0.006,-0.306729 0.46531,-0.556678 0.5233,-0.817989 0.0585,-0.26384 -0.28428,-0.53875 -0.18301,-0.786961 0.0488,-0.11962 0.25212,-0.16411 0.28573,-0.297018 0.0437,-0.172882 0.22541,-0.68725 0.27913,-0.85099 0.086,-0.26212 -0.17253,-0.496361 -0.0846,-0.755251 0.1845,-0.54325 0.93579,-0.972031 1.13238,-1.493171 0.12063,-0.319791 -0.18673,-0.688228 -0.0716,-0.997471 0.23204,-0.623128 0.51975,-1.273228 0.74797,-1.832459 0.56803,-1.391938 0.77849,-2.128009 1.09738,-2.691969 0.12986,-0.22965 0.41079,-0.342032 0.53361,-0.5969 0.11222,-0.232859 -0.17008,-0.619529 0.0273,-0.92506 0.30448,-0.471281 1.17525,-0.625602 1.58728,-0.98875 0.41202,-0.363151 -0.12919,-0.718572 0.47259,-1.112131 0.33939,-0.221959 0.84697,-0.33577 1.13115,-0.5968 0.76922,-0.70657 1.01209,-1.292579 1.01209,-1.292579 0,0 0.14983,-0.48654 0.53657,2.262618 0.0563,0.400453 -0.18649,0.962742 -0.12283,1.645312 0.0576,0.617889 0.43741,1.143468 0.49945,1.915419 0.0347,0.431559 -0.11774,1.04357 -0.0851,1.510739 0.0932,1.33173 0.58845,2.506972 0.68065,3.91877 0.0545,0.834692 0.045,1.631493 0.0799,2.415302 0.14146,3.173378 0.25809,4.16219 0.22006,5.432161 -0.038,1.269957 -0.0925,1.219179 -0.21908,2.175589 -0.0751,0.567259 0.19376,0.0451 0.28461,2.657988 0.0357,1.027711 -0.13922,2.440282 -0.0773,4.787781 0.0619,2.347511 0.72992,5.488289 0.72992,5.488289 0,0 0.20118,3.642813 2.02195,6.278295 0.74577,1.07947 1.29348,1.99235 2.91218,3.57077 1.6187,1.57842 2.98703,2.80439 4.85526,3.58485 1.86823,0.78046 4.38448,0.7387 5.40069,0.53207 1.01621,-0.20662 3.09024,-0.38925 4.92128,-2.81968 1.83105,-2.43045 1.69973,-6.742082 0.93095,-6.970243 -0.76878,-0.22815 -1.93941,0.882841 -3.10535,2.511713 -0.37651,0.52602 -0.46406,1.24218 -0.98085,1.91273 -0.51678,0.67056 -1.56972,1.20442 -2.75004,1.24207 -1.27974,0.0408 -2.33645,-0.36368 -3.044,-0.66667 -0.56871,-0.24355 -1.1823,-0.2769 -1.60124,-0.55098 -0.41895,-0.27409 -0.29756,-0.44938 -0.51497,-0.60762 -0.32739,-0.23829 -0.48895,-0.5525 -0.81159,-1.03994 -0.32264,-0.48745 -0.95369,-0.89116 -1.28877,-1.37436 -0.33508,-0.483214 -0.41858,-1.112253 -0.64066,-1.453203 -0.26525,-0.407201 -0.59277,-0.933849 -0.79455,-1.694309 -0.21372,-0.805392 -0.23751,-1.707881 -0.37294,-2.708482 -0.13542,-1.000598 -0.41907,-1.744768 -0.18468,-4.787609 -0.0242,-0.353271 0.15055,-0.976651 0.19857,-1.585492 0.048,-0.60883 -0.0584,-1.066419 0.0558,-1.866788 0.11416,-0.80037 0.33046,-1.325269 0.50192,-3.038042 0.17147,-1.712769 0.45506,-7.388328 0.54261,-10.601549 0.0505,-1.854931 -0.0345,-7.60022 -0.27136,-11.328009 -0.23683,-3.727791 -0.81926,-5.431451 -0.81926,-5.431451 0,0 -0.30906,-1.524191 -0.78548,-3.07177 -0.47642,-1.547569 -1.53291,-3.9077 -2.88513,-6.05204 -1.58125,-2.50752 -5.06193,-5.35647 -7.50186,-6.91702 -2.43994,-1.56055 -6.66974,-3.51486 -12.52733,-4.20261 -0.79933,-0.0939 -0.0161,0.18745 -2.46625,-0.0977 -0.89281,-0.10391 -0.4331,-0.21932 -1.66909,-0.40401 -1.23599,-0.18469 -2.39516,-0.34854 -3.9275,-0.56282 z"
       id="path826-2"
       inkscape:connector-curvature="0"
       sodipodi:nodetypes="ccczssszczzzzzzszzsszczzzzzszzszzsszzssssszszszszsszszszzzszzszsssssssszzzszsszzzzzzczzzzzzzzssszzzzzzzczzszsszsssssszsssszzzzzzzzzzzzczszssssssssszsszsszsssssssssssssssssssszsscsssssszsszcszzzzzszsszszzsszczzzszczszsszzc" />
  </g>
</svg>
