<?xml version="1.0" encoding="UTF-8" standalone="no"?>
<!-- Created with Inkscape (http://www.inkscape.org/) -->

<svg
   xmlns:dc="http://purl.org/dc/elements/1.1/"
   xmlns:cc="http://creativecommons.org/ns#"
   xmlns:rdf="http://www.w3.org/1999/02/22-rdf-syntax-ns#"
   xmlns:svg="http://www.w3.org/2000/svg"
   xmlns="http://www.w3.org/2000/svg"
   xmlns:sodipodi="http://sodipodi.sourceforge.net/DTD/sodipodi-0.dtd"
   xmlns:inkscape="http://www.inkscape.org/namespaces/inkscape"
   width="200mm"
   height="109mm"
   viewBox="0 0 200 109"
   version="1.1"
   id="svg8"
   inkscape:version="0.92.4 (5da689c313, 2019-01-14)"
   sodipodi:docname="eurasian_lynx.svg">
  <defs
     id="defs2" />
  <sodipodi:namedview
     id="base"
     pagecolor="#ffffff"
     bordercolor="#666666"
     borderopacity="1.0"
     inkscape:pageopacity="0.0"
     inkscape:pageshadow="2"
     inkscape:zoom="0.88"
     inkscape:cx="-119.45515"
     inkscape:cy="204.75144"
     inkscape:document-units="mm"
     inkscape:current-layer="layer2"
     showgrid="false"
     inkscape:window-width="1920"
     inkscape:window-height="1009"
     inkscape:window-x="-8"
     inkscape:window-y="-8"
     inkscape:window-maximized="1" />
  <metadata
     id="metadata5">
    <rdf:RDF>
      <cc:Work
         rdf:about="">
        <dc:format>image/svg+xml</dc:format>
        <dc:type
           rdf:resource="http://purl.org/dc/dcmitype/StillImage" />
        <dc:title></dc:title>
      </cc:Work>
    </rdf:RDF>
  </metadata>
  <g
     inkscape:groupmode="layer"
     id="layer2"
     inkscape:label="Layer 2"
     style="display:inline"
     transform="translate(0,-21)">
    <path
       style="opacity:0.8;fill:#734221;fill-opacity:1;stroke:none;stroke-width:0.15000001;stroke-linecap:butt;stroke-linejoin:miter;stroke-miterlimit:4;stroke-dasharray:none;stroke-opacity:1"
       d="m 56.257693,108.34681 c 0.972509,-2.17824 5.467076,-5.79242 9.961881,-9.583781 3.081137,-2.598926 5.796301,-5.388184 7.871227,-7.428264 5.101856,-5.016177 9.383942,-13.201744 10.554981,-13.700135 1.171039,-0.498391 8.154964,3.069153 12.313402,4.195512 4.158436,1.126359 7.283306,1.284289 11.014126,1.810631 3.73083,0.526342 6.69823,1.079059 11.79252,1.383517 5.09429,0.304458 8.22189,-0.699454 8.48479,-0.553133 0.81926,0.810772 0.51836,2.259171 1.43655,6.017502 0.0835,0.341692 0.5732,0.694106 0.66101,1.056368 0.0979,0.403988 -0.12198,0.860268 -0.0133,1.286774 0.0756,0.296603 0.83813,0.839861 0.91398,1.14451 0.0454,0.182549 -0.31261,0.406797 -0.26628,0.591837 0.11803,0.471373 0.59994,0.950449 0.71789,1.435296 0.15871,0.652427 -0.0747,1.335784 0.006,2.026658 0.1104,0.939554 0.52822,1.893011 0.75935,2.801478 0.0759,0.29838 0.43392,0.83868 0.50832,1.13571 0.19296,0.77038 0.35514,1.48573 0.43674,2.26559 0.0752,0.71856 0.47375,1.22133 0.63685,1.87939 0.10499,0.42362 0.48998,0.79913 0.58897,1.20569 0.11965,0.49142 -0.0877,1.1303 0.0236,1.59055 0.10507,0.43458 0.48818,0.81367 0.5831,1.21559 0.062,0.26238 -0.16087,0.84015 -0.10319,1.08629 0.0741,0.31614 0.5882,0.6183 0.65325,0.90499 0.0687,0.30267 -0.23096,0.58811 -0.17224,0.85455 0.0563,0.25547 0.59193,0.45314 0.63701,0.67225 0.0504,0.24512 -0.47117,0.66821 -0.43429,0.86314 0.0875,0.46276 0.69661,0.61761 0.68783,0.75881 -0.10992,1.76763 -0.55237,3.17324 0.0461,3.88944 0.53127,0.63577 2.01336,0.53899 2.6656,1.41567 0.36813,0.4948 0.27867,1.1164 0.68958,1.59053 0.40298,0.46498 1.3239,0.51784 1.6925,0.94342 0.73061,0.84355 0.96084,2.10105 1.45792,2.33436 1.96698,0.92325 6.31147,0.92513 9.70361,0.86619 3.39214,-0.059 9.72889,-0.5295 10.42955,-0.91324 0.94989,-0.52024 1.38603,-2.08987 0.55634,-3.35893 -0.82969,-1.26907 -1.45477,-1.96242 -4.81473,-2.56229 -3.35997,-0.59988 -4.87868,1.03694 -5.81381,0.68418 -0.93513,-0.35276 -4.39959,-4.98516 -5.7663,-9.02448 -0.57766,-1.70729 -0.72631,-4.48701 -0.89197,-7.1276 -0.22628,-3.60682 -0.34442,-6.954025 -0.34442,-6.954025 0,0 7.31525,4.080945 9.53476,4.570195 2.21952,0.48924 2.1911,-0.038 2.98779,0.21321 0.79669,0.25123 1.10211,0.7248 1.73013,1.03641 0.62802,0.31161 1.33248,0.74409 2.03227,0.81512 0.69979,0.071 1.77751,-0.0957 1.77751,-0.0957 l 1.93162,1.12766 c 0,0 1.33425,0.4275 2.3729,1.53859 0.52413,0.5607 1.24662,0.77319 1.78833,1.55763 0.36595,0.52993 0.48829,1.74421 1.56706,2.34132 1.07877,0.59711 2.09342,-0.41416 2.93641,0.0979 0.84298,0.51204 -0.63091,1.24796 0.92061,2.05689 1.58637,0.8271 3.18348,2.41659 4.28981,3.3921 0.89156,0.78614 1.21619,1.86348 1.94664,2.66984 0.63389,0.69976 1.92458,0.98944 2.50219,1.56532 1.25437,1.25064 0.48777,2.29796 2.19735,2.81368 1.70958,0.51571 3.43227,1.32411 6.54894,0.46116 3.11667,-0.86295 2.74083,-6.58808 1.42466,-9.60702 -2.52786,-3.42704 -13.9604,-13.47706 -18.85636,-17.475832 -2.08571,-1.7035 -4.38656,-3.17746 -7.04657,-4.83529 -2.66002,-1.65783 -5.12505,-3.31019 -5.12505,-3.31019 0,0 -0.31654,-0.35774 -0.149,-0.93527 0.0754,-0.26003 0.62863,-0.52244 0.69344,-0.8901 0.0969,-0.54978 -0.20706,-1.38261 0.0894,-2.0231 0.14293,-0.30883 0.0243,-0.90397 0.17059,-1.25582 0.12822,-0.30829 -0.21292,-1.25919 -0.0713,-1.58058 0.13215,-0.29983 1.21688,-0.33979 1.34842,-0.64704 0.0885,-0.20665 -0.0869,-1.10023 0.003,-1.3044 0.16497,-0.37562 0.3271,-0.7997 0.48401,-1.16151 0.0985,-0.22701 0.14213,-0.97755 0.23629,-1.1921 0.16193,-0.36897 0.57879,-0.71739 0.71823,-1.03797 0.14178,-0.32596 0.21773,-0.88559 0.33026,-1.14181 0.25172,-0.5731 0.72868,-0.95167 0.75413,-1.04589 0.16522,-0.61171 -0.19698,-0.82579 -0.0855,-1.2837 0.11144,-0.45791 0.82066,-1.11517 1.0438,-1.53519 0.22313,-0.42001 0.19725,-0.699928 0.36947,-0.92625 0.19746,-0.25949 0.52081,-0.279451 0.77329,-0.59911 0.25248,-0.319659 0.31299,-0.971388 0.60494,-1.335209 0.15486,-0.192971 0.77385,-0.137821 0.89792,-0.47408 0.10984,-0.29767 -0.0751,-1.02565 -0.0751,-1.02565 0,0 0.61512,0.317979 0.8989,0.0962 0.28378,-0.221771 -0.0428,-1.16442 -0.0428,-1.16442 0,0 0.37664,0.468249 0.85825,0.109609 0.25393,-0.189109 0.0596,-0.704538 0.0596,-0.704538 0,0 0.68444,0.139477 0.76231,-0.0191 0.0476,-0.0969 -0.23873,-0.679421 -0.23873,-0.679421 0,0 0.72276,0.009 0.78711,-0.0746 0.1853,-0.239911 -0.0145,-0.546151 -0.0145,-0.546151 0,0 0.6,-0.18157 0.82051,-0.44582 0.2205,-0.26426 0.26458,-1.04965 0.26458,-1.04965 0.74602,0.784051 0.81143,1.721991 2.6174,1.797259 0.71271,-0.0615 1.25996,-0.650978 1.84738,-1.271489 0.58742,-0.62052 1.45113,-2.21583 1.45113,-2.21583 0,0 1.21023,-0.587489 1.89908,-1.483929 1.07866,-1.403712 2.44754,-3.434411 3.24611,-4.889492 1.34903,-2.45808 3.30148,-7.360329 3.22795,-8.587429 -0.0735,-1.22711 -1.02291,-1.95697 -1.16428,-2.81663 -0.14136,-0.85966 0.53605,-1.67953 0.66083,-2.61514 0.12478,-0.9356 -0.0746,-1.83825 0.0254,-2.75469 0.12435,-1.13937 0.78848,-2.08502 0.8004,-3.66791 0.01,-1.32386 -0.47466,-3.18141 -0.17334,-3.75897 0.98472,-1.88744 1.96178,-3.13887 3.30024,-5.32555 0,0 -1.82656,2.04785 -2.5383,2.88785 -0.71177,0.83999 -1.87377,2.45753 -1.87377,2.45753 0,0 -1.48279,0.0334 -3.02494,1.19962 -2.22485,1.68253 -4.45373,3.30927 -4.90295,3.46066 -0.81562,0.27488 -8.41436,0.0994 -8.89514,-0.32754 -0.31511,-0.27983 -1.43489,-1.81789 -2.85891,-3.40431 -1.42401,-1.58642 -3.02617,-1.79101 -3.51452,-2.30254 -0.95863,-1.00414 -1.13439,-1.49628 -1.9692,-2.71815 -0.83482,-1.22187 -2.05007,-2.05983 -2.05007,-2.05983 0,0 2.69382,3.6697 2.85055,4.6232 0.15673,0.9535 -0.7798,3.18428 -0.97558,4.22782 -0.19578,1.04354 0.38922,2.01143 -0.064,2.84351 -0.1704,0.31289 -0.10348,0.84669 -0.3489,1.00364 -0.40724,0.26044 -1.21686,0.0553 -2.03338,0.28711 -0.24416,0.0693 -0.58869,-0.0535 -0.83027,0.0221 -0.33936,0.10614 -0.26529,0.40359 -0.61419,0.49373 -0.46684,0.12062 -1.05448,0.0362 -1.46987,0.12685 -0.34915,0.0762 -0.38306,0.42338 -0.67253,0.445 -0.86017,0.0642 -2.43759,-0.1066 -4.09749,-0.50734 -0.29767,-0.0719 -0.56641,-0.34057 -0.8682,-0.41234 -0.36524,-0.0869 -0.7311,-0.0774 -1.09174,-0.16462 -0.41552,-0.10044 -0.8557,-0.48341 -1.24601,-0.55397 -0.48407,-0.0875 -0.7841,0.14082 -1.1743,0.17597 -0.54645,0.0492 -1.14429,-0.061 -1.56885,-0.0174 -2.33712,0.23992 -3.78572,0.5384 -6.37556,1.42058 -1.6615,0.56595 -3.15811,1.28791 -4.60536,1.39534 -3.70315,0.27487 -6.01475,0.22394 -9.20612,0.25129 -1.50245,0.0129 -2.87234,0.56019 -4.53388,0.58698 -1.66154,0.0268 -3.62743,-0.47482 -5.55628,-0.62512 -3.64475,-0.284 -7.11515,-0.90054 -9.78276,-1.07925 -0.9695,-0.065 -1.78084,-0.38353 -2.57863,-0.46817 -0.79779,-0.0846 -1.38004,0.37033 -3.60342,0.0492 -3.04207,-0.43937 -7.46374,-1.05889 -7.46374,-1.05889 0,0 -5.36863,-1.01071 -11.3488,-2.02104 -3.54768,-0.599361 -7.13854,-1.389047 -9.56819,-1.495741 -4.916728,-0.21591 -9.430258,0.644136 -12.783968,1.258085 -0.556103,0.101803 -1.419438,0.06967 -1.885956,0.160295 -1.247395,0.242319 -1.75937,0.557894 -2.374907,0.532389 -1.218357,-0.05048 -1.513354,-0.83662 -2.03544,-1.111086 -0.374472,-0.196865 -0.658017,-0.131346 -0.985772,-0.23045 -0.38348,-0.115952 -0.672591,-0.472073 -1.005099,-0.557299 -1.012915,-0.259623 -1.497958,-0.16238 -1.933236,-0.189717 -0.435278,-0.02734 -0.931287,-0.433659 -1.32435,-0.452229 -0.393063,-0.01857 -0.697865,0.144089 -0.994955,0.128168 -0.297091,-0.01592 -0.396939,-0.210488 -0.760397,-0.182213 -0.306933,0.02388 -0.571234,0.29305 -0.743205,0.239998 -0.375612,-0.115873 -0.410158,-0.414941 -0.686391,-0.507717 -0.276233,-0.09277 -0.894561,-0.01 -0.894561,-0.01 L 43.572152,32.21572 c 0,0 -1.928097,-0.726971 -2.655384,-0.733197 -0.727287,-0.0062 -1.460561,0.341382 -2.078631,0.302222 -0.186399,-0.01181 -0.533289,-0.216677 -0.829708,-0.222441 -0.311023,-0.006 -0.57528,0.185105 -0.924837,0.08706 -0.421954,-0.118354 -0.827702,-0.515631 -1.19674,-0.580238 -0.966124,-0.169137 -1.973831,-0.13183 -2.831276,-0.309082 -0.857445,-0.177253 -1.276282,0.08685 -2.298652,-0.708448 -1.02237,-0.795293 -0.885218,-1.804897 -1.249912,-2.337293 -0.364694,-0.532396 -0.613296,-0.636785 -0.796284,-0.926216 -0.182988,-0.289431 -0.212844,-0.67773 -0.345564,-0.926182 -0.13272,-0.248452 -0.234721,-0.471443 -0.409969,-0.569267 -0.175248,-0.09782 -0.569834,-0.09203 -0.569834,-0.09203 0,0 -0.341428,-0.618387 -0.568406,-0.711539 -0.226978,-0.09315 -0.351141,0.111482 -0.557505,0.06602 -0.206364,-0.04546 -0.464357,-0.1978 -0.791465,-0.218391 -0.327108,-0.02059 -0.613699,0.04666 -0.957791,0.368681 -0.122333,0.114485 -0.02359,0.360142 -0.138997,0.580315 -0.04013,0.07657 -0.178185,0.03449 -0.307338,0.227175 -0.129153,0.192685 -0.294254,0.574086 -0.294254,0.574086 0,0 -0.512266,-0.06306 -0.692477,0.130382 -0.180211,0.193437 0.254715,0.825528 0.254715,0.825528 0,0 -0.334659,-0.127734 -0.673818,0.102063 -0.339159,0.229797 -0.129725,1.595615 -0.129725,1.595615 0,0 -0.203385,0.658722 -0.182053,0.94581 0.02133,0.287088 0.253733,0.720748 0.253733,0.720748 0,0 -0.160566,0.488917 -0.186954,0.757096 -0.02639,0.268179 0.529288,0.708336 0.529288,0.708336 0,0 -0.254007,0.777158 -0.05472,1.012198 0.199287,0.23504 0.830178,0.09191 0.830178,0.09191 0,0 -0.912278,0.3941 -0.991231,0.827511 -0.07895,0.433411 0.712046,0.5853 0.674414,0.915414 -0.03763,0.330114 -0.733411,-0.139835 -0.650183,0.557526 0.08323,0.69736 2.991411,1.524263 2.991411,1.524263 0,0 -0.793928,0.985078 -0.663703,1.411495 0.130225,0.426417 1.072617,0.411406 1.072617,0.411406 0,0 -0.23498,0.43738 0.09741,0.742499 0.332387,0.305119 1.956343,0.08799 1.956343,0.08799 0,0 -0.0339,0.71376 0.328008,1.09403 0.355514,0.373557 1.104715,0.413879 1.348226,0.399163 0.413357,-0.02498 1.059202,-0.558597 1.474393,-0.352266 0.390009,0.193816 -0.350535,1.208167 0.548523,1.388005 0.61159,0.122336 1.811871,-0.884321 3.068776,-0.259312 0.354511,0.176284 -0.579765,0.822988 -0.151246,0.887298 0.42975,0.0645 1.267565,-0.60005 1.721534,-0.553643 0.690679,0.0706 0.01671,0.687429 0.702194,0.759361 0.496994,0.05215 2.056112,-0.303123 2.569908,-0.277311 0.666895,0.0335 0.186447,0.598527 0.765129,0.645254 0.533319,0.04306 1.860554,-0.293828 2.402912,-0.329351 1.495998,-0.09798 2.104824,0.2199 2.148662,0.310145 0.219847,0.452575 -0.04057,0.923474 -0.239637,1.145966 -0.19907,0.222492 -0.603839,0.08938 -0.683573,0.358346 -0.07973,0.268966 0.201213,0.468622 0.208598,0.771415 0.0074,0.302793 -0.442085,0.977681 -0.442085,0.977681 0,0 -0.712579,0.25547 -0.739393,0.52184 -0.02681,0.26637 0.252375,0.394263 0.177045,0.852283 -0.07533,0.45802 -0.969256,1.651091 -0.969256,1.651091 0,0 -0.400619,0.04805 -0.480944,0.296871 -0.08033,0.248818 0.225355,0.714377 0.225355,0.714377 0,0 -0.541503,-0.05579 -0.618845,0.198812 -0.112041,0.368829 0.708165,0.638322 0.708165,0.638322 0,0 -0.737577,-0.25467 -0.886524,0.0054 -0.148947,0.26007 0.195503,0.637849 0.195503,0.637849 0,0 -0.325909,0.34086 -0.350348,0.666269 -0.02444,0.325409 0.67862,1.138516 0.67862,1.138516 0,0 -0.645891,-0.05509 -0.944404,0.302192 -0.298513,0.357283 0.07959,1.678959 0.07959,1.678959 l 0.353156,0.832309 c 0,0 -0.981552,-0.08515 -1.127707,0.346179 -0.146155,0.431325 0.325161,0.883911 0.325161,0.883911 0,0 -0.493861,-0.252166 -0.857646,0.29687 -0.09198,0.138811 -0.05624,0.601386 -0.09156,0.814985 -0.028,0.169347 -0.132742,0.560631 -0.171696,0.736034 -0.06132,0.276109 0.103498,0.426562 0.169873,0.705356 0.04863,0.204271 -0.190503,0.646978 -0.131966,0.845681 0.164655,0.558922 0.787232,1.299532 0.787232,1.299532 0,0 -0.775147,0.558517 -0.904332,1.198333 -0.129185,0.639815 0.530651,1.775985 0.530651,1.775985 l -0.532437,2.261606 0.288546,2.569238 c 0,0 -1.165869,-0.161031 -1.808458,0.213416 -0.319215,0.18601 0.101955,0.677159 -0.351409,1.043171 -0.04768,0.0385 1.144465,0.491222 1.096016,0.531374 -0.152768,0.126589 -2.578839,0.350019 -2.711924,0.486172 -0.09168,0.0938 0.684944,0.29575 0.584178,0.391211 -0.06858,0.06497 -1.202213,0.06178 -1.266893,0.128411 -0.08463,0.08718 2.316323,0.69698 2.224691,0.783738 -0.102964,0.09749 -2.64185,-0.425715 -2.737461,-0.325232 -0.07211,0.07578 2.069691,0.599667 1.994941,0.675493 -0.095,0.09636 -2.103995,-0.204606 -2.193417,-0.106563 -0.06798,0.07454 1.804742,0.522391 1.735328,0.596761 -0.108676,0.116436 -1.65848,0.05883 -1.761555,0.175315 -0.124469,0.140667 1.689568,0.578677 1.559346,0.715956 -0.160025,0.168697 -1.834813,-0.11142 -1.986425,0.05472 -0.06348,0.06956 1.614843,0.437264 1.550359,0.505653 -0.129592,0.13744 -1.725292,-0.248791 -1.849397,-0.113821 -0.33654,0.366002 0.717712,1.080075 0.28129,1.729604 -0.141951,0.211267 -1.146556,-0.143991 -1.325583,0.0028 -0.190216,0.155933 0.369662,0.694043 0.187594,0.814877 -0.178369,0.118379 -1.003146,0.03928 -1.180411,0.159563 -0.07917,0.05372 0.318759,0.507013 0.247276,0.563053 -0.181728,0.14247 -0.886494,-0.07643 -1.070124,0.04343 -0.143479,0.09365 0.26028,0.521935 0.154043,0.631731 -0.3748,0.38736 -1.114221,0.514404 -1.692855,0.765484 -0.400907,0.173961 -0.842687,0.472733 -1.262148,0.570134 -0.393401,0.09135 -0.764174,-0.0184 -1.151036,0.128442 -0.442331,0.167898 -0.767699,0.568136 -1.203067,0.77974 -0.500924,0.243467 -1.11523,0.293636 -1.686201,0.388522 -3.372249,0.560415 -5.440917,-0.175572 -7.441048,1.198696 -2.00013,1.374269 -2.036019,2.001727 -2.715872,3.736819 -0.239579,0.611444 -0.97839,0.55109 -1.2594,1.356542 -0.421591,1.208396 -0.687422,3.008391 -1.234452,4.431514 -0.206127,0.536248 -0.691095,0.984155 -0.906077,1.539204 -0.158108,0.408209 -0.5907086,0.671917 -0.749532,1.088466 -0.301146,0.78982 -0.4308264,2.25379 -0.733508,3.036084 -0.1024883,0.26489 -0.8254875,0.15675 -0.976764,0.39556 -0.4190059,0.661444 0.035871,2.011524 -0.1523317,2.503364 -0.1797889,0.46985 -0.6285853,0.0858 -0.7974992,0.53764 -0.1269703,0.33964 0.1221212,1.34412 0.00106,1.66805 -0.1503152,0.4022 -0.5190921,0.34451 -0.6573044,0.72062 -0.1538847,0.41874 0.022922,1.2913 -0.1154555,1.66841 -0.1330823,0.36266 -0.7655498,0.5884 -0.8969699,0.87981 -0.1441047,0.31954 -0.082275,0.72833 -0.1697583,0.97946 -0.2826862,0.81146 -0.4794141,1.15157 -0.4705969,1.33543 0.063063,1.31507 0.8648169,1.38917 0.5993492,3.30541 -0.1596594,1.15248 -0.7959314,1.52276 -1.0839154,3.33007 -0.054476,0.34188 0.2862296,1.22715 0.2555,1.54622 -0.041293,0.42874 -0.4249147,0.63312 -0.4517532,0.99833 -0.030071,0.40919 0.2443396,0.77031 0.2277803,1.06499 -0.023908,0.42546 -0.2015039,0.68818 -0.1771352,0.78292 0.1765836,0.6865 0.4922703,0.70303 1.3731359,1.4458 0.1768602,0.14914 0.6221071,0.28999 0.7788549,0.47315 0.2640451,0.30846 0.6487558,0.44966 0.7552131,0.89486 0.1085776,0.45406 0.088064,0.93655 0.3450885,1.0587 1.4037286,0.66712 2.5155975,0.2207 4.2783668,0.0521 1.762769,-0.16862 3.107538,-2.07953 3.490549,-4.35173 0.38301,-2.27221 -0.509459,-2.07671 0.05082,-4.6082 0.239216,-1.08083 0.855448,-2.7277 1.602518,-4.68504 0.517296,-1.35531 1.016128,-2.932 1.651614,-4.30921 1.614546,-3.49901 3.400088,-6.55606 3.70557,-6.898857 0.599365,-0.672577 6.266199,-3.893309 7.916887,-4.545863 0.688601,-0.27222 1.501963,-0.390408 2.595532,-0.423062 0.227415,-0.0068 0.529103,0.280175 0.775364,0.248498 0.141617,-0.01822 0.287678,-0.229009 0.457994,-0.312709 0.160562,-0.07891 0.34509,-0.03041 0.490587,-0.06425 1.234896,-0.287215 2.600809,-0.603179 4.337428,-1.00223 4.350576,-0.999704 9.12753,-2.381766 9.803445,-1.76276 0.537367,0.492123 -1.283409,2.867303 -2.41053,4.113094 -1.12712,1.245791 -0.469854,0.857052 -0.685186,1.221782 -0.215331,0.364732 -0.726068,0.367782 -0.864564,0.519142 -0.138496,0.151347 -0.200853,0.676444 -0.328003,0.813624 -0.147319,0.15896 -0.365182,0.24815 -0.512874,0.407487 -0.110665,0.11938 -0.151541,0.472677 -0.262642,0.591267 -0.144391,0.15411 -0.574863,0.0999 -0.717283,0.25275 -0.139145,0.149327 0.0089,0.603727 -0.129129,0.750277 -0.804698,0.85442 -2.136311,1.56409 -2.715084,2.26578 -0.687207,0.83314 -0.89867,1.54712 -1.00296,1.97459 -0.163867,0.67166 0.08022,1.8485 0.497303,2.78209 0.26316,0.58904 0.614951,0.88366 0.914213,1.51734 0.191252,0.40497 0.243768,0.97838 0.423818,1.38203 0.557804,1.25053 1.210658,2.28303 1.804361,3.13094 0.206149,0.30215 -0.04029,0.64182 0.179601,0.95232 0.27692,0.39103 1.508806,1.14604 1.789743,1.54027 0.37591,0.5275 0.159935,1.45826 0.536295,1.99513 0.295752,0.42188 0.931269,0.14789 1.247839,0.55432 0.246011,0.31585 0.124759,0.86164 0.360871,1.17502 0.176663,0.23448 0.586873,0.29963 0.770564,0.52352 0.194575,0.23716 0.107311,0.68771 0.283984,0.90055 0.176673,0.21285 0.863734,0.29283 1.026956,0.46338 0.163223,0.17056 -0.05087,0.49181 0.11404,0.67494 0.164914,0.18312 0.743568,-0.03 0.943378,0.14413 0.150329,0.13103 -0.04736,0.77599 0.07175,0.93413 0.06639,0.0881 0.438988,0.061 0.66999,0.21359 0.183457,0.12114 0.229115,0.42831 0.306835,0.47794 0.342997,0.21907 0.260867,0.34775 0.57242,0.55922 1.644402,1.11615 1.58932,2.24522 2.226079,2.51005 3.025055,1.25817 18.741246,0.77745 19.581249,0.3884 0.840002,-0.38905 0.804865,-1.5126 0.686704,-2.06424 -0.128187,-0.59845 -0.986033,-0.81967 -2.025383,-1.67597 -1.03935,-0.8563 -1.308561,-1.61931 -1.943596,-1.81746 -1.494552,-0.46634 -5.92942,0.42685 -6.753662,-0.37024 -0.459291,-0.44414 -1.358127,-1.54541 -2.599562,-2.53148 -0.986441,-0.78354 -2.293423,-1.31565 -3.023067,-2.66471 -1.647901,-3.04684 -2.982916,-4.52108 -1.343763,-8.19245 z"
       id="path837-5"
       inkscape:connector-curvature="0"
       sodipodi:nodetypes="csszzzzcssssssssssssssssssssssssszszzzssczzzzccsszzsssszzcszcsssssssssssszzszssczcscscsczcczcsszzzsssczcssszszczzsssssssssssssssszsszscsssssssszzzsszcczsssszzzzzzczzzsszczczczczczczzzczczcsssssssssssszzzczzczcsczczczcczcsssssczcccsssssssssssssssssssssssssssszssssssssssssssssssssssssszzssssssssssszzzsssssssssscsssssszzzsssssszszsssssc" />
  </g>
</svg>
