<?xml version="1.0" encoding="UTF-8" standalone="no"?>
<!-- Created with Inkscape (http://www.inkscape.org/) -->

<svg
   xmlns:dc="http://purl.org/dc/elements/1.1/"
   xmlns:cc="http://creativecommons.org/ns#"
   xmlns:rdf="http://www.w3.org/1999/02/22-rdf-syntax-ns#"
   xmlns:svg="http://www.w3.org/2000/svg"
   xmlns="http://www.w3.org/2000/svg"
   xmlns:sodipodi="http://sodipodi.sourceforge.net/DTD/sodipodi-0.dtd"
   xmlns:inkscape="http://www.inkscape.org/namespaces/inkscape"
   width="202mm"
   height="135mm"
   viewBox="0 0 202 135"
   version="1.1"
   id="svg8"
   sodipodi:docname="saiga_antelope.svg"
   inkscape:version="0.92.4 (5da689c313, 2019-01-14)">
  <defs
     id="defs2" />
  <sodipodi:namedview
     id="base"
     pagecolor="#ffffff"
     bordercolor="#666666"
     borderopacity="1.0"
     inkscape:pageopacity="0.0"
     inkscape:pageshadow="2"
     inkscape:zoom="0.86772068"
     inkscape:cx="-275.30587"
     inkscape:cy="180.79981"
     inkscape:document-units="mm"
     inkscape:current-layer="layer2"
     showgrid="false"
     inkscape:window-width="1920"
     inkscape:window-height="1009"
     inkscape:window-x="-8"
     inkscape:window-y="-8"
     inkscape:window-maximized="1" />
  <metadata
     id="metadata5">
    <rdf:RDF>
      <cc:Work
         rdf:about="">
        <dc:format>image/svg+xml</dc:format>
        <dc:type
           rdf:resource="http://purl.org/dc/dcmitype/StillImage" />
        <dc:title></dc:title>
      </cc:Work>
    </rdf:RDF>
  </metadata>
  <g
     inkscape:groupmode="layer"
     id="layer2"
     inkscape:label="Layer 2"
     style="opacity:1"
     transform="translate(0,-3)">
    <path
       style="fill:#63b51e;fill-opacity:1;stroke:none;stroke-width:0.15000001;stroke-linecap:butt;stroke-linejoin:miter;stroke-miterlimit:4;stroke-dasharray:none;stroke-opacity:1;opacity:0.8"
       d="M 4.1327374,75.36544 C 4.8698487,69.481284 10.339812,59.292154 10.65919,57.932451 10.978568,56.572748 10.628169,52.549592 10.162925,51.533999 9.6976805,50.518406 9.451511,50.869526 9.1272536,50.27531 8.8029962,49.681094 8.8555951,49.157849 8.78587,48.936744 8.624219,48.424132 8.7944827,47.783023 8.5835646,47.384987 8.4046294,47.047308 7.4789491,47.399354 7.6288827,46.970572 7.7788163,46.54179 8.1831668,46.403981 8.8477004,46.053418 9.445727,45.73794 9.78528,45.400285 9.9573703,45.256033 c 0.3633187,-0.304546 0.4078937,-0.459175 0.5217967,-0.755854 0.08141,-0.212046 -0.03813,-1.005781 -0.113758,-1.3309 C 10.183958,42.389277 9.2976865,42.566466 9.1581114,42.137385 8.9934916,41.631312 9.4707189,41.069909 9.30249,40.557905 9.1342612,40.0459 9.0221343,40.106443 8.7567442,39.999343 8.4645294,39.881417 8.2296951,39.542459 8.1520208,39.327923 8.0942868,39.168464 8.0608248,38.93734 8.1598608,38.778394 8.2515788,38.631198 8.4720863,38.556729 8.5253829,38.3964 8.6144629,38.128428 8.4476049,37.806069 8.3758434,37.629827 8.2807754,37.396346 7.8966784,37.434057 7.7656034,37.334879 7.6438208,37.242731 7.6043823,36.992256 7.5945216,36.944212 7.4857569,36.414278 7.567126,36.018965 7.7522584,35.482823 7.8258529,35.269694 7.7496972,34.857863 7.6906126,34.548045 7.658839,34.381436 6.9941867,34.134935 6.9672191,33.927147 6.9402514,33.719359 6.9147083,33.454182 6.902067,33.197709 6.8866951,32.885834 7.1449923,32.812297 7.340985,32.588257 7.5071091,32.398359 7.6156271,32.061801 7.6087423,31.782179 7.5996756,31.413942 7.3325995,31.368589 7.1850888,31.186911 7.0375782,31.005234 6.9851451,30.704086 6.9769399,30.476433 6.9562119,29.901348 7.3742668,29.692406 7.5138345,29.260446 7.5981795,28.999399 7.6197396,28.688216 7.617728,28.560312 7.611328,28.153298 7.1215336,28.05615 7.1222173,27.632276 c 6.405e-4,-0.397038 0.4800546,-0.673299 0.5982748,-1.16756 0.1262261,-0.527733 -0.1082168,-1.198152 -0.1074392,-1.53912 4.415e-4,-0.193569 0.2134987,-0.538345 0.2133854,-0.729898 -2.156e-4,-0.364854 -0.00147,-0.725488 -0.00391,-1.079748 -0.00902,-1.311559 0.081032,-2.55016 0.016978,-3.575779 C 7.583689,15.444083 6.7149394,13.89949 6.2187574,12.308589 6.049546,11.766049 5.7542818,10.611667 5.7867043,10.164018 5.9141998,8.4037221 6.2289444,8.165529 6.4947721,7.7693397 6.7605998,7.3731504 6.8861017,7.145906 7.0741405,7.1802753 c 0.4409256,0.080591 -0.00925,1.3832969 0.2753965,2.4675859 0.2846437,1.0842888 0.4017448,1.4748568 0.9272347,2.8129858 0.5254899,1.338128 1.1690535,2.49154 1.3610392,3.270064 0.4212161,1.708077 0.6315921,2.379392 0.6709701,2.58856 0.02041,0.108423 0.07926,0.708071 0.213737,1.304177 0.06387,0.283122 0.198696,0.552324 0.246959,0.811638 0.04616,0.248013 0.0067,0.489575 0.02876,0.614174 0.04522,0.254877 0.268686,1.307618 0.268686,1.307618 l -0.05452,0.790245 c 0,0 0.236099,0.799558 0.253962,1.137081 0.01786,0.337522 -0.09814,0.857273 -0.09814,0.857273 0,0 0.286524,0.775996 0.328365,1.247878 0.04184,0.471882 -0.124698,1.547023 -0.124698,1.547023 0,0 0.354101,0.931116 0.390109,1.400993 0.03601,0.469877 -0.207307,0.478011 -0.16249,1.363586 0.04482,0.885575 0.541852,1.048662 0.557647,1.110207 0.0158,0.06155 -0.176634,0.360907 -0.227672,0.718358 -0.06989,0.489478 0.0086,1.22988 0.06134,1.369903 0.134631,0.357407 0.599329,0.11231 0.659186,0.581305 0.06256,0.490148 -0.133811,1.251289 -0.01256,1.746404 0.107274,0.43804 0.509413,0.628208 0.885063,0.816285 l 0.08993,1.586553 0.685043,0.674468 c 0,0 1.258345,-1.955699 1.819591,-3.003382 0.561247,-1.047684 1.224217,-1.624121 2.155742,-1.783794 0.305988,-0.05245 1.242078,0.07658 1.506986,0.178488 0.388815,0.14957 0.687479,0.167362 1.073176,0.238042 0.64848,0.118836 1.808098,0.04021 1.808098,0.04021 0,0 0.497194,-0.19223 0.524873,-0.758663 0.02063,-0.422183 -0.34968,-1.140107 -0.21894,-1.670068 0.119516,-0.484466 0.56927,-0.629058 0.658637,-1.236255 0.06242,-0.424128 -0.370267,-1.136827 -0.294254,-1.580202 0.08597,-0.501431 0.579823,-0.887866 0.656503,-1.387823 0.08163,-0.532246 -0.142029,-1.190871 -0.0654,-1.68392 0.07581,-0.487746 0.354165,-0.719295 0.429808,-1.133157 0.08088,-0.442502 -0.04362,-0.964995 -0.02123,-1.30913 0.02614,-0.401987 0.146121,-0.705846 0.144876,-0.839109 -0.01036,-1.109602 0.105734,-1.435903 0.02167,-2.224716 -0.08406,-0.788813 0.312123,-4.711604 -0.318699,-8.115487 C 23.926786,11.675188 23.75004,10.618329 22.94098,9.290881 22.13192,7.9634332 20.666982,6.637215 20.82084,6.4723316 c 0.373026,-0.3997572 1.836878,0.2181551 3.315459,2.0381992 1.47858,1.8200442 2.088833,4.5379992 2.088833,4.5379992 0,0 0.487726,2.332546 0.617919,3.483564 0.130194,1.151018 0.152703,2.501278 0.260791,3.392784 0.05266,0.43432 0.01809,0.747735 0.06837,1.014055 0.05293,0.280341 0.190018,0.5085 0.216679,0.770568 0.05199,0.511031 -0.0086,1.272994 -0.0086,1.272994 0,0 0.08669,0.29568 0.104848,0.607183 0.0267,0.45802 -0.0064,1.05626 0.04263,1.667618 0.03795,0.472943 0.127502,0.887155 0.130485,1.132698 0.0095,0.778816 -0.102908,0.781476 -0.07158,1.252382 0.03133,0.470906 0.29769,1.076267 0.297805,1.548885 1.16e-4,0.472618 -0.236317,0.776398 -0.237007,1.235933 -6.9e-4,0.459535 0.297162,1.066336 0.277842,1.472784 -0.01932,0.406448 -0.213345,0.612181 -0.261834,0.905589 -0.04849,0.293408 -0.03879,0.840751 -0.03879,0.840751 0,0 11.310583,-2.390387 15.441344,-3.428382 4.13076,-1.037995 4.043491,-1.266544 5.170156,-1.591848 2.650726,-0.765349 3.227767,-0.439364 5.653651,-1.192413 2.425884,-0.753049 3.453283,-1.958203 6.933972,-3.297909 7.38917,-2.844069 14.955073,-5.908861 18.551208,-6.310481 4.970199,-0.555077 23.602909,1.743995 26.195879,1.627732 2.59296,-0.116263 14.02239,0.06267 22.66342,-0.13447 8.36372,-0.190813 16.60817,-0.672938 18.41262,-0.392086 0.91109,0.06821 2.33514,0.536466 3.66918,0.74756 0.74411,0.108139 0.91145,-0.132217 1.05403,0.102202 0.14257,0.234419 0.0136,0.541437 0.0136,0.541437 0,0 0.58009,-0.382112 0.79561,-0.273008 0.21552,0.109104 0.19897,0.475719 0.19897,0.475719 0,0 0.43606,-0.178551 0.62737,-0.08446 0.19131,0.09409 0.22016,0.565773 0.22016,0.565773 l 0.59336,-0.506391 0.001,0.54764 0.66533,-0.309136 -0.11955,0.566273 0.83998,-0.120026 -0.0441,0.668921 1.11152,-0.128682 -0.39067,0.527017 c 0,0 0.83209,-0.204981 1.16402,-0.123989 0.33193,0.08099 0.57074,0.303114 0.73327,0.485432 0.16253,0.182318 0.2655,0.522495 0.2655,0.522495 l 0.78728,-0.06686 0.69589,0.155754 -0.51084,0.430858 1.19907,-0.04639 -0.24093,0.609773 0.93882,-0.397866 -0.006,0.622223 c 0,0 0.48131,-0.405667 0.72684,-0.367805 0.24553,0.03786 0.48321,0.47275 0.48321,0.47275 0,0 0.62379,-0.387488 0.88168,-0.287784 0.25789,0.0997 0.36187,0.635735 0.36187,0.635735 0,0 0.984,-0.555714 1.24801,-0.295471 0.26402,0.260243 -0.20375,0.919486 -0.20375,0.919486 l 1.01232,-0.614604 -0.48181,0.729069 1.25992,-0.163497 -1.23347,0.60143 1.35611,-0.107294 -0.38576,0.695416 0.85873,-0.253741 -0.10916,0.540928 0.57547,-0.02202 c 0,0 1.56082,-0.348429 1.97669,-0.07875 0.41587,0.26968 0.50954,0.696741 0.50954,0.696741 0,0 1.47508,-0.459007 1.75326,-0.190444 0.27818,0.268563 -0.23054,1.278522 -0.23054,1.278522 0,0 1.32053,-0.302032 1.6929,-0.08704 0.37237,0.214992 0.40241,0.787894 0.40241,0.787894 0,0 0.62331,-0.323572 0.96526,-0.154686 0.34195,0.168886 0.62194,1.153765 0.62194,1.153765 0,0 0.65966,-0.104563 0.8412,0.03601 0.18154,0.140573 0.15615,0.512394 0.15615,0.512394 l 0.59434,0.08638 c 0,0 0.24479,0.3706 0.57899,0.550374 0.3342,0.179774 1.41191,-0.0014 1.44013,0.332632 0.0144,0.17034 -0.66392,0.363327 -1.37958,0.663091 -0.71566,0.299764 -1.48675,0.696943 -1.48675,0.696943 l 2.53157,0.378504 -2.62491,0.540595 4.49358,1.415916 -2.37247,0.429921 c 0,0 1.70876,0.284207 1.716,0.667781 0.007,0.383574 -0.90612,0.38509 -0.90612,0.38509 0,0 1.39562,0.439381 1.28862,0.827028 -0.095,0.344039 -1.1099,0.27865 -1.1099,0.27865 0,0 1.1769,0.413789 1.303,0.716711 0.1261,0.302922 -0.13264,0.462984 -0.13264,0.462984 0,0 0.22181,0.457778 0.38713,1.155515 0.16532,0.697738 -0.1555,1.331256 0.13846,3.052157 0.29396,1.720901 1.37126,3.287935 1.37126,3.287935 0,0 -0.60642,-1.0403 -1.85865,-1.834023 -1.25224,-0.793723 -1.7118,-0.359851 -2.95446,-1.003051 -1.24266,-0.643199 -0.99661,-0.884521 -1.75595,-1.211175 -0.75934,-0.326654 -1.51776,-0.108221 -1.85292,-0.449692 -1.07829,-1.098582 -0.42515,-1.538077 -0.96434,-2.399752 -0.53919,-0.861674 -1.43969,-1.67081 -1.43969,-1.67081 l 0.89872,1.936946 -0.77299,-0.534814 0.47805,1.023454 -0.46233,-0.306514 0.27911,0.673215 -0.44453,-0.122327 0.3874,0.702829 -0.35255,0.199214 0.31222,0.703047 -0.566,-0.244684 0.87387,1.51391 -0.81438,-0.505712 0.77984,1.240451 -0.57265,-0.230402 c 0,0 0.82499,1.35774 0.69722,1.468037 -0.13648,0.117817 -0.74262,-0.611185 -0.74262,-0.611185 l 0.80362,2.261562 -0.75521,-0.656729 0.57542,2.292459 -0.49579,-0.367839 c 0,0 0.61277,1.888183 0.48593,2.001863 -0.11807,0.105821 -0.50269,-0.379448 -0.50269,-0.379448 0,0 0.76983,2.078685 0.62984,2.323881 -0.13999,0.245197 -0.42169,0.193409 -0.42169,0.193409 0,0 0.89533,1.814562 0.71761,1.943516 -0.17772,0.128954 -1.08523,-1.36629 -1.08523,-1.36629 l 0.97985,3.73567 -0.93954,-0.877546 c 0,0 0.23321,0.971774 0.43147,1.530798 0.19826,0.559024 0.42636,0.775168 0.36161,0.862748 -0.13352,0.180597 -0.44441,0.159581 -0.44441,0.159581 0,0 0.75045,0.281043 0.77502,0.509133 0.0246,0.22809 -0.31426,0.320919 -0.31426,0.320919 0,0 0.0842,0.187691 0.39222,0.428615 0.1618,0.126541 0.55106,0.396156 0.89813,0.548744 0.34707,0.152589 0.66309,0.189024 0.65316,0.294148 -0.0209,0.221422 -0.96668,0.26394 -0.96668,0.26394 l 0.0166,0.42761 1.38967,-0.03446 -0.91695,0.519968 1.14979,0.641894 -1.10065,0.05529 1.5404,0.661384 c 0,0 -1.93155,-0.137003 -2.03816,0.07463 -0.10661,0.211633 -0.016,0.244201 0.34855,0.482487 0.36458,0.238286 1.97263,0.425798 1.97263,0.425798 l -2.19159,-0.04425 2.39409,0.9135 -0.30517,0.275747 0.40716,0.26337 -1.13165,-0.01316 0.50586,0.56454 -1.60759,-0.443347 -0.39417,0.254379 c 0,0 0.96747,0.523031 1.02947,0.92486 0.062,0.401829 -0.30173,0.85247 -0.30173,0.85247 l 2.06422,1.494478 -1.37156,-0.615098 1.36657,1.650939 -1.50277,-0.931104 1.15835,1.453555 -0.35221,0.04216 0.49801,0.474416 -1.03062,-0.5036 2.56978,2.918776 -2.0938,-1.554284 c 0,0 1.21589,1.958796 1.9439,2.80614 0.37204,0.433024 0.91769,1.000259 1.43025,1.43597 0.51256,0.435711 1.0017,0.747927 0.96052,0.822928 -0.0842,0.153389 -0.67093,-0.430375 -0.78022,-0.05942 -0.0929,0.315358 1.11674,1.130708 2.42402,2.118293 1.30728,0.987585 2.53003,1.748024 2.79521,2.213516 0.6018,1.056418 0.81164,3.676823 0.81164,3.676823 0,0 0.48994,0.735461 0.48347,1.011869 -0.006,0.276408 -0.25414,0.47358 -0.25414,0.47358 0,0 0.42243,0.09888 0.45659,0.308341 0.0342,0.209457 -0.2364,0.456399 -0.2364,0.456399 0,0 1.48942,5.014887 1.82169,6.152826 0.33227,1.137939 0.0984,0.450326 0.19254,0.668735 0.0942,0.218409 0.34401,0.436323 0.37215,0.629425 0.0281,0.193102 -0.1613,0.261183 -0.10645,0.426556 0.0548,0.165373 0.42997,0.213512 0.46881,0.383595 0.0388,0.170083 -0.16597,0.187328 -0.18624,0.399776 -0.0203,0.212448 0.0626,0.283095 0.20422,0.814227 0.14163,0.531132 0.0669,2.41353 0.0669,2.41353 l 0.46384,1.008926 0.0455,0.76019 0.39018,1.22997 c 0,0 -0.034,0.95439 0.25637,1.20539 0.29031,0.25101 0.73228,-0.13977 0.93515,0.13524 0.20288,0.27501 -0.34855,0.32215 -0.17241,0.64471 0.17615,0.32255 0.12257,1.07195 0.17732,1.60548 l 0.14974,0.61877 c 0,0 0.22898,-0.0206 0.40693,0.28273 0.0951,0.16209 -0.0493,0.56412 -0.0342,0.94591 0.004,0.0982 0.21631,0.17628 0.23632,0.29763 0.02,0.12136 -0.13209,0.23655 -0.045,0.36344 0.12355,0.18002 0.42966,0.1893 0.49522,0.3761 0.0656,0.18679 -0.1379,0.54889 -0.1379,0.54889 l 0.20772,0.23603 -0.075,0.52755 c 0,0 0.23278,0.0156 0.31439,0.14524 0.0816,0.1296 -0.008,0.57257 -0.008,0.57257 0,0 0.40036,0.0397 0.41917,0.19696 0.0188,0.15725 -0.33305,0.16456 -0.37951,0.30527 -0.0465,0.14072 -0.0113,0.22549 0.10163,0.389 0.11298,0.16351 0.39639,0.0528 0.53634,0.34694 0.13994,0.29412 -0.22731,0.98544 -0.14233,1.30779 0.085,0.32235 0.42539,0.43601 0.59951,0.73963 0.17413,0.30362 0.0352,0.53815 0.18025,1.01066 0.1451,0.4725 0.48048,1.46459 0.48048,1.46459 0,0 0.54597,0.40196 0.73965,0.71174 0.19368,0.30979 0.35879,1.10901 0.35879,1.10901 0,0 0.46196,-0.0694 0.8388,0.14818 0.23211,0.13404 0.33219,0.52657 0.56889,0.66616 0.30456,0.17961 0.66079,0.26324 0.68688,0.41293 0.0793,0.4549 -0.47894,0.22088 -0.60695,0.74032 -0.12801,0.51943 0.31033,0.54786 0.24664,0.85635 -0.0637,0.3085 -0.4971,0.68706 -0.4971,0.68706 0,0 0.51183,0.007 0.6195,0.26669 0.10766,0.26007 -0.35871,0.42705 -0.37563,0.9423 -0.0169,0.51525 0.3944,0.39815 0.44583,0.61985 0.0514,0.2217 0.0291,0.56383 0.0291,0.56383 0,0 0.021,0.28101 0.22733,0.43622 0.20923,0.15737 0.60568,0.19047 0.86846,0.4137 0.14252,0.12108 -0.0714,0.36954 0.0199,0.49057 0.0913,0.12104 0.48911,-0.0635 0.5916,0.008 0.11927,0.0833 -0.0128,0.23849 0.10811,0.32071 0.10014,0.0681 0.46219,0.0672 0.49081,0.10412 0.0553,0.0713 -0.0251,0.2007 0.006,0.27064 0.0765,0.17181 0.21924,0.28824 0.27782,0.51406 0.43969,1.69491 -0.48822,2.39914 -1.54164,4.68627 -1.05342,2.28713 -2.36286,2.44091 -2.99415,1.95038 -0.6313,-0.49054 -1.00105,-0.62881 -1.62054,-1.95684 -0.40547,-0.86923 -0.99461,-1.62201 -1.36887,-2.39822 -0.18535,-0.38441 -0.24812,-1.08876 -0.45991,-1.55725 -0.28329,-0.62668 -0.72222,-1.03745 -1.01255,-1.67433 -0.60048,-1.31725 -1.17479,-2.53297 -1.62583,-3.57776 -1.94744,-4.6411 -3.96477,-14.74559 -5.98646,-21.06801 -2.0217,-6.322404 -3.78816,-7.925299 -5.02382,-9.927221 -1.23566,-2.001923 -1.52504,-2.771565 -2.68122,-4.125081 -1.15852,-1.356243 -2.01243,-2.038904 -6.04288,-5.464955 -1.25958,-1.070699 -2.72652,-2.577838 -4.55866,-3.880224 -1.46086,-1.038457 -3.27456,-1.862275 -4.52273,-2.845311 -0.99121,-0.780664 -1.61214,-1.544547 -2.21314,-2.147671 -0.73016,-0.732731 -1.33631,-1.228186 -1.33631,-1.228186 l 0.24036,2.532043 c 0,0 -0.67404,-2.431221 -1.05541,-3.076939 -0.38137,-0.645718 -0.83743,-0.923521 -0.83743,-0.923521 l 0.28219,2.809794 c 0,0 -0.63596,-3.011536 -0.97312,-3.543374 -0.33716,-0.531838 -3.8157,-3.381405 -4.15935,-3.146705 -0.24774,0.1692 1.73516,2.511644 1.73516,2.511644 0,0 -2.98206,-3.137332 -3.25205,-2.985 -0.26999,0.152333 0.0474,1.023131 0.0474,1.023131 0,0 -0.85233,-0.835605 -1.1405,-0.619344 -0.28818,0.216261 0.75684,1.644852 0.75684,1.644852 l -0.83455,-0.294088 -0.21462,1.126969 c 0,0 -0.56199,-2.061263 -1.01234,-2.546488 -0.45034,-0.485225 -0.78009,-0.644569 -1.04478,-0.410393 -0.2647,0.234176 1.1436,1.938796 1.1436,1.938796 l -1.22311,-1.065053 1.52541,3.512152 -2.44293,-2.585468 -0.0256,1.645169 -0.63661,-1.519178 0.25256,1.895314 -0.91066,-0.925891 0.73557,2.457307 -1.4408,-2.199052 0.90207,2.674801 -1.81464,-1.637808 0.70026,1.505526 -1.06778,-0.323969 1.28501,1.227915 3.16218,3.151329 c 0,0 -3.51167,-2.684849 -3.78016,-2.285704 -0.26848,0.399144 0.5746,1.409261 1.293,2.359401 0.71841,0.950139 3.08837,3.076307 3.08837,3.076307 0,0 -3.69651,-3.193685 -4.00746,-2.779023 -0.31096,0.414661 0.61113,1.619555 1.2886,2.859267 0.36023,0.659193 0.85497,1.21972 0.86325,1.390277 0.0239,0.491315 -0.45193,0.381026 -0.4581,0.702066 -0.006,0.32104 0.36565,0.713233 0.55927,0.933592 0.19363,0.22036 0.6458,0.244268 0.70303,0.497178 0.0572,0.25291 -0.16939,0.458422 -0.16939,0.458422 0,0 0.82311,0.195358 0.84117,0.470965 0.0181,0.275607 -0.55544,0.414646 -0.55544,0.414646 0,0 0.91486,0.655712 0.91481,0.959125 -5e-5,0.303413 -0.3886,0.17139 -0.3886,0.17139 l 1.2994,2.014052 c 0,0 2.82681,3.243824 2.85337,4.943926 0.0266,1.700102 -0.13798,1.660261 -1.61434,3.950312 -0.13398,0.207812 -0.33099,0.630842 -0.52491,0.851087 -0.15288,0.173641 -0.30383,0.134922 -0.42045,0.358727 -0.0933,0.179031 1.7e-4,0.610789 -0.0959,0.754834 -0.22563,0.338332 -0.57021,0.460882 -0.80652,0.817388 -0.28239,0.426025 -0.50372,1.075322 -0.80445,1.619043 -0.34651,0.62648 -0.77377,1.14978 -1.11584,1.63812 -0.56272,0.80337 -1.16838,1.54262 -1.81305,2.06014 -0.23424,0.18805 -0.13999,0.77261 -0.31659,1.00391 -0.3863,0.50594 -0.99538,0.89599 -1.35558,1.32355 -0.89849,1.06649 -1.42768,1.97322 -1.72857,2.61364 -0.15806,0.33642 -0.35686,0.28752 -0.48402,0.54284 -0.0881,0.17696 -0.1873,0.55386 -0.14521,0.83131 0.0363,0.23924 0.2341,0.38618 0.12461,0.56866 -0.18449,0.30748 -0.74712,0.13937 -0.74712,0.13937 l -0.18987,0.89697 -0.92008,0.47526 -0.20424,0.68695 -0.54647,0.60591 -0.0397,0.59361 -0.44654,0.26971 -0.20073,0.42612 -0.69747,0.32592 0.55466,0.42803 -0.60455,0.16119 0.22482,0.43906 -0.41056,0.0917 -0.201,0.4045 -0.45016,0.166 0.45171,0.41515 -0.78239,0.26239 0.0369,0.67264 -0.48203,0.20289 -0.0347,0.62177 -0.57962,0.42279 -0.50617,1.30164 -0.31055,-0.16954 -1.25458,4.19441 -1.84212,2.09156 -2.45067,1.61534 -4.43106,-5.38419 1.53759,-1.83995 12.82123,-19.85137 c 0,0 2.09224,-4.817519 1.78695,-7.716951 -0.30529,-2.899433 -1.53239,-4.935763 -3.22969,-7.425248 -1.6973,-2.489486 -3.03698,-3.688651 -6.96284,-7.878273 -3.92586,-4.189623 -5.69046,-8.39171 -5.69046,-8.39171 l -0.66943,0.985065 0.028,-1.56695 -1.04217,2.077357 0.0188,-1.705282 -0.49563,-0.243706 -0.50284,2.545576 -0.24683,-2.169959 -0.66988,2.623166 -0.0749,-2.021727 -0.61267,1.751114 -0.53701,-1.073781 -0.25194,1.770566 -0.50003,-1.721761 -0.44381,0.902494 -0.30947,-0.958635 -0.58475,0.02956 0.47766,1.480123 -3.82645,-0.730583 1.26939,1.076662 -2.92751,-0.71339 -0.32516,0.407987 0.5734,0.414176 -0.99138,-0.01535 -0.35165,0.457364 0.34961,1.432791 -1.17226,-1.062674 -1.06433,0.160948 0.33183,0.53921 -1.83221,-0.411843 -1.08182,-0.107397 0.20192,0.684695 -1.29819,-0.24412 -0.7104,0.333975 -1.16747,0.08472 0.73457,0.75606 -2.106226,-0.358465 -0.844811,-0.281046 -0.08097,0.387475 -1.06882,-0.43129 1.043374,0.950896 -1.122936,-0.391385 1.476004,1.535438 c 0,0 -1.430915,-0.741833 -2.080648,-0.943034 -0.649733,-0.2012 -1.769193,-0.312914 -1.769193,-0.312914 l 0.896732,0.834605 -1.86141,-0.507159 1.686114,1.00819 -1.953298,-0.186724 1.000144,1.0409 -1.14378,0.515467 1.169395,4.936064 1.253211,2.328314 0.09241,2.218479 1.335771,2.328813 -0.57127,0.717593 0.526467,0.901927 -0.256078,0.723073 0.450434,1.465061 -0.132795,1.950009 0.516873,1.034385 0.04378,0.837707 c 0,0 0.896981,3.186562 5.805456,8.433162 1.75697,1.878 3.04455,3.64073 4.21512,4.84032 0.22427,0.22983 0.37799,0.61406 0.6131,0.7554 0.21225,0.12759 0.50797,0.0144 0.67729,0.17232 1.39909,1.30518 2.11551,2.06425 2.11551,2.06425 l 1.39218,0.55894 0.47513,0.9985 0.79998,0.2211 0.49743,0.7481 1.34962,0.25117 1.46322,0.79657 0.72206,0.92957 0.0435,0.91563 0.66403,0.36244 0.74151,1.33952 5.79972,7.03187 -9.5404,0.004 c 0,0 -3.29966,-3.0153 -5.99422,-6.32761 -2.00009,-2.45862 -4.06122,-5.7133 -6.61362,-8.54279 -5.144308,-5.70233 -10.314183,-9.12381 -11.368406,-10.8945 -0.910146,-1.52871 -2.454902,-6.990332 -4.269332,-10.667588 -1.814429,-3.677255 -6.697349,-11.273711 -6.697349,-11.273711 -0.762258,0.558519 -1.12646,1.415325 -2.026122,2.092279 -0.825786,0.621367 -1.903565,0.776418 -2.678382,1.42295 -0.288535,0.240763 -0.651652,1.087241 -0.911466,1.277815 -0.359343,0.26358 0.454728,-1.117125 0.250821,-1.142373 -0.258122,-0.03196 -1.52294,1.275382 -1.960382,1.634597 -0.534828,0.439185 -1.081725,0.87722 -1.691577,1.220944 l -1.216384,0.560681 -3.019241,2.582205 -0.907311,1.171002 0.06883,-0.620625 c 0,0 -3.747617,2.945738 -5.792925,5.369059 -2.045308,2.423321 -4.255554,5.779175 -6.085977,9.316425 -0.428103,0.8273 -0.763151,1.71461 -1.065377,2.4433 -0.302226,0.72869 -0.698495,0.88883 -0.808366,1.16125 -0.109871,0.27243 -0.08291,0.85936 -0.18837,1.12674 -0.65042,1.64909 -1.47986,3.23868 -1.955985,4.55693 -0.532722,1.47495 -0.0281,1.62529 -0.374329,2.24801 -0.0548,0.0986 -0.313513,0.45682 -0.551907,0.73681 -0.175404,0.20601 -0.597599,0.22541 -0.83842,0.49482 -0.125844,0.14079 -0.124883,0.47682 -0.258721,0.62975 -0.155485,0.17767 -0.504781,0.11543 -0.66876,0.29928 -0.09195,0.1031 -0.07109,0.84724 -0.162683,0.95285 -0.480243,0.55373 -1.112038,0.81651 -1.432039,1.25776 -0.532941,0.73488 -0.50733,2.08076 -0.50733,2.08076 0,0 -0.200376,0.29577 -0.413272,0.62357 -0.212896,0.3278 -0.261933,1.19438 -0.857445,1.34742 -0.595512,0.15304 -5.411367,-0.66953 -7.067428,-1.53549 -1.789469,-1.01902 -0.476396,-3.79448 -0.28211,-4.58913 0.194286,-0.79465 0.866856,-2.72582 1.515279,-3.24135 0.648424,-0.51554 2.261546,-0.42057 2.846853,-0.86041 0.585307,-0.43988 3.708274,-4.57536 5.476743,-7.13674 0.938849,-1.35979 2.688532,-3.68798 3.747243,-5.59444 1.058711,-1.90647 1.131282,-2.33977 1.490928,-3.490298 0.359646,-1.150532 0.342268,-2.321258 0.690386,-3.367166 0.348119,-1.045907 0.916636,-1.999472 1.460563,-3.192789 0.543928,-1.193316 0.658377,-2.374025 1.773694,-3.975099 1.115317,-1.601073 2.674032,-3.031853 4.216458,-4.43803 1.542426,-1.406176 3.577876,-3.580215 4.479307,-4.749498 0.901431,-1.169283 2.14052,-2.770637 2.004295,-3.159057 -0.136225,-0.38842 -0.702569,-0.55642 -0.943622,-0.387587 -0.241053,0.168833 -0.104199,0.97272 -0.268057,1.466968 -0.163858,0.494248 -0.798594,1.532931 -0.798594,1.532931 0,0 -1.228622,-2.585609 -1.594733,-2.639996 -0.352527,-0.05237 -0.945189,0.249436 -1.714519,0.921783 -0.76933,0.672347 -1.534799,1.769994 -1.534799,1.769994 0,0 1.213586,-2.500275 1.003333,-3.238809 -0.210254,-0.738533 -0.660306,-0.718042 -0.961792,-0.649757 -0.301487,0.06829 -1.67362,3.405818 -1.67362,3.405818 0,0 0.271605,-3.727066 0.0089,-3.85348 -0.262705,-0.126414 -1.007491,0.785551 -1.423042,1.816456 -0.415551,1.030904 -0.791538,3.140235 -0.791538,3.140235 0,0 -0.441302,-2.093432 -0.718015,-2.076135 -0.276712,0.0173 -1.597321,2.252832 -1.597321,2.252832 0,0 -1.112522,-5.29496 -1.223753,-5.458171 -0.11123,-0.16321 -0.555113,-0.808235 -0.577066,-0.451945 -0.0069,0.111435 0.218948,0.846544 0.316447,1.696239 0.07662,0.667749 0.07237,1.462234 0.1363,2.18494 0.114817,1.297992 0.274571,2.403336 0.274571,2.403336 0,0 -0.983717,-3.321669 -1.249326,-3.216525 -0.265609,0.105144 0.08724,3.902218 0.08724,3.902218 0,0 -0.265517,-1.842366 -0.482895,-1.816046 -0.217378,0.02632 -0.204761,2.048189 -0.204761,2.048189 0,0 -0.338999,-3.426382 -0.61606,-3.383295 -0.27706,0.04309 0.05103,2.67384 0.05103,2.67384 0,0 -0.789939,-2.994419 -1.100548,-2.94107 -0.31061,0.05335 0.715331,3.103266 0.715331,3.103266 0,0 -1.061696,-2.60495 -1.384245,-2.495053 -0.322549,0.109898 0.634386,2.497694 0.634386,2.497694 0,0 -1.528666,-3.072629 -1.707891,-3.184689 -0.179226,-0.112059 -0.75113,-0.301973 -0.870027,-0.142637 -0.118896,0.159336 -0.04809,0.752238 -0.02657,1.39492 0.02152,0.642682 0.393568,2.425434 0.393568,2.425434 l -0.976614,-2.578376 -0.580448,-0.05903 1.053102,2.748634 -1.497259,-2.716594 c 0,0 0.149027,-1.078392 2.65e-4,-1.218073 -0.148763,-0.13968 -0.479427,0.08029 -0.528605,0.391398 -0.01281,0.08101 0.128586,0.406795 0.150913,0.844393 0.01954,0.382895 -0.147642,0.912545 -0.134485,1.377577 0.02955,1.044587 0.226864,2.010522 0.226864,2.010522 0,0 -0.474325,-1.615106 -0.758804,-2.390508 -0.28448,-0.775402 -0.943891,-2.258267 -0.943891,-2.258267 l -0.58741,0.200689 0.0147,1.627412 c 0,0 -0.659909,-1.542957 -0.880649,-1.492655 -0.403757,-0.07871 -0.184723,1.492163 -0.104435,1.928455 0.137809,0.710862 0.702106,2.574155 0.702106,2.574155 0,0 -0.726247,-2.039563 -0.923291,-2.145966 -0.176323,-0.09521 -0.314198,-0.121273 -0.314198,-0.121273 l -0.08369,1.205407 -0.352033,-1.923436 c 0,0 -0.297386,-0.06869 -0.440967,0.0485 -0.03942,0.03217 -0.208445,0.460624 -0.162962,0.923877 0.03126,0.318393 0.288293,0.630181 0.257955,0.933722 -0.03577,0.357839 -0.255134,-0.03476 -0.346325,0.201189 -0.128854,0.333399 -0.132376,1.2253 -0.132376,1.2253 0,0 -0.451547,-2.716314 -0.644007,-2.869064 -0.192459,-0.152749 -0.435708,-0.18899 -0.61552,-0.120014 -0.179813,0.06898 -0.554919,1.114893 -0.554919,1.114893 0,0 -0.319659,-1.153354 -0.607752,-1.471734 -0.288093,-0.31838 -0.507027,-0.529569 -0.668645,-0.431259 -0.174529,0.106164 0.259627,1.053162 0.03245,1.151789 -0.18703,0.0812 -0.490764,-0.365116 -0.490764,-0.365116 0,0 -0.0065,0.454996 -0.125458,0.615199 -0.118918,0.160203 -0.500942,0.270335 -0.500942,0.270335 l -0.148248,2.542875 -0.880274,-2.35057 -0.116876,0.878672 c 0,0 -0.128675,-0.204735 -0.382654,-0.108382 -0.25398,0.09635 0.02351,1.195785 0.02221,2.473722 0,0 -0.261806,-1.472369 -0.470267,-1.564705 -0.208461,-0.09233 -0.293248,0.0209 -0.390291,0.229355 -0.09704,0.208452 0.22028,0.824673 0.22028,0.824673 l -0.435269,-0.135782 0.662188,1.745372 c 0,0 -1.238166,-1.442943 -1.634123,-1.85194 -0.395957,-0.408996 -0.532648,-0.784777 -0.688508,-0.648381 -0.15586,0.136396 0.05173,0.788181 0.05173,0.788181 0,0 -0.611821,-0.348968 -0.816672,-0.316991 -0.204851,0.03198 -0.164319,0.138391 -0.198771,0.336178 -0.03445,0.197786 1.016337,2.278263 1.016337,2.278263 0,0 -0.989527,-1.659682 -1.156599,-1.776863 -0.167071,-0.117181 -0.340934,-0.266891 -0.524383,-0.109447 -0.08632,0.07408 0.527767,1.024386 0.527767,1.024386 l -0.492325,-0.358028 0.179307,1.241125 -0.645866,-1.204201 -0.131212,1.11801 -0.342401,-1.029991 c 0,0 -0.168178,-0.226651 -0.437363,-0.01732 -0.269185,0.209331 -0.288431,1.040228 -0.334151,1.57319 -0.04572,0.532962 0.06106,1.600065 0.06106,1.600065 L 27.346723,86.55671 c 0,0 -0.04698,0.361373 -0.214397,0.436855 -0.167418,0.07548 -0.593385,-0.16258 -0.593385,-0.16258 0,0 -0.06084,0.331463 -0.244564,0.36965 -0.18372,0.03819 -0.572344,-0.372071 -0.572344,-0.372071 0,0 -0.153862,-0.146052 -0.476187,0.06048 -0.09265,0.05937 -0.157758,0.275373 -0.287569,0.374786 -0.12981,0.09941 -0.343763,0.08189 -0.528067,0.215247 -0.259772,0.187957 -0.504475,0.560661 -0.758872,0.986706 -0.676381,1.132752 0.117675,1.936312 0.62693,2.909523 0.434682,0.830697 0.64145,1.627597 0.690192,2.517673 0.105845,1.932851 0.177005,4.472478 -0.610887,5.816238 -0.33468,0.570803 -0.390988,1.179803 -1.207331,1.802733 -0.535775,0.40883 -0.908435,0.2057 -1.306994,0.38336 -0.692882,0.30885 0.200205,0.8193 -3.094375,1.10787 -2.318915,0.20311 -5.233261,-0.53322 -6.877158,-1.24733 C 7.9122652,100.02715 6.4454559,95.233926 5.6522661,92.698439 4.8590763,90.162951 3.8838179,85.467511 3.8838179,85.467511 3.43833,83.748382 3.6687007,82.283808 3.7024734,80.716375 3.7232172,79.753629 3.423473,78.733132 3.5754697,77.647014 c 0.060476,-0.432143 0.3145776,-0.655331 0.4395431,-1.067487 0.09635,-0.317778 0.066578,-0.809586 0.1177246,-1.214087 z"
       id="path827"
       inkscape:connector-curvature="0"
       sodipodi:nodetypes="czzzsszssssszssssssssszssszssssssssssszszzssssscczczczzzssssccczssscssssssssszszszczssscssszzzzzczszsszscczczczccccccccczzcccccccczczczcccccccccczczczczczcczszccccczcsczczzczzzszcccccccccccccccscccccsczczccczsczcszsccccccczzccccccccczcccccccccccszsszsczczczzzzzzzcccczzzccsszszccczczzzzzzzczcssszzczzzcsszssssszzssssczzssssscczcczsczczccczzcccccccccccccccczzczsszzzczczcczssssssssssssssccccccccccccccccccccccccccccczzzccccccccccccccccccccccccccccccccccccccccccczccccccccccccccccccsssscccccccccccccssszcsssssccccczszzsssssssssczzczzzszzzzzzzzzzcszczzczzczczsssczczczczczczzzccccczsssczccccccscccssssczzczssczcccczczzccczzczzczscccccczzcczczcszssssssssszcsssc" />
  </g>
</svg>
