<?xml version="1.0" encoding="UTF-8" standalone="no"?>
<!-- Created with Inkscape (http://www.inkscape.org/) -->

<svg
   xmlns:dc="http://purl.org/dc/elements/1.1/"
   xmlns:cc="http://creativecommons.org/ns#"
   xmlns:rdf="http://www.w3.org/1999/02/22-rdf-syntax-ns#"
   xmlns:svg="http://www.w3.org/2000/svg"
   xmlns="http://www.w3.org/2000/svg"
   xmlns:sodipodi="http://sodipodi.sourceforge.net/DTD/sodipodi-0.dtd"
   xmlns:inkscape="http://www.inkscape.org/namespaces/inkscape"
   width="177mm"
   height="282mm"
   viewBox="0 0 177 282"
   version="1.1"
   id="svg8"
   inkscape:version="0.92.4 (5da689c313, 2019-01-14)"
   sodipodi:docname="white_stork.svg">
  <defs
     id="defs2" />
  <sodipodi:namedview
     id="base"
     pagecolor="#ffffff"
     bordercolor="#666666"
     borderopacity="1.0"
     inkscape:pageopacity="0.0"
     inkscape:pageshadow="2"
     inkscape:zoom="0.61580177"
     inkscape:cx="213.19489"
     inkscape:cy="503.56496"
     inkscape:document-units="mm"
     inkscape:current-layer="layer2"
     showgrid="false"
     inkscape:window-width="1920"
     inkscape:window-height="1009"
     inkscape:window-x="-8"
     inkscape:window-y="-8"
     inkscape:window-maximized="1" />
  <metadata
     id="metadata5">
    <rdf:RDF>
      <cc:Work
         rdf:about="">
        <dc:format>image/svg+xml</dc:format>
        <dc:type
           rdf:resource="http://purl.org/dc/dcmitype/StillImage" />
        <dc:title></dc:title>
      </cc:Work>
    </rdf:RDF>
  </metadata>
  <g
     inkscape:groupmode="layer"
     id="layer2"
     inkscape:label="Layer 2"
     transform="translate(0,-15)">
    <path
       style="opacity:0.8;fill:#da2c2c;fill-opacity:1;stroke:none;stroke-width:0.15000001;stroke-linecap:butt;stroke-linejoin:miter;stroke-miterlimit:4;stroke-dasharray:none;stroke-opacity:1"
       d="m 137.04975,146.03733 c -0.64345,-0.72459 -1.17241,-1.30292 -2.0407,-2.18733 -0.8683,-0.88442 -2.26895,-2.43025 -4.14894,-4.54655 -2.02283,-2.27711 -5.20906,-6.32177 -7.16489,-8.4606 -1.95584,-2.13883 -5.56982,-4.89419 -8.82625,-7.5168 -2.01861,-1.62572 -14.54731,-9.63724 -23.253038,-14.79828 -8.705724,-5.16104 -15.39316,-8.5266 -18.6312,-11.144863 -3.23804,-2.618262 -3.867303,-2.710335 -6.161608,-4.659826 -2.294306,-1.949492 -5.790175,-5.775989 -6.402771,-8.078401 -0.814554,-3.061465 -1.866606,-7.857747 -1.415629,-8.783203 0.29673,-0.60892 0.76074,-1.794965 1.216088,-2.573011 0.455348,-0.778047 0.852033,-0.830983 1.177308,-1.661852 0.101062,-0.258148 0.03161,-0.999573 0.160175,-1.635218 0.154602,-0.76435 0.511619,-1.459667 0.681089,-2.092497 0.227918,-0.85108 0.58309,-1.441114 1.235802,-3.044711 0.236228,-0.580371 0.441087,-1.936448 0.776763,-2.748771 0.306336,-0.741322 0.930906,-1.056959 1.324471,-1.900087 0.312032,-0.668463 0.449114,-1.637714 0.778843,-2.363813 0.490757,-1.080699 0.922219,-2.24057 1.526842,-3.256235 0.334609,-0.562088 0.878909,-0.975571 1.144113,-1.554714 0.885753,-1.934273 1.126012,-3.230984 1.618524,-4.853554 0.492512,-1.622571 1.270372,-2.015924 1.821965,-5.284915 0.202817,-1.201986 -0.08063,-2.83799 -0.09764,-3.842935 -0.01701,-1.004945 0.277532,-1.437541 0.26177,-1.919902 -0.01969,-0.602454 -0.175282,-1.039821 -0.219766,-1.884723 -0.04448,-0.844903 0.05275,-1.708175 -0.130523,-2.583598 -0.581136,-2.775842 -4.351398,-8.567197 -7.65899,-9.935989 -3.307592,-1.368792 -7.605395,-2.073307 -12.739894,0.423409 -5.134499,2.496716 -7.959181,9.467934 -9.935987,14.207711 -0.250788,0.601311 -0.746989,1.683953 -1.983082,2.892382 -1.236093,1.208429 -1.64837,1.19747 -3.548813,2.845012 -1.900443,1.647542 -5.007889,5.007016 -8.433528,8.317454 -4.503111,4.351675 -10.160494,9.358244 -14.731441,13.682952 -4.5709476,4.324708 -6.6011489,7.442485 -6.2108243,7.922614 0.2961873,0.364332 9.2769053,-5.400433 15.1729663,-9.343991 5.896061,-3.943558 8.464222,-5.814806 11.768537,-8.052132 9.205025,-6.232649 10.478155,-7.049693 12.021497,-7.754347 1.543342,-0.704654 2.084493,-0.556078 3.997127,-0.987477 1.912635,-0.431398 4.555146,-1.014409 4.82859,-0.649704 0.276728,0.369083 -4.727304,7.981909 -8.429803,17.513788 -1.070073,2.754843 -1.665639,5.609261 -2.792734,9.712535 -1.127094,4.103274 -2.519814,6.551092 -3.064405,8.435294 -0.54459,1.884202 -0.901544,2.394775 -0.910008,3.110903 -0.0085,0.716128 0.300818,1.356618 -0.01676,2.369199 -0.05341,0.170291 -0.556164,0.918433 -0.708443,1.498645 -0.15228,0.580212 -0.01126,1.201959 -0.151879,1.613372 -0.14062,0.411413 -0.378485,1.433103 -0.564609,2.473522 -0.186124,1.040418 -0.562132,3.004262 -0.972186,5.34681 -0.410054,2.342547 -2.118297,8.948577 -1.628301,9.101547 0.618212,0.19299 1.557874,-5.33861 2.265287,-5.29861 0.707412,0.04 -0.08307,7.09976 -0.537792,10.45649 -0.454723,3.35674 -0.677468,4.78559 -0.17857,8.91348 0.09622,0.79612 0.593078,1.53056 0.863338,2.46311 0.270259,0.93256 0.297716,2.00001 0.587166,3.36118 0.628308,2.95469 1.4256,7.16846 2.156907,7.13327 0.705896,-0.034 1.06527,-0.87642 1.128231,-4.07705 0.04789,-2.43443 -0.032,-4.21309 1.119647,-4.23019 1.370207,-0.0204 1.982354,9.04208 2.968158,9.01852 0.985805,-0.0236 0.235348,-2.98358 1.068715,-3.03399 0.833366,-0.0504 2.018146,6.73742 3.439352,9.19169 1.421206,2.45426 3.41401,2.9408 4.997249,6.39048 1.583239,3.44969 3.607617,8.18231 5.6083,11.01228 2.000682,2.82996 5.757718,6.0938 5.757718,6.0938 0,0 1.577385,1.20035 2.441578,2.17879 0.864194,0.97844 1.809589,3.69731 2.652372,5.71368 0.842784,2.01636 1.679073,5.14031 2.851003,6.90989 1.17193,1.76957 3.586721,3.41244 3.586721,3.41244 0,0 4.584691,2.88994 5.375391,3.7543 0.790701,0.86436 3.47096,8.41589 3.665149,9.866 0.19419,1.45011 -1.435583,15.88986 -2.222349,17.8324 -0.786767,1.94254 -2.535638,3.0443 -2.978768,4.49999 -0.44313,1.45569 0.508861,5.23547 -0.122999,8.19096 -0.424199,1.98417 -6.350247,27.4224 -9.088847,37.94957 -2.7386,10.52717 -2.512877,9.47361 -3.800498,11.99475 -0.677766,1.32705 -1.076597,1.55872 -1.691004,2.13203 -0.614406,0.5733 -0.06174,1.00397 -3.034472,2.30808 -1.307003,0.57337 -3.795594,1.37971 -7.63271,1.67815 -3.837117,0.29845 -8.9806,0.16714 -9.001616,0.82696 -0.01344,0.4218 0.708641,0.41158 1.583364,0.44904 0.874723,0.0375 1.892953,0.0699 2.858857,0.14272 1.346432,0.10146 1.717453,0.65773 3.078001,0.93657 1.360549,0.27884 3.146905,0.60779 6.008983,0.37196 2.862079,-0.23583 8.637885,-2.44268 9.730372,-2.26098 1.092487,0.1817 2.575666,2.28557 3.112736,2.06423 0.259057,-0.10677 0.372387,-0.43107 -0.0071,-1.23552 -0.37946,-0.80445 -1.499867,-2.45981 -1.500297,-4.23539 -3.89e-4,-1.60433 3.948054,-19.18802 7.094778,-31.65976 3.146723,-12.47174 5.598238,-20.58807 6.173424,-21.8894 1.32352,-2.99441 2.587252,-4.96993 3.109808,-6.8574 0.287001,-1.03665 0.01302,-4.67951 0.149822,-7.7329 0.03842,-0.85761 0.203293,-1.80904 0.265465,-2.89695 0.06217,-1.08792 0.04935,-2.37575 0.43023,-2.3809 0.376198,-0.005 0.510639,1.17449 0.743068,2.21599 0.232429,1.04151 0.395911,1.72851 0.604813,2.65755 0.691682,3.07611 0.536851,5.70173 1.334009,8.02628 0.797158,2.32455 1.855906,2.45353 2.666747,5.44711 0.155447,0.5739 -0.07851,-1.97976 1.270483,5.54774 1.348994,7.52751 6.555762,39.98374 6.767632,42.97692 0.10156,1.43475 -0.48583,3.49388 -0.852,4.45367 -0.36617,0.95978 -0.41276,0.82392 -0.58387,1.30194 -0.17112,0.47802 -0.0894,0.65552 -0.37368,1.53609 -0.28424,0.88057 -0.9839,2.35991 -1.548932,3.06462 -0.552164,0.68866 -1.633878,1.23338 -2.199827,1.57143 -0.565949,0.33805 -0.496178,0.53343 -0.817867,0.6912 -0.32169,0.15777 -0.502312,0.0628 -1.188768,0.40465 -0.686456,0.34187 -1.796593,1.15588 -2.733746,1.48281 -0.937154,0.32693 -4.172203,0.64541 -6.330188,0.78026 -2.157985,0.13485 -3.550761,-0.0359 -3.530687,0.49736 0.01209,0.32114 3.900024,0.49788 6.701018,0.36445 2.800994,-0.13343 4.595366,-0.46217 5.648993,-0.72448 1.54085,-0.38361 5.336854,-2.34003 7.766824,-3.69962 2.42996,-1.35958 3.69115,-2.29092 4.51877,-2.36139 1.97828,-0.16846 6.77475,3.90345 7.20771,3.47256 0.27435,-0.27304 -2.66347,-2.88764 -3.8253,-4.04756 -0.59155,-0.59057 -0.87007,-1.02316 -1.55973,-1.68085 -0.68967,-0.65769 -1.7196,-1.31716 -2.64108,-3.47624 -1.71232,-4.01205 -7.764502,-50.18993 -7.764502,-50.18993 0,0 -0.273293,-3.26511 -0.395067,-6.51661 -0.121775,-3.25149 -0.08468,-6.12954 -0.553303,-7.40088 -0.204094,-0.55369 -2.056979,-3.28483 -3.8773,-7.29178 -1.82032,-4.00694 -3.245917,-7.03388 -3.43719,-11.2153 -0.08153,-1.78238 -0.0239,-3.24004 0.2243,-4.16721 0.07113,-0.26571 0.328039,-0.12634 0.392513,-0.38331 0.0897,-0.35751 0.01505,-0.94946 0.07618,-1.31872 0.101284,-0.61186 0.355865,-0.6056 0.539954,-0.95718 0.03695,-0.0706 0.172411,-0.28656 0.318005,-0.32272 0.145506,-0.0361 0.30113,0.10756 0.378644,0.0151 0.172666,-0.20604 0.474275,-0.0908 0.705715,-0.33775 0.112357,-0.11988 0.183084,-0.50032 0.303376,-0.6299 0.301651,-0.32496 1.18186,-0.17637 1.504248,-0.50606 1.150993,-1.1771 1.228579,-1.36957 2.441484,-1.57716 1.212906,-0.20759 3.038163,1.39325 4.725473,1.28503 1.6873,-0.10821 2.84549,-1.74846 4.67839,-1.39438 1.83289,0.35408 2.30875,3.33158 4.13681,3.74516 1.82806,0.41359 2.61883,-0.40992 4.99848,-0.0361 2.37966,0.37377 5.74779,3.53289 8.32219,3.52868 2.57439,-0.004 2.37438,-0.43349 4.23539,-0.0289 1.86101,0.40456 7.18307,3.85006 9.4443,4.26639 2.26123,0.41633 3.50246,0.85762 4.67707,1.36914 1.17461,0.51153 1.6604,1.22832 2.41807,1.43851 0.39541,0.10969 0.96252,0.13575 1.37716,-0.006 0.41465,-0.14217 0.7123,-0.50752 0.95095,-0.33225 0.93363,0.68567 0.54701,2.42799 1.10145,2.53207 0.55444,0.10408 0.4619,-0.67797 1.20186,-1.27611 0.82442,-0.66643 1.1048,-0.11323 1.50462,-0.30537 0.39983,-0.19215 0.04,-0.70333 0.85192,-0.89108 0.27641,-0.0639 0.51222,0.24009 0.87901,0.33611 0.36678,0.096 0.5787,-0.0398 0.78835,0.0746 0.20965,0.11448 0.17457,0.34174 0.39606,0.50446 0.22149,0.16271 0.42616,0.16148 0.77921,0.41041 0.35305,0.24894 0.31066,0.64555 1.04153,1.39666 0.18328,0.18836 0.34964,0.0243 1.10765,0.59515 0.75801,0.57087 1.51658,1.94173 2.3037,2.03203 0.78711,0.0903 1.7831,-1.22634 1.70345,-1.9155 -0.0396,-0.34258 -0.57502,-1.06059 -1.11554,-1.773 -0.54683,-0.72073 -1.09793,-1.43809 -0.98096,-2.16805 0.23259,-1.45149 1.26333,-0.9418 1.75352,-1.82414 0.49018,-0.88234 0.30148,-1.18391 0.86731,-1.98571 0.56583,-0.80181 1.09366,-0.41893 1.46155,-0.85704 0.36789,-0.4381 0.41999,-1.92995 0.89721,-2.40905 0.47722,-0.4791 0.98018,-0.0733 1.39108,-0.52432 0.41089,-0.45101 0.2141,-1.74689 0.7762,-2.07666 0.56211,-0.32978 2.57468,1.45068 3.24576,1.07863 0.67109,-0.37205 -0.002,-2.40446 -0.42358,-3.81066 -0.14515,-0.48425 -0.76708,-0.93046 -1.28361,-1.80274 -0.51654,-0.87228 -0.55367,-1.49719 -1.02445,-2.12827 -0.70645,-0.94699 -2.07842,-1.67888 -3.23349,-2.68051 -1.15507,-1.00163 -2.33131,-2.05239 -2.0383,-2.65179 0.293,-0.59941 1.52557,0.0409 1.8141,-0.50392 0.0915,-0.17275 -0.51853,-1.1874 -1.14651,-2.52032 -1.35284,-2.87149 -1.41681,-4.29306 -4.25658,-6.88448 -0.73403,-0.66984 -1.66937,-1.08089 -2.46865,-1.58835 -0.84904,-0.53905 -1.07186,-1.16854 -2.11194,-1.78882 -1.04007,-0.62028 -2.70558,-1.24793 -3.45304,-1.90467 -0.80879,-0.71064 -0.27965,-1.36728 -0.82643,-2.28821 -0.21712,-0.3657 -2.08081,-2.2293 -3.54733,-3.65137 -1.46652,-1.42206 -2.40586,-2.26325 -3.40315,-3.29148 -2.62676,-2.70826 -3.5885,-3.90947 -5.28667,-5.82179 z"
       id="path849"
       inkscape:connector-curvature="0"
       sodipodi:nodetypes="czszszzzsszssssssssszszszszzszzszszszzsszzzszzzzszzszsssszzzzzczzzczzzzszszszszszzzszszssszszszszszzzszzzzzszszssszsczszsssssssssszzzzzzzzzszszszszzzzszzssszzzzzzzszszzsssszsszssc" />
  </g>
</svg>
