<?xml version="1.0" encoding="UTF-8" standalone="no"?>
<!-- Created with Inkscape (http://www.inkscape.org/) -->

<svg
   xmlns:dc="http://purl.org/dc/elements/1.1/"
   xmlns:cc="http://creativecommons.org/ns#"
   xmlns:rdf="http://www.w3.org/1999/02/22-rdf-syntax-ns#"
   xmlns:svg="http://www.w3.org/2000/svg"
   xmlns="http://www.w3.org/2000/svg"
   xmlns:sodipodi="http://sodipodi.sourceforge.net/DTD/sodipodi-0.dtd"
   xmlns:inkscape="http://www.inkscape.org/namespaces/inkscape"
   width="180mm"
   height="284mm"
   viewBox="0 0 180 284"
   version="1.1"
   id="svg8"
   inkscape:version="0.92.4 (5da689c313, 2019-01-14)"
   sodipodi:docname="giant_panda.svg">
  <defs
     id="defs2" />
  <sodipodi:namedview
     id="base"
     pagecolor="#ffffff"
     bordercolor="#666666"
     borderopacity="1.0"
     inkscape:pageopacity="0.0"
     inkscape:pageshadow="2"
     inkscape:zoom="0.6633733"
     inkscape:cx="-160.29126"
     inkscape:cy="474.94716"
     inkscape:document-units="mm"
     inkscape:current-layer="layer2"
     showgrid="false"
     inkscape:window-width="1920"
     inkscape:window-height="1009"
     inkscape:window-x="-8"
     inkscape:window-y="-8"
     inkscape:window-maximized="1" />
  <metadata
     id="metadata5">
    <rdf:RDF>
      <cc:Work
         rdf:about="">
        <dc:format>image/svg+xml</dc:format>
        <dc:type
           rdf:resource="http://purl.org/dc/dcmitype/StillImage" />
        <dc:title></dc:title>
      </cc:Work>
    </rdf:RDF>
  </metadata>
  <g
     inkscape:groupmode="layer"
     id="layer2"
     inkscape:label="Layer 2"
     transform="translate(0,-13)">
    <path
       style="opacity:0.8;fill:#a3b389;fill-opacity:1;stroke:none;stroke-width:0.15000001;stroke-linecap:butt;stroke-linejoin:miter;stroke-miterlimit:4;stroke-dasharray:none;stroke-opacity:1"
       d="m 66.794776,50.658043 c 0,0 -2.331853,5.870377 -3.555437,12.280682 -0.805598,4.220492 -1.168048,9.617872 -2.124919,14.667681 -1.344745,7.096776 -2.897594,14.548146 -5.185198,20.32571 -6.38773,16.132834 -25.442337,39.358604 -27.770452,49.466464 -2.328114,10.10787 1.474757,20.94111 2.439732,23.31096 0.964974,2.36984 6.080531,10.92162 6.382043,11.62906 0.181267,0.42532 -1.131671,6.09558 -1.807404,9.32113 -0.675733,3.22555 -0.704715,4.19958 -0.9113,4.55076 -0.420481,0.7148 -9.745478,16.24902 -10.267886,17.24971 -0.284366,0.54472 -2.771889,5.61879 -3.916773,9.7869 -1.144883,4.1681 -0.998485,7.37153 -1.035674,9.33298 -0.04298,2.26685 0.149748,7.32237 0.62017,10.9413 0.470422,3.61893 1.225297,5.91792 1.171457,6.35724 -0.0538,0.43902 -0.75948,2.16975 -1.104262,4.22185 -0.344781,2.05209 -0.349357,4.43028 -0.787136,4.61953 -0.747636,0.32319 -3.718775,-1.93879 -5.941661,0.81727 -0.795163,0.98589 -1.451426,2.04239 -1.862793,3.3555 -0.738613,2.35772 -0.820818,4.17165 -0.544441,4.95518 0.276377,0.78353 3.393624,5.46255 4.024791,6.23886 0.631168,0.7763 2.593042,3.27073 5.425827,5.18382 2.465098,1.66478 6.057918,2.94483 9.832717,4.00357 3.7748,1.05874 10.027271,2.09447 11.853606,2.22043 1.826335,0.12597 4.490759,0.48475 6.054169,-0.28233 1.56341,-0.76707 1.818859,-2.47414 2.394495,-3.74034 0.575636,-1.2662 0.741124,-3.30466 1.458351,-4.0248 0.717228,-0.72014 16.561727,-0.34529 23.879156,-0.29507 7.317429,0.0502 11.779869,0.26634 19.844882,0.98618 8.065004,0.71989 24.635034,3.10886 27.038024,3.98048 5.20822,1.88915 2.62789,3.74544 7.6585,6.36305 5.03062,2.61761 13.00432,1.66624 17.37368,0.89641 3.53448,-0.75662 7.43511,-2.4462 9.64108,-4.18782 2.20597,-1.74163 3.04619,-3.49157 3.57175,-4.70172 1.32753,-3.05677 2.1381,-7.22267 2.11674,-9.43373 -0.0214,-2.21106 -0.33802,-6.6261 -0.26324,-8.77229 0.0748,-2.1462 1.81265,-6.13512 2.93067,-9.15634 1.11802,-3.02123 1.33041,-2.0603 2.51606,-6.0702 1.18564,-4.0099 2.7276,-11.83158 2.15194,-18.02592 0,0 -2.2956,-21.12137 -2.94424,-28.66591 -0.64863,-7.54455 -0.80152,-11.55103 -2.11265,-17.38166 -1.31113,-5.83062 -5.67425,-15.83548 -5.46312,-18.68874 0.21114,-2.85325 2.27519,-10.59809 2.20702,-17.82219 -0.0682,-7.22409 -2.90538,-17.24545 -5.24241,-23.00579 -2.33703,-5.76034 -4.20834,-10.05727 -5.65494,-12.51055 -1.44659,-2.45329 -2.02479,-3.68515 -3.71318,-6.03898 -1.68839,-2.35382 -2.77337,-4.19208 -2.75844,-4.58223 0.021,-0.547907 4.02885,-6.014511 5.37865,-9.144118 0.83682,-1.940244 2.6073,-4.738947 2.72518,-7.843411 -0.5825,-9.022898 -5.50119,-18.556439 -9.23008,-25.228405 -1.32068,-2.363041 -2.25551,-4.286123 -3.64393,-6.785964 -1.38842,-2.499841 -3.26632,-5.331102 -4.77078,-8.670821 -0.42862,-1.248346 -0.51248,-0.42874 0.17627,-7.405647 -0.15628,-4.798037 -0.74252,-8.819782 -6.22925,-12.089493 -1.83128,-1.025127 -4.24705,-1.467246 -6.01737,-1.282741 -4.2784,0.645809 -5.46974,2.599186 -9.07704,5.824138 0,0 -9.86614,0.319858 -14.725756,0.84737 -4.859615,0.527512 -14.504608,2.754973 -14.504608,2.754973 0,0 -4.95381,-5.380365 -10.06897,-6.484557 -5.11516,-1.104192 -8.043705,0.469681 -11.078652,2.827501 -3.034948,2.357819 -3.161538,7.598957 -2.644556,12.107407 0.516982,4.50845 6.091588,10.897671 6.091588,10.897671 z"
       id="path838"
       inkscape:connector-curvature="0"
       sodipodi:nodetypes="cssszzszsszszszssszzszzzzzzzszczszzzzczzzzzzzsscszccccczczzzc" />
  </g>
</svg>
