<?xml version="1.0" encoding="UTF-8" standalone="no"?>
<!-- Created with Inkscape (http://www.inkscape.org/) -->

<svg
   xmlns:dc="http://purl.org/dc/elements/1.1/"
   xmlns:cc="http://creativecommons.org/ns#"
   xmlns:rdf="http://www.w3.org/1999/02/22-rdf-syntax-ns#"
   xmlns:svg="http://www.w3.org/2000/svg"
   xmlns="http://www.w3.org/2000/svg"
   xmlns:sodipodi="http://sodipodi.sourceforge.net/DTD/sodipodi-0.dtd"
   xmlns:inkscape="http://www.inkscape.org/namespaces/inkscape"
   width="155mm"
   height="35mm"
   viewBox="0 0 155 35"
   version="1.1"
   id="svg8"
   inkscape:version="0.92.4 (5da689c313, 2019-01-14)"
   sodipodi:docname="komodo_dragon.svg">
  <defs
     id="defs2" />
  <sodipodi:namedview
     id="base"
     pagecolor="#ffffff"
     bordercolor="#666666"
     borderopacity="1.0"
     inkscape:pageopacity="0.0"
     inkscape:pageshadow="2"
     inkscape:zoom="2.72"
     inkscape:cx="190.40559"
     inkscape:cy="48.442508"
     inkscape:document-units="mm"
     inkscape:current-layer="layer2"
     showgrid="false"
     inkscape:window-width="1920"
     inkscape:window-height="1009"
     inkscape:window-x="-8"
     inkscape:window-y="-8"
     inkscape:window-maximized="1" />
  <metadata
     id="metadata5">
    <rdf:RDF>
      <cc:Work
         rdf:about="">
        <dc:format>image/svg+xml</dc:format>
        <dc:type
           rdf:resource="http://purl.org/dc/dcmitype/StillImage" />
        <dc:title></dc:title>
      </cc:Work>
    </rdf:RDF>
  </metadata>
  <g
     inkscape:groupmode="layer"
     id="layer2"
     inkscape:label="Layer 2"
     transform="translate(0,-9)">
    <path
       style="opacity:0.8;fill:#434eef;fill-opacity:1;stroke:none;stroke-width:0.15000001;stroke-linecap:butt;stroke-linejoin:miter;stroke-miterlimit:4;stroke-dasharray:none;stroke-opacity:1"
       d="m 77.849109,11.443616 c -0.06798,-0.01326 -0.222154,0.06872 -0.387089,0.04527 -0.1321,-0.01879 -0.2949,-0.18291 -0.447128,-0.168156 -0.105788,0.01025 -0.159926,0.07307 -0.271925,0.06218 -0.08845,-0.0086 -0.170106,-0.127883 -0.263387,-0.135958 -0.09592,-0.0083 -0.203595,0.09462 -0.30445,0.08685 -0.09648,-0.0074 -0.221123,-0.141009 -0.319957,-0.123862 -0.12548,0.02177 -0.263315,0.12201 -0.398092,0.11393 -0.106697,-0.0064 -0.205921,-0.160499 -0.316025,-0.166445 -0.109406,-0.0059 -0.25741,0.145581 -0.369907,0.140103 -0.142678,-0.0069 -0.186029,-0.170735 -0.333184,-0.177016 -0.112885,-0.0048 -0.291728,0.175474 -0.40696,0.171034 -0.10095,-0.0039 -0.193507,-0.146326 -0.296078,-0.149936 -0.109961,-0.0039 -0.211559,0.131109 -0.323183,0.127551 -0.08683,-0.0028 -0.201878,-0.153376 -0.289607,-0.15596 -0.09581,-0.0028 -0.22626,0.102061 -0.32302,0.09945 -0.12129,-0.0033 -0.1999,-0.15096 -0.322452,-0.153911 -0.104251,-0.0025 -0.208914,0.139676 -0.31391,0.137391 -0.0924,-0.002 -0.185062,-0.148519 -0.277929,-0.150362 -0.120332,-0.0024 -0.241011,0.111025 -0.361923,0.108905 -0.126734,-0.0022 -0.253723,-0.119961 -0.380836,-0.121895 -0.107414,-0.0016 -0.184246,0.05992 -0.291757,0.05848 -0.164333,-0.0022 -0.140429,-0.08416 -0.304519,-0.08584 -0.06032,-6.16e-4 -0.200692,0.07664 -0.299716,0.07348 -0.09353,-0.003 -0.176428,-0.0661 -0.235789,-0.06222 -0.0645,0.0042 -0.159674,0.06055 -0.223466,0.06643 -0.08225,0.0076 -0.163307,-0.07572 -0.241647,-0.06656 -0.147429,0.01724 -0.212933,0.05055 -0.330853,0.06655 -0.09655,0.01311 -0.266836,-0.107032 -0.363987,-0.100282 -0.0913,0.0063 -0.182564,0.09797 -0.273927,0.100581 -0.110629,0.0032 -0.235333,-0.108478 -0.345213,-0.103419 -0.106911,0.0049 -0.227585,0.12369 -0.333014,0.124263 -0.0678,3.68e-4 -0.135274,-0.143809 -0.2024,-0.14337 -0.13644,8.93e-4 -0.228063,0.103134 -0.361412,0.104293 -0.09237,8.04e-4 -0.227319,-0.09954 -0.318039,-0.09862 -2.365817,0.02394 -1.799167,0.01863 -4.190309,0.04279 -2.391142,0.02416 -6.851128,0.09186 -10.156406,0.03935 -3.305278,-0.05251 -9.630778,-0.303388 -9.630778,-0.303388 0,0 -0.358352,0.04508 -2.883783,0.02399 -2.52543,-0.0211 -8.75182,-0.101953 -13.196089,0.01582 -0.54722,0.0145 -1.374797,0.08671 -1.885901,0.104221 -1.786413,0.06119 -3.006614,0.07874 -4.027481,0.203093 -0.271944,0.03312 -0.542527,0.139055 -0.810033,0.177074 -0.517265,0.07352 -1.037097,0.132152 -1.518961,0.211346 -0.801211,0.131678 -1.522277,0.295365 -2.134348,0.496475 -0.609945,0.200412 -0.87219,0.455467 -1.436986,0.668109 -0.193196,0.07274 -0.454958,0.07607 -0.64561,0.150409 -0.374719,0.146113 -0.578042,0.40404 -0.852519,0.503495 -0.722344,0.261739 -1.157935,0.161193 -1.737131,0.477723 -0.62372,0.340861 -1.485903,1.166055 -1.895599,1.261901 -0.4096957,0.09585 -1.0660654,-0.19289 -1.8751108,0.283035 -0.8090464,0.475926 -2.0699008,2.871013 -2.2751798,3.131206 -0.2052777,0.260193 -2.949383,2.40216 -3.032227,2.614909 -0.082844,0.212749 -0.2093406,1.207826 -0.1860916,1.637593 0.023249,0.429766 -8.729e-4,0.646701 0.1704764,0.873223 0.127701,0.168819 0.2377992,0.03534 0.3473177,0.116028 0.140802,0.103729 0.02594,0.205743 0.02594,0.205743 0,0 -0.5380482,0.468511 -1.1069815,1.127828 -0.5607972,0.649888 -1.13575707,1.273565 -1.070348,1.3599 0.06266,0.08271 0.7659928,-0.629193 1.3877496,-1.218175 0.4672762,-0.442644 0.9035529,-0.797017 0.9035529,-0.797017 0,0 0.6178927,0.581826 1.1310984,0.729586 0.5132047,0.147761 2.7889595,-0.09687 3.0884352,-0.151738 0.299475,-0.05487 4.1750965,-1.28142 4.4448425,-1.369954 0.269745,-0.08853 2.338953,0.04935 2.338953,0.04935 l 2.19571,0.606952 c 0,0 4.668433,0.292564 5.410552,0.196427 0.742119,-0.09614 2.018062,-0.483512 2.327684,-0.521378 0.309622,-0.03787 0.526644,0.07887 0.761787,0.0031 0.235144,-0.07573 0.301228,-0.261531 0.512389,-0.332604 0.120357,-0.04051 1.218895,-0.05868 1.972954,-0.0065 0.75406,0.05223 1.209917,0.168092 1.326458,0.201492 0.271014,0.07767 0.434823,0.20944 0.647338,0.387923 0.212514,0.178483 0.25916,0.309555 0.36906,0.324342 0.23107,0.03109 0.531901,0.06766 0.607524,-0.04541 0.07562,-0.113071 -0.110467,-0.311617 0.135605,-0.386594 0.196717,-0.05994 0.518721,0.264639 0.846212,0.544413 0.327491,0.279774 0.665168,0.509859 0.703118,0.65489 0.07112,0.271783 -1.511173,3.410184 -1.940509,5.436437 -0.429336,2.026253 -0.393461,4.625571 -0.722812,5.748281 -0.349197,1.190365 -1.082321,1.274896 -1.574027,1.726777 -0.263122,0.24181 -0.136644,0.343599 -0.490234,0.507596 -0.35359,0.163995 -0.766568,-0.350161 -1.543165,-0.04167 -0.776597,0.308489 -1.272637,1.158611 -1.272637,1.158611 0,0 -0.786385,-0.885281 -1.741976,-0.998076 -0.955591,-0.112794 -1.721213,0.4843 -2.351233,0.672204 -0.63002,0.187902 -0.875104,0.124674 -1.453018,0.575112 -0.155241,0.120998 -0.294419,0.447341 -0.444454,0.737036 -0.141702,0.273603 -0.295922,0.506012 -0.388643,0.783453 -0.174575,0.522366 -0.215571,0.913477 -0.164501,0.952658 0.118687,0.09106 0.350072,-0.686821 0.350072,-0.686821 0,0 0.06135,0.63486 0.218796,0.588479 0.157444,-0.04638 0.04954,-0.657054 0.155285,-0.829188 0.105741,-0.172134 0.859772,-0.502981 0.859772,-0.502981 0,0 -0.02152,0.602653 0.14425,0.590565 0.238377,-0.01738 0.164092,-0.61671 0.164092,-0.61671 0,0 0.02965,0.08807 0.338454,0.250651 0.0766,0.04033 0.169952,0.116944 0.296266,0.152456 0.08692,0.02444 0.182974,-0.0167 0.278464,-5.43e-4 0.155356,0.02629 0.309209,0.106998 0.419743,0.144617 0.416241,0.141656 0.788981,0.467955 1.029506,0.528898 0.630719,0.15981 1.575821,0.02328 1.575821,0.02328 0,0 0.08713,0.538852 0.326755,0.492501 0.239628,-0.04635 0.06671,-0.563287 0.06671,-0.563287 0,0 0.579851,0.03453 1.373943,0.055 1.135863,0.02928 2.674566,-0.146656 3.076959,-0.262476 0.68371,-0.196791 1.695453,-0.876906 2.518095,-1.544044 0.40666,-0.329789 0.703181,-0.700579 1.050411,-1.052356 0.34723,-0.351776 0.743707,-0.684766 1.02922,-1.041945 0.564627,-0.706353 0.41863,-0.702784 1.149107,-1.799706 0.730477,-1.096922 1.989348,-2.5192 2.607131,-4.040546 0.617783,-1.521346 1.227173,-4.813085 1.227173,-4.813085 0,0 0.93031,0.315429 2.222918,0.49574 1.292607,0.18031 2.833984,0.205627 4.056338,0.40595 1.559287,0.255541 2.831922,0.571358 3.008111,0.631389 0.283627,0.09664 1.198918,0.83315 2.167863,1.42297 0.681259,0.414699 1.474997,0.649438 1.722183,1.003494 0.598757,0.857625 0.701841,2.615876 0.701841,2.615876 0,0 -0.687653,0.045 -0.914392,0.290696 -0.22674,0.2457 -0.176357,0.943143 -0.176357,0.943143 0,0 -0.378386,0.04877 -0.786571,-0.109233 -0.327623,-0.126823 -0.740738,-0.462834 -1.011535,-0.492228 -0.608181,-0.06602 -1.296508,-4.42e-4 -1.502477,0.08167 -0.205969,0.0821 -0.788817,0.387118 -0.934864,0.724298 -0.146047,0.337181 -0.313959,1.057912 -0.139838,0.989939 0.05803,-0.02266 0.09136,-0.198278 0.227751,-0.296799 0.136395,-0.09852 0.447559,-0.447583 0.682305,-0.407674 0.424387,0.07215 0.309135,0.602782 0.474208,0.741905 0.165073,0.139123 0.286264,0.302277 0.34068,0.180997 0.0377,-0.08402 0.01682,-0.272747 0.08601,-0.340421 0.164825,-0.161222 0.428562,-0.182841 0.562302,-0.169593 0.270914,0.02684 0.106568,0.264665 0.293092,0.329829 0.186524,0.06516 0.44116,-0.08883 0.609609,-0.0088 0.168449,0.08005 0.09667,0.195904 0.302146,0.280678 0.141933,0.05856 1.558864,0.239002 2.079663,0.264959 0.520799,0.02596 0.917469,0.08235 1.028612,-0.0064 0.111142,-0.08875 0.159471,-0.1661 0.10394,-0.268508 -0.05553,-0.102408 -0.302275,-0.05617 -0.347978,-0.16307 -0.0457,-0.106899 0.0042,-0.145502 0.12644,-0.24054 0.12222,-0.09504 0.579045,-0.09865 0.579045,-0.09865 l 0.635331,-0.4132 c 0,0 0.121756,-0.300888 0.196632,-0.456077 0.07488,-0.155189 0.257762,-0.306339 0.343834,-0.480442 0.08607,-0.174103 0.172527,-0.371737 0.168194,-0.54933 -0.0043,-0.177593 -0.132869,-0.288419 -0.1666,-0.462266 -0.03373,-0.173847 -0.05818,-0.414186 -0.02135,-0.570763 0.03683,-0.156577 0.142068,-0.158547 0.188655,-0.345825 0.04659,-0.187278 -0.04502,-0.434625 -0.009,-0.763921 0.03602,-0.329296 0.278587,-1.191451 0.278587,-1.191451 0,0 2.032417,0.514506 6.434117,1.104855 4.4017,0.590348 11.034272,-1.058068 11.034272,-1.058068 0,0 -0.278599,1.271495 -0.317621,1.833488 -0.03902,0.561993 -0.01375,1.539694 -0.01375,1.539694 0,0 -0.561636,0.167111 -1.875554,0.481185 -0.422479,0.100988 -0.689538,0.360878 -2.019266,0.655892 -0.543318,0.120541 -1.180063,0.310231 -2.012615,0.341763 -0.23586,0.0089 -0.480851,0.0627 -0.710872,0.04383 -0.107358,-0.0088 -0.211455,-0.08324 -0.30984,-0.0949 -0.124106,-0.01471 -0.239122,0.04343 -0.340131,0.02781 -0.252951,-0.0391 -0.449906,-0.06403 -0.449906,-0.06403 0,0 -0.282416,0.141878 -0.48893,0.157789 -0.206513,0.01591 -0.312329,-0.05432 -0.641724,-0.186176 -0.117274,-0.04694 -0.247478,-0.102371 -0.384954,-0.16637 -0.27278,-0.126987 -0.550981,-0.403758 -0.863108,-0.467456 -0.08902,-0.01817 -0.179213,0.06714 -0.269032,0.07671 -0.18763,0.02 -0.373616,-0.0048 -0.543768,0.01041 -0.179412,0.01603 -0.317196,0.106283 -0.457663,0.15715 -0.709361,0.256881 -0.733912,0.402871 -1.030512,0.937601 -0.159609,0.287754 -0.160838,0.693644 -0.102257,0.865984 0.05028,0.147917 0.09639,0.120529 0.247297,0.0631 0.150906,-0.05743 0.05122,-0.459925 0.42873,-0.756081 0.377506,-0.296156 0.713237,-0.397732 0.798672,-0.307965 0.04258,0.04474 -0.374067,0.436225 -0.579141,0.887323 -0.206425,0.454073 -0.176661,0.893319 -0.176661,0.893319 0,0 0.109612,0.120195 0.260105,0.0087 0.150493,-0.111527 0.160149,-0.40104 0.479399,-0.730117 0.31925,-0.329078 0.743094,-0.540211 0.911059,-0.539571 0.373378,0.0014 0.402642,0.257132 0.464794,0.37696 0.02745,0.05292 -0.179255,0.399243 -0.213957,0.703126 -0.04388,0.384246 -0.03669,0.513072 0.07252,0.622295 0.10922,0.109222 0.26974,0.05346 0.26974,0.05346 0,0 0.197402,-0.841474 0.716566,-0.811002 0.519164,0.03047 0.452709,0.303449 0.852209,0.417785 0.399501,0.114336 1.103665,-0.06575 1.349594,0.05015 0.245929,0.11591 0.101526,0.443637 0.215748,0.560986 0.114222,0.117348 0.273276,0.137006 0.350649,0.09645 0.112713,-0.05908 0.08986,-0.24674 0.236279,-0.289322 0.171179,-0.04978 0.643283,-0.199927 1.57659,-0.126657 0.59053,0.04636 1.295279,0.145265 2.065061,0.126724 0.993989,-0.02394 1.809997,-0.172834 2.799746,-0.260681 0.685534,-0.06085 1.342327,0.06359 1.935106,0.0247 0.932695,-0.06119 1.668335,-0.275939 1.813564,-0.338386 0.637101,-0.273946 0.892591,-0.866447 0.892591,-0.866447 0,0 1.503929,-1.091433 2.203464,-2.498544 0.699534,-1.40711 1.312776,-6.16038 1.312776,-6.16038 0,0 1.476631,-0.334891 2.906055,-0.875745 1.455681,-0.550789 2.866281,-1.307423 3.052492,-1.273633 0.222049,0.04029 0.776445,0.778644 1.160237,1.454434 0.383793,0.67579 0.573664,1.287876 0.870338,1.604928 0.744777,0.795935 2.13929,1.498767 2.13929,1.498767 0,0 2.681579,3.469398 3.688276,4.497389 1.006684,1.02799 2.139958,1.831239 2.139958,1.831239 0,0 -0.738287,0.235422 -0.925417,0.408164 -0.187147,0.172742 -0.357677,0.412474 -0.357677,0.412474 0,0 -1.182784,-0.255696 -1.551731,0.06461 -0.368927,0.320305 -0.25019,1.355537 -0.25019,1.355537 l -0.536397,0.04204 c 0,0 -0.356747,-0.886589 -0.859994,-1.348624 -0.503242,-0.462036 -2.036774,0.272329 -2.036774,0.272329 l 0.370255,0.950107 c 0,0 0.161033,-0.107444 0.318681,-0.048 0.247886,0.09348 0.568326,0.452563 0.491328,0.624909 -0.077,0.172345 -0.435249,0.07581 -0.435249,0.07581 0,0 -0.223158,-0.02766 -0.3157,-0.321153 -0.1163,-0.368834 -0.208578,-1.160722 -0.450295,-1.246707 -0.524199,-0.186469 -1.557734,-0.07949 -2.062407,0.370465 -0.504673,0.449951 -0.733426,1.168884 -0.733426,1.168884 l 0.527882,0.229451 c 0,0 0.401491,-0.603172 0.842177,-0.584213 0.440686,0.01896 0.717795,0.596241 0.669048,0.733426 -0.04875,0.137185 -0.18912,0.238421 -0.644907,0.217962 -0.455787,-0.02046 -1.417641,-0.775037 -2.066698,-0.653418 -0.649056,0.121618 -1.174958,0.660757 -1.447079,1.09232 -0.272121,0.431563 -0.226221,0.942177 -0.226221,0.942177 l 0.508325,-0.03562 c 0,0 0.160914,-0.574434 0.54859,-0.718504 0.197442,-0.07337 0.548932,0.01788 0.812728,0.02141 0.935114,0.01249 0.788007,0.534621 1.025996,0.622951 0.237989,0.08833 8.261465,-0.194946 8.400202,-0.152003 0.16772,0.05191 0.26826,0.383802 0.37245,0.542232 0.104197,0.15843 0.398267,0.645368 0.545337,0.565006 0.147067,-0.08036 -0.31273,-1.14739 -0.31273,-1.14739 0,0 1.408161,-0.03746 1.890121,-0.269357 0.481947,-0.231898 0.791664,-0.707636 1.012704,-0.854128 0.22104,-0.146492 0.71464,0.17902 2.23357,-0.739954 1.7086,-1.033729 1.57454,-1.963614 1.65739,-2.642907 0.0828,-0.679293 0.10309,-1.495804 -0.0639,-2.428278 -0.49708,-2.77539 -3.86722,-5.755009 -4.936514,-6.51524 -0.676347,-0.480858 -0.853437,-0.654551 -1.274704,-0.84438 -0.244747,-0.110288 -0.817844,-0.337957 -0.954414,-0.477668 -0.371657,-0.380184 -1.258064,-1.44547 -0.989834,-1.607789 0.268227,-0.162319 2.729575,1.055394 6.685136,1.740406 1.83691,0.31811 4.09658,0.597792 7.61864,0.91675 3.52206,0.318958 8.49679,0.669277 11.66452,1.002744 5.5078,0.579807 5.44588,0.616453 12.17386,1.411595 1.94725,0.230136 4.01475,0.645778 6.09183,1.053481 2.2068,0.433164 4.14878,0.795554 6.11784,1.308836 1.96906,0.513282 3.60327,1.139762 3.63304,1.274797 0.0298,0.135036 -0.53329,0.569902 -0.74722,0.86158 -0.21393,0.291677 -0.37836,0.615801 -0.43559,0.743844 -0.0572,0.128042 -0.37563,1.147087 -0.38937,1.298566 -0.0137,0.151479 -0.0733,1.198882 -0.0376,1.536823 0.0161,0.152176 0.0841,0.197451 0.10312,0.29593 0.0232,0.120217 0.0322,0.272038 0.0651,0.352081 0.0592,0.145613 0.0441,0.09653 0.11195,0.238645 0.0522,0.109251 0.0889,0.270812 0.1361,0.339385 0.10865,0.157776 0.21188,0.304048 0.34975,0.379918 0.13787,0.07587 0.28722,0.09337 0.42433,0.09054 0.13711,-0.0028 0.2368,0.01111 0.35459,-0.06295 0.11779,-0.07406 0.20503,-0.189002 0.27085,-0.389316 0.0658,-0.200315 0.17126,-0.578558 0.11859,-0.761812 -0.0527,-0.183254 -0.16482,-0.188724 -0.22388,-0.299324 -0.0591,-0.1106 -0.039,-0.286356 -0.0274,-0.467523 0.0116,-0.181168 0.0162,-0.492517 0.10688,-0.616776 0.0906,-0.12426 0.1322,-0.08286 0.17296,-0.145356 0.0408,-0.06249 -0.0486,-0.2206 0.0116,-0.264624 0.0602,-0.04402 0.0912,0.102401 0.15257,0.06233 0.0613,-0.04007 -0.0504,-0.231733 0.007,-0.274666 0.0574,-0.04293 0.10257,0.06578 0.14996,0.03997 0.0474,-0.02581 0.007,-0.124785 0.0519,-0.160415 0.0444,-0.03563 0.12262,0.02001 0.17218,-0.01635 0.0496,-0.03636 0.0225,-0.143449 0.0762,-0.180422 0.0537,-0.03697 0.13544,0.02517 0.19504,-0.0069 0.0596,-0.03207 0.0516,-0.130676 0.12234,-0.171793 0.0707,-0.04112 0.21444,0.01141 0.27845,-0.02833 0.064,-0.03974 0.0244,-0.103643 0.0916,-0.145752 0.0672,-0.04211 0.23194,0.01397 0.30193,-0.03323 0.07,-0.0472 0.0245,-0.145184 0.0961,-0.178565 0.0716,-0.03338 0.20356,0.09486 0.2654,0.05496 0.0618,-0.0399 -0.0226,-0.122516 0.0373,-0.166384 0.0599,-0.04387 0.20826,0.06377 0.27387,0.02355 0.0656,-0.04022 0.009,-0.127818 0.0702,-0.173161 0.0612,-0.04534 0.21293,0.02261 0.26897,-0.02426 0.056,-0.04687 -0.0107,-0.120003 0.0445,-0.162284 0.0552,-0.04228 0.19655,0.0435 0.24894,-10e-4 0.0524,-0.0445 -0.0253,-0.128674 0.0271,-0.16119 0.0524,-0.03252 0.13338,0.108542 0.19779,0.05983 0.0644,-0.04871 -0.0656,-0.232064 -0.005,-0.277839 0.0606,-0.04577 0.11996,0.08121 0.16993,0.05148 0.05,-0.02973 -0.008,-0.130363 0.0346,-0.167776 0.0428,-0.03741 0.12435,0.02138 0.16934,-0.01177 0.045,-0.03315 0.0276,-0.117185 0.0599,-0.154371 0.0323,-0.03719 0.0334,-0.117487 0.0872,-0.187697 0.0538,-0.07023 0.13869,-0.157471 0.17009,-0.421413 0.0314,-0.263942 0.0473,-0.631503 0.0477,-0.994468 4.1e-4,-0.362965 -0.064,-0.796496 -0.0935,-1.026304 -0.0295,-0.229808 -0.0607,-0.302109 -0.1077,-0.391716 -0.047,-0.08961 -0.0977,-0.07061 -0.12914,-0.153905 -0.0315,-0.0833 0.0405,-0.2634 -0.008,-0.333221 -0.0485,-0.06982 -0.12371,-0.01057 -0.16401,-0.0657 -0.0403,-0.05513 0.009,-0.156604 -0.0169,-0.232427 -0.0258,-0.07582 -0.10539,-0.140568 -0.13616,-0.206627 -0.0308,-0.06606 -0.019,-0.114512 -0.0541,-0.181905 -0.0351,-0.06739 -0.13562,-0.138018 -0.16561,-0.20837 -0.03,-0.07035 -6e-5,-0.132044 -0.0258,-0.190954 -0.0257,-0.05891 -0.0915,-0.09124 -0.12282,-0.148932 -0.0314,-0.05769 -0.0173,-0.153622 -0.0606,-0.19159 -0.0433,-0.03797 -0.10149,0.01755 -0.14237,-0.02522 -0.0409,-0.04277 0.005,-0.151444 -0.0273,-0.208657 -0.032,-0.05721 -0.10758,-0.06475 -0.1419,-0.11521 -0.0343,-0.05046 -0.0235,-0.130146 -0.0552,-0.174856 -0.0317,-0.04471 -0.0761,-0.04038 -0.11638,-0.08725 -0.0403,-0.04687 -0.0548,-0.127976 -0.10654,-0.198617 -0.0518,-0.07064 -0.15105,-0.137205 -0.20952,-0.214895 -0.0585,-0.07769 -0.0953,-0.169219 -0.17973,-0.236272 -0.0844,-0.06705 -0.22743,-0.05589 -0.30897,-0.113569 -0.0815,-0.05767 -0.0908,-0.118998 -0.18816,-0.170726 -0.0974,-0.05173 -0.2607,0.01122 -0.37609,-0.03458 -0.11539,-0.0458 -0.19572,-0.147654 -0.23956,-0.210539 -0.0438,-0.06289 -0.003,-0.09579 -0.0507,-0.131583 -0.0477,-0.03579 -0.17376,0.0346 -0.21586,-0.01841 -0.0421,-0.05301 0.0521,-0.139074 0.001,-0.197507 -0.0507,-0.05843 -0.1914,0.06619 -0.2489,0.01044 -0.0575,-0.05574 0.0405,-0.165036 -0.006,-0.205809 -0.0465,-0.04077 -0.12078,0.04796 -0.16432,0.01681 -0.0435,-0.03115 0.0122,-0.113351 -0.0351,-0.152061 -0.0473,-0.03871 -0.14698,0.04134 -0.21064,-0.0058 -0.0637,-0.04714 -0.0545,-0.190891 -0.1436,-0.250827 -0.0891,-0.05994 -0.2425,0.06891 -0.31951,0.02391 -0.077,-0.045 -0.0138,-0.1054 -0.0676,-0.139918 -0.0538,-0.03452 -0.15725,0.03665 -0.22823,-0.0045 -0.071,-0.04115 -0.062,-0.187442 -0.13568,-0.226509 -0.0737,-0.03907 -0.16393,0.05615 -0.2361,0.01331 -0.0722,-0.04284 -0.055,-0.193088 -0.11451,-0.241298 -0.0595,-0.04821 -0.12965,-0.0092 -0.18727,-0.0446 -0.0576,-0.03537 -0.069,-0.12194 -0.13787,-0.162554 -0.0688,-0.04061 -0.18521,-0.01449 -0.26118,-0.05258 -0.076,-0.03809 -0.10327,-0.139045 -0.18128,-0.162503 -0.078,-0.02346 -0.18423,0.07713 -0.24266,0.03583 -0.0584,-0.0413 0.0269,-0.133257 -0.0354,-0.180604 -0.0623,-0.04735 -0.22134,0.07075 -0.28442,0.02191 -0.0631,-0.04885 4.3e-4,-0.115733 -0.0834,-0.180541 -0.0838,-0.06481 -0.288,0.08324 -0.3915,0.02475 -0.1035,-0.05849 -0.0425,-0.200706 -0.1212,-0.242376 -0.0787,-0.04167 -0.19588,0.08001 -0.26121,0.03513 -0.0653,-0.04488 0.003,-0.164708 -0.049,-0.206264 -0.0517,-0.04156 -0.12692,0.03166 -0.1862,-0.0029 -0.0593,-0.03456 -0.0198,-0.151881 -0.11416,-0.194481 -0.0944,-0.0426 -0.29546,0.133132 -0.38861,0.07562 -0.0931,-0.05751 0.0161,-0.202227 -0.0702,-0.251334 -0.0863,-0.04911 -0.24,0.152885 -0.32315,0.0872 -0.0831,-0.06568 0.0158,-0.208739 -0.0703,-0.281131 -0.0861,-0.07239 -0.19732,0.09462 -0.28678,0.05522 -0.0895,-0.0394 -0.027,-0.139928 -0.10919,-0.182634 -0.0822,-0.04271 -0.24347,0.07399 -0.34183,0.02505 -0.0984,-0.04894 -0.0771,-0.235773 -0.17191,-0.265668 -0.0948,-0.02989 -0.18202,0.146167 -0.25937,0.10524 -0.0773,-0.04093 -0.0553,-0.153865 -0.16069,-0.229768 -0.10537,-0.0759 -0.32942,0.127644 -0.42166,0.04883 -0.0922,-0.07881 -0.0201,-0.0967 -0.11809,-0.183813 -0.098,-0.08711 -0.34277,0.09816 -0.48231,0.03232 -0.13954,-0.06583 -0.11253,-0.23781 -0.19282,-0.271322 -0.0803,-0.03351 -0.12362,0.04511 -0.18667,0.03053 -0.0631,-0.01458 -0.0786,-0.09504 -0.16247,-0.115186 -0.0839,-0.02015 -0.22161,0.09413 -0.31495,0.04603 -0.0933,-0.0481 -0.0374,-0.238868 -0.14229,-0.277332 -0.1049,-0.03846 -0.2137,0.175315 -0.3312,0.137626 -0.1175,-0.03769 -0.09,-0.279829 -0.20152,-0.324177 -0.11155,-0.04435 -0.23088,0.119493 -0.32737,0.08633 -0.0965,-0.03316 -0.0688,-0.178695 -0.1658,-0.217696 -0.097,-0.039 -0.24692,0.105256 -0.34957,0.05483 -0.10265,-0.05043 -0.0506,-0.254425 -0.15993,-0.291362 -0.10931,-0.03694 -0.20695,0.182001 -0.32907,0.145796 -0.12212,-0.0362 -0.12137,-0.243331 -0.26034,-0.289212 -0.13896,-0.04588 -0.24928,0.161554 -0.4044,0.115377 -0.15512,-0.04618 -0.16044,-0.270818 -0.31542,-0.320638 -0.15498,-0.04982 -0.28547,0.109978 -0.43636,0.06795 -0.15089,-0.04203 -0.12562,-0.247739 -0.27219,-0.27821 -0.14657,-0.03047 -0.30178,0.161996 -0.42476,0.119291 -0.12298,-0.0427 -0.0309,-0.243004 -0.15139,-0.308141 -0.12048,-0.06514 -0.34787,0.128764 -0.47483,0.05863 -0.12696,-0.07013 -0.0387,-0.294465 -0.16637,-0.354735 -0.12767,-0.06027 -0.30196,0.161473 -0.44111,0.112696 -0.13915,-0.04878 -0.11455,-0.211346 -0.24874,-0.273539 -0.13419,-0.06219 -0.35603,0.01449 -0.46714,-0.04343 -0.11111,-0.05792 -0.12685,-0.120247 -0.24366,-0.141105 -0.11679,-0.02086 -0.0947,0.162174 -0.2399,0.1487 -0.14519,-0.01347 -0.22269,-0.228724 -0.35797,-0.272866 -0.13528,-0.04414 -0.20879,0.05626 -0.33135,0.01582 -0.12256,-0.04044 -0.15727,-0.188645 -0.27555,-0.214871 -0.11828,-0.02623 -0.19431,0.105745 -0.29112,0.07215 -0.0968,-0.0336 -0.0847,-0.119299 -0.19278,-0.165691 -0.10803,-0.04639 -0.20378,0.08818 -0.35394,0.05068 -0.15016,-0.0375 -0.19212,-0.306473 -0.35222,-0.3386 -0.1601,-0.03213 -0.31651,0.215964 -0.45798,0.177425 -0.14147,-0.03854 -0.0963,-0.245983 -0.2213,-0.275088 -0.12504,-0.02911 -0.2439,0.174201 -0.36443,0.134313 -0.12053,-0.03989 -0.087,-0.210356 -0.20779,-0.256491 -0.12077,-0.04613 -0.20801,0.101153 -0.34139,0.05763 -0.13338,-0.04352 -0.16153,-0.302876 -0.29642,-0.351869 -0.13489,-0.04899 -0.21502,0.140961 -0.34836,0.09787 -0.13334,-0.04309 -0.13579,-0.297672 -0.26049,-0.336947 -0.1247,-0.03927 -0.215,0.137056 -0.34227,0.106795 -0.12727,-0.03026 -0.14987,-0.228801 -0.28672,-0.26396 -0.13685,-0.03516 -0.27153,0.120359 -0.4261,0.07826 -0.15457,-0.0421 -0.17168,-0.278318 -0.32069,-0.288358 -0.14901,-0.01004 -0.20295,0.143144 -0.33677,0.121244 -0.13382,-0.0219 -0.11163,-0.211173 -0.26571,-0.241561 -0.15403,-0.03039 -0.212,0.14773 -0.38641,0.13278 -0.17441,-0.01495 -0.23075,-0.343978 -0.40626,-0.393551 -0.17551,-0.04957 -0.38752,0.1801 -0.56551,0.124731 -0.17799,-0.05537 -0.13463,-0.324759 -0.31811,-0.370915 -0.18348,-0.04616 -0.38671,0.124231 -0.54995,0.105331 -0.16324,-0.0189 -0.21423,-0.209942 -0.37329,-0.233923 -0.15906,-0.02398 -0.30466,0.238588 -0.46736,0.194502 -0.1627,-0.04409 -0.18995,-0.308749 -0.3328,-0.32589 -0.14285,-0.01714 -0.23171,0.137254 -0.37026,0.117919 -0.13855,-0.01933 -0.16051,-0.235813 -0.28491,-0.25682 -0.1244,-0.02101 -0.13387,0.03861 -0.28706,0.05519 -0.15319,0.01658 -0.43514,-0.178087 -0.6062,-0.173013 -0.17106,0.0051 -0.23337,0.155203 -0.37404,0.131185 -0.14067,-0.02402 -0.23375,-0.275412 -0.35886,-0.287558 -0.12511,-0.01215 -0.18119,0.133392 -0.30652,0.123385 -0.12533,-0.01001 -0.18274,-0.236783 -0.32289,-0.262138 -0.14015,-0.02536 -0.24516,0.137206 -0.37882,0.110318 -0.13366,-0.02689 -0.17492,-0.239172 -0.32915,-0.26639 -0.15423,-0.02722 -0.31823,0.212528 -0.4882,0.167805 -0.16997,-0.04472 -0.14611,-0.337335 -0.3113,-0.363675 -0.16519,-0.02634 -0.2806,0.227605 -0.44736,0.195848 -0.16676,-0.03176 -0.15017,-0.35213 -0.3283,-0.402657 -0.17813,-0.05053 -0.36165,0.189221 -0.53641,0.160158 -0.17476,-0.02906 -0.1748,-0.269881 -0.34635,-0.299112 -0.17155,-0.02923 -0.39113,0.180424 -0.55283,0.162668 -0.1617,-0.01776 -0.2236,-0.214294 -0.36949,-0.233586 -0.14589,-0.01929 -0.27494,0.152547 -0.42583,0.132102 -0.15089,-0.02045 -0.23204,-0.227124 -0.39376,-0.252478 -0.16172,-0.02535 -0.32552,0.168941 -0.49725,0.131823 -0.17173,-0.03712 -0.2655,-0.32481 -0.41802,-0.341426 -0.15252,-0.01662 -0.20548,0.17358 -0.33986,0.171717 -0.13438,-0.0019 -0.24355,-0.1833 -0.37436,-0.202364 -0.13081,-0.01906 -0.23315,0.09801 -0.3598,0.07523 -0.12665,-0.02278 -0.21703,-0.191423 -0.34228,-0.215574 -0.12525,-0.02415 -0.23543,0.08829 -0.35495,0.06499 -0.11952,-0.0233 -0.19698,-0.187388 -0.3121,-0.19833 -0.11512,-0.01094 -0.17778,0.134654 -0.30133,0.119158 -0.12355,-0.0155 -0.20822,-0.24025 -0.34282,-0.247919 -0.1346,-0.0077 -0.20695,0.213642 -0.33633,0.189143 -0.12938,-0.0245 -0.11598,-0.282298 -0.25549,-0.313228 -0.13951,-0.03093 -0.25157,0.223118 -0.40801,0.1972 -0.15644,-0.02592 -0.12248,-0.294647 -0.2829,-0.304212 -0.16042,-0.0096 -0.28826,0.197341 -0.42703,0.181036 -0.13877,-0.0163 -0.10676,-0.187857 -0.24647,-0.231404 -0.13966,-0.04355 -0.34205,0.140165 -0.4975,0.1048 -0.15545,-0.03536 -0.17526,-0.237607 -0.32121,-0.263771 -0.14595,-0.02616 -0.27206,0.156775 -0.42009,0.130647 -0.14803,-0.02613 -0.1975,-0.256193 -0.33192,-0.276669 -0.13442,-0.02048 -0.19259,0.152227 -0.32061,0.146503 -0.12802,-0.0057 -0.20147,-0.187253 -0.36177,-0.206167 -0.1603,-0.01891 -0.32243,0.173559 -0.46481,0.134617 -0.14238,-0.03894 -0.15519,-0.183634 -0.29357,-0.223636 -0.13839,-0.04 -0.35479,0.153653 -0.51368,0.133511 -0.15889,-0.02014 -0.22539,-0.188529 -0.37619,-0.2087 -0.1508,-0.02017 -0.32475,0.156037 -0.46876,0.114985 -0.14401,-0.04105 -0.12389,-0.244559 -0.2909,-0.297121 -0.16701,-0.05256 -0.30205,0.200788 -0.45396,0.150108 -0.15191,-0.05068 -0.0663,-0.187591 -0.21354,-0.234185 -0.14724,-0.04659 -0.34625,0.139263 -0.46231,0.06412 -0.11606,-0.07514 -0.11194,-0.166393 -0.32725,-0.224314 -0.21532,-0.05792 -0.70676,0.102956 -0.90016,0.02693 -0.1934,-0.07603 -0.13383,-0.216776 -0.26798,-0.249678 -0.13415,-0.0329 -0.32583,0.148708 -0.44586,0.122928 -0.12003,-0.02578 -0.085,-0.131744 -0.21102,-0.174929 -0.12599,-0.04318 -0.39409,0.05826 -0.52477,0.01666 -0.13068,-0.0416 -0.13469,-0.158726 -0.23742,-0.179788 -0.10273,-0.02106 -0.21573,0.111635 -0.3216,0.07996 -0.10587,-0.03167 -0.0991,-0.203539 -0.22502,-0.243642 -0.12589,-0.0401 -0.31668,0.120896 -0.45112,0.09537 -0.13444,-0.02553 -0.1663,-0.179987 -0.30037,-0.198348 -0.13407,-0.01836 -0.28612,0.159055 -0.43022,0.138474 -0.1441,-0.02058 -0.23365,-0.228973 -0.34894,-0.236241 -0.11529,-0.0073 -0.13188,0.13967 -0.24238,0.122887 -0.1105,-0.01678 -0.16315,-0.250147 -0.28614,-0.277845 -0.12299,-0.0277 -0.22775,0.134998 -0.33857,0.115094 -0.11082,-0.0199 -0.11277,-0.179346 -0.2466,-0.200691 -0.13383,-0.02135 -0.32742,0.222212 -0.46224,0.177582 -0.134817,-0.04463 0.002,-0.195785 -0.190977,-0.301503 -0.1932,-0.105718 -0.760257,0.0752 -0.964454,0.0046 -0.2042,-0.07061 -0.13943,-0.191319 -0.26004,-0.206256 -0.12061,-0.01494 -0.230327,0.193088 -0.362097,0.163505 -0.13177,-0.02958 -0.10176,-0.244696 -0.26762,-0.314543 -0.165857,-0.06985 -0.524597,0.105864 -0.665214,0.04574 -0.14062,-0.06012 0.0377,-0.09863 -0.16046,-0.192804 -0.19815,-0.09417 -0.858297,0.07536 -1.065454,-0.01132 -0.20716,-0.08668 -0.0222,-0.130565 -0.2,-0.198633 -0.177827,-0.06807 -0.658967,0.09317 -0.859474,0.04373 -0.20051,-0.04944 -0.1402,-0.139011 -0.32574,-0.192744 -0.185537,-0.05373 -0.626954,0.05548 -0.780154,-0.023 -0.1532,-0.07848 -0.0112,-0.134766 -0.15336,-0.200298 -0.142127,-0.06553 -0.537537,0.09932 -0.685814,0.03659 -0.148281,-0.06273 -0.05415,-0.161005 -0.183507,-0.210463 -0.129354,-0.04946 -0.417463,0.126993 -0.5475,0.06786 -0.130037,-0.05913 0.0038,-0.166858 -0.170912,-0.253117 -0.174729,-0.08626 -0.676712,0.123343 -0.86221,0.05157 -0.185498,-0.07177 -0.09109,-0.189806 -0.230113,-0.236036 -0.13902,-0.04623 -0.330715,0.08925 -0.542712,0.08537 -0.211997,-0.0039 -0.572355,-0.07462 -0.709439,-0.1384 -0.137084,-0.06378 -0.03778,-0.07739 -0.143551,-0.115675 -0.105769,-0.03828 -0.232189,0.01909 -0.490483,-0.008 -0.258294,-0.02709 -0.835418,-0.132227 -1.04796,-0.20444 -0.212542,-0.07221 -0.163035,-0.108695 -0.249821,-0.124514 -0.08679,-0.01582 -0.153245,0.04018 -0.248872,0.02542 -0.09563,-0.01476 -0.20038,-0.12697 -0.303271,-0.131084 -0.102891,-0.0041 -0.159563,0.101303 -0.272122,0.09262 -0.112559,-0.0087 -0.228349,-0.16458 -0.345481,-0.180755 -0.117132,-0.01618 -0.204205,0.08066 -0.312688,0.06586 -0.108483,-0.0148 -0.205513,-0.151766 -0.299452,-0.155405 -0.09394,-0.0036 -0.09609,0.08845 -0.208674,0.08854 -0.112588,8.6e-5 -0.275531,-0.157608 -0.413459,-0.174687 -0.137928,-0.01708 -0.269321,0.08637 -0.380524,0.05882 -0.111203,-0.02755 -0.148931,-0.172943 -0.242685,-0.180314 -0.09375,-0.0074 -0.137636,0.122036 -0.23207,0.121434 -0.0941,-5.99e-4 -0.160783,-0.139733 -0.267817,-0.144693 -0.106944,-0.005 -0.195329,0.143798 -0.311119,0.132386 -0.11579,-0.01141 -0.176149,-0.182017 -0.297311,-0.202828 -0.121162,-0.02081 -0.248248,0.116057 -0.365161,0.09655 -0.116913,-0.01951 -0.168055,-0.182775 -0.27725,-0.185279 -0.109195,-0.0025 -0.172572,0.178896 -0.275542,0.166385 -0.10297,-0.01251 -0.107028,-0.192454 -0.212542,-0.2124 -0.105514,-0.01995 -0.203798,0.164692 -0.315128,0.137488 -0.08287,-0.02025 -0.08059,-0.170333 -0.160939,-0.198983 -0.128621,-0.04586 -0.26494,0.09503 -0.401019,0.08368 -0.117839,-0.0098 -0.212331,-0.12365 -0.330458,-0.129006 -0.118952,-0.0054 -0.226172,0.121466 -0.343156,0.09926 -0.107227,-0.02036 -0.151395,-0.183569 -0.259305,-0.199925 -0.1034,-0.01567 -0.189556,0.112912 -0.294076,0.109336 -0.115738,-0.004 -0.201166,-0.133798 -0.316602,-0.143047 -0.0984,-0.0079 -0.187493,0.08575 -0.285859,0.07742 -0.131542,-0.01115 -0.238987,-0.155862 -0.359403,-0.166362 -0.120416,-0.0105 -0.216778,0.102783 -0.318173,0.08449 -0.101395,-0.01829 -0.132711,-0.147876 -0.235789,-0.167082 -0.103077,-0.01921 -0.248154,0.124908 -0.375057,0.11411 -0.126904,-0.0108 -0.227946,-0.160169 -0.332608,-0.166912 -0.104662,-0.0067 -0.158037,0.08526 -0.242719,0.08489 -0.08468,-3.74e-4 -0.168176,-0.07167 -0.236154,-0.08494 z"
       id="path827"
       inkscape:connector-curvature="0"
       sodipodi:nodetypes="zsssssssssssssssssssssssssssssssssszzczsssssssssszzzzzsscsssczzzcczzzszszszszszsszzczzssssczzcscsssssczcssszszzczssssczcsszzszszssszzszzzzzcczzzzzzzczczcssssssczsssssssszzssczzssszczzzzsssssssczcsszsczczczcczccszcsszcczzzzzccsszszzczzszsssszszssszzzzzssssszzzzzzzzzzzzzzzzzzzzzzzzzzzzzzzzzzzzzzzzzzzzzzzzzzzzzzzzzzzzzzzzzzzzzzzzzzzzzzzzzzzzzzzzzzzzzzzzzzzzzzzzzzzzzzzzzzzzzzzzzzzzzzzzzzzzzzzzzzzzzzzzzzzzzzzzzzzzzzzzzzzzzzzzzzzzzzzzzzzzzzzzzzzzzzzzzzzzzzzzzzzzzzzzzzzzzzzzzzzzzzzzzzzzzzzzzzzzzzzzzzzzzzzzzzzzzzzzzzzzzzzzzzzzzzzzssssssssszzzzzzz" />
  </g>
</svg>
